<?xml version="1.0" encoding="utf-8"?>
<!-- Generator: Adobe Illustrator 18.1.1, SVG Export Plug-In . SVG Version: 6.00 Build 0)  -->
<svg version="1.1" id="Layer_1" xmlns="http://www.w3.org/2000/svg" xmlns:xlink="http://www.w3.org/1999/xlink" x="0px" y="0px"
	 width="1920px" height="955px" viewBox="0 0 1920 955" enable-background="new 0 0 1920 955" xml:space="preserve">
<g id="Layer_3">
	<g>
		<path fill="#3AE8E3" d="M948.4,424.3c-0.3,0-0.5-0.1-0.7-0.3c-0.4-0.5-0.8-1.3-0.7-2.3c0-0.4,0.1-0.7,0.2-0.8c0,0,0,0,0,0
			c0,0,0,0,0,0c0-0.2-0.1-0.3-0.3-0.6c-0.3-0.3-0.7-0.8-0.6-1.6c0-0.4,0.2-0.7,0.4-1l-0.3-6c0-0.3,0.1-0.6,0.4-0.8
			c0.6-0.4,0.8-0.6,0.9-0.8c0,0-0.1-0.1-0.1-0.1c-0.2-0.2-0.6-0.7-0.6-1.4c0-0.5,0.2-0.9,0.3-1.1c0.1-0.2,0.1-0.3,0.2-0.5
			c0-0.1,0-0.2,0-0.3c0-0.4-0.1-0.8,0.3-1.2c0.1-0.2,0.3-0.3,0.5-0.4c-0.2,0-0.4-0.1-0.6-0.3c0,0-0.1-0.1-0.1-0.1
			c-0.3-0.3-0.5-0.7-0.6-1.7c-0.2-1.1-0.3-1.7,0-2.3c0.2-0.4,0.4-0.6,0.5-0.7c0.1-0.1,0.3-0.2,0.4-0.5c0-0.1,0.1-0.3,0.2-0.5
			c0.1-0.2,0.2-0.4,0.4-0.7c0.1-0.3,0.2-0.5,0.3-0.7c0-0.1,0.1-0.1,0.1-0.2c0,0,0-0.1,0-0.1c-0.1-0.2-0.2-0.4-0.2-0.8
			c-0.1-0.5-0.1-0.8-0.1-1.1c0-0.2,0-0.3,0-0.7c-0.1-0.4-0.2-0.7-0.3-0.9c-0.2-0.4-0.4-1,0-1.5c0,0,0,0,0,0
			c-0.2-0.2-0.3-0.5-0.3-0.9c0-0.7,0.5-1.1,0.8-1.3c0,0,0,0,0,0c-0.1-0.1-0.1-0.2-0.2-0.4c-0.3-0.8-0.2-1.9,0.4-2.6
			c0.1-0.1,0.2-0.2,0.3-0.3c0-0.1-0.1-0.2-0.1-0.2c-0.9-1.4-1.3-2.1-1.4-2.7c-0.4-1.5,0.6-3,1-3.5c0,0,0.1-0.1,0.1-0.1
			c0.2-0.2,0.4-0.5,0.7-0.7c0-0.5,0.1-1,0.1-1.5c0-0.5,0-0.9,0.1-1.4c-0.4-0.2-0.8-0.6-0.8-1.1c0-0.3,0.1-0.5,0.3-0.7
			c0,0,0-0.1,0-0.1c-0.2-0.6,0-1.2,0.3-1.5c0.1-0.1,0.1-0.1,0.2-0.2c-0.1-0.2-0.2-0.5-0.1-0.9c0-0.3,0.3-0.6,0.5-0.7
			c0-0.3,0-0.7,0-1c0-0.3,0-0.6,0-0.9c-0.3-0.2-0.6-0.5-0.7-0.9c-0.3-0.8-0.1-1.4,0-1.7c0.3-0.9,1-1.4,1.4-1.7
			c0.1-0.1,0.1-0.1,0.2-0.1c0.6-0.5,1-1.6,1-3.2c0-0.5,0.4-0.9,0.9-0.9s0.9,0.4,0.9,0.9c0,2.2-0.5,3.7-1.6,4.6
			c-0.1,0.1-0.2,0.2-0.3,0.2c-0.4,0.2-0.6,0.4-0.7,0.7c0,0.1,0,0.1-0.1,0.2c0,0-0.1,0.1,0,0.4c0,0,0.1,0.1,0.1,0.1
			c0.5,0,0.8,0.4,0.8,0.9c0,0.5,0,1-0.1,1.5c0,0.5,0,1,0,1.5c0,0.3-0.1,0.5-0.4,0.7c0.1,0.3,0.2,0.7,0,1.1c-0.1,0.2-0.2,0.3-0.3,0.4
			c0.3,0.2,0.3,0.5,0.3,0.7c0,0.3-0.1,0.5-0.2,0.6c0.2,0.2,0.3,0.5,0.3,0.7c0,0.6-0.1,1.3-0.1,1.9c0,0.7-0.1,1.3-0.1,2
			c0,0.3-0.2,0.6-0.5,0.7c0,0-0.2,0.2-0.5,0.5l0,0.1c-0.2,0.3-0.9,1.3-0.7,2.1c0.1,0.4,0.6,1.3,1.2,2.2c0.2,0.4,0.5,1.1,0.3,1.7
			c-0.2,0.5-0.5,0.7-0.7,0.8c-0.1,0-0.1,0-0.1,0.1c-0.1,0.1-0.1,0.5,0,0.8c0,0,0,0.1,0,0.1c0.1,0.1,0.3,0.4,0.3,0.7
			c0.1,0.8-0.4,1.2-0.7,1.5c0,0,0,0-0.1,0c0,0,0,0,0,0c0.2,0.2,0.6,0.7,0.4,1.3c0,0,0,0.1,0,0.1c-0.1,0.2-0.2,0.3-0.3,0.4
			c0,0,0,0,0,0.1c0.1,0.3,0.2,0.7,0.3,1.1c0.1,0.6,0.1,0.9,0.1,1.2c0,0.2,0,0.3,0,0.6c0,0.3,0.1,0.4,0.1,0.5
			c0.1,0.2,0.2,0.4,0.2,0.8c0,0.3-0.1,0.5-0.3,0.9c-0.1,0.2-0.2,0.4-0.3,0.7c-0.2,0.4-0.3,0.6-0.4,0.8c-0.1,0.1-0.1,0.2-0.1,0.2
			c0,0.1,0,0.1-0.1,0.2c-0.3,0.6-0.6,0.9-0.8,1.1c-0.1,0.1-0.1,0.1-0.1,0.1c0,0.1-0.1,0.1-0.1,0.2c0,0.1,0.1,0.6,0.2,1.1
			c0,0.4,0.1,0.6,0.1,0.7c0.3,0,0.7,0,1.2,0.4c0.3,0.3,0.5,0.7,0.5,1.2c0,0.5-0.2,0.9-0.5,1.2c-0.2,0.2-0.5,0.3-0.7,0.4
			c0,0.1,0,0.3,0,0.4c0,0,0,0.1,0,0.1c-0.1,0.6-0.3,0.9-0.4,1.1c-0.1,0.2-0.1,0.2-0.1,0.2c0,0,0,0.1,0.1,0.2c0.2,0.2,0.5,0.5,0.5,1
			c0,0,0,0.1,0,0.1c0,0.5-0.2,1.2-1.3,2l0.3,5.9c0,0.2-0.1,0.5-0.3,0.7c-0.1,0.1-0.1,0.1-0.2,0.2c0,0.1,0.1,0.2,0.2,0.4
			c0.2,0.3,0.6,0.7,0.7,1.4c0.1,0.5-0.1,0.8-0.1,1c0,0.1,0,0.1,0,0.2c0,0,0,0.1,0,0.1c-0.1,0.4,0.1,0.8,0.3,1.1
			c0.3,0.4,0.2,0.9-0.2,1.2C948.8,424.2,948.6,424.3,948.4,424.3z"/>
	</g>
	<g>
		<path fill="#3AE8E3" d="M901.7,416.7c-0.3,0-0.6-0.1-0.7-0.4c-0.3-0.4-0.2-0.9,0.2-1.2c1-0.7,1.6-1.4,1.8-2.2
			c0.1-0.2,0.1-0.4,0.1-0.6c0.1-0.5,0.1-1,0.5-1.5c0.6-0.7,1.2-1,1.8-1.2c0.4-1.1,0.8-2.1,1-2.9c0.2-0.7,0.3-1.1,0.4-1.7
			c0-0.3,0-0.5,0-0.7c0-0.2,0-0.4,0.1-0.8l0-0.2c0.1-0.5,0.3-1.3,1-2c0.2-0.2,0.4-0.4,0.6-0.5c-0.2-0.3-0.4-0.7-0.4-1.3
			c0-0.5,0.2-0.8,0.3-1c0-0.1,0-0.2-0.3-0.5c-0.3-0.3-0.6-0.7-0.8-1.5c-0.1-0.7,0.1-1.3,0.6-2.4l0.2-0.4c0.2-0.5,0.3-0.8,0.4-1.1
			c0.1-0.2,0.2-0.3,0.2-0.5c0-0.2,0-0.4-0.1-0.5c-0.1-0.3-0.2-0.6-0.1-1.1c0.1-0.7,0.5-1.2,0.8-1.5c0.1-0.2,0.3-0.3,0.4-0.6
			c0.2-0.3,0.2-0.5,0.3-1c0-0.4,0-1.1,0.2-2c0.3-1.6,0.5-2.6,1.3-3.5c0.2-0.2,0.4-0.4,0.5-0.5c0.3-0.3,0.4-0.4,0.4-0.5
			c0-0.1,0-0.1,0-0.3c-0.1-0.2-0.1-0.4-0.2-0.8c0,0,0-0.1,0-0.1c0,0,0-0.1,0-0.2c0-0.6-0.1-2,0.8-2.8c0.5-0.4,0.9-0.4,1.1-0.5
			c0,0,0.1,0,0.1,0c0.1-0.1,0.1-0.2,0.1-0.6c0-0.3,0.1-0.7,0.2-1.1c0.2-0.6,0.5-1.1,1.1-1.8c-0.1-0.3-0.2-0.6-0.3-1
			c-0.3-1.3,0-2.4,0.2-3l-0.2-0.6c-0.1-0.2-0.1-0.4,0-0.5l0.1-0.2c0.1-0.3,0.3-0.7,0.2-1.3c-0.1-0.8-0.4-1.2-0.6-1.5
			c-0.1-0.2-0.2-0.5-0.1-0.7c0.5-1.6,0.3-2.2,0.2-2.3c-0.3-0.4-0.5-0.9-0.3-1.5c0.1-0.3,0.3-0.5,0.5-0.6c0,0,0,0,0,0
			c-0.3-0.4-0.6-1.1-0.3-1.9c0.2-0.5,0.5-0.7,0.7-0.8c0.1-0.1,0.2-0.1,0.3-0.2c0.1-0.1,0.1-0.1,0.1-0.2c0-0.1,0.1-0.3,0.2-0.6
			c0,0,0-0.1,0.1-0.1c0.3-0.5,0.6-0.8,0.8-1c0.2-0.1,0.2-0.2,0.3-0.3c0.1-0.1,0.3-0.5,0-1.4c-0.1-0.5,0.1-0.9,0.6-1.1
			c0.5-0.1,0.9,0.1,1.1,0.6c0.4,1.4,0.1,2.2-0.2,2.7c-0.2,0.4-0.5,0.6-0.6,0.8c-0.2,0.2-0.3,0.3-0.4,0.5c0,0.1-0.1,0.2-0.1,0.3
			c-0.1,0.3-0.1,0.5-0.4,0.9c-0.3,0.4-0.6,0.5-0.7,0.6c0,0.1,0.1,0.2,0.2,0.3c0.2,0.4,0.6,1.1,0.2,1.8c-0.1,0.2-0.3,0.3-0.4,0.4
			c0.4,0.7,0.4,1.8,0,3.2c0.2,0.4,0.5,1.1,0.6,1.9c0.1,0.9-0.1,1.5-0.2,1.9l0.2,0.6c0.1,0.2,0.1,0.5,0,0.7c-0.1,0.1-0.5,1.1-0.2,2.2
			c0.1,0.5,0.2,0.8,0.4,1c0.3,0.4,0.2,0.9-0.2,1.2c-0.7,0.6-1,1-1.1,1.4c-0.1,0.2-0.1,0.5-0.1,0.8c-0.1,0.5-0.1,1.1-0.7,1.6
			c-0.4,0.4-0.9,0.5-1.1,0.5c-0.2,0-0.2,0-0.2,0.1c-0.3,0.2-0.2,1-0.2,1.3c0,0.1,0,0.2,0,0.2c0,0.3,0.1,0.4,0.1,0.5
			c0.1,0.3,0.2,0.6,0.1,1.1c-0.1,0.7-0.5,1.1-0.9,1.5c-0.1,0.1-0.3,0.2-0.4,0.4c-0.4,0.5-0.6,1.1-0.9,2.7c-0.2,0.8-0.2,1.4-0.2,1.8
			c0,0.6-0.1,1.1-0.5,1.9c-0.2,0.3-0.4,0.6-0.6,0.8c-0.3,0.3-0.3,0.4-0.4,0.7c0,0.2,0,0.2,0,0.4c0.1,0.2,0.2,0.6,0.2,1.1
			c0,0,0,0.1,0,0.1c-0.1,0.5-0.2,0.7-0.3,1c-0.1,0.2-0.2,0.5-0.4,0.9l-0.2,0.5c-0.3,0.6-0.5,1.2-0.5,1.4c0,0.2,0.2,0.4,0.4,0.7
			c0.3,0.3,0.7,0.8,0.7,1.6c0,0.4-0.2,0.7-0.2,0.9c-0.1,0.1-0.1,0.1-0.1,0.1c0,0.2,0,0.2,0.2,0.4c0.2,0.2,0.4,0.6,0.3,1.2
			c0,0.6-0.5,0.9-0.7,1c-0.1,0.1-0.2,0.2-0.4,0.3c-0.4,0.4-0.5,0.8-0.6,1.2l0,0.2c0,0.2,0,0.3,0,0.5c0,0.2,0,0.5-0.1,0.9
			c-0.1,0.8-0.2,1.2-0.4,1.9c-0.2,0.9-0.7,2.2-1.2,3.5c-0.1,0.3-0.3,0.4-0.6,0.5c-0.4,0.1-0.9,0.2-1.2,0.6c-0.1,0.1-0.1,0.3-0.2,0.7
			c0,0.3-0.1,0.6-0.2,0.9c-0.3,1.2-1.2,2.3-2.6,3.2C902,416.6,901.9,416.7,901.7,416.7z"/>
	</g>
	<g>
		<path fill="#3AE8E3" d="M886.1,380l-1.2-1.2c0.1-0.1,0.3-0.3,0.4-0.4c0-0.4,0.1-0.9,0.2-1.5c0.2-0.7,0.4-1.2,1-2.2
			c0.4-0.8,0.6-1.2,0.9-1.8l0.2-0.4c0.4-0.6,0.8-1.2,1.4-1.8c0.9-0.9,1.7-1.3,2.1-1.5c-0.1-0.2-0.1-0.3-0.1-0.4
			c0-0.6,0.3-0.9,0.6-1.2c0.1-0.1,0.3-0.3,0.5-0.5l0.2-0.2c0.2-0.3,0.3-0.3,0.3-0.5c0,0,0,0-0.1-0.3c-0.1-0.3-0.2-0.6-0.3-1.3
			c-0.1-1-0.1-1.7,0-2.2c0-0.2,0-0.4,0.1-0.5c0,0,0-0.1,0-0.1c0-0.5,0.4-0.8,0.9-0.8h1.5c0-0.1,0-0.1-0.1-0.2c-0.3-1-1-1.6-1.3-1.8
			h-1.7c-0.2,0-0.5-0.1-0.6-0.3c-0.2-0.2-0.2-0.4-0.2-0.7c0.1-0.8,0.3-1.9,1-3.3c0.8-1.6,1.7-2.6,2.3-3.2c-0.1-0.3-0.3-0.7-0.4-1
			c-0.2-0.5-0.4-1.1-0.6-1.6c-0.1-0.2-0.1-0.4,0-0.6c0.2-0.5,0.5-1.2,0.7-2.1c0.1-0.7,0.1-1.3,0-2c0,0,0-0.1,0-0.1
			c0-0.6-0.1-1.4-0.3-2.3c0-0.2,0-0.5,0.1-0.7c0.4-0.6,0.8-1.1,1.3-1.7c0.3-0.4,0.6-0.9,1-1.3c-0.1-0.5-0.1-1.2,0.2-1.9
			c0.1-0.3,0.3-0.6,0.6-0.9v-1c-0.3-0.3-0.5-0.6-0.8-0.9c-0.4-0.4-0.7-0.8-1.1-1.2c-0.1-0.2-0.2-0.4-0.2-0.6c0-0.8,0.2-1.5,0.3-1.9
			c0.3-0.9,0.8-1.8,1.1-2.2v-2.2c0-0.5,0.4-0.9,0.9-0.9s0.9,0.4,0.9,0.9v2.4c0,0.2,0,0.3-0.1,0.5c0,0-0.7,1-1,2
			c-0.1,0.2-0.2,0.6-0.2,1c0.3,0.3,0.5,0.6,0.8,0.9c0.4,0.4,0.7,0.8,1.1,1.2c0.1,0.2,0.2,0.4,0.2,0.6v1.8c0,0.3-0.2,0.6-0.5,0.8
			c-0.1,0-0.2,0.1-0.3,0.3c-0.2,0.4-0.1,0.7-0.1,0.8c0.2,0.3,0.2,0.7,0,1c-0.4,0.6-0.8,1.1-1.3,1.7c-0.3,0.5-0.7,0.9-1,1.4
			c0.2,0.8,0.2,1.6,0.2,2.2c0.1,0.8,0.1,1.6,0,2.5c-0.2,0.9-0.4,1.7-0.6,2.2c0.2,0.4,0.3,0.9,0.5,1.3c0.2,0.5,0.4,1.1,0.6,1.6
			c0.1,0.4,0,0.8-0.3,1c-0.7,0.5-1.6,1.5-2.3,3c-0.3,0.7-0.5,1.3-0.7,1.8h0.9c0.1,0,0.3,0,0.4,0.1c0.4,0.2,1.8,1,2.3,2.8
			c0.2,0.6,0.2,1.2,0.2,1.6c0,0.5-0.4,0.9-0.9,0.9h-1.7c0,0,0,0,0,0c0,0.1-0.1,0.6,0,1.7c0.1,0.4,0.2,0.7,0.2,0.9
			c0.1,0.3,0.2,0.7,0.1,1.2c-0.1,0.6-0.4,0.9-0.6,1.2l-0.1,0.2c-0.2,0.3-0.4,0.5-0.6,0.7c0,0,0.1,0.1,0.1,0.1c0.3,0.2,0.4,0.6,0.3,1
			s-0.4,0.6-0.8,0.6c0,0-0.1,0-0.3,0.2c0,0-0.1,0-0.1,0.1c-0.3,0.1-1,0.5-1.9,1.3c-0.5,0.5-0.8,0.9-1.1,1.5l-0.2,0.4
			c-0.3,0.5-0.5,0.8-0.8,1.6c-0.5,1-0.7,1.5-0.9,2c-0.2,0.5-0.2,1.1-0.2,1.4c0,0.3-0.1,0.6-0.4,0.7
			C886.5,379.7,886.3,379.8,886.1,380z"/>
	</g>
	<g>
		<path fill="#3AE8E3" d="M916,570c-0.1,0-0.2,0-0.3-0.1c-0.4-0.2-0.7-0.7-0.5-1.1c0.2-0.4,0.4-1.1,0.6-2.1c0.2-1,0.4-1.6,0.5-2.1
			c0.1-0.7,0.2-1.1,0.5-1.7c0.4-0.8,0.8-1.2,1.4-1.6c0.4-0.3,1-0.8,1.8-1.6c0.7-0.7,1.1-1.1,1.4-1.5c0.4-0.5,0.7-0.9,1.5-1.7
			c1.3-1.3,2.4-2.2,4.1-2.8c0,0,0.1,0,0.1,0c0.5-0.1,2-0.5,3.7-0.2c0.6,0.1,0.9,0.3,1.2,0.4c0.2,0.1,0.4,0.2,0.8,0.3
			c0.8,0.3,1.4,0.2,2.3,0.1c0.6-0.1,1.4-0.1,2.4-0.1c0.6,0,1.9,0,3.5,0.3c1.3,0.2,2.1,0.5,2.7,0.7c0.6,0.2,0.9,0.3,1.5,0.2
			c0.7,0,1-0.2,1.5-0.4c0.5-0.2,1.1-0.5,2.2-0.8c0.8-0.2,1.3-0.1,2.6-0.1c0.4,0,0.8,0,1.4,0.1c2.8,0.2,4.1,0.2,4.8,0.2
			c0.7,0,0.9,0,1.4,0.1c1.1,0.3,1.7,0.7,2.3,1c0.7,0.4,1.2,0.7,2.3,0.9c0.7,0.1,1.3,0.1,1.9,0.1c0.2,0,0.4,0,0.6,0
			c1.5,0,2.8-0.2,3.8-0.5c0.5-0.1,0.9,0.2,1,0.7c0.1,0.5-0.2,0.9-0.7,1c-0.8,0.2-2.3,0.5-4.2,0.5c-0.2,0-0.3,0-0.5,0
			c-0.6,0-1.4,0-2.3-0.1c-1.4-0.2-2.2-0.7-2.9-1.1c-0.5-0.3-1-0.6-1.9-0.8c-0.3-0.1-0.4-0.1-1-0.1c-0.7,0-2,0-4.9-0.2
			c-0.5,0-1,0-1.4-0.1c-1.2-0.1-1.6-0.1-2.2,0c-0.9,0.2-1.3,0.4-1.7,0.6c-0.5,0.3-1.1,0.5-2.1,0.6c-1,0.1-1.6-0.1-2.3-0.3
			c-0.5-0.2-1.2-0.4-2.4-0.6c-1.5-0.3-2.6-0.3-3.2-0.3c-0.9,0-1.6,0.1-2.2,0.1c-1,0.1-1.8,0.2-3-0.2c-0.5-0.2-0.8-0.3-1.1-0.4
			c-0.2-0.1-0.4-0.2-0.8-0.3c-1.3-0.2-2.5,0.1-2.9,0.2c-1.4,0.5-2.3,1.2-3.5,2.4c-0.8,0.7-1,1.1-1.4,1.5c-0.3,0.4-0.7,0.9-1.5,1.7
			c-0.9,0.9-1.5,1.4-2,1.7c-0.5,0.4-0.7,0.5-0.9,1c-0.2,0.4-0.2,0.6-0.4,1.3c-0.1,0.5-0.2,1.1-0.5,2.1c-0.2,1.1-0.4,1.9-0.6,2.4
			C916.7,569.8,916.3,570,916,570z"/>
	</g>
	<g>
		<path fill="#3AE8E3" d="M952.6,613.2c-0.3,0-0.6-0.1-0.7-0.4c-0.3-0.5-0.7-1.4-1.1-2.3l-0.2-0.5c-0.3-0.7-0.6-1.7-1.1-3.2
			c-0.5-1.7-0.7-2.5-0.9-3.1c-0.1-0.5-0.2-0.9-0.5-1.7c-0.4-1.2-0.9-2.1-1.8-3.9l-0.4-0.7c-0.6-1.1-1.4-2.4-2.4-3.9
			c-0.3-0.4-0.1-0.9,0.3-1.2c0.4-0.3,0.9-0.1,1.2,0.3c1,1.5,1.8,2.9,2.4,4l0.4,0.7c1,1.9,1.6,2.8,2,4.2c0.3,0.8,0.4,1.2,0.5,1.8
			c0.2,0.6,0.3,1.4,0.9,3c0.5,1.4,0.8,2.3,1.1,3.1l0.2,0.5c0.4,0.8,0.7,1.6,1,2.1c0.2,0.4,0.1,0.9-0.3,1.2
			C952.9,613.1,952.8,613.2,952.6,613.2z"/>
	</g>
	<g>
		<path fill="#3AE8E3" d="M1177.4,612.3c-2.5,0-4.5-0.2-5.8-0.4c-1.8-0.2-4.1-0.9-8.9-2.3c-3.2-1-4.3-1.4-5.4-1.8
			c-1.4-0.5-2-0.9-3.2-1.4c-0.4-0.2-0.8-0.4-1.3-0.6c-4.7-2.1-7-3.2-9.2-3.3c-1.1,0-1.7,0.1-2.3,0.3c-0.8,0.2-1.5,0.5-3.1,0.3
			c-2.7-0.2-4.7-1.3-6.6-2.4l-0.4-0.2c-2.6-1.5-4.3-3-5.1-3.8c-1.7-1.7-2.4-3-2.6-3.3c-0.5-0.8-0.8-1.6-1-2.3
			c-3.8-1-7.7-2.1-11.6-3.1c-3.8-1-7.7-2.1-11.5-3.1c-0.2,0-0.3-0.1-0.4-0.3c-1.3-1.4-2.3-3.1-3.1-5c-0.6-1.7-0.9-3-1.2-4.6l-0.2-1
			c-0.2-1.5-0.3-2.4-0.4-3.2c-0.1-0.9-0.1-1.7-0.4-3c-0.5-2.2-0.8-3.1-1.5-4.2c-0.8-1-1.9-1.9-5.8-3.3c-2.3-0.9-4.2-1.5-9.5-2.9
			c-5.7-1.5-7-1.7-8.7-1.3c-1,0.3-1.3,0.5-1.8,0.9c-0.5,0.4-1.2,0.8-2.5,1.3c-4.7,1.7-9.1,0.6-10.8,0.1c-2.2-0.5-3.8-1.3-5.3-2
			c-1.4-0.7-2.1-1.1-2.8-1.5c-0.7-0.4-1.3-0.8-2.6-1.4c-0.8-0.4-1.5-0.6-2-0.8c-1.3-0.5-2-0.8-2.6-1.7c-0.8-1.4-0.6-3-0.4-4.7l0-0.2
			c0.2-1.1,0.4-1.8,0.6-2.3c0.2-0.6,0.3-0.9,0.2-1.4c-0.1-0.6-0.2-0.7-0.8-1.3c-0.4-0.4-0.8-0.8-1.3-1.5c-1-1.3-1.3-2.2-1.6-3
			c-0.3-0.8-0.5-1.6-1.4-2.8c-1-1.6-1.8-2.6-3.1-3.2c-1.6-0.7-3.2-0.3-5,0.2c-1.1,0.3-4,1.2-6.2,3.8c-0.5,0.6-0.8,1-1,1.4
			c-0.4,0.7-0.8,1.3-1.8,1.8c-1,0.5-1.7,0.6-3,0.6c-0.5,0-1.2,0-2,0.1c-1.8,0.1-3.4,0.3-6.5,0.7c-1.2,0.1-1.8,0.2-2.3,0.3
			c-0.5,0.1-0.9,0.1-1.7,0.2c-2.2,0.2-3.2,0.2-4,0.1c-0.7,0-1.2-0.1-2.2,0.1c-1.8,0.2-3.9,0.9-7.8,2.4c-0.6,0.3-1.2,0.5-1.8,0.7
			c-0.4,0.1-0.8,0.3-1.1,0.4c-0.4,0.2-0.9,0-1.1-0.5c-0.2-0.4,0-0.9,0.5-1.1c0.3-0.1,0.7-0.3,1.2-0.4c0.5-0.2,1.1-0.4,1.7-0.7
			c4.1-1.5,6.2-2.2,8.2-2.5c1.2-0.1,1.8-0.1,2.5-0.1c0.8,0,1.7,0.1,3.8-0.1c0.8-0.1,1.1-0.1,1.5-0.2c0.5-0.1,1.1-0.2,2.3-0.3
			c3.2-0.4,4.8-0.6,6.7-0.7c0.9-0.1,1.5-0.1,2.1-0.1c1.3,0,1.7-0.1,2.3-0.4c0.6-0.3,0.8-0.6,1.1-1.2c0.3-0.4,0.6-1,1.2-1.6
			c2.5-3,5.8-4,6.9-4.3c2.1-0.6,4.1-1.1,6.2-0.2c1.8,0.8,2.7,2.1,3.8,3.8c1,1.4,1.3,2.4,1.6,3.2c0.3,0.8,0.5,1.5,1.3,2.5
			c0.5,0.6,0.9,1,1.2,1.3c0.6,0.6,1.1,1.1,1.3,2.2c0.2,0.9,0,1.6-0.3,2.3c-0.2,0.5-0.4,1.1-0.5,2l0,0.1c-0.2,1.5-0.3,2.7,0.2,3.6
			c0.2,0.4,0.6,0.5,1.7,1c0.5,0.2,1.2,0.5,2.1,0.9c1.4,0.6,2.1,1.1,2.8,1.5c0.6,0.4,1.3,0.8,2.6,1.4c1.4,0.7,3,1.4,5,1.8
			c1.6,0.4,5.6,1.5,9.8-0.1c1.1-0.4,1.6-0.7,2.1-1.1c0.6-0.4,1.1-0.8,2.4-1.1c2.2-0.6,3.7-0.2,9.5,1.3c5.4,1.4,7.3,2,9.7,2.9
			c4.3,1.6,5.6,2.5,6.6,3.9c0.9,1.3,1.2,2.5,1.8,4.8c0.3,1.4,0.4,2.3,0.5,3.3c0.1,0.8,0.1,1.6,0.3,3l0.2,1c0.3,1.6,0.5,2.8,1.1,4.3
			c0.7,1.6,1.5,3,2.6,4.2c3.7,1,7.5,2,11.2,3c4,1.1,8,2.1,12,3.2c0.3,0.1,0.5,0.3,0.6,0.6c0.2,0.6,0.5,1.5,1,2.4
			c0.1,0.3,0.7,1.4,2.3,2.9c0.6,0.6,2.3,2.1,4.7,3.6l0.4,0.2c1.9,1,3.6,2,5.9,2.2c1.3,0.1,1.8,0,2.5-0.2c0.7-0.2,1.4-0.4,2.9-0.4
			c2.5,0.1,4.9,1.2,9.8,3.5c0.5,0.3,1,0.5,1.3,0.6c1.1,0.5,1.7,0.8,3,1.3c1.1,0.4,2.2,0.8,5.3,1.8c4.7,1.4,6.9,2.1,8.6,2.3
			c1.3,0.2,3.1,0.4,5.3,0.4c0.6-0.5,1.1-1,1.6-1.4c0.6-0.6,1.3-1.1,1.9-1.7c0.2-0.2,0.4-0.2,0.7-0.2c0.4,0,0.9,0.1,1.4,0.1
			c0.5,0,0.9,0.1,1.4,0.1c0.5,0,0.8,0.5,0.8,0.9c0,0.5-0.5,0.8-0.9,0.8c-0.5,0-0.9-0.1-1.4-0.1c-0.4,0-0.7,0-1.1-0.1
			c-0.5,0.5-1.1,0.9-1.6,1.4c-0.6,0.6-1.3,1.1-1.9,1.7C1177.8,612.2,1177.6,612.3,1177.4,612.3z"/>
	</g>
	<g>
		<path fill="#3AE8E3" d="M992.1,651.6c-0.4,0-0.7-0.3-0.8-0.7c-0.2-1-0.4-1.9-0.6-3c-0.2-1.1-0.3-2.2-0.4-3.5c-0.1-2,0.1-3.4,0.4-5
			c0.1-0.8,0.3-1.5,0.4-2c0.3-1.2,0.3-1.5,0.1-1.7c-0.1-0.1-0.2-0.2-0.5-0.2c-0.4-0.1-1-0.2-1.6-0.7c-0.8-0.8-0.9-1.6-0.9-2.4
			c0-0.5-0.1-1.1-0.3-1.8c-0.4-1-0.9-1.6-1.4-2.1c-0.6-0.7-1.3-1.5-1-2.6c0.1-0.6,0.4-0.9,0.7-1.2c0.2-0.2,0.5-0.4,0.8-1
			c0.7-1.1,0.7-2.3,0.7-2.8l0-0.1c0-0.1,0-0.2-0.1-0.4c-0.1-0.5-0.2-1.4-0.6-2.2c-0.4-0.7-0.8-1.1-1.1-1.4c-0.4-0.4-0.9-0.8-1.1-1.7
			c-0.3-1.4,0.3-2.6,0.8-3.5c0.4-0.8,0.7-1.2,1-1.5c0.2-0.2,0.3-0.4,0.5-0.7c0.2-0.6,0.2-1,0.2-1.4c0-0.5-0.1-1.2,0.3-2
			c0.4-0.9,1-1.2,1.6-1.5c0.4-0.2,0.8-0.4,1.2-0.8c1-0.9,2-2.5,2-4.2c0-0.7-0.2-1.1-0.5-1.7c-0.4-0.6-0.8-1.5-1.1-2.9
			c-0.2-1.3-0.5-3,0.4-4.5c0.6-1,1.4-1.3,2.1-1.6c0.6-0.3,1.2-0.6,1.9-1.4c0,0,0-0.1,0.1-0.1c0.1-0.1,0.7-1.3,1.3-2.2
			c0.3-0.5,0.5-0.9,0.7-1.2c0.7-1.2,0.9-1.5,1.4-1.8c1-0.6,2.1-0.4,2.8-0.3c0,0,0.1,0,0.1,0l0,0c-0.1-0.3-0.2-0.6-0.4-1
			c-0.4-1.2-0.4-1.9-0.5-2.6c0-0.6-0.1-1-0.3-1.7c-0.3-0.9-0.5-1.2-0.9-1.5c-0.3-0.3-0.8-0.8-1.1-1.7c-0.8-2.5,0.3-5.6,1.8-7.3
			c0.5-0.6,1-1,1.4-1.4c0.2-0.2,0.6-0.5,0.6-0.7c0-0.3-0.6-0.7-1.4-1c-0.3-0.1-0.5-0.3-0.5-0.5c-0.2-0.6-0.8-2.4,0-4.1
			c0.5-0.9,1.1-1.3,1.6-1.7c0.5-0.3,0.8-0.6,1.2-1.2c0.2-0.3,0.2-0.3,0.3-0.9c0.1-0.5,0.2-1.3,0.6-2.8c0.2-1,0.5-1.9,0.7-2.6
			c0.1-0.2,0.1-0.5,0.2-0.6c0.3-1.2,0.7-2.1,0.8-2.6l0.1-0.2c0.4-1.1,0.8-3.1,0-7c-0.1-0.5,0.2-0.9,0.7-1c0.5-0.1,0.9,0.2,1,0.7
			c0.7,3.3,0.7,5.8,0,8l-0.1,0.3c-0.2,0.5-0.5,1.3-0.8,2.5c-0.1,0.2-0.1,0.4-0.2,0.7c-0.2,0.7-0.5,1.5-0.7,2.5
			c-0.4,1.4-0.5,2.2-0.6,2.7c-0.1,0.7-0.2,1-0.5,1.6c-0.6,0.9-1.2,1.3-1.7,1.7c-0.5,0.3-0.8,0.5-1.1,1.1c-0.4,0.8-0.3,1.7-0.1,2.4
			c0.8,0.3,2,1,2.2,2.3c0.1,1-0.6,1.6-1.2,2.2c-0.4,0.3-0.8,0.7-1.2,1.2c-1.2,1.5-2.1,3.9-1.5,5.7c0.2,0.6,0.4,0.8,0.7,1.1
			c0.4,0.4,0.9,0.9,1.3,2.2c0.3,0.9,0.4,1.5,0.4,2.1c0,0.6,0.1,1.2,0.4,2.1c0.1,0.4,0.2,0.7,0.3,0.9c0.3,0.6,0.6,1.4,0,2
			c-0.5,0.6-1.3,0.5-1.9,0.3c-0.6-0.1-1.1-0.2-1.7,0.1c-0.1,0.1-0.4,0.5-0.8,1.1c-0.2,0.3-0.4,0.7-0.7,1.2c-1.1,2-1.3,2.3-1.5,2.5
			c-0.9,1.1-1.8,1.5-2.5,1.9c-0.6,0.3-1,0.4-1.3,1c-0.5,0.9-0.3,2.1-0.2,3.3c0.2,1.1,0.5,1.7,0.8,2.3c0.4,0.7,0.8,1.3,0.8,2.5
			c0,2.3-1.3,4.3-2.6,5.4c-0.6,0.6-1.1,0.8-1.6,1c-0.5,0.3-0.7,0.3-0.8,0.7c-0.2,0.4-0.2,0.7-0.2,1.1c0,0.5,0.1,1.2-0.3,2.1
			c-0.3,0.6-0.6,1-0.8,1.2c-0.2,0.2-0.4,0.5-0.7,1c-0.4,0.7-0.8,1.6-0.6,2.4c0.1,0.3,0.2,0.4,0.6,0.8c0.4,0.4,1,0.9,1.5,1.9
			c0.6,1.1,0.8,2.2,0.8,2.8c0,0.1,0,0.2,0,0.3c0,0.1,0,0.1,0,0.2l0,0.1c0,0.7,0,2.2-0.9,3.7c-0.4,0.7-0.8,1.1-1.1,1.4
			c-0.1,0.1-0.2,0.1-0.2,0.2c-0.1,0.4,0.1,0.6,0.6,1.2c0.5,0.6,1.2,1.4,1.7,2.7c0.4,1,0.4,1.7,0.4,2.3c0,0.7,0.1,1,0.4,1.3
			c0.2,0.2,0.5,0.2,0.8,0.3c0.5,0.1,1.1,0.2,1.6,0.9c0.7,0.9,0.5,1.7,0.2,3.1c-0.1,0.5-0.3,1.1-0.4,1.9c-0.3,1.5-0.5,2.8-0.4,4.6
			c0.1,1.2,0.2,2.2,0.4,3.3c0.2,1.3,0.4,2.2,0.6,2.8c0.1,0.5-0.2,0.9-0.6,1C992.2,651.6,992.2,651.6,992.1,651.6z"/>
	</g>
	<g>
		<path fill="#3AE8E3" d="M953,536.4c-0.1,0-0.3,0-0.4-0.1c-0.4-0.2-0.6-0.8-0.3-1.2c0.4-0.7,0.7-1.4,0.6-2
			c-0.1-0.4-0.2-0.6-0.4-0.9c-0.2-0.3-0.4-0.7-0.6-1.3c-0.3-1.2,0-2,0.3-2.7c0.1-0.4,0.3-0.7,0.3-1c0.1-1.4-1.8-3-3.5-4
			c-0.4-0.3-0.5-0.8-0.3-1.2c0.3-0.4,0.8-0.5,1.2-0.3c3.1,1.9,4.5,3.7,4.3,5.6c0,0.6-0.2,1.1-0.4,1.5c-0.2,0.6-0.4,1-0.2,1.6
			c0.1,0.3,0.2,0.6,0.4,0.8c0.2,0.4,0.5,0.8,0.6,1.4c0.3,1.3-0.4,2.5-0.8,3.2C953.6,536.2,953.3,536.4,953,536.4z"/>
	</g>
	<g>
		<path fill="#3AE8E3" d="M964.8,549.5c-0.1,0-0.3,0-0.4-0.1c-0.4-0.2-1.2-0.7-1.8-1.6c-0.7-0.9-1-1.7-1.2-2.4
			c-0.1-0.3-0.2-0.6-0.4-0.9c-0.5-0.9-1.7-1.5-3.3-1.9c-0.5-0.1-0.7-0.6-0.6-1s0.6-0.7,1-0.6c2.1,0.5,3.6,1.4,4.4,2.8
			c0.2,0.5,0.4,0.9,0.5,1.2c0.2,0.6,0.4,1.2,0.9,1.9c0.5,0.6,1,1,1.2,1.1c0.4,0.2,0.6,0.7,0.4,1.2
			C965.4,549.3,965.1,549.5,964.8,549.5z"/>
	</g>
</g>
</svg>
