<?xml version="1.0" encoding="utf-8"?>
<!-- Generator: Adobe Illustrator 18.1.1, SVG Export Plug-In . SVG Version: 6.00 Build 0)  -->
<svg version="1.1" id="Layer_1" xmlns="http://www.w3.org/2000/svg" xmlns:xlink="http://www.w3.org/1999/xlink" x="0px" y="0px"
	 width="1920px" height="955px" viewBox="0 0 1920 955" enable-background="new 0 0 1920 955" xml:space="preserve">
<g>
	<path fill="#BABABA" d="M784.8,228.5c2.6,3.2,5.1,4.7,6.9,5.5c1.8,0.8,3.8,1.1,6,3c0.8,0.7,1.2,1.2,2.2,1.9c0,0,1.8,1.3,4.5,2
		c2.8,0.8,9.4,1.4,18.3,1.1c3.2-1.2,6.2-2.4,9.4-3.6c-0.2-0.5-0.5-0.9-0.7-1.4c3.3-4.8,6.5-9.5,9.8-14.3c0-2.6,0.1-5.2,0.1-7.6
		c-0.5-1-1.4-2.5-2.4-4.4c-2.1-4.1-2.2-4.8-3.4-6c-0.8-0.8-2.4-1.7-5.5-3.4c-4.7-2.5-5.2-2.4-5.9-3.5c-1.2-1.9-0.5-3.5-2.1-5.2
		c-0.8-0.9-1.7-1.3-2.4-1.5c-1.1,0.3-3.4,1.2-5.1,3.4c-0.5,0.7-1.4,1.9-2,4.5c-1.1,4.5-0.4,8.6,0.4,11.4c-0.7,1.8-1.1,3.3-1.4,4.4
		c-0.6,2.4-0.4,3.2-1.2,4.5c-0.9,1.3-2.1,2-3,2.5s-3,1.6-5.7,1.2c-0.9-0.1-3-0.4-4.6-2.1c-1.1-1.2-1.5-2.4-1.6-3.1
		c-0.7-0.2-2-0.4-3.5,0c-0.7,0.2-2.6,0.8-3.2,2.5c-0.4,0.9-0.2,1.8-0.1,2.2C787.5,224.4,786.2,226.5,784.8,228.5z"/>
</g>
<g>
	<path fill="#BABABA" d="M832.3,236.9c3.1-4.4,6.2-8.7,9.1-13.1c3.5,3.8,6.9,7.5,10.4,11.3c1.8,2.2,3.7,4.3,5.5,6.4
		c0.9,3.2,1.7,6.3,2.6,9.5c-0.8,0.6-1.3,1.2-1.6,1.7c-1.3,1.9-1.1,3.4-2.5,4.5c-0.6,0.5-1.2,0.7-1.6,0.7c-1.3,4.1-2.6,8.1-3.9,12.3
		c2.4,0.2,4.7,0.3,7,0.5c-1.5,2.2-2.9,4-4,5.4c-1.1,1.3-1.8,2.1-2.9,2.4c-0.9,0.2-1.5,0.1-3.4-0.4c-1-0.2-2.6-0.6-4.6-1
		c-0.1,2.6-0.4,5.5-0.9,8.5c-0.6,4-1.5,7.5-2.5,10.6c-3.7-2.1-7.4-4.2-11.1-6.3c1-4.3,1.9-8.5,2.9-12.8c1.9-1.4,3.5-2.5,4.5-3.4
		c1.3-1,1.9-1.6,3.4-2.7c1.4-1.1,2.6-2,3.4-2.5c-0.1-1-0.1-2.5,0.1-4.4c0.3-2,0.6-2.7,0.7-4c0.1-1.4-0.1-3.5-1.9-6.1
		c-0.8-0.2-1.6-0.4-2.4-0.6c-0.2-1.7-0.5-3.1-0.7-4c-0.6-2.1-1.2-3.3-0.7-4.6c0.3-0.8,0.8-1.3,1.2-1.6
		C836.4,241.3,834.3,239.1,832.3,236.9z"/>
</g>
<g>
	<path fill="#66D128" d="M1118.8,312.4c0.9-1.2,1.7-2.4,2.6-3.6c2.3-0.4,4.7-0.9,7-1.5c1.1-0.2,2-0.5,2.8-1.3
		c1.3-1.4,1.2-3.4,1.1-3.7c-0.1-1.1-0.6-2.1-2.2-4.1c-3.1-3.8-4.3-3.9-6-6.5c-1.1-1.7-1.5-3.2-1.9-4.3c-0.6-2.1-1.1-3.7-0.6-5.6
		c0.4-1.2,1-2.1,1.5-2.6c-3.4-5.4-6.8-10.6-10.2-16c-6.5,0.6-14.2,1.7-22.5,3.7c-8,2-15.1,4.5-21,6.8c-2.7,6.4-5.4,12.9-8,19.3
		c0.8,3.1,1.6,6.1,2.4,9.1c3.7,1.7,7.3,3.4,11,5.1C1089.7,309.2,1104.3,310.8,1118.8,312.4z"/>
</g>
<g>
	<g>
		<path fill="#66D128" d="M1126.2,327.9c2.8,5.9,2.5,9.8,1.7,12.5c-0.7,2.3-2,3.7-3.4,8c-1,3-0.9,4-1.5,6c-0.8,2.6-2.4,6.2-6.3,10
			c-2.7,0.6-4.8,1.4-6.2,2.1c-2.9,1.4-3.7,2.4-4.1,3c-0.7,1.1-0.9,2.3-0.9,3c-3.1-0.1-6.2-0.2-9.3-0.4c-1.2-2.4-2.5-4.7-3.7-7
			c-0.7,0.4-1.5,0.9-2.2,1.3c0.2,5.6,0.4,11.1,0.6,16.8c3.5,2.7,6.9,5.4,10.4,8c8.1-0.1,16.4-0.1,24.5-0.2c0.6-0.8,1.6-2.1,3-3.4
			c2.7-2.6,5.1-3.6,8.7-5.6c1.8-1,4.5-2.6,7.6-4.7c-0.4-13.1-0.9-26.3-1.3-39.4C1137.9,334.4,1132,331.2,1126.2,327.9z"/>
	</g>
</g>
<g>
	<g>
		<path fill="#66D128" d="M1093.9,403c21.4-1.3,42.8-2.6,64.2-3.9c2.4,12.9,4.7,25.8,7,38.7c-8,9.8-16.1,19.7-24.2,29.6
			c-3.2,0.4-7.8,1.1-13.2,2.6c-3.9,1.1-6.7,2.1-11,3.7c-3.8,1.4-8.8,3.5-14.9,6.2c-4.3-1.6-8.5-3.1-12.8-4.7
			c1.9-4.1,3.7-8.1,5.6-12.3c-5.4-5.5-10.8-10.9-16.2-16.4c1.9-1.6,3.7-3.2,5.6-4.9c0.6-8.1,1.2-16.4,1.9-24.5
			C1088.7,412.4,1091.3,407.7,1093.9,403z"/>
	</g>
</g>
<g>
	<path fill="#BABABA" d="M1159.6,395.6c0.4,1.9,0.7,3.7,1.1,5.6s0.7,3.7,1.1,5.6c1,0.1,2,0.2,3,0.4c0.4,0.8,0.9,1.6,1.3,2.4
		c1-0.1,2.2-0.4,3.6-0.9c2.9-1.2,4.8-3,5.8-4.1c-2.2-2.9-4.5-5.7-6.6-8.5c-1.4-0.9-2.9-1.7-4.3-2.6
		C1162.8,394.1,1161.2,394.9,1159.6,395.6z"/>
</g>
<g>
	<path fill="#66D128" d="M1011.8,392.6c1.9-2.5,3.7-5,5.6-7.4c0.2-2.4,0.4-4.9,0.6-7.2c-0.9-0.2-1.5-0.8-1.7-1.7
		c-0.1-0.8,0.1-1.6,0.7-2.1c3.8-0.1,7.5-0.2,11.3-0.4c1.1-0.1,2.9-0.1,4.9,0.4c1.9,0.5,3,1.1,5.8,2.6c1.4,0.7,3.5,1.9,6.2,3.2
		c3.2-0.4,6.4-0.9,9.6-1.3c1.9-0.2,4.6-0.3,7.8,0.2c3.2,0.5,4.5,1.2,9.6,3c6.2,2.1,6.2,1.8,10.8,3.4c2.5,0.9,6.2,2.3,10.6,4.5
		c-0.4,4.4-0.9,8.6-1.3,13c-2.5,4.7-5,9.3-7.4,14c-0.7,7.9-1.5,15.9-2.2,23.8c-6.6,4.4-13.3,8.6-19.9,13c-4.6,0.1-9,0.1-13.6,0.2
		c-1.1-2.1-2.8-4.9-5.2-7.8c-2.8-3.4-5.4-5.5-7-6.8c-2.4-2-5.8-4.4-10.2-6.6c-5.1-0.4-10-0.7-15.1-1.1c-0.7,0.4-1.4,0.9-2.1,1.3
		c-0.4-2.2-0.9-4.4-1.3-6.5c0.7-0.8,1.8-1.9,3.4-2.8c1.4-0.8,1.8-0.7,2.4-1.3c1.4-1.4,1.4-3.7,1.3-6c-0.1-2.5-0.5-2.5-0.6-4.3
		c0-2.8,1.1-4.3,2.1-6.8c0.7-1.9,1.4-4.8,1.3-8.5C1016.1,395,1013.9,393.8,1011.8,392.6z"/>
</g>
<g>
	<g>
		<path fill="#C01F25" d="M1054.8,378.7c0,0,4.6-0.3,7.8,0.2c3.2,0.5,4.5,1.2,9.6,3c6.2,2.1,6.2,1.8,10.8,3.4
			c0.6,0.2-17.9,4.1-17.9,4.1l11,9.9l-0.9,13.1c0,0,10.2,3.2,9.6,4.4c-0.7,7.9-1.5,15.9-2.2,23.8c-6.6,4.4-13.3,8.6-19.9,13
			c-4.6,0.1-9,0.1-13.6,0.2c-1.1-2.1-2.8-4.9-5.2-7.8c-2.8-3.4-5.4-5.5-7-6.8c-2.4-2-5.8-4.4-10.2-6.6c-5.1-0.4-10-0.7-15.1-1.1
			c-0.7,0.4-1.4,0.9-2.1,1.3c-0.4-2.2-0.9-4.4-1.3-6.5c0.7-0.8,1.8-1.9,3.4-2.8c1.4-0.8,1.8-0.7,2.4-1.3c1.4-1.4,1.4-3.7,1.3-6
			c-0.1-2.5-0.5-2.5-0.6-4.3c0-2.8,1.1-4.3,2.1-6.8c0.7-1.9,1.4-4.8,1.3-8.5C1016.1,395,1054.8,378.7,1054.8,378.7z"/>
	</g>
</g>
<g>
	<path fill="#BABABA" d="M866.6,243.5c0.4,0,1.1-0.1,1.9-0.4c1.3-0.5,1.7-1.1,2.6-1.7c1.9-1.2,4.2-0.8,4.5-0.7
		c2.5,0.5,3.9,2.4,4.3,3c0.4,0.6,0.9,1.8,1.7,4.3c1.2,3.6,1.3,4.4,1.3,5.1c0,1.2-0.2,1.2-0.6,3.6c-0.5,3.6-0.3,6-0.2,6.6
		c0.2,1.6,0.3,2.5,0.9,3.6c0.7,1.2,2.2,2.8,3.7,2.6c0.8-0.1,0.8-0.6,2.1-1.3c1.3-0.7,2-0.6,3.7-0.9c1.3-0.3,2.8-0.6,4.3-1.5
		c2.1-1.3,2.2-2.5,4.1-3.2c1-0.4,2-0.4,2.6-0.4c-0.6-14.3-1.2-28.5-1.9-42.8c-11.6,4.4-23.3,8.6-34.9,13
		C866.6,236,866.6,239.8,866.6,243.5z"/>
</g>
<g>
	<path fill="#BABABA" d="M928.7,228.8c-0.7,5.9,0,9.4,0.7,11.7c0.2,0.7,0.8,2.3,0.9,4.5c0.1,1.2,0,2.3-0.6,5.2
		c-0.8,4.5-1.3,5.9-1.9,9.1c-0.3,2-0.5,3.6-0.6,4.7c2.6-1.2,4.5-0.8,5.2-0.6c1.3,0.4,2.5,1.5,4.9,3.7c1.5,1.4,2.2,2.1,3,3.2
		c1.3,1.9,1,2.5,2.1,3.9c1.6,2.3,4.6,4.2,6.2,3.4c0.6-0.3,0.6-0.9,1.5-2.8c0.4-0.9,1.4-3,3-4.7c2-2.1,4.2-2.8,4.7-3
		c2.7-0.9,5.1-0.5,6.2-0.2c-0.2-1-0.5-2-0.7-3c1.5-3.9,3-7.8,4.5-12.1c1.5-4.3,2.8-8.3,3.9-12.3c-2.5-4.2-5-8.4-7.4-12.6
		c-2.1-0.3-3.9-0.5-5.1-0.6c-3.8-0.2-5.4,0.1-8-0.6c-1.8-0.5-3.1-1.2-3.9-1.7C941,225.7,934.8,227.2,928.7,228.8z"/>
</g>
<g>
	<path fill="#BABABA" d="M861.4,245.8c0.2,2.1,0.4,4.2,0.6,6.3c-0.6,0-1.4,0.1-2.1,0.6c-0.6,0.5-0.6,1-1.3,2.4c-0.4,1-0.9,2-1.7,2.8
		c-0.4,0.5-1.2,1.2-2.4,1.7c-1,3.4-2,6.8-3,10.2c2.9,0.1,5.9,0.2,8.7,0.4c-3,3.3-6,6.5-8.9,9.8c-2.5-0.4-5-0.9-7.4-1.3
		c-0.3,2.9-0.7,5.9-1.3,9.1s-1.3,6.2-2.1,8.9c0.9-0.4,2.4-1,4.1-1.1c2.3-0.2,4,0.3,7,1.3c7.5,2.5,6.8,2.6,9.3,3.2
		c3.4,0.7,4,0.3,8,1.3c2,0.5,3.3,0.8,5.1,1.5c2.7,1,4,1.9,6.3,2.1c1.2,0.1,1.3-0.1,2.8-0.2c4.1-0.2,7.3,1,9.3,1.7
		c1.6,0.6,3.7,1.5,6,3c1.5-1.7,3-3.4,4.5-5.1c-0.8-0.1-1.6-0.1-2.4-0.2c-0.2-0.7-0.6-2.4,0-4.5s1.9-3.4,2.4-3.9
		c1.4-4.2,2.7-8.3,4.1-12.5c-1.6-0.4-3.2-0.7-4.9-1.1c2.1-6,4.1-11.9,6.2-17.9c-0.9-0.2-2.2-0.3-3.7,0c-2.3,0.5-2.7,1.7-5.1,2.8
		c-3.4,1.6-4.6,0.2-7.2,1.9c-2.3,1.4-2,2.8-3.7,3.2c-2.8,0.6-5.7-2.6-6.3-3.4c-0.6-0.7-1.6-1.8-2.2-3.6c-1.1-3,0.2-4.4,0-9.1
		c-0.1-1.3-0.3-2.6-0.7-5.1c-1.2-6.5-2.3-7.4-2.8-7.8c-1.1-0.8-2.7-1.1-4.1-0.7c-2.5,0.7-2.6,3.3-4.9,4.3
		C866.4,247.4,864.5,247.4,861.4,245.8z"/>
</g>
<g>
	<path fill="#BABABA" d="M909.3,264.5c-1.9,5.6-3.7,11.1-5.6,16.8c1.6,0.4,3.1,0.7,4.7,1.1c-1.4,4.6-2.7,9-4.1,13.6
		c-0.5,0.7-1.2,1.5-1.7,2.6c-0.9,1.8-1.2,3.4-1.3,4.5c1.1,0.1,2.1,0.2,3.2,0.4c-1.8,2.3-3.6,4.6-5.4,6.8c0.7,0.5,1.6,1.3,2.8,2.2
		c3.9,3.2,5,4.1,7.2,6c5.3,4.3,7.9,6.4,11.1,7.8c1.1,0.5,2.8,1.2,5.2,1.7c2.7,0.5,5.4,0.3,10.4-0.2c6-0.6,7.2-1.1,8.3-1.9
		c1.7-1.1,2.6-2.6,3.2-3.6c1.2-0.2,2.7-0.2,4.5,0c2.2,0.3,3.9,0.9,5.1,1.5c2.9-0.6,5.7-1.2,8.5-1.9c-2.1-3.2-4.1-6.4-6.2-9.6
		c0.9-2.6,1.9-5.9,2.2-9.8c0.2-1.8,0.4-5.7-0.4-10.6c-0.4-2.5-1-4.6-1.5-6.2c0.7-2.3,1.5-4.6,2.2-6.8c-3.5-0.9-6.9-1.9-10.4-2.8
		c-0.2,0.5-0.6,1.4-1.5,2.2c-0.2,0.2-1.5,1.4-3.2,1.5c-2.5,0.2-4.4-2-6-3.7c-1.7-1.9-1.4-2.3-3.2-4.7c-2.1-2.8-3.7-4.8-6.2-5.4
		c-2-0.5-3.9,0.1-6.6,1.1c-2.2,0.8-2.9,1.3-3.9,1.7C919,269.6,915.4,269.3,909.3,264.5z"/>
</g>
<g>
	<path fill="#BABABA" d="M961,274.7c-0.1,0.9-0.2,1.9-0.4,2.8c1.1,0.1,2.1,0.2,3.2,0.4c-0.8,2.5-1.6,5-2.4,7.4
		c0.6,1.1,1.1,2.5,1.5,4.1c1.1,4.4,0.4,8.2-0.2,10.4c5.9-0.9,11.6-1.9,17.5-2.8c0.1,0.5,0.3,1.8,1.3,3c1.4,1.5,3.2,1.7,3.7,1.7
		c1.5,0.1,2.7-0.5,3.2-0.7c3.6,2.3,7,4.6,10.6,6.8c2-1.8,4-3.6,6-5.4c-4.6-8.2-5.9-11.6-6.2-13c0-0.1-0.2-1.2-0.7-2.6
		c-0.4-1.1-0.8-2-1.5-2.6c-1-0.8-2.1-0.7-3.9-0.7c-2.4,0-4.1-0.2-7.4-0.6c-3.1-0.3-4.6-0.5-5.6-1.3c-1.7-1.3-1.3-2.7-3-4.1
		c-1.3-1.1-2.8-1.4-5.1-1.7C968.8,275.4,965.2,275,961,274.7z"/>
</g>
<g>
	<path fill="#BABABA" d="M987.4,281c1.3,0.1,3.1,0.3,5.2,0.7c3,0.6,4.6,1,5.4,1.9c1.5,1.6,0.4,3.1,2.2,6.2c0.8,1.3,1.1,1.3,2.1,2.9
		c1.1,1.8,1.6,3.5,1.9,4.7c0.3-0.7,0.9-2.4,1.8-4.7c1.2-3.2,1.5-4.1,2.4-4.5c0.3-0.2,1.7-0.7,4.3,0.9c0.2-0.2,0.8-0.9,2-1
		s2.1,0.5,2.2,0.7c0-0.5,0-0.9,0-1.4c-0.4-0.2-1.2-0.7-1.8-1.6c-0.2-0.4-1-1.6-0.6-3c0.3-1,1-1.6,1.3-1.8c-0.4-0.7-0.8-1-1.2-1.2
		c-0.9-0.4-1.6,0.2-2.7-0.1c-0.7-0.2-1.3-0.5-1.7-0.9c0.1-1.8,0.6-2.9,1.1-3.6c0.3-0.3,0.8-0.9,2-1.9c1.5-1.3,1.6-1.3,1.8-1.7
		c0.5-0.9,0.8-2.4,0.1-3.6s-2.3-1.9-3-1.4c-0.6,0.4,0,1.4-0.7,2.1c-0.4,0.3-0.9,0.3-2,0.4c-1.2,0-1.6-0.1-2,0.2
		c-0.5,0.4-0.3,0.9-0.7,1c-0.5,0.2-0.9-0.7-2.1-1c-0.3-0.1-1.2-0.3-1.8,0.1c-0.7,0.6-0.1,1.7-0.7,2.4c-0.8,0.8-2-0.2-3.1,0.7
		c-0.5,0.4-0.3,0.7-1.2,2.2c-0.7,1.1-1,1.7-1.6,1.9c-0.9,0.3-1.9-0.3-2.5-0.8c-1.2-1.1-0.8-2.4-1.8-2.8c-0.7-0.3-1.7-0.1-2.1,0.5
		c-0.4,0.6,0.4,1.3,0,2s-1.4,0.3-2.2,0.7C987.2,276.5,986.7,277.7,987.4,281z"/>
</g>
<g>
	<path fill="#BABABA" d="M1008.6,288.7c-0.4,0.6-1,1.5-1.6,2.7c-0.7,1.5-1.6,3.4-1.6,6c0,1,0,2.6,1,4.3c0.8,1.4,1.3,1.2,3.1,3.1
		c1.6,1.8,1.4,2.2,3.1,3.8c1.7,1.6,2.7,2,3.5,2.1c0.6,0.1,0.9-0.1,1.8-0.2c1.8-0.2,3.5-0.1,4.7,0.1c1.9,0.4,3.1,1.4,4.7,2.6
		c2,1.6,3.4,3.4,3.9,4.2c1.3,1.8,1.3,2.3,2.2,3c1.6,1.3,3.8,1.1,5.4,0.8c-1-2-1.1-3.6-1.1-4.7c0-0.8,0.2-1.7,0.6-3.5
		c0.2-1,0.5-2.5,0.9-4.5c-1.9-0.3-3.7-0.6-5.6-0.8c-1.7-1.4-3.4-2.7-5.1-4.1c0.1-1.7,0.1-3.4,0.2-5.2c-4.6-3.3-9.1-6.5-13.7-9.7
		c-0.5,0.5-1,0.9-1.5,1.4C1011.8,289.6,1010.2,289.1,1008.6,288.7z"/>
</g>
<g>
	<path fill="#BABABA" d="M963.1,300.7c5.4-0.8,10.6-1.7,16-2.5c0.2,0.4,0.5,1,0.9,1.6c0.4,0.5,1.3,1.7,2.5,2.3
		c2.5,1.4,5.3,0.3,5.8,0.1c3.6,2.4,7,4.7,10.6,7c2.2-2.1,4.4-4.2,6.6-6.2c2.3,2.5,4.6,4.9,6.8,7.3c-0.1,0.3-0.2,0.9-0.1,1.6
		c0.3,1.3,1.3,2,1.7,2.2c2.3,1.5,5.3,0,5.5-0.1c3.2,1.2,6.3,2.4,9.6,3.6c0,0.4,0.1,1.1,0.4,1.8c0.6,1.6,1.7,2.4,2.2,2.7
		c2.6,2,6.1,1.1,6.5,1c-0.2,0.7-0.4,1.7-0.3,2.9c0.1,1.4,0.5,2.4,1.2,4c2.3,5.2,2.6,5.6,2.8,6.8c0.2,1.1,0,1.1-0.1,4.2
		c-0.2,5.7,0.5,6.9-0.1,10.6c-0.1,0.8-0.4,2-1,4.3c-1.9,7.3-2.9,11-4.8,12.7c-0.7,0.6-1.6,1.3-6.9,2.7c-3.4,0.9-8.2,1.9-14.2,2.6
		c-0.8-1-1.6-1.6-2.2-2c-0.9-0.6-1.6-0.7-4-1.4c-1-0.3-1.8-0.6-2.3-0.7c1.3-4.3,2.6-8.6,3.9-12.9c-1.1-0.1-2.1-0.2-3.2-0.3
		c-0.1-0.9-0.4-1.5-0.7-1.8c-0.7-0.8-1.6-0.7-2.5-1.6c-0.5-0.5-0.8-1-0.9-1.3c0.2-0.8,0.5-1.8-0.1-2.5c-0.4-0.5-0.9-0.5-2.4-0.8
		c-1.8-0.4-2.7-0.7-3.3-1.1c-0.5-0.4-1.1-1.3-1.2-3.1c-0.9,0.3-2.2,0.8-3.9,0.8c-2,0.1-3-0.4-5.5-0.8c-2.2-0.4-4.5-0.9-7.1-0.7
		c-2.4,0.2-4.2,0.3-6.2,1.4c-1.3,0.7-2.4,1.7-4.3,1.9c-0.4,0-1.2,0.1-2.1-0.2c-2.1-0.7-3-2.6-3.3-3.1c0.9-3.2,1.9-6,2.8-8.1
		c1.7-4,2.5-6,3.8-7.5c1.1-1.4,2.7-2.9,3.9-5.6c0.6-1.3,0.9-2.3,0.4-3c-0.4-0.6-1.4-1-1.9-0.7c-0.6,0.4-0.1,1.5-0.7,2
		c-0.5,0.3-1.1-0.1-2.1-0.2c-0.8-0.1-1.8,0-3.3,0.8c-1.7-2.7-3.4-5.4-5.2-8.1C962,309.4,962.5,305,963.1,300.7z"/>
</g>
<g>
	<path fill="#BABABA" d="M998,394.5c-3.5,3.8-6.9,7.5-10.4,11.2c1.7,1.4,3.4,2.7,5.2,4.1c-0.1,0.3-0.1,0.7-0.2,1
		c-0.7,0.7-1.8,1.7-3.1,2.9c-1.4,1.4-2.1,2-2.8,2.9s-1.2,1.7-1.4,2.1c-1.2,2-3.9,6.2-7.5,12.1c0.1-0.1,1.4-0.9,2.5-0.3
		c0.2,0.1,0.6,0.3,0.8,0.8c0.4,0.9-0.1,1.8-0.2,1.9c0.5-0.4,1.3-1,2.3-1.5c1.3-0.7,2.5-0.9,4.7-1.4c0.8-0.2,1.7-0.4,2.9-0.6
		c-0.1,1.1-0.2,2.2-0.4,3.4c2.3-0.1,4.6-0.2,6.8-0.3c0.2,0.4,0.4,0.7,0.7,1.1c0.2-0.3,0.4-0.8,0.6-1.5c0.1-0.9-0.1-1.3,0.3-1.7
		c0.4-0.4,1,0,1.3-0.4c0.5-0.5-0.5-1.6-0.3-3.5c0-0.4,0.1-1.4,0.8-2.2c0.6-0.8,1.1-0.7,1.4-1.3c0.6-1.1-0.4-2.2,0.1-2.6
		c0.4-0.4,1.1,0.5,2.4,0.4c1.1-0.1,1.5-0.7,2.1-0.5c0.5,0.3,0.3,0.9,0.8,1.3c0.2,0.1,0.5,0.3,2.2,0.1c1.5-0.2,2.2-0.3,2.8-0.7
		c0.9-0.6,1.2-1.5,1.6-2.4c0.3-0.6,0.7-1.7,0.6-3.1c-0.1-1.2-0.5-1.5-0.7-2.7c-0.2-1,0-1.8,0.2-2.9c0.3-1.7,0.7-2.4,1.6-5.1
		c0.5-1.5,0.8-2.3,1-3.4c0.7-2.7,1-4.1,0.4-5.2c-0.9-1.6-3-2-3.8-2.2c-1.5-0.3-2.7,0-3.4,0.2C1005.9,394.7,1002,394.6,998,394.5z"/>
</g>
<g>
	<path fill="#BABABA" d="M899,311c1.5,1.2,3.8,3.1,6.6,5.5c5.9,5.1,6.7,6.2,9.6,8.1c5.2,3.4,10.1,4.4,11.3,4.7
		c3.1,0.6,9.4,1.8,15.8-1.4c2.8-1.4,4.7-3.2,5.9-4.5c1.1-0.1,2.4-0.1,4,0.2c1.7,0.3,3.1,0.8,4.1,1.2c2.2-0.3,4.5-0.7,6.8-1.2
		c2.7-0.6,5.2-1.3,7.4-2c0.1,0,0.9,0.5,1.7,0.1c0.5-0.2,0.8-0.7,0.8-0.8c-0.1,0.8-0.2,1.7-0.4,2.5c-1.5,1.6-3.5,3.9-5.3,6.8
		c-1.1,1.8-1.8,3.2-2.2,4c-1.1,2.3-2.4,5.7-3.1,10.1c-4,6-7.8,11.9-11.8,17.9c0.2,0.4,0.4,1,0.4,1.8c0,0.4-0.1,1-0.7,2.6
		c-0.3,0.7-0.7,1.6-1.3,2.6c1.1,0.1,2.2,0.2,3.3,0.3c-0.4,1.2-0.9,2.3-1.3,3.5c-2.4-0.7-4.8-1.3-7.1-2c-0.1,0.6-0.1,1.2-0.2,1.9
		c-3,0.2-6,0.4-8.9,0.6c-0.2,0.5-0.4,0.9-0.6,1.4c-1,0.1-1.9,0.2-2.9,0.3c-0.3,2.1-0.6,4.1-0.9,6.2c-1.5-2-3.1-3.9-4.6-5.9
		c-0.5,0.2-1.9,0.6-3.7,0.2c-1.3-0.3-2.1-1-2.5-1.4c-0.8-0.6-1.7-1.1-7.7-2.2c-5.6-1-8.4-1.5-10.2-0.9c-2.2,0.6-3.7,1.8-4.7,2.7
		c-1,3.6-2,7.1-3,10.8c-2.2-1.4-4.4-2.9-6.5-4.3c0-1.1,0.2-2.6,0.9-4.1c0.3-0.7,0.6-1.3,1.1-1.9c1.5-1.6,3.1-1.2,3.7-2.4
		c0.5-1.1-0.5-1.9,0-2.6c0.7-0.9,2.4,0,3.1-0.8c0.7-0.9-0.2-2.7-0.4-3c-0.5-1-1-1.1-1.7-2.1c-0.5-0.7-1.7-2.2-1.6-3.7
		c0.2-2.3,3.3-2.7,3.4-5c0.1-1.1-0.7-1.1-0.9-2.8c-0.3-2,0.7-2.5,0.7-4.9c-0.1-1.7-0.6-1.9-0.3-3c0.3-1.4,1.2-1.4,1.8-2.8
		c0.6-1.6,0.2-3.3-0.1-4.6c-0.4-1.7-1-2.3-0.7-3.5c0.2-0.8,0.6-0.8,0.9-1.7c0.6-1.4,0.1-2.5,0-3.8c0-1.1,0.2-2.6,1.5-4.6
		C898.8,319.4,898.9,315.2,899,311z"/>
</g>
<g>
	<path fill="#BABABA" d="M962.9,344.9c-3.8,5.8-7.5,11.5-11.2,17.3c0.1,0.4,0.2,1,0.2,1.7c0,0.6-0.2,1.1-0.9,2.9
		c-0.2,0.5-0.4,1.1-0.7,1.8c1,0.2,2,0.3,3,0.5c-0.6,1.7-1.2,3.4-1.8,5.1c-2.3-0.6-4.6-1.2-6.8-1.9c-0.1,0.7-0.2,1.3-0.4,2
		c-3.2,0-6.2,0.1-9.4,0.1c-0.1,0.6-0.2,1.1-0.3,1.7c-0.9,0-1.7,0.1-2.6,0.1c-0.3,2-0.6,3.9-0.8,5.9c2.4,2.6,4.7,5.2,7,7.7
		c1.9,0.2,3.7,0.5,5.6,0.7c4.6,4.7,9.1,9.3,13.8,14c0.2-0.4,0.7-0.9,1.4-1.2c0.6-0.3,1.2-0.2,2.9,0.1c0.8,0.2,1.9,0.4,3.1,0.7
		c0.1-1.2,0.1-2.5,0.2-3.7c5.2,1.2,10.3,2.5,15.5,3.7c0.6,0.2,1.7,0.6,3.1,0.5c0,0,1.3-0.1,2.7-0.8c2-1.1,6.3-4.8,11.6-10.1
		c4.1,0.2,8.1,0.3,12.2,0.5c2.2-2.9,4.3-5.9,6.4-8.7c0.1-1.6,0.1-3,0.1-3.9c0-3-0.2-3.5-0.4-4c-0.4-1-1.1-1.7-2.2-2.8
		c-0.9-0.8-1.4-1.4-2.3-1.9c-0.5-0.3-1-0.4-3.6-0.9c-0.8-0.2-1.9-0.4-3.2-0.6c1.4-4.6,2.8-9,4.2-13.6c-1.1-0.2-2.2-0.4-3.4-0.6
		c-0.1-0.4-0.4-0.9-0.8-1.4c-0.2-0.2-0.5-0.5-0.8-0.7c-0.7-0.3-1.4-0.1-1.7,0c-0.1-1.7-0.2-3.4-0.4-5.1c-0.6,0-1.5-0.1-2.5-0.3
		c-0.7-0.2-1.5-0.3-2.1-0.7c-1.6-0.9-2-2.9-2.2-3.7c-1.9,0.6-3.8,1.2-5.7,1.9c-6.6,0.3-13.3,0.6-19.9,0.9c-0.5,0.1-1.3,0.1-2.2-0.1
		c-0.4-0.1-0.9-0.3-2.2-1.1C964.8,346.4,963.9,345.8,962.9,344.9z"/>
</g>
<g>
	<path fill="#BABABA" d="M953.5,408.1c0.9-1.1,1.8-0.9,3.7-2c1.6-0.9,1.5-1.2,2.5-1.5c0.9-0.2,1.3,0,3,0.1c0.8,0.1,1.9,0.1,3.3,0.1
		c0-1.2-0.1-2.4-0.1-3.6c1.1,0.2,2.1,0.5,3.2,0.7c6.5,1.6,7.6,1.8,9.2,2.2c2.4,0.7,3.9,1.1,5.7,1.8c3.5,1.3,6.1,2.9,7.8,4
		c-1,1-2.4,2.3-4,4c-1.8,1.9-2.9,3-4,4.4c-1.5,1.8-4.3,5.2-6.2,10.3c-0.5,1.5-1.2,3.5-1.6,6c-0.5,0.4-1.3,1-2.3,1.4
		c-1.7,0.7-3.2,0.7-4.9,0.7c-0.9,0-2.2,0-3.7-0.3c-1-2.2-2.3-3.4-3.3-4.1c-1.5-1-2.6-1.2-3.8-2.7c-0.8-1-0.7-1.4-1.4-2.5
		c-0.6-1-1.7-2.3-3.7-3.5c0-1.1,0-2.5,0.4-4c0.6-2.5,1.6-4.4,2.4-5.5c-1-1.6-2.1-3.1-3.1-4.7C952.7,409.1,953,408.6,953.5,408.1z"/>
</g>
<g>
	<path fill="#FBAF16" d="M978.7,434c0,1.5,0.1,3.1,0.1,4.6c0.5,0.4,1.2,1,2.2,1.2c1.5,0.4,2.8,0,3.3-0.2c1.6-0.5,0.4,0.2,8.5-0.8
		c5.4-0.7,8-1,9.3-1.5c2.1-0.8,4.5-2.2,6.8-4.7c-0.7-2.2-1.3-4.5-2-6.6c0-0.4,0.1-0.9,0.5-1.5c0.9-1.4,2.9-1.4,3-1.4
		c-1.3-0.1-2.3-0.3-3-0.5c-0.5-0.1-1.2-0.3-2.6-0.7c-0.8-0.2-1.2-0.3-1.5-0.1c-0.7,0.4-0.7,1.6-0.7,1.9c-0.4,0.3-0.9,0.9-1.2,1.7
		c-0.4,0.8-0.4,1.6-0.4,2.2c0,1.6,0.5,2.1,0.1,2.7s-1,0.3-1.5,0.9c-0.7,0.8-0.1,1.6-0.7,2.6c-0.4,0.6-1.2,1.2-1.8,0.9
		c-0.4-0.2-0.5-0.9-0.6-1c-2.3,0-4.6,0.1-6.8,0.1c0.1-1,0.1-2.1,0.2-3.1c-1.9,0-3.1,0.4-3.9,0.8c-0.8,0.4-1.2,0.8-2.5,1.5
		c-0.7,0.4-1.3,0.6-2.1,0.8C980.5,434.1,979.5,434.1,978.7,434z"/>
</g>
<g>
	<path fill="#C01F25" d="M996.3,453.8c4,5.1,7.8,10.1,11.8,15.3c1.5-0.3,3-0.7,4.5-1c1.7-1.3,3.3-2.7,5-4c1.5-0.8,3.6-1.9,6.1-2.9
		c1.6-0.7,4.6-1.8,9.7-3.1c3.8-0.9,8.7-2,14.9-2.7c-1.3-4.1-3.2-6.8-4.5-8.4c-1.8-2.2-3.5-3.7-4.8-4.7c-2.5-2-3.6-2.4-6.7-4.7
		c-1.4-1-3.4-2.4-5.6-4.4c-4.7-0.4-9.2-0.7-13.9-1.1c-2.8,1.8-5.6,3.6-8.3,5.4c0.1,1,0.1,2.1,0.2,3.1c-2,3.7-4.1,7.3-6.1,11
		C997.8,452.3,997,453,996.3,453.8z"/>
</g>
<g>
	<g>
		<path fill="#8E23AA" d="M1048.7,456.3c4.9-0.5,9.8-0.9,14.7-1.4c4.7-2.7,9.3-5.4,14-8c5.5,5.3,10.9,10.6,16.4,15.9
			c-2.6,5.7-5.2,11.2-7.8,16.9c-1,0.2-2.3,0.5-3.9,0.7c-3.2,0.6-4.8,0.9-6.2,0.9c-3.1,0.2-3.4-0.3-5.9,0.1c-1.6,0.3-2.9,0.5-4.1,1.3
			c-1.3,0.9-2,2-3.5,5.6c-0.8,1.9-1.7,4.3-2.7,7.1c-2.2-0.2-4.5-0.3-6.6-0.5c0.5-2.5,1-5.1,1.5-7.5c-1.7-0.1-3.3-0.2-5-0.3
			c-0.7-2.6-1.3-4.8-1.8-6.2c-1-3.2-1.3-3.7-1.7-5.6c-0.5-2-0.6-3.6-0.9-6.2c-0.2-2.2-0.4-4-0.5-5.3c1.5,0,3,0,4.5,0
			C1049,461.3,1048.9,458.8,1048.7,456.3z"/>
	</g>
</g>
<g>
	<path fill="#8E23AA" d="M1013.1,468.6c0.6-0.4,1.5-1.1,2.6-1.8c1.3-0.9,3.6-2.3,5.5-3.4c0.9-0.5,2.1-1,6.9-2.6s7.2-2.4,9.4-2.8
		c2.4-0.5,5.9-1.1,10.1-1.1c0.1,2.1,0.2,4.1,0.4,6.2c-1.5,0-3.1-0.1-4.6-0.1c0.2,1.7,0.4,3.9,0.7,6.4c0.6,4.7,0.7,5.6,0.9,6.5
		c0.5,2.3,0.9,2.9,2,6.3c0.7,2.3,1.3,4.5,1.8,6.3c1.3-0.1,2.7-0.2,4-0.4c-0.3,2.4-0.6,4.8-0.9,7.1c-0.9,0.1-1.8,0.2-2.7,0.3
		c-3.7-1.4-7.3-2.8-11-4.2c-3.3,0.1-6.5,0.1-9.7,0.2c-0.9-2.5-1.8-4.9-2.7-7.3c-0.5,0-1.3-0.1-2.2-0.4c-0.9-0.2-1.3-0.3-1.6-0.7
		c-1-1-0.1-3.4,0-3.7c-0.9-0.7-2.1-1.8-3.3-3.3s-1.9-3-2.3-4.1c-1.2-0.2-2.4-0.5-3.6-0.7C1013,470.6,1013.1,469.6,1013.1,468.6z"/>
</g>
<g>
	<path fill="#8E23AA" d="M974.5,446.5c1.4-1.3,2.9-2.7,4.3-4c0.3-0.1,0.9-0.2,1.5-0.4c1.4-0.4,2.4-0.9,2.8-1c1.9-0.8,3.7-0.7,5-0.7
		c2.1-0.1,6.2-0.6,14.7-2.4c0,1.1,0.1,2.1,0.1,3.2c-2.6,4.2-5.2,8.3-7.8,12.5c3.8,5,7.5,9.8,11.3,14.8c-0.7-0.1-1.6-0.1-2.4,0.4
		c-0.6,0.4-0.6,0.7-1.4,1.3c-0.6,0.5-1,0.6-2.5,1.2c-1.1,0.5-1.7,0.7-2.2,1c-0.9,0.5-1.6,1.1-2.9,2.6c-2.9,3.5-2.5,4.3-4.3,5.5
		c-1.6,1.1-3.3,1.4-3.8,1.5c-1.5,0.3-1.9,0-3.7,0.1c-1.6,0.1-2.8,0.5-4.9,1.1c-1.3,0.4-3.1,1-5.1,2c-7-4.9-14-9.8-21-14.7
		c0.6-0.3,1.4-0.6,2.3-0.9c1.8-0.6,3.3-0.7,3.7-0.7c3.4-0.3,4.2,0.9,5.7,0.2c1.5-0.7,2.1-2.4,2.4-3.4c0.7-2.1,0.2-3.5-0.1-6.6
		c-0.2-1.5-0.3-3.7-0.3-6.3c0.7,0.1,1.8,0.3,3.2,0.5c2,0.2,2.5,0.1,2.7,0c1.7-0.6,2.4-2.4,2.5-2.8
		C975.1,448.5,974.7,447,974.5,446.5z"/>
</g>
<g>
	<path fill="#66D128" d="M987.8,482.2c0.8,0,2.1-0.1,3.4-0.9c0.8-0.5,1.2-1,2.1-2.1c1.4-1.7,1.3-2.1,2.4-3.4c1-1.1,1.9-1.8,2.6-2.2
		c1.8-1.3,2.2-1,3.9-2.2c1.3-1,1.5-1.4,2.4-1.7c1-0.3,1.8-0.1,2.9-0.1s2.6,0,4.6-0.7c-0.1,0.1-1,2.3-0.1,3.3
		c0.3,0.4,0.8,0.5,1.6,0.7c1,0.2,1.9,0.2,2.4,0.2c0.3,0.7,0.6,1.6,1.1,2.4c1.2,2,2.7,3.3,3.7,4.1c-0.2,0.5-0.5,1.4-0.4,2.5
		c0,0.7,0.2,1.3,0.4,1.7c-0.8,1.6-1.8,2.6-2.4,3.2c-0.7,0.6-1.3,1.1-2.2,1.3c-1.1,0.2-1.6-0.2-3-0.5c-0.8-0.2-2-0.1-4.4-0.1
		c-1.2,0-2.7,0.1-4.5,0.2C998.8,485.9,993.4,484,987.8,482.2z"/>
</g>
<g>
	<path fill="#FBAF16" d="M965.3,437.5c0.2,0.6,0.6,1.5,1.3,2.3c0.8,0.8,1.3,0.8,1.6,1.4c0.7,1.2-0.4,2.6-1,4.4
		c-0.5,1.3-1,3.4-0.7,6.2c0.5,0,1.3,0.1,2.2,0.3c1.5,0.3,1.8,0.5,2.3,0.4c1.3-0.3,2-1.8,2.2-2.4c0.6-1.4,0.5-2.8,0.4-3.5
		c1.6-1.7,3.2-3.4,4.8-5.1c0.1,0,1.1,0.4,2-0.1c0.5-0.3,0.8-0.7,0.8-0.9c-0.6-0.2-1.5-0.4-2.7-0.7c-2.1-0.6-2.7-0.7-3-1.2
		c-0.1-0.2-0.5-1,0.5-2.5c-0.3,0.2-0.8,0.5-1.5,0.7c-1.2,0.5-2.3,0.5-3,0.6C969.7,437.4,967.6,437.4,965.3,437.5z"/>
</g>
<g>
	<path fill="#BABABA" d="M897.7,374.2c-0.9,3.4-1.8,6.6-2.7,10c0.2,0.4,0.4,0.7,0.7,1.1c0.2-0.5,0.4-1.1,0.7-1.6
		c9.3,2.2,18.7,4.4,28.1,6.6c0-0.4,0.2-0.9,0.6-1.2c0.5-0.5,1-0.2,1.8-0.7c0.4-0.3,0.7-0.6,1.2-1.4c0.7-1,0.6-1.2,1-1.5
		c0.3-0.2,0.9-0.4,2,0c0.2-0.6,0.5-1.2,0.7-1.9c-2.1-2.4-4.1-4.7-6.2-7c-0.4,0-1,0-1.7,0c-1.4-0.1-2.8-0.1-4.3-0.8
		c-0.6-0.3-1.5-0.8-2.4-1.9c-4.6-0.8-9-1.7-13.6-2.5c-0.6,0-1.5,0.2-2.3,0.5C899.5,372.5,898.4,373.5,897.7,374.2z"/>
</g>
<g>
	<path fill="#BABABA" d="M895.1,386c9.9,2.1,19.7,4.2,29.7,6.3c0.3-0.2,0.9-0.4,1.5-0.4c1.1,0,1.5,0.7,2.6,1
		c0.3,0.1,2.1,0.5,3.1-0.6c0.7-0.7,0.8-1.9,0.5-2.7c-0.3-0.9-1-0.9-1.3-1.6c-0.3-0.6-0.3-1.7,1.2-3.7c1.7,1.9,3.5,3.7,5.2,5.6
		c1.9,0.3,3.9,0.7,5.8,1c4.2,4.4,8.4,8.8,12.6,13.2c-1.3,0.8-2.2,1.6-2.7,2.2c-0.9,1-1.6,1.8-1.5,2.8c0,0.7,0.5,1,1.5,2.6
		c0.6,1,1.1,1.8,1.4,2.3c-0.6,0.6-1.5,1.6-2,3.1c-0.1,0.3-0.2,0.8-0.5,2.3c-0.1,1-0.3,2.3-0.4,4c-2.9-0.3-5.2,0-6.7,0.3
		s-3.5,0.7-5.8,1.9c-1.6,0.8-2.8,1.5-3.9,2.9c-1.9,2.4-0.8,3.9-2.7,6.7c-0.5,0.7-1.5,2.2-3.3,3.3c-3.5,2-7.1,0.8-7.4,0.7
		c-2.3-0.7-2.5-1.9-5.2-3c-2.1-0.9-4.1-1-5.4-1c-0.2-0.5-0.5-1.3-0.5-2.3c0-0.5,0.2-1,0.5-1.8c0.6-1.7,0.8-1.7,0.9-2.3
		c0.2-1.4-0.8-1.7-0.8-3.2c0-1.4,0.7-2.4,1.3-3.3c1-1.4,2.2-2.1,3-2.5c-0.5-0.9-1.1-2.1-1.4-3.7c-0.2-0.8-0.2-1.4-0.3-2.1
		c-0.8,0.2-2.1,0.4-3.3-0.2c-1.4-0.7-1.9-2.2-2.5-4.2c-1.2-3.7-0.5-5.1-2-6.4c-0.5-0.5-0.9-0.6-2.2-1.7c-0.8-0.6-1.4-1.2-1.8-1.6
		c-1.2-3.5-2.4-6.8-3.7-10.3C897.5,388.7,896.3,387.3,895.1,386z"/>
</g>
<g>
	<path fill="#BABABA" d="M783.9,229.3c0.3,0.5,0.8,1.3,1.5,2.1c0.6,0.7,1.7,1.6,5.2,3.2c2.6,1.2,2.5,0.9,4.2,1.8
		c0.9,0.4,1.4,0.8,4.3,2.7c3.4,2.3,3.1,2.2,3.7,2.4c0.6,0.3,1.3,0.6,6.6,1.2c3.8,0.5,6,0.6,6.6,0.7c1.4,0.1,2.6,0.2,3.6,0.2
		c1.1,0.6,2.6,1.5,4.5,2.7c4.1,2.8,5.3,4.3,7.9,5.9c1.8,1.1,4.5,2.3,8.4,2.7c1.1,1.4,1.5,2.8,1.7,3.6c0.3,1.6,0.1,2.9-0.1,4.4
		c-0.2,1.3-0.4,1.8-0.7,3.8c-0.1,0.9-0.2,1.6-0.3,2.1c-3.4,2.6-6.8,5.2-10.2,7.7c-1.9-0.3-3.7-0.7-5.6-1c-5.4,4.4-10.6,8.8-16,13.2
		c-0.3-0.3-0.9-0.8-1.6-1.2c-0.6-0.4-2.3-1.4-2.9-0.9c-0.3,0.3,0,0.8-0.1,2c0,0-0.1,1.2-0.7,2.2c-0.9,1.5-1.9,1.2-2.4,2.3
		c-0.4,0.9,0,1.5,0.3,3.8c0,0,0.1,0.9,0.2,3.5c0,1.4-0.4,4.3-5.2,9.4c-0.7-0.9-1.9-2.1-3.5-3.4c-1-0.8-1.5-1.2-2.2-1.5
		c-2.3-1.1-3.5-0.4-6-1.1c-1.7-0.5-2.8-1.4-3.6-2c-2.3-1.8-3.5-3.9-4.1-5.3c-0.9,1.8-1.7,3.6-2.6,5.4c-3.6-1.2-7.1-2.4-10.7-3.6
		c-2.7,2.3-5.3,4.7-7.9,6.9c-2.9-0.4-5.7-0.9-8.5-1.3c1.4-1.6,2.7-3.1,4.1-4.7c-0.8-2.1-1.6-4.5-2.2-7c-0.9-3.8-1.4-7.1-1.6-10
		c2-0.6,4.2-1.4,6.5-2.3c2.3-1,4.4-2,6.2-3c-1-1.4-2-2.7-3-4.1c-3.6-1.3-7.1-2.6-10.8-3.8c-1.6-1.3-3.2-2.6-4.9-3.8
		c1.4-4.7,2.8-9.3,4.2-14c-0.2-2.6-0.3-5.2-0.5-7.8c2.6-0.8,5.1-1.6,7.6-2.3c5.8,1.6,9.1,2.3,11.3,2.5c0.5,0.1,1.7,0.2,3.1,0.8
		c1.9,0.9,3.2,2.2,3.9,3.2c0.9,0.2,2.9,0.5,5.2-0.2c0.7-0.2,3.1-0.9,4.6-3c1.4-1.9,1.1-3.7,1.6-8.7
		C783.4,232.7,783.7,230.6,783.9,229.3z"/>
</g>
<g>
	<path fill="#BABABA" d="M729.3,283.9c-0.3-1.1-0.5-2.6-0.2-4.4c0.3-1.5,0.7-3.7,2.3-4.8c1-0.6,2-0.5,2.3-1.3c0.2-0.6-0.3-1-0.1-1.9
		s0.9-1.4,1.4-1.8c2.3-1.7,6.2-0.8,6.7-0.7c1.6,3.1,3.2,6.2,4.9,9.2c0.1,1.1,0.3,2.6,0.5,4.5c0.2,1.5,0.5,4.5,0.7,6.2
		c0.3,2.3,1.1,5.7,2.8,9.8c-1.2,1.5-2.4,3-3.6,4.5c-4.3,0.1-8.5,0.2-12.7,0.4c-1.1-0.2-2.6-0.6-3.7-1.8c-1.5-1.8-1.1-4.2-0.9-6.6
		C730,292.6,730.1,288.7,729.3,283.9z"/>
</g>
<g>
	<path fill="#BABABA" d="M746.2,269.3c1.4,3.7,2.9,7.2,4.3,10.9c3.1-1.2,6.2-2.4,9.3-3.7c-0.7-1.1-1.4-2.2-2.2-3.3
		C753.9,272,750,270.6,746.2,269.3z"/>
</g>
<g>
	<path fill="#BABABA" d="M744,305.3c4.3,0.2,8.5,0.4,12.8,0.7c2.6-2.3,5.2-4.6,7.7-6.8c3.4,1.1,6.8,2.1,10.2,3.2
		c0.3-0.2,0.9-0.4,1.6-0.3c0.8,0.2,1.3,0.9,1.7,1.6c0.8,1.3,0.9,2.7,0.9,3.7c2.3-0.9,4.7-1.9,6.9-2.8c1.1-0.3,2.6-0.5,3.9,0.2
		c0.8,0.4,1.3,1,1.7,1.5c0.9,1.1,2.3,2.5,4.6,4c-0.5,1.2-1.1,2.4-1.6,3.6c0.4,0.1,0.9,0.3,1.4,0.7c0.5,0.4,1,1,1.7,2.6
		c0.4,0.9,0.8,2.3,1.1,4c0.8,0.8,1.5,1.2,2,1.5c1,0.5,1.6,0.5,2.2,1.1c0.6,0.6,0.9,1.4,0.9,2c-0.3,0.9-0.8,2.3-1.8,3.7
		c-1.4,1.9-2.9,2.9-3.7,3.4c-3.6,2.2-7.2,2.2-8.9,2.2c-0.2,0.5-0.6,1.1-1.3,1.7c-1.6,1.4-3.7,1.3-5.1,1.3c-4.2-0.1-6.9-2.4-7.4-2.8
		c-1.8-1.5-2.7-3.1-3.2-4.1c-0.7,0.3-1.6,0.6-2.5,1.2c-1.8,1.1-3,2.5-3.7,3.5c-1.5-1.3-3-2.7-4.5-4c-2.9-1.1-5.3-1.8-6.9-2.2
		c-1.4-0.3-2.4-0.5-3.5-1.4c-0.3-0.2-1-0.9-2.3-3.8c-1.4-3.1-1.2-3.8-2.2-4.9c-0.6-0.7-1.7-1.6-3.8-2.2
		C743.4,313,743.7,309.2,744,305.3z"/>
</g>
<g>
	<path fill="#BABABA" d="M770.6,333.2c2.4,6.2,4.7,12.5,7,18.6c5.3-1.3,10.5-2.6,15.8-3.8c0.5-1.9,1-4.6,0.6-7.8
		c-0.2-1.1-0.4-2-0.7-2.9c-0.4,0.1-0.9,0.3-1.7,0.4c-2.2,0.3-3.3-0.2-4.2,0.5c-0.3,0.2-0.6,0.6-0.8,1.4c-0.6,0.2-1.5,0.4-2.5,0.5
		c-0.6,0-3.1,0.2-5.9-1.3c-0.9-0.5-3.2-1.7-4.7-4.2c-0.7-1.1-1.1-2.3-1.9-2.3C771.2,332.3,770.8,332.8,770.6,333.2z"/>
</g>
<g>
	<path fill="#BABABA" d="M790.5,336c0.4-0.1,1.8-0.5,3.2,0.2c1.2,0.6,1.7,1.7,2,2.2c0.2,0.6,0.6,1.7,0,5.5c-0.5,3.1-1,3.8-0.8,5.7
		c0.1,0.9,0.2,1.9,0.7,2.8c1.2,2,3.7,2.5,4.6,2.7c2.6,0.6,6.4,2.2,12.3,6.7c2.4-17.3,2.3-23.3,1.6-25.4c-0.1-0.4-0.9-2.3,0-3.6
		c0.5-0.8,1.5-1.1,2-1.2c1.4-0.4,2.7-0.1,3.1,0c1.5,0.4,4.1,0.7,8.4,0.6c-0.6-2.2-1.2-4.4-2-6.6c-1.1-3.4-2.3-6.5-3.5-9.4
		c1-1.4,2-2.4,2.7-3c2.1-1.9,3.5-2.4,5.1-4.4c0.8-1,1.2-1.9,1.5-2.4c0.9-0.2,1.7-0.5,2.6-0.7c2.4-0.7,4.6-1.6,6.6-2.4
		c0-1.8-0.1-3.7-0.1-5.5c-4.2-2.4-8.2-4.9-12.4-7.2c-0.1,0.7-0.2,1.8-0.7,2.9c-0.8,1.7-1.9,2.7-3.3,3.8c-1.1,0.9-2.8,2.2-5.2,3.3
		c-4.3-4.3-7.1-7.7-9-10.1c-0.4-0.5-2.8-3.6-3.7-3.2c-0.4,0.2-0.2,1-0.8,2.6c-0.1,0.3-0.5,0.9-1.1,2c-1.3,2.2-1.5,2.4-1.5,2.9
		c0.1,1.1,1.2,1.1,1.5,2.3c0.2,0.9-0.4,1.4-1.2,3.5c-0.6,1.4-0.7,2.1-0.9,2.8c-0.5,1.5-2,4.2-6.2,9.2c0.9,1.5,1.9,3.2,2.8,5.1
		c0.8,1.5,1.4,3,2,4.4c0.2,0,1.9-0.2,3.1,1c1.1,1.1,1,2.5,1,2.9c0,0.6-0.2,1.7-2.1,3.8c-1,1.2-2.3,2.7-4.6,4
		C795.2,335.3,792.3,335.9,790.5,336z"/>
</g>
<g>
	<path fill="#BABABA" d="M1137.5,558.2c-0.6,1.6-1.1,3.1-1.7,4.7c7.3,1.1,14.6,2.1,21.9,3.2c-1.8,3.7-3.6,7.3-5.4,11
		c0.9,0.1,1.9,0.2,2.8,0.4c0.6-1.8,1.2-3.6,1.9-5.4c0.7-0.1,1.4-0.1,2.1-0.2c-0.2-0.9-0.4-1.7-0.6-2.6c2,0.1,4,0.1,6,0.2
		c0.1,1.1,0.1,2.2,0.2,3.4c1.4,0.1,2.9,0.2,4.3,0.4c-0.2,0.7-0.4,1.4-0.6,2.1c1.6,0.2,3.1,0.4,4.7,0.6c0,1.3,0,2.6,0,3.9
		c0.7,0,1.5,0,2.2,0c-1.2,1.2-2.5,2.4-3.7,3.6c1.6-0.2,3.2-0.5,4.9-0.7c-0.4,1.3-0.7,2.6-1.1,3.9c1.1-0.6,2.2-1.2,3.4-1.9
		c0.1-1,0.1-2,0.2-3c0.6,0,1.4,0,2.4-0.2c2.2-0.3,3-0.9,3.6-0.6c0.9,0.6,0.3,2.8,0,4.1c-0.1,0.4-0.2,1-0.5,1.7
		c-0.6,1.7-1.8,5.2-4.6,6.1c-0.4,0.1-1.1,0.3-2.1,0.2c-1.9,3.2-3.7,6.4-5.6,9.6c0.2,0.7,0.4,1.4,0.6,2.1c1.7-0.6,3.4-1.2,5.1-1.9
		c1.4,0.1,2.9,0.1,4.3,0.2c0.2-0.7,0.4-1.5,0.6-2.2c-1.1-0.2-2.1-0.4-3.2-0.6c0.2-1.1,0.7-2.6,1.5-4.1c1.2-2.3,2.6-3.3,3.6-4.5
		c1.4-1.6,2.9-4.2,3.4-8.5c4.9-1.3,9.6-2.6,14.5-3.9c0.4-3.3,0.9-6.5,1.3-9.8c-1.1-2.1-2.1-4.1-3.2-6.2c-1.6,0.1-3.8,0-6.3-0.6
		c-2.7-0.6-4.9-1.6-6.3-2.4c-0.9,0.3-3.2,0.9-5.8,0.2c-3.9-1.1-5.8-4.2-6.2-4.9c-0.3,1-0.6,2-0.9,3c-2.2-1.1-4.4-2.2-6.5-3.4
		c-0.8,1.5-1.6,3-2.4,4.5c-1.4-0.6-2.7-1.2-4.1-1.9c-1.2,1.7-2.5,3.5-3.7,5.2C1151.3,561.3,1144.3,559.7,1137.5,558.2z"/>
</g>
<g>
	<path fill="#BABABA" d="M1079.1,483.8c-0.4,1.4-0.9,3.6-0.9,6.3c-0.1,2.8,0.4,4,0.4,6.5c0,3.4-0.8,5.5-1.3,7.4
		c-0.8,3.2-1.5,7.8-0.7,14.5c1.1,0.2,2.2,0.5,3.4,0.7c18.1,8.5,36.2,17,54.3,25.5c1.1-1.6,2.1-3.1,3.2-4.7c-0.4-0.3-1-0.8-1.5-1.5
		c-0.4-0.5-1.6-2.1-2.1-4.7c-0.6-2.9,0.2-4.3,0.6-7.8c0.2-1.7,0.3-4.2-0.2-7.2c-1.4-1.6-2.7-3.2-4.1-4.9c-5.2-1.9-8.8-4.3-11.1-6
		c-2.5-1.8-4-3.4-5.1-4.5c-2.5-2.6-3.8-4-4.3-6c-0.4-1.9,0.1-2.6-0.6-4.5c-0.6-1.8-1.8-3-2.6-3.7c-1.6-0.3-3.5-0.7-5.4-1.3
		c-3.8-1.1-5.8-1.7-7.4-2.8c-2.2-1.5-2.7-2.6-4.7-3c-0.7-0.1-1.3-0.2-3.7,0.2C1083.7,483,1081.6,483.3,1079.1,483.8z"/>
</g>
<g>
	<path fill="#BABABA" d="M1010.7,490c1.8,0.3,4.2,0.8,7,1.3c5.4,1,8,1.4,10.2,1.7c3.8,0.4,4.4,0.2,7.4,0.7c2.6,0.4,4.5,1,6.2,1.5
		c4.9,1.4,5.1,2,8.7,3c4.2,1.1,6.4,1.7,9.1,0.7c2.6-0.9,4.1-2.8,4.5-3.4c2.4-3.1,1-4.8,3.2-7.8c0.3-0.4,2.6-3.5,6.6-4.1
		c1.7-0.3,3.1,0,3.9,0.2c-0.2,1.3-0.6,3.3-0.7,5.8c-0.2,2.8,0,4-0.2,6.3c-0.2,3.4-0.8,5.7-1.1,7c-0.7,3.2-1.2,8.1-0.4,15.8
		c-8.5-2.7-17.1-5.4-25.7-8c-6.2,3.1-12.4,6.2-18.6,9.3c-5.7,0.7-11.4,1.4-17.1,2.1c-0.1-5.2-0.1-10.4-0.2-15.6c-2-0.3-4-0.6-6-0.9
		c-0.2-1-0.3-2.5,0-4.3c0.3-2.1,1-3.2,1.7-5.2C1009.9,494.8,1010.4,492.7,1010.7,490z"/>
</g>
<g>
	<g>
		<path fill="#AC6E5E" d="M1014.8,522.9c5.8-0.4,11.5-0.7,17.3-1.1c6.1-3.1,12-6.2,18.1-9.3c8.2,2.6,16.5,5.1,24.7,7.6
			c0.7-0.2,1.5-0.4,2.2-0.6c8.2,4,16.5,7.9,24.7,11.9c-4.4,1.7-8.8,3.4-13.2,5.1c-0.5,0.7-0.9,1.5-0.6,2.1c0.4,0.7,1.9,0.2,2.4,0.9
			c0.6,0.8,0,2.4-0.9,3.4c-1.3,1.3-2.8,0.8-4.1,1.3c-1.6,0.6-3.4,2.6-4.1,9.3c12.2,1.6,24.4,3.1,36.6,4.7c-3.7,3.2-7.3,6.4-11,9.6
			c-0.3-2.1-0.6-4.2-0.9-6.3c-2.1,0-4.1,0-6.2,0c-0.7,0.9-1.5,1.9-2.2,2.8c-1.3-1.7-2.6-3.4-3.9-5.1c-0.9,1.4-1.9,2.9-2.8,4.3
			c-1.8-1.9-3.6-3.7-5.4-5.6c-3-0.9-6-1.9-8.9-2.8c-1.4,4.7-2.9,9.3-4.3,14c-0.7-0.1-1.7-0.1-2.6,0.6c-1.2,0.9-1.4,2.5-1.5,3.6
			c-0.3,2.2-0.6,5-1.3,8.7c4.9,3.8,9.8,7.5,14.7,11.3c2.6,0.9,5.1,1.7,7.6,2.6c0.2,0.9,0.4,1.7,0.6,2.6c-12.4,0.7-24.8,1.5-37.2,2.2
			c-0.9-1.6-1.7-3.2-2.6-4.9c-0.1-2.4-0.1-4.9-0.2-7.2c-1.2-0.7-2.4-1.4-3.6-2.1c-0.1-1.3-0.1-2.6-0.2-3.9
			c-7.3-3.6-14.8-7-22.1-10.6c1.6-1.1,3.1-2.1,4.7-3.2c-1.7-2.4-3.5-4.7-5.2-7c2.1-3.6,4.1-7.1,6.2-10.8c-0.6-0.7-1.2-1.5-1.9-2.2
			c-1.6-0.4-3.2-0.7-4.9-1.1c0-1.6,0-3.2,0-4.9c0.9,0,1.7,0,2.6,0c-3.4-4-6.8-7.9-10.2-11.9C1015.2,528.2,1015,525.6,1014.8,522.9z"
			/>
	</g>
</g>
<g>
	<path fill="#BABABA" d="M1104.2,532.2c-4.5,1.7-8.9,3.5-13.4,5.2c0.4,0.3,0.9,0.8,1.3,1.7c0.7,1.6,0.5,3.8-0.7,4.7
		c-1.1,0.8-2-0.1-3.9,0.6c-1.5,0.5-2.5,1.6-3,2.2c-1.8,2.1-2,4.5-2.1,5.4c7.3,0.9,14.6,1.9,21.9,2.8c1.4-2,2.9-4,4.3-6
		c1.1-4.4,2.1-8.6,3.2-13C1109.3,534.5,1106.7,533.3,1104.2,532.2z"/>
</g>
<g>
	<path fill="#BABABA" d="M1043.5,582.6c-1.9,4.1-3.7,8-5.6,12.1c0.6,1,1.2,2,1.9,3c0,1.3,0,2.6,0,3.9c1.2,0.4,2.5,0.7,3.7,1.1
		c0.8,1.1,1.6,2.1,2.4,3.2c2.3,0.3,4.6,0.6,6.8,0.9c-0.1-1.3-0.2-2.6-0.4-3.9c-1.3-2.6-2.6-5.2-3.9-7.8c0.1-2,0.2-4,0.4-6
		c-0.2,0-2.2-0.2-3.4-1.9c-1.3-2-0.4-4.1-0.4-4.2C1044.5,582.8,1044,582.7,1043.5,582.6z"/>
</g>
<g>
	<path fill="#BABABA" d="M1049.2,607.9c0.1,0.1,2.1,1.2,3.6,0.2c0.5-0.3,0.7-0.7,0.8-0.9c0.8-1.5,0.1-3.2,0-3.6
		c2-0.4,3.9-0.7,5.9-1.1c-0.1,0.7-0.1,1.7,0.1,2.8c0.3,1.9,1.2,3.3,1.7,4.1c1.2,1.8,1.7,1.7,2.6,3.2c0.9,1.6,1.1,3.1,1.2,4
		c0.5,3.7-1,6.5-1.6,7.7c-2.2,0.2-4.6,0.4-6.8,0.8c-10.5,1.6-19.5,4.8-27,8.1c0-2.2-0.1-4.4-0.1-6.5c0.4,0,1.1-0.2,1.7-0.6
		c1.5-1,1.4-2.6,2.7-4.2c0.7-0.9,1.4-1.3,2.8-2.2c4.1-2.5,10.2-4,11.8-4.4C1048.7,612.9,1049,610.4,1049.2,607.9z"/>
</g>
<g>
	<path fill="#BABABA" d="M1017,580.6c0.7,0.4,1.4,0.4,1.7,0c0.3-0.3,0.3-0.8,0.2-1c0-0.5-0.2-0.7-0.2-1c0.1-0.6,0.9-0.9,1.1-1
		c0.9-0.4,1.2,0.1,2.4-0.1c0.4-0.1,1.1-0.4,2.4-1.1c1.2-0.6,1.5-0.8,1.5-1.1c0.1-0.6-0.7-1.2-0.9-1.3c5.6,2.8,11.2,5.5,16.8,8.2
		c-1.9,3.9-3.7,7.8-5.6,11.7c0,0.4,0.1,1,0.4,1.7c0.6,1.4,1.6,2.2,2.1,2.6c-0.1,1.3-0.1,2.5-0.2,3.8c1.4,0.5,2.8,1.1,4.2,1.6
		c0.9,1.3,1.8,2.5,2.7,3.8c0.9,0.1,1.9,0.1,2.8,0.2c-0.2,2.3-0.5,4.6-0.7,6.8c-2.3,0.9-4.3,1.6-5.6,2c-3.2,1.1-4.5,1.3-6.2,2.4
		c-1.7,1.1-2.8,2.5-3.4,3.4c-1-1.2-2.1-2.5-3.1-3.7c0-1.5,0-3,0-4.4c0.4-0.2,0.8-0.5,1.2-0.7c0.2-0.3,0.4-0.6,0.4-1.1
		c0-0.9-0.8-1.4-2.1-2.8c-0.4-0.4-0.9-1-1.4-1.8c-4.6-0.2-9.1-0.3-13.8-0.5c-1.3,2.2-2.6,4.3-3.9,6.4c-1.9,1.2-3.8,2.4-5.7,3.6
		c0.2-4.4,0.4-8.6,0.6-13c-1.5-0.1-3-0.2-4.6-0.2c-0.3-0.4-0.7-0.9-1.1-1.6c-0.5-0.9-1-1.9-1.1-2.9c0-0.3,0-1.3,2.2-3.9
		c0.8-0.9,1.8-2.1,3.2-3.3c2.7-0.5,5.5-1,8.1-1.4c0.1-0.5,0.3-1.2,0.7-2c0.8-1.4,1.8-1.9,2.4-2.4
		C1015.9,585.7,1016.9,584,1017,580.6z"/>
</g>
<g>
	<path fill="#BABABA" d="M1068.4,581.5c4.4,3.4,8.7,6.6,13.1,10c8.9,3.3,17.9,6.5,26.8,9.8c0.9,0.4,2.1,1,3.6,1.6
		c2.4,1,3.6,1.5,4.5,1.2c1.9-0.4,3.2-2.6,3.6-4.2c0.4-1.7-0.3-2,0-4.4c0.3-2.3,1.1-2.7,1.4-4.6c0.2-1.2,0.2-2.9-0.7-5.1
		c0.5-1.2,1-2.4,1.5-3.6c-0.4-0.3-1-0.7-1.7-0.7c-1.4-0.2-1.9,0.8-3,0.7c-2-0.1-2.6-3.1-4.2-3c-1.2,0.1-1.4,1.8-2.6,1.7
		c-1,0-1.3-1.2-2.7-1.9c-1-0.4-2-0.4-2.6-0.2c0-5.4-0.1-10.7-0.1-16.1c-1.7,0.1-3.4,0.2-5.1,0.2c-0.7,1-1.3,1.9-2,2.9
		c-0.9-0.1-2.1-0.1-3.4,0s-2.5,0.4-3.4,0.6c-0.3-0.8-0.8-2-1.7-3.2c-0.7-1-1.7-2-3.9-3.4c-1.7-1.1-4.4-2.5-8-3.6
		c-1.4,4.5-2.8,9-4.2,13.5c-0.5,0-1.3,0-2,0.4c-1.1,0.6-1.5,1.8-1.7,2.7C1068.8,576.2,1068.5,579.7,1068.4,581.5z"/>
</g>
<g>
	<path fill="#C01F25" d="M951,470.6c7.1,5.1,14.3,10.1,21.4,15.3c-2.9,1.4-5.3,2.3-6.9,2.9c-2.6,0.9-4,1.2-6.9,2.4
		c-2,0.8-3.2,1.3-4.6,2.2c-1.8,1.2-3.5,2.3-4.4,4.4c-0.3,0.7-0.4,1.3-1,2.5c-0.6,1.3-1,1.9-1.6,2.4c-1.2,0.9-3.1,1-4.5,0.2
		c-1.4-0.7-1.9-2-2.2-2.7c-0.6-1.4-0.5-2.5-0.4-5.2c0.3-5.5,0.1-4.6,0.2-6.2c0.1-0.7,0.5-4.5,1.4-7.1
		C943.3,476,947.8,472.4,951,470.6z"/>
</g>
<g>
	<path fill="#8E23AA" d="M940.7,475.6c0.5-1,1.4-2.3,2.7-3.6c2.2-2,4.5-2.8,6.4-3.5c2.6-0.9,5.5-1.8,9.3-1.9c1.6,0,3,0.1,4-0.9
		c0.2-0.2,0.7-0.8,1-3.5c0.4-3.2,0.6-5.6-0.5-8c-0.4-1-0.8-1.3-0.9-2.2c-0.1-0.8,0-1.6,1-3.9c1.3-3,1.6-2.8,1.7-3.9
		c0.2-1.7-0.5-3-1.4-4.6c-0.5-1-1-1.6-3.6-4.6s-2.3-2.6-3.2-3.7c-3.3-4-3.3-4.4-4.5-5.1c-2.3-1.3-4.8-0.9-6.3-0.6
		c-3.2,0.5-5.3,2-5.9,2.5c-0.7,0.6-1.6,1.3-2.4,2.5c-1.2,1.9-0.6,2.9-1.4,5.4c-0.3,0.9-1.1,3.3-3.2,5c-2,1.5-4.1,1.7-5.5,1.9
		c-1,0.1-4.3,0.4-7.4-1.4c-2.3-1.3-3.2-2.8-5.6-3c-0.9-0.1-1.6,0.1-2.1,0.2c0.5,1.8,1.2,4.3,2.2,7.1c0.3,0.7,1.5,3.9,3.7,8.1
		c2.9,5.5,3.5,5.4,4.7,8.5c0.9,2.4,0.9,3.3,1.9,8.3c0.5,2.6,1.3,5.9,2.2,9.6c2.6-2.3,5.2-4.6,7.8-6.8
		C937.4,474.4,939,475,940.7,475.6z"/>
</g>
<g>
	<g>
		<path fill="#8E23AA" d="M928.4,482c2.4-2.2,4.8-4.3,7.1-6.4c1.5,0.4,2.9,0.8,4.4,1.2c-0.4,1.4-1,3.4-1.6,5.9
			c-0.7,2.8-1.2,5.2-1.5,8.1c-0.3,3.5-0.5,6.1,0.6,9.1c0.7,1.8,1.7,4.6,4.2,5.4c1.9,0.6,3.6-0.1,4.4-0.5c0.3,1.5,0.7,2.9,1,4.4
			c-2,2.8-4,4.8-5.5,6.1c-1.9,1.6-3,2.6-4.9,3.4c-3.1,1.3-4.4,0.3-6.6,1.4c-1.5,0.7-3.3,2.1-4.7,5.7c-0.3-0.3-0.7-0.7-1-1
			c-1,0.3-2.1,0.6-3.1,0.9c-0.4-0.3-0.9-0.9-1-1.7c-0.2-1.3,0.8-2,0.5-3.1s-1.5-1.5-1.7-1.6c-1-0.4-2.1-0.2-2.9,0.2
			c-1.2,0.7-0.8,1.7-1.7,2.4c-1.1,0.8-2.6,0-5.5-0.6c-1.2-0.2-2.8-0.5-4.9-0.5c-1,2.5-1.9,5-2.9,7.4c-2.4-0.7-4.8-1.5-7.1-2.2
			c3.2-3.5,6.3-6.9,9.5-10.4c0.2-8.2,0.4-16.6,0.6-24.8c4.1,3.3,8.1,6.5,12.3,9.8c-0.1-1.7-0.2-3.3-0.4-5c1.6-0.2,3.2-0.4,4.9-0.6
			c4.2-0.4,8-0.6,11.6-0.6C931.3,490,929.8,486,928.4,482z"/>
	</g>
</g>
<g>
	<path fill="#BABABA" d="M839.3,374.8c0.8-0.5,2.1-1.3,3.2-2.5c0.8-0.8,1.7-1.8,2.2-3.2c0.5-1.2,0.4-2.5,0.2-5.1
		c-0.2-3.2-0.6-4.4,0.2-5.2c0.5-0.5,1.2-0.8,1.9-0.6c0.9,0.2,1.2,1.1,2,2.1c1.2,1.5,2,1.4,3.7,2.7c1.4,1.1,3.2,2.5,3.5,4.5
		c0.4,2.6-2.1,3.9-1.7,7.1c0.1,1,0.4,2.2,0.4,2.2c0.4,1.7,0.7,2.1,0.7,3c0.1,0.8,0,1.9-0.7,3.4c-5.4-0.7-10.7-1.3-16.1-2
		c0.3-0.5,0.8-1.5,1-2.7C840,376.8,839.6,375.5,839.3,374.8z"/>
</g>
<g>
	<path fill="#BABABA" d="M887,381.3c-1.2,1.4-2.5,3.3-3.6,5.6c-0.8,1.6-1.3,3.1-1.7,4.4c2-0.2,3.6-0.1,4.7,0.1
		c2.1,0.4,3.5,0.6,4.5,1.9c1.1,1.4,0.8,3.2,0.7,3.7c-0.2,1.3-0.8,2.4-2.1,4.5c-1.2,2-1.8,2.5-1.9,3.6s0.3,2.1,0.6,2.7
		c1-0.1,2.2,0,3.6,0.1c1.5,0.2,2.8,0.5,3.9,0.9c0.4-2.8,0.8-5.7,1.2-8.4c1.5,0,3.1-0.1,4.6-0.1c-1.1-3.2-2.2-6.2-3.2-9.4
		c-2.1-2.1-4.2-4.2-6.2-6.3C890.4,383.4,888.7,382.4,887,381.3z"/>
</g>
<g>
	<path fill="#AC6E5E" d="M988.9,573.1c0.5,1.3,1.4,3.2,3.2,4.2c1.5,0.9,3,0.9,4.5,1c4.6,0.3,4.9,1.2,9.4,1.9
		c2.7,0.4,6.5,0.6,11.5-0.2c-0.3-0.5-0.5-1.2-0.2-1.9c0.3-0.6,1-0.9,3.2-1.4c3.1-0.7,3.9-0.6,4.2-1.1s0.2-1.6-1.6-3.9
		c0.6-0.3,1.7-0.9,2.6-2.1c0.6-0.8,1-1.3,1-2c0-1.6-2.2-1.8-3.4-4c-1-1.9-0.6-3.9-0.4-4.7c0.4-1.9,1.6-1.9,3.6-5.1
		c1.6-2.5,1.4-3.2,1.2-3.6c-0.4-0.9-1.8-1.1-2.4-1.1c-1.5,0.6-2.3,0.3-2.6,0.1c-1.5-0.9-1.4-3.9-1.4-6c0-0.7,0.1-1.2,0.1-1.6
		c0.7,0.1,1.4,0.2,2.1,0.2c-3.2-3.7-6.4-7.4-9.6-11.1c0,1.6,0,3.2,0.1,4.9c-3.4,0-6.6,0.1-10,0.1c-0.2,0.7-0.4,1.7-0.6,2.9
		c-0.2,1-0.3,2.4-0.4,4.7c-0.1,4.4,0.6,4.9,0.1,7.5c-0.4,2.3-1.1,3.3-1.2,3.6c-1,1.6-2.4,2.4-3.2,2.7c0.4,0.7,0.9,2,0.5,3.4
		c-0.1,0.2-0.3,1.3-0.9,1.4c-0.6,0.1-1-1.3-1.6-1.2c-0.4,0-0.7,0.7-0.9,1.1c-0.5,1.6,1,2.4,0.9,4.1c0,0.9-0.5,1.6-1.4,2.7
		c-1.2,1.7-2.6,2.5-3.6,3.1C991.2,572.2,990.2,572.7,988.9,573.1z"/>
</g>
<g>
	<path fill="#AC6E5E" d="M965,581.6c0.8-0.1,1.9-0.3,3.2-0.6c2.2-0.6,3.7-1.2,5.2-1.9c2.9-1.2,5-1.9,8.5-3.1
		c1.4-0.5,3.5-1.2,6.1-1.9c0.3,0.9,1,2.5,2.6,3.9c1.5,1.2,3.1,1.6,4,1.7c1.7,0.3,2.5,0.1,4.1,0.1c2.8,0,4.5,0.8,6.1,1.2
		c2.4,0.7,6.1,1.1,11.5,0.1c-0.7,1.4-1.4,2.4-1.9,3.1c-0.9,1.4-1.5,2.1-2.5,3.6c-0.6,0.9-1,1.6-1.2,2.1c-2.8,0.4-5.7,0.7-8.4,1.1
		c-1.6,1.7-2.7,3.3-3.5,4.5c-1.6,2.5-1.7,3.5-1.7,3.9c-0.1,2.5,1.7,4.2,1.9,4.4c2.1,1.9,4.8,1.4,5.1,1.4c-0.2,3.9-0.5,7.7-0.7,11.6
		c-0.8,0.6-1.8,1.3-2.7,2.4c-1.9,2.1-2.8,4.2-3.2,5.6c-2.7,0.2-4.6-0.3-5.7-0.9c-2.4-1.1-3.3-2.8-5.6-3.1c-1.4-0.2-2.7,0.2-3.5,0.5
		c-0.1-1.2-0.5-2.6-1.5-3.9c-1.1-1.4-2.2-1.3-3.2-2.7c-1-1.3-0.9-2.4-1.4-4c-0.5-1.5-1.5-3.5-4.2-5.6
		C969.8,597.3,967.4,589.4,965,581.6z"/>
</g>
<g>
	<path fill="#AC6E5E" d="M933.7,582.7c2.9-0.8,5.7-1.6,8.5-2.4c7.1,0.4,14.2,0.8,21.3,1.2c2.4,7.9,4.8,15.9,7.1,23.8
		c0.1,1.4,0.2,2.7,0.2,4.1c-3.1,0.2-6.2,0.4-9.3,0.6c-3.8-0.1-7.6-0.2-11.4-0.4c0-0.9,0-1.8,0-2.7c-0.9-1.5-1.7-3-2.6-4.5
		c-1-0.3-1.9-0.6-2.9-0.9c-0.5-1.1-1-2.2-1.5-3.4c-2.1,0.2-4.2,0.4-6.2,0.6c-0.1-3.1-0.2-6.2-0.2-9.3
		C935.9,587.3,934.8,585,933.7,582.7z"/>
</g>
<g>
	<path fill="#BABABA" d="M960.4,611.2c4-0.1,7.9-0.2,11.9-0.2c-0.1-1.6-0.2-3.2-0.2-4.9c0.7,0.6,2.1,2.1,2.9,3.9
		c0.5,1.1,0.7,2.1,0.7,2.1c0.2,0.9,0.2,1.1,0.4,1.6c0.4,1,1.1,1.3,2,2.1c1.5,1.4,2.4,3.3,3,4.5c0.5,1.1,0.7,1.8,1.4,2
		c0.6,0.2,1-0.4,1.9-0.5c0.8-0.1,1.3,0.3,2.5,1c1.1,0.6,2.5,1.4,3.4,1.7c1.7,0.7,3.1,0.8,3.9,0.9c2,0.2,6.2,1.1,15.8,3.9
		c-0.1,0.2-0.4,0.8-0.4,1.6c0,0.3,0.1,0.9,0.5,1.5c0.9,1.3,2.8,1.1,2.9,1.1c-0.1,2.1-0.2,4.2-0.2,6.2c0.8,1.2,1.7,2.5,2.5,3.7
		c-3.9-1.4-7.7-2.7-11.6-4.1c-2.3,0.2-4.7,0.3-6.9,0.5c0.1-1.1-0.4-2.1-1.2-2.6s-1.9-0.5-2.7,0c-1.3,0.4-3.2,1-5.4,1.7
		c-2.7,0.9-4,1.2-5.6,1.6c-4.6,1.1-5.8,0.7-6.4,0.4c-1.2-0.6-2-1.6-2.4-2.2c1-4,1.9-7.9,2.9-11.9c-2.2,0-3.9,0-5,0
		c-4.5,0-5.9-0.1-7.8,0.5c-1.5,0.5-2.7,1.2-3.4,1.6c-1.7,0.1-3.7,0.2-5.9,0.2c-0.7,0-1.5,0-2-0.5c-0.6-0.6-0.4-1.7-0.1-2.6
		c0.4-1.5,1.2-3.9,3.1-6.9c2-0.1,4-0.2,6-0.2C960.4,616.3,960.4,613.7,960.4,611.2z"/>
</g>
<g>
	<path fill="#BABABA" d="M1013.6,633.4c-0.1,1.8-0.2,3.6-0.4,5.4c0.8,1.6,1.7,3.2,2.5,4.9c4.5,2.7,8.9,5.3,13.4,7.9
		c1.7,0,3.4,0,5.1,0c-0.5-6.2-0.9-12.5-1.4-18.7c-1.3,0.5-2.6,1-3.9,1.5c-0.2-3-0.5-6-0.7-8.9c0.4,0.1,1.1,0.2,1.9,0
		c1.7-0.5,2.4-2.1,2.5-2.4c-0.6-0.2-2-0.6-2.9-1.9c-0.2-0.3-0.6-1-0.9-2.7c-0.3-2.1,0-3.2,0-4.5s-0.3-3.2-1.6-5.6
		c-4.4-0.1-8.6-0.2-13-0.4c-1,1.9-2.1,3.7-3.1,5.6c0,1.3,0,2.9,0,5.1c0,1.2,0,2.2,0.7,2.9c0.5,0.4,1,0.6,1.4,0.6
		c1.1,0.2,2.1,0,2.4-0.1c1-0.3,2.6-0.4,5.4,0.1c-0.2,0.5-0.4,1.2-0.5,1.9c-0.2,1.2-0.2,2.2-0.1,3c0.2-0.1,1.6-0.6,2.5,0.1
		c0.4,0.3,0.6,0.8,0.7,1.2c0.5,1.9,0.3,3.9,0,5.1C1020.1,633.4,1016.9,633.4,1013.6,633.4z"/>
</g>
<g>
	<path fill="#BABABA" d="M998.4,625.1c0.6-1.4,1.7-3.1,3.2-4.9c3.2-3.5,6.7-4.9,8.6-5.5c-0.3,1.7-0.4,3.1-0.4,4.1
		c0,1.7,0.1,2.7,0.7,3.4c0.9,1,2.4,0.9,2.9,0.9c2-0.1,4-0.2,6-0.2c-0.2,0.5-0.4,1.4-0.5,2.4c-0.1,1.2-0.1,2.2,0.5,2.7
		s1.8,0.5,2.9-0.1c0,1.5-0.1,2.9-0.1,4.4c-3.5-0.1-7-0.2-10.5-0.2c-0.3,0-0.9-0.2-1.1-0.6c-0.3-0.6,0.1-1.4,0.4-1.9
		c0.4-0.8,0.8-0.9,0.7-1.1c-0.1-0.7-2.2-0.5-4.9-1.2c-3-0.8-3.7-2-6.3-2.1C999.6,624.9,998.9,625,998.4,625.1z"/>
</g>
<g>
	<path fill="#BABABA" d="M970.5,644.7c6.6-2.5,13.7-4.7,21-6.4c0.7-0.2,1.4-0.3,2.1-0.5c0.5,0.9,1,1.8,1.5,2.7
		c2.7-0.2,5.4-0.3,8-0.5c2.7,1.1,5.4,2.2,8,3.2c-2.7,7-5.3,14.1-7.9,21.2c-0.4,1.6-0.8,3.3-1.1,5.1c-0.8,4.5-1.2,8.6-1.2,12.3
		c-3.2-2.4-6.1-3.1-7.6-3.4c-0.3,0-1.9-0.1-5.1-0.1c-3-0.1-4,0-4.9,0.6c-1,0.7-1.3,1.7-1.7,3.1c-0.6,1.7-1.6,4.1-3.4,6.9
		c-1-0.2-1.9-0.3-2.9-0.5c-0.9-1.3-1.9-2.8-2.7-4.5c-1.9-3.5-3.1-6.7-3.9-9.5c1.4-7.4,2.8-15,4.2-22.4
		C972.3,649.7,971.4,647.2,970.5,644.7z"/>
</g>
<g>
	<path fill="#AC6E5E" d="M948.4,507.5c6.3-0.1,12.7-0.2,19-0.3c1.6-1.9,3.6-4.3,5.9-7.1c2.7-3.4,3.9-4.9,4.9-7c1-2,1.5-3.9,1.7-5.1
		c-3.3,0.4-6,0.9-7.8,1.4c-3.5,0.8-2.8,1-8.1,2.4c-3.2,0.9-4.7,1.2-6.6,2.4c-1.5,0.9-2.7,1.6-3.5,3c-0.3,0.5-0.3,0.7-1.6,3.2
		c-0.5,1.1-0.7,1.4-1,1.7c-0.9,1.1-1.5,1.2-2.1,1.9C948.5,504.4,948.1,505.4,948.4,507.5z"/>
</g>
<g>
	<path fill="#AC6E5E" d="M968.5,507c1.6-0.5,4.1-1.2,7-2.2c3.4-1.2,4.3-1.7,6.1-1.9c2.2-0.3,2.8,0.1,8,1c1.6,0.3,6.2,1,12,1.5
		c2.2,0.2,4.1,0.3,5.4,0.3c-0.2-0.6-0.4-1.7-0.3-3c0.1-1.2,0.3-1.7,1.1-4.6c0.3-1.2,0.7-2.4,0.9-3.6c0.4-1.7,0.6-3.1,0.7-4.1
		c-0.9,0.1-2.1,0.2-3.7,0.1c-0.8-0.1-2.4-0.2-6.7-1.6c-3.7-1.2-3.7-1.4-5.3-1.7c-2-0.3-3.4-0.3-5.6-0.1c-1.9,0.1-4.4,0.4-7.3,1.1
		c-0.1,0.7-0.2,1.8-0.6,3.1c-0.4,1.3-1.1,2.6-3.9,6.3c-1,1.3-1.8,2.4-3.1,4C971.4,503.7,969.7,505.5,968.5,507z"/>
</g>
<g>
	<path fill="#AC6E5E" d="M983.5,503.6c3.9,0.9,7,1.4,9.1,1.7c3.5,0.5,5.5,0.6,12,1.2c3.3,0.3,6.1,0.6,7.7,0.8
		c0.2,5,0.4,10.1,0.4,15.5c0.1,4.2,0,8.2,0,12.2c-3.2,0.1-6.3,0.2-9.5,0.2c-0.5,2-0.9,4.1-1.4,6.1c-0.3-0.3-0.8-0.7-1.1-1.2
		c-0.9-1.6-0.1-2.8-0.7-5.2c-0.2-0.8-0.5-1.3-0.7-1.9c-0.9-1.7-1.7-2.5-2.5-3.5c-1.4-1.8-0.7-2.1-2.4-5.3c-0.6-1.2-1.6-2.9-3.1-4.7
		s-2.2-2.7-3.3-3.2c-0.6-0.3-1.2-0.5-1.7-1.1c-0.6-0.7-0.6-1.4-0.9-2.4c-0.5-1.5-1.1-2.1-1.6-3C983.3,508.7,982.8,506.9,983.5,503.6
		z"/>
</g>
<g>
	<g>
		<path fill="#8E23AA" d="M974.2,506c1.1-0.5,2.4-0.9,3.8-1.3c1.6-0.4,3.1-0.7,4.4-0.9c-0.3,2.2-0.1,3.8,0.2,4.9
			c0.2,0.9,0.5,1.7,1.1,2.9c0.6,1.4,1,2,1.7,3.8c0.3,0.7,0.5,1.4,0.7,1.7c0.8,0,1.6,0,2.4-0.1c0.8,1.2,1.5,2.3,2,3.1
			c1.9,2.8,2.3,3,3.1,4.6c0.5,1.1,0.5,1.4,1.4,3.2c0.6,1.2,0.9,1.8,1.2,2.4c1.2,1.8,1.9,2,2.6,3.3c0.4,0.8,0.5,1.6,0.7,3.1
			c0.2,1.3,0.1,1.7,0.4,2.5c0.4,1.1,1,1.9,1.5,2.4c-0.9,0.1-2.4,0.2-4.2,0.3c-2.9,0.1-4.6,0-7.3-0.1c-5-0.2-5.1,0.1-7.7,0
			c-2.4-0.1-5.8-0.6-10-1.9c-0.3-0.7-0.6-1.8-0.9-3.1c-0.2-0.7-0.4-1.6-0.5-2.1c-0.5-2.3-0.1-4,0-5.7c0.1-1.5,0-3.6-0.9-6.2
			c0.5-0.2,1-0.3,1.4-0.5c0.2-0.6,0.5-1.5,1-2.6c1-2.4,1.4-2.6,1.9-4c0.6-1.7,0.6-3.2,0.6-5.4C974.6,508.7,974.4,507.3,974.2,506z"
			/>
	</g>
</g>
<g>
	<g>
		<path fill="#8E23AA" d="M974.2,541.5c3.6,0.6,7.6,1.1,12.1,1.3c6,0.2,11.3-0.1,15.8-0.7c0,1.6,0,2.9,0.1,4.1c0,3.9,0,4.7-0.3,5.9
			c-0.3,1-0.8,2.6-2.2,3.9c-0.8,0.7-1.6,1-2.1,1.2c0.1,0.3,0.3,0.8,0.4,1.4c0.1,0.7,0.2,1.4-0.1,1.7c-0.4,0.3-0.9-0.4-1.7-0.2
			c-0.6,0.1-1.2,0.7-1.4,1.3c-0.2,0.7-0.1,1.5,0.4,2.1c0.2,0.6,0.4,1.5,0.2,2.6c-0.2,1.5-1.1,2.5-2,3.4c-0.8,0.9-2.5,2.4-5.1,3.4
			c-0.5-0.6-1.1-1.7-1.8-3.1c-0.8-1.7-1-2.5-1.7-4.1c-0.3-0.7-0.7-1.3-2.2-3.4c-1.6-2.3-2.5-3.5-4.2-5.9c-2.9-4-3.2-4.6-3.6-5.3
			c-0.6-1.2-1.3-3-1.4-5.4C973.5,543.9,973.9,542.4,974.2,541.5z"/>
	</g>
</g>
<g>
	<path fill="#7BB342" d="M972.6,578c0.8-0.4,1.7-0.9,2.8-1.3c0.9-0.3,2.1-0.9,3.7-1.2c2.9-0.7,3.7-0.2,5.6-0.9
		c1.3-0.5,2.2-1.3,2.8-1.8c-0.4-0.7-1-1.9-1.7-3.4c-1.5-3-1.8-3.5-2.3-4.3c-1.2-1.9-1.4-1.6-3.1-3.8c-2.1-2.8-3.3-5.2-3.3-5.2
		c-1.1-2.1-1.3-3.2-2.3-3.4c-0.9-0.2-1.9,0.5-2.6,1.1c0,0.8-0.1,1.9,0,3.1c0.1,1.5,0.1,3,0.6,4.8c0.5,2,0.9,2.3,1.7,5.1
		c0.3,1.2,0.6,2.1,0.7,2.7c-1.1,0.9-2.2,1.8-3.3,2.7C972.1,574.1,972.4,576,972.6,578z"/>
</g>
<g>
	<path fill="#AC6E5E" d="M952,508.1c3.6,0.1,7.1,0.1,10.9,0c1.3,0,2.5-0.1,3.7-0.1c2.3-0.6,4.5-1.3,6.7-1.9c0.2,1.2,0.4,3,0.1,5.1
		c0,0.4-0.2,1.6-0.8,3.9c-0.5,1.7-1.2,4-2.4,6.6c-1.4-0.3-2.7-0.6-3.6-0.9c-2.3-0.6-2.7-0.8-3.1-1.2c-0.7-0.8-0.4-1.3-1.1-2.7
		c-0.1-0.3-0.7-1.3-1.7-2.2s-1.5-0.8-4.2-2.1c-2.3-1.1-2.9-1.6-3.1-1.9C952.7,509.7,952.3,508.8,952,508.1z"/>
</g>
<g>
	<path fill="#AC6E5E" d="M957.7,513.6c1.5,0.3,2.2,0.9,2.7,1.4c0.7,0.9,0.5,1.7,1.1,3.1c0.5,1.2,1.2,2,1.9,2.6
		c-1.2,0.1-2.4,0.3-3.7,0.4c-3.4,0.3-6.6,0.4-9.6,0.4c0.1-0.4,0.1-0.9-0.2-1.3c-0.4-0.6-1.1-0.5-1.3-1c-0.1-0.4,0.1-0.9,0.4-1.2
		c0.5-0.4,1.1-0.1,2.4,0.1c2,0.3,3.7,0,4.8-0.1c0.7-0.1,1.2-0.2,1.6-0.3C957.6,516.4,957.6,515,957.7,513.6z"/>
</g>
<g>
	<path fill="#AC6E5E" d="M950.2,522.4c4-0.2,7.9-0.5,11.9-0.7c0,1.5,0,3,0.1,4.6c-0.1-0.2-0.5-0.7-1.1-1.1c-0.7-0.4-1.3-0.4-1.6-0.4
		c-0.8,0-1.3,0.2-1.6,0.4c0,0.9,0.1,1.7,0.1,2.6c-1.5,0-3.1-0.1-4.6-0.1c-1.2,0-1.7-0.3-1.9-0.6c-0.2-0.4,0-0.8-0.2-1.6
		c-0.1-0.4-0.3-0.5-0.5-0.9C950.6,523.9,950.3,523.3,950.2,522.4z"/>
</g>
<g>
	<path fill="#AC6E5E" d="M962.9,521.6c0.1,1.7,0.2,3.3,0.4,5c2-0.1,4-0.2,6.1-0.2c0-0.5,0-1.1-0.2-1.9c-0.2-0.8-0.4-1.7-1.1-2.3
		c-0.7-0.6-1.5-0.7-2.5-0.7C964.4,521.3,963.5,521.5,962.9,521.6z"/>
</g>
<g>
	<path fill="#FBAF16" d="M962.8,527.6c1.9-0.1,4.5-0.5,6.3-0.7c0.1,1.7,0.2,3,0.2,4c0.1,0.9,0.1,1.8,0.2,2.9
		c0.1,1.4,0.2,2.1,0.2,2.6c0.1,0.8,0.4,2,1,3.4c-0.9-0.1-3-0.3-4.7-1.9c-1.2-1.1-1.8-2.3-2.1-3c-0.6-1.4-0.8-2.6-0.9-3.4
		C963.1,530.6,962.5,529.4,962.8,527.6z"/>
</g>
<g>
	<path fill="#AC6E5E" d="M939.8,518c2-1.4,3.5-2.7,4.4-3.7c2.2-2.3,3.3-3.4,3.6-4.2c0.1-0.3,0.4-1,1.1-1.4c0,0,0.8-0.4,1.6-0.1
		c0.6,0.2,0.7,0.7,1.2,1.4c0.6,0.7,1.3,1.2,2.7,2c0.6,0.4,1.4,0.8,2.4,1.2c0,1.2,0,2.5,0,3.7c-0.4,0.2-1,0.4-1.7,0.4
		c-1.1,0-1.4-0.4-3-0.7c-1-0.2-1.6-0.3-2.4-0.1c-0.4,0.1-1.4,0.4-1.8,1.4c0,0-0.3,0.9,0.1,1.7c0.3,0.5,0.8,0.5,1,1s0.1,1-0.1,1.4
		c-2.3,0.3-4.7,0.7-6.9,1c0-0.3,0-0.9-0.2-1.4c-0.3-0.8-0.8-1-1.3-1.7C940.1,519.6,939.8,519,939.8,518z"/>
</g>
<g>
	<path fill="#AC6E5E" d="M946.8,524.6c0-0.4,0-0.9,0.1-1.3c0.8-0.2,1.6-0.3,2.4-0.5c-0.2,0.5-0.3,1.1,0,1.6c0.4,0.6,1.1,0.4,1.3,0.9
		c0.3,0.6-0.5,1.1-0.2,1.7c0.2,0.4,0.6,0.4,1.6,0.9c0.6,0.3,1,0.6,1.3,0.8c1.8,0,3.6,0,5.4,0.1c0.1-0.1,0.4-0.4,0.4-0.7
		c0.1-0.7-0.4-1-0.3-1.7c0-0.1,0.1-0.7,0.5-0.9c0.6-0.3,1.7,0.6,2.2,1.4c0.9,1.3,0.8,2.8,0.7,3.4c-1.2,0-2.5,0-3.7,0
		c-0.1,0.2-0.3,0.5-0.4,0.9c-0.3,1.4,0.5,2.2,0.1,3c-0.3,0.7-1.2,0.9-1.9,1.1c-1.3,0.3-2.5,0-3-0.2c-0.1-0.9-0.1-1.7-0.2-2.6
		c-0.3-0.2-0.7-0.4-1.2-0.6c-0.9-0.3-1.4-0.2-2.4-0.3c-0.4-0.1-1.1-0.2-1.8-0.4C947.3,529,947,526.8,946.8,524.6z"/>
</g>
<g>
	<path fill="#FBAF16" d="M959.5,545.4c1.5-0.4,3.1-0.7,4.9-0.9c3.1-0.4,5.8-0.3,7.9-0.1c0.2-1,0.4-2,0.6-2.9c-0.4-0.1-1-0.1-1.7-0.3
		c-1.4-0.3-2.3-0.8-3.4-1.2c-0.9-0.4-2-0.9-3.2-1.7c0.1,0.3,0.6,1.4,0,2.1c-0.3,0.4-0.8,0.5-1.1,0.5c-1.9,0.2-3.6,0.4-4.7,0.4
		C959.1,542.6,959.3,544,959.5,545.4z"/>
</g>
<g>
	<path fill="#FBAF16" d="M959.9,546.1c2-0.5,3.8-0.8,5-0.9c1.4-0.1,2.5-0.1,4.1-0.1c1.4,0,2.6,0,3.4,0.1c0,0.4,0,0.9,0.2,1.6
		c0.1,0.3,0.2,0.9,0.9,2.5s1,2,0.8,2.3c-0.2,0.4-0.8,0.1-1.6,0.5c-0.6,0.3-0.8,0.8-1.2,1.3c-0.4,0.7-1.1,1.6-2.2,2.7
		c-0.2-0.4-0.4-0.9-0.6-1.3c-0.4-0.1-1-0.3-1.8-0.2c-1.5,0.1-1.8,0.8-3,0.7c-1-0.1-1.9-0.7-2.4-1.1c-0.5-0.4-0.8-0.7-1.1-1
		c0-0.4,0.1-1.1-0.1-1.9c-0.1-0.8-0.4-1.3-0.5-1.7C959.7,548.8,959.5,547.7,959.9,546.1z"/>
</g>
<g>
	<path fill="#8E23AA" d="M903.1,488.4c4.2,3.3,8.3,6.6,12.5,9.9c-0.2-1.3-0.3-2.6-0.5-3.9c5.5-0.4,11-0.9,16.5-1.3
		c-1.2-3.2-2.4-6.3-3.6-9.5c-6.1-0.1-12.2-0.1-18.3-0.2c-0.4,0.3-0.9,0.8-1.6,1.4c-1.4,1.3-1.7,1.7-2.5,2.3
		C905.1,487.5,904.3,488,903.1,488.4z"/>
</g>
<g>
	<path fill="#AC6E5E" d="M902.1,457.5c3.1,0.3,6.2,0.6,9.4,0.8c2.5,0.2,4.9,0.4,7.2,0.6c0.5,0.2,1.2,0.5,1.9,1.1
		c1.3,1.2,1.6,2.8,1.9,4.1c0.5,2.3,1.4,4.4,1.9,6.5c0.7,3.1,1.6,6.8,2.9,12.1c-5.8,0-11.5-0.1-17.3-0.1c0.1-2.3,0.5-3.8,0.9-4.7
		c0.1-0.4,0.4-1.2,0.1-1.9c-0.3-0.6-0.8-0.9-1.2-1.1c-1.2-2.7-2.5-5.5-3.7-8.1c-0.7,0-1.4-0.1-2.1-0.1c0-1.2-0.1-2.4-0.1-3.6
		C903.4,461.2,902.8,459.3,902.1,457.5z"/>
</g>
<g>
	<g>
		<path fill="#8E23AA" d="M878,510.1c2.4,1.7,4.3,3.1,5.7,4c1.7,1.1,3.4,2.4,5.1,3.5c2.1,1.4,2.8,1.8,3.5,2.8
			c1.1,1.5,1.4,3.2,1.4,4.4c3-3.4,6.1-6.7,9-10.1c0.3-8.2,0.5-16.5,0.8-24.7c-0.2-0.3-1-1.4-2.4-1.9s-2.5-0.2-2.9-0.1
			c-1-1-2.3-2.1-3.9-3.2c-3.2-2.1-6.2-3.2-8.4-3.7c-0.1,2.6,0,4.6,0.1,6.1c0.1,2.1,0.3,3.9-0.1,6.4c-0.1,0.7-0.3,1.3-0.4,1.7
			c-2.3,0.1-4.5,0.1-6.7,0.2c-0.1,0.7-0.1,1.4-0.2,2.1c1.5,2.9,3,5.8,4.5,8.6C881.3,507.5,879.7,508.8,878,510.1z"/>
	</g>
</g>
<g>
	<path fill="#FBAF16" d="M945.5,546c1.5,0.7,3.1,0.6,4-0.2c0.3-0.3,0.7-0.8,0.9-1.4c0.2-0.6,0.3-1,0.3-1.4c2.5-0.1,5-0.2,7.4-0.4
		c0.3,1.5,0.6,3.1,0.9,4.6c0.1,2,0.2,4,0.2,5.9c-0.4-0.1-1-0.4-1.7-0.5c-2.4-0.5-3.2,0.2-5.7,0.1c-2.2-0.1-2.4-0.7-4-0.4
		c-1.5,0.2-2.6,0.9-3.4,1.4c0.3-1.1,0.6-2.3,0.8-3.8C945.5,548.5,945.5,547.2,945.5,546z"/>
</g>
<g>
	<path fill="#AC6E5E" d="M950,536.3c2.6,0,5.2-0.1,7.6-0.1c0.1,1.9,0.2,3.7,0.3,5.6c-2.5,0.2-5,0.4-7.3,0.6
		C950.4,540.3,950.2,538.3,950,536.3z"/>
</g>
<g>
	<path fill="#AC6E5E" d="M958.7,535.1c0.2-0.3,0.4-0.7,0.5-1.3c0.2-1.1-0.1-1.7,0.2-2.1c0.2-0.4,0.9-0.7,2.7-0.5
		c0.3,1.1,0.6,2.1,0.9,3.2c0.2,0.8,0.4,1.7,0.5,2.8c0.1,0.9,0.1,1.7,0,2.4c-1.5,0.1-3,0.3-4.6,0.4
		C958.9,538.3,958.8,536.7,958.7,535.1z"/>
</g>
<g>
	<g>
		<path fill="#8E23AA" d="M944.2,555.1c0.4-0.3,1-0.6,1.8-0.9c1-0.4,1.5-0.6,2.2-0.7c1.2-0.1,1.6,0.4,3.4,0.4c0.3,0,0.6,0,0.8,0
			c0,0.5-0.1,1.2-0.1,2.1c-0.1,1.3-0.1,2.5-0.2,4c-0.2,2.6-0.3,3.1-0.7,3.2c-0.4,0.2-0.7-0.3-1.7-0.5c-0.7-0.2-1.2-0.1-2.4,0.1
			c-0.8,0.1-2,0.3-3.6,0.6c0.1-1.7,0.2-3.5,0.2-5.2C944.1,557.2,944.1,556.1,944.2,555.1z"/>
	</g>
</g>
<g>
	<path fill="#AC6E5E" d="M953.3,554.2c0,1.9-0.1,3.4-0.2,4.5c-0.2,2.7-0.3,4-0.6,5.8c-0.3,1.6-0.5,2.3-0.5,3.6s0.3,2.3,0.5,3
		c-1,3-2,5.9-3.1,8.8c3.7,0.5,6.4,0.4,8.5,0.6c1.2,0.1,2.3,0.2,3.9,0.2c1.4,0,3.3,0.4,5.4-0.2c1.9-0.5,3.4-1.2,4.4-1.7
		c-0.2-2.3-0.5-4.6-0.7-6.8c1.1-0.8,2.3-1.7,3.4-2.5c-0.7-1.6-1.4-3.2-2.1-4.7c-0.1-1.5-0.3-3-0.4-4.5c-0.1-2-0.2-3.9-0.2-5.8
		c-0.5,1-1,2-1.4,3.1c-0.8-0.4-1.5-0.9-1.9-1.2c-0.7-0.5-0.8-0.6-1.2-0.7c-0.8-0.1-1.1,0.5-2.1,0.8c-0.8,0.2-1.5,0-2.1-0.1
		c-1.1-0.3-1.4-0.8-2.7-1.6c-0.2-0.1-1.3-0.7-2.3-1C957.2,553.5,955.6,553.2,953.3,554.2z"/>
</g>
<g>
	<path fill="#AC6E5E" d="M938.1,550.6c0.4,0.2,1.1,0.5,1.9,0.6c0.8,0.1,1.8,0.3,2.7-0.2s1.3-1.5,1.6-2.2c0.6-1.7,0.3-3.3,0.1-4.4
		c-0.2-0.8-0.5-2-1.2-3.3c0.7-0.1,1.4-0.1,2.1-0.2c-0.1-1.5-0.1-2.8-0.1-3.8c0-2.9,0.2-3.8,0.6-4.7c0.3-0.8,0.7-1.5,1-1.9
		c-0.4-0.1-2-0.7-3.6,0.2c-0.5,0.3-0.9,0.6-1.1,0.9c-1.3,0-2.7,0-4,0C938.1,538,938.1,544.3,938.1,550.6z"/>
</g>
<g>
	<path fill="#AC6E5E" d="M944.8,542c0.4-0.1,0.9-0.2,1.3-0.4c0-1.8-0.1-3.6-0.1-5.4c1.1,0.1,2.2,0.1,3.4,0.2
		c0.2,1.9,0.4,3.7,0.6,5.6c0,0.2,0.2,1.1-0.4,2c-0.5,0.7-1.2,0.9-1.4,1c-1.3,0.4-2.5-0.2-2.7-0.4C945.1,543.7,944.9,542.8,944.8,542
		z"/>
</g>
<g>
	<path fill="#AC6E5E" d="M947,531.9c-0.1,0.4-0.3,1-0.4,1.6c-0.1,0.7-0.1,1.3-0.1,1.8c1.6,0,3.2,0,4.9,0c0.3-0.7,0.7-1.3,1-2
		c-0.2-0.2-0.5-0.4-1-0.6c-0.8-0.3-1.3-0.3-2.1-0.3C948.7,532.3,947.9,532.2,947,531.9z"/>
</g>
<g>
	<g>
		<path fill="#8E23AA" d="M943.5,564.2c1.1-0.3,2.7-0.7,4.5-0.7c1,0,2,0.1,2.7,0.2c0.2,2.3,0.5,4.6,0.7,6.8c-1,3-2,6-3.1,8.8
			c-1.9-0.1-3.8-0.2-5.7-0.2c0.2-2.7,0.5-5.3,0.7-7.9C943.5,569,943.5,566.6,943.5,564.2z"/>
	</g>
</g>
<g>
	<path fill="#AC6E5E" d="M924.1,588.8c3.8-0.2,7.6-0.4,11.4-0.6c-1.1-2.1-2.2-4.3-3.2-6.3c3.1-0.8,6.1-1.5,9.1-2.3
		c0.6-8.2,1.2-16.6,1.7-24.8c-1.2-0.5-2.3-0.8-3.1-0.9c-1.5-0.3-2.2-0.5-3.1-0.4c-1.5,0.2-1.6,0.7-2.8,0.6c-0.5-0.1-0.6-0.2-2.2-0.7
		c-0.9-0.3-1.5-0.5-2-0.6c-0.8-0.2-2-0.3-3.6,0c-0.7,0.6-1.7,1.5-2.8,2.7c-1.2,1.2-1.6,1.8-2.4,2.6c-0.7,0.6-1.8,1.5-3.4,2.4
		c-0.3,0.8-0.5,1.6-0.6,2.2c-0.3,1.5-0.1,2.1-0.5,3.1c-0.2,0.4-0.5,1.2-1.2,1.8c-1,0.8-1.9,0.4-4.2,0.7c-2.4,0.3-4,0.9-4.4,1.1
		c-1.4,0.6-2.5,1.3-3.2,1.9c3,1.8,6,3.5,9,5.3c0.5-0.2,1.1-0.5,1.9-0.7c1.9-0.5,3.4-0.6,4-0.6c0.7,0,1.7,0.1,2.7,0.3
		c0.6,3,2.2,5.8,2.8,8.8C924.4,585.6,923.7,587.3,924.1,588.8z"/>
</g>
<g>
	<path fill="#AC6E5E" d="M924.2,589.7c3.9-0.2,7.6-0.5,11.5-0.7c0,3.4,0.1,6.6,0.1,10c0.2,0.4,0.5,0.9,1.1,1.2
		c0.7,0.3,1.4,0.1,2.2-0.1c0.9-0.2,2.1-0.5,3.8-0.8c0,0.7,0.2,1.9,1,2.9c0.4,0.6,0.8,0.8,0.9,0.9c0.9,0.5,1.8,0.3,2.1,0.2
		c0.8,1.3,1.5,2.5,2.3,3.8c0,0.5,0,1.4,0.3,2.4c0.2,0.7,0.6,1.2,0.8,1.5c1.6,0,3.2,0,4.8,0.1c0,0.8,0,1.6,0.1,2.4
		c-1.3,0.5-2.1,0.4-2.7,0.2c-0.7-0.2-0.9-0.6-1.7-0.9c-0.8-0.4-1.6-0.5-2.1-0.5c-1.8,0-3.5,0-5.3,0c0.1,1.8,0.2,3.6,0.3,5.4
		c-2.2,0-4.4,0-6.5,0.1c-0.1,0.1-0.2,0.3-0.3,0.6c-0.2,0.8,0.2,1.2-0.1,1.6c-0.2,0.4-0.8,0.2-1.7,0.6c-0.5,0.2-0.8,0.5-1.1,0.7
		c-0.1,1.9-0.2,3.8-0.2,5.7c-5.6-1.9-11-3.7-16.6-5.6c1-2.2,2-4.4,2.9-6.5c0-0.3-0.1-0.8-0.1-1.4c0-0.7,0-1.4,0.2-2.1
		c0.3-0.9,0.7-1.1,1.1-1.8s0.7-1.8,0.2-3.6c1.4-0.3,2.8-0.6,4.2-0.9C925.2,599.6,924.7,594.7,924.2,589.7z"/>
</g>
<g>
	<path fill="#AC6E5E" d="M900.5,569.6c0.8,0.4,1.7,0.9,2.5,1.3c-0.3,0.4-0.7,1-0.9,1.9c-0.1,0.4-0.4,1.5-0.1,2.8s1.1,2.1,1.4,2.4
		c1,1,1.5,0.8,2.4,1.7c0.4,0.4,1,1.1,1.1,2.2c0,0.8-0.3,1.5-1.1,2.7c-0.4,0.7-0.9,1.3-1.2,1.7c-2.7-1.3-5.4-2.7-8-4
		c0.2-0.1,1.1-0.7,1.2-1.9c0.1-0.8-0.2-1.5-0.2-1.7c-0.3-0.7-0.9-1.1-1.1-1.2c0.7-0.6,1.5-1.5,2.3-2.7
		C900,572.7,900.3,570.6,900.5,569.6z"/>
</g>
<g>
	<path fill="#8E23AA" d="M900.9,568.8c0.8,0.5,1.7,1,2.5,1.5c0.4-0.3,0.9-0.7,1.6-1.1c0.6-0.3,1.9-1,4.2-1.5
		c3.2-0.6,4.2,0.1,5.4-0.9c0.7-0.6,1-1.4,1.3-2.2c0.8-2.1,0-2.8,0.6-4.1s1.6-0.9,3.7-2.8c1.3-1.2,1.3-1.6,2.9-3.1
		c1.2-1.2,2.4-2,3.2-2.6c0.1-0.3,0.2-1,0-1.8c-0.1-0.4-0.3-1.1-1-1.6c-0.9-0.6-1.9-0.3-2.2-0.2c-0.8,0.2-0.8,0.5-1.6,0.6
		c-0.3,0.1-0.9,0.2-1.6-0.1c-0.7-0.3-0.8-0.8-2.1-2.3c-0.7-0.9-1.1-1.4-1.6-1.6c-0.9-0.4-1.8-0.3-2.4-0.2c0,1.7,0,3.4,0,5.1
		c-0.2,0.5-0.5,1.2-0.7,1.9s-0.3,1.3-0.4,1.9c-1.1,0.9-2.6,2.3-4.1,4.2c-1.2,1.6-1.7,2.7-2.6,4.2
		C904.9,563.8,903.3,566.2,900.9,568.8z"/>
</g>
<path fill="#AC6E5E" d="M916.3,538.3c1.9-2.3,3.9-4.6,5.8-6.8c0,0.2,0.1,0.6,0.4,0.8c0.4,0.3,0.9,0.3,1.2,0.3c0.9-0.1,1.4-0.5,2-0.8
	c0.6-0.4,1.1-0.4,3-0.7c3.9-0.5,7.2-0.8,8.5-0.9c0,6.4,0,12.9,0,19.3c-0.5,0.1-1.3,0.3-2.3,0.3c-1.2,0-1.8-0.4-3.1-0.7
	c-2.5-0.8-2.4-0.2-4.8-1c-1.8-0.6-2.5-1.1-3.7-0.8c-0.8,0.2-1.3,0.6-1.7,0.8c-0.4,0-1,0-1.6-0.2c-0.9-0.3-1.4-0.9-2-1.5
	c-0.9-1-1.7-2-1.5-3c0.1-0.4,0.3-0.5,0.5-1.4c0.1-0.2,0.2-0.8,0.1-1.4C917.1,539.7,916.6,538.8,916.3,538.3z"/>
<path fill="#BABABA" d="M915.7,538.9c0.1,0.2,0.3,0.4,0.4,0.8c0.1,0.1,0.1,0.5,0.1,1c0,1.2-0.6,2.9-0.7,3.1
	c-0.9,0.1-1.7,0.2-2.6,0.2c0-0.5,0-1.2,0.2-2c0.2-0.7,0.3-1.3,0.7-1.9C914.3,540,914.8,539.4,915.7,538.9z"/>
<path fill="#8E23AA" d="M920.6,531.6c-0.6,0.7-1.4,1.6-2.4,2.7c-1.4,1.6-2.1,2.4-2.6,2.9c-1.8,1.7-2.2,1.6-2.8,2.6
	c-0.8,1.3-0.9,2.6-0.9,3.8c-0.1,2,0.4,2.3,0.5,4.9c0,1.3,0,2.2-0.3,3.3c-0.6,2-1.9,3.2-2.8,3.9c-0.6,0.1-1.6,0.1-2.7,0
	c-1.7-0.1-4.1-0.3-5.8-1.7c-0.6-0.5-1-1-1.8-2.7s-1.9-4.1-2.9-7.1c3.1-1.4,6.2-2.7,9.3-4.1c-0.1-0.7-0.2-1.5-0.2-2.2
	c-1.1-1.4-2.2-2.7-3.3-4.1c0-1.6,0-3.3,0-4.9c3.2,0.8,6.3,1.6,9.5,2.3c0.1,0.3,0.3,0.8,0.7,1.4c0.3,0.4,0.9,1.2,1.8,1.4
	c0.3,0.1,0.6,0,3.7-1.3c0.3-0.1,1-0.7,1.6-0.9C920,531.4,920.3,531.7,920.6,531.6z"/>
<path fill="#AC6E5E" d="M922.6,531.1c1.1-1.8,2.2-3.6,3.3-5.4c0.5,0.1,1,0.2,1.5,0.3c1.2,0.2,1.4,0.1,1.5,0c0.6-0.3,0.5-0.8,1-1.1
	c0.6-0.3,1-0.1,1.7-0.1c0.6,0,1.5-0.3,2.5-1.5c0,0.1-0.3,0.9,0.1,1.5c0.3,0.3,0.6,0.4,1.1,0.6c0.4,0.1,1.4,0.4,2.2-0.1
	c0.6-0.4,0.5-0.7,0.9-1.2c0.4-0.3,1.1-0.6,2.4-0.4c-0.1,1.4-0.1,2.7-0.2,4.1c-0.2,0.1-0.5,0.3-0.7,0.5c-0.7,0.5-1.4,1-2,1.5
	c-1.6-0.3-2.9-0.3-3.8-0.2c-2,0.2-2,0.6-4.5,0.9c-1.8,0.2-2.3,0.1-3.4,0.6c-0.6,0.3-1,0.6-1.7,0.7
	C923.8,531.8,923.1,531.4,922.6,531.1z"/>
<path fill="#AC6E5E" d="M938.2,530c1.1-0.8,2.2-1.5,3.4-2.3c0-1.3-0.1-2.7-0.1-4c1.5,0,3.1,0,4.6,0c0,2,0.1,3.9,0.1,5.9
	c-0.6-0.1-1.6-0.1-2.6,0.3c-0.7,0.2-0.7,0.4-1.4,0.6c-0.7,0.2-1.1,0.2-2.9,0.3c-0.5,0-0.9,0.1-1.1,0.1
	C938.2,530.5,938.2,530.3,938.2,530z"/>
<path fill="#AC6E5E" d="M926.3,525.1c0.5,0,1,0.1,1.3,0.1c0.8,0,0.9,0,1.1,0c0.5-0.2,0.5-0.5,0.9-0.7c0.6-0.5,1.3-0.2,2-0.2
	s1.6-0.4,2.8-1.8c0,0.1-0.3,1,0.2,1.7c0.5,0.6,1.2,0.6,1.4,0.7c0.1,0,0.8,0.1,1.4-0.4c0.4-0.3,0.4-0.6,0.6-0.8
	c0.3-0.4,1-0.7,2.9-0.4c0-0.7,0-1.4,0-2.2c-0.2,0-0.4-0.1-0.7-0.3c-0.5-0.3-0.7-0.8-0.8-1.1c-0.2-0.5-0.3-0.9-0.3-1.3
	c-0.5,0.3-0.9,0.5-1.3,0.7c-0.5,0.3-0.9,0.5-1.5,0.7c-0.7,0.3-1,0.5-1.3,0.6c-1,0.3-1.4,0-2.6,0.1c-0.7,0.1-1.2,0.3-1.5,0.4
	c-1,0.4-1.7,1-2.3,1.6C928,523,927.2,523.9,926.3,525.1z"/>
<path fill="#8E23AA" d="M902.1,528.1c0.8-2.4,1.6-4.8,2.3-7.1c1.3,0.1,2.7,0.3,4.2,0.6c1.8,0.3,2.6,0.5,3.1,0.7
	c0.9,0.4,1.3,0.7,2.1,0.6c1-0.1,1.6-0.9,1.6-0.9c0.5-0.6,0.3-1,0.7-1.5c0.1-0.1,0.8-1,1.9-0.8c0.7,0.1,1.2,0.6,1.3,0.8
	c0,1.5,0.1,3,0.1,4.5c0.1,0.2,0.2,0.5,0.6,0.8c0.7,0.5,1.7,0.2,1.8,0.2c0.7-0.2,0.7-0.5,1.3-0.6s1.1,0.2,1.5,0.5
	c-0.8,1.4-1.5,2.8-2.3,4.3c-0.3-0.2-0.7-0.3-1.3-0.3c-0.6,0.1-1,0.4-1.5,0.7c-0.8,0.6-0.5,0.2-3,1.5c-1.6,0.8-1.8,1.1-2.3,1
	c-0.9-0.1-1.4-1-1.6-1.2c-0.4-0.6-0.5-1.2-0.6-1.5C908.8,529.6,905.5,528.9,902.1,528.1z"/>
<path fill="#BABABA" d="M936.1,674.1c0.8-3.4,1.6-6.8,2.3-10.2c0.1-0.3,0.4-0.8,0.9-1.2c0.6-0.5,1.3-0.6,2-0.7
	c0.4-0.1,1.1-0.2,1.9-0.1c3.7,0,7.2,0.1,10.9,0.1c0.3,0.2,0.7,0.4,1,0.9c0.7,0.9,0.6,1.9,0.6,2.2c-0.1,2.4-0.2,4.9-0.4,7.2
	c0,0.5-0.1,1.1-0.3,1.7c-0.4,1.2-1,2.2-1.4,2.7c-5.5,0.4-8,0.1-9.2-0.4c-0.4-0.1-1.5-0.6-2.8-0.3c-0.7,0.2-0.7,0.4-1.5,0.6
	c-0.7,0.2-2,0.5-3-0.2C936.2,675.7,936.1,674.4,936.1,674.1z"/>
<path fill="#7BB342" d="M940.3,656.5c1.2,1.4,2.4,2.8,3.7,4.2c4.1,0.1,7.3,0.1,9.8,0c2.9-0.1,4.8-0.2,6.6-0.5
	c3.7-0.4,5.5-0.7,6.6-1.4c3.6-2.2,4.1-7.6,4.1-9.8c-0.6-1.7-1.1-3.3-1.7-5c0.8-0.3,1.6-0.6,2.3-0.8c-0.4-1.2-0.9-3-0.5-5
	c0.3-1.4,0.8-2.1,1.2-3.2c0.6-1.5,1.2-3.8,0.7-7.1c-1,0-2.4-0.1-4,0c-1.7,0.1-2.9,0.1-4.4,0.4c-1.3,0.2-1.3,0.3-4,1
	c-2.1,0.5-3.1,0.8-4.3,0.9c-2.4,0.3-3.9,0.5-5.1-0.4c-1-0.8-1.3-2-1.4-2.2c-0.3-1.3,0.1-2.4,0.9-4.3c0.7-1.5,1.7-3.5,3-5.7
	c1.9,0.1,3.7,0.1,5.6,0.2c-0.1-2.1-0.2-4.2-0.4-6.2c-0.1-0.1-1.1-1.1-2.4-0.8c-0.5,0.1-0.9,0.4-1.1,0.6c0,1,0.1,2.1,0.1,3.1
	c-0.4,0.1-1,0.2-1.7,0.2c-1.2-0.1-2.1-0.5-2.5-0.7c-0.9-0.4-2.1-0.9-3.6-1.2c-1.8-0.3-3.3-0.3-4.3-0.2c0.1,2.1,0.1,4.1,0.2,6.2
	c-2.2,0-4.4-0.1-6.6-0.1c0,0.8,0.1,1.6,0.1,2.3c-0.4,0-0.8,0.1-1.2,0.2c-0.7,0.2-1.3,0.4-1.7,0.7c-0.1,1.6-0.2,3.1-0.3,4.7
	c3.5,1.2,6.9,2.4,10.4,3.6c0.2,2.1,0.5,4.1,0.7,6.2c0.7,4.2,1.4,8.2,2.2,12.4C945.2,651.1,942.8,653.8,940.3,656.5z"/>
<path fill="#BABABA" d="M913.7,656.3c0.7-0.4,1.7-0.9,2.9-1.7c1.8-1.2,2.9-2.3,4.2-3.6c1.2-1.2,3.1-2.9,5.5-5.2
	c1.3,1.2,2.7,2.4,4,3.6c0.4,0.1,0.9,0.1,1.3,0.2c1.9,1.8,3.8,3.7,5.7,5.5c-0.5,5-1.5,8.5-2.2,10.8c-0.4,1.2-0.8,2.1-1.6,3
	c-1.4,1.5-2.9,1.7-6.3,2.8c-1.3,0.4-3.1,1-5.4,2c-2.4-2.8-4.9-5.6-7.2-8.3c-0.5-1.7-0.9-3.8-0.9-6.3
	C913.5,658,913.5,657.1,913.7,656.3z"/>
<path fill="#BABABA" d="M897.4,616.3c1.2,0,2.5-0.1,3.7-0.1c14.4,4.9,28.8,9.8,43.3,14.7c0.8,5.7,1.7,11.4,2.5,17.1
	c-1.8,2.2-3.6,4.4-5.4,6.5c-2.2-0.8-4.4-1.7-6.6-2.5c-2.5-2.2-5-4.4-7.4-6.6c-0.6-0.1-1.1-0.2-1.7-0.3c0.1-0.8,0.3-1.9-0.3-2.2
	c-0.4-0.3-0.9-0.1-1.1,0c-0.9,0.3-2.7,0.5-6.1,0.2c-0.7-1.4-1.5-2.8-2.2-4.2c-2.8-3.7-5.7-7.3-8.4-11.1c-1.4-1.3-2.8-2.7-4.2-4
	C901.4,621.2,899.4,618.8,897.4,616.3z"/>
<path fill="#7BB342" d="M887,600.7c-0.3,0.1-0.3,0.6-0.5,1c-0.2,0.6-0.8,1.5-2.5,2.2c-1.1,2.2-2.2,4.4-3.3,6.5
	c0.2,0.7,0.7,1.8,1.7,2.8c1.5,1.6,3.2,2,4,2.2c1.9,0.5,3.5,0.3,4.4,0.1c3.2-0.2,6.3-0.3,9.6-0.5c5.3,1.8,10.6,3.6,15.9,5.4
	c1-2,2-4,3-6c-0.3-0.9-0.2-1.6-0.2-2.1c0.1-1.1,0.6-1.6,0.9-3c0.2-0.7,0.2-1.4,0.2-1.8c-2.4-1.2-4.7-2.4-7-3.6
	c0.1-1,0.1-2.5,0.1-4.4c-0.1-3.8-0.6-4.3,0-5.5c0.2-0.4,1.4-1.7,3.7-4.2c0.4-0.5,1-1.1,0.8-1.5c-0.1-0.3-0.7-0.3-2.1-0.4
	c-1.2-0.1-1.9-0.1-2.5-0.3c-1-0.2-1.9-0.4-2.7-1.2c-0.6-0.7-1.3-2-0.9-3c0.5-1.2,1.9-0.9,2.8-2.1c0.6-0.7,1-2.1,0.3-4.8
	c-3.2-1.8-6.2-3.6-9.4-5.4c-0.2,0.4-0.3,1-0.4,1.7c0,0.3,0,1.2,0.4,2.2c0.1,0.2,0.4,1,1.2,1.9c1.5,1.7,2.6,1.5,3.2,2.6
	c0.3,0.5,0.5,1.4,0.1,2.9c-1.3,2-2.6,4.1-3.9,6.1c-0.2,0.1-0.6,0.3-1.1,0.4c-1.7,0.4-2.3-0.2-3.2,0.2c-1.1,0.6-1.3,2.4-1.3,2.6
	c-0.1,1.5,0.7,1.9,0.6,3.2c-0.1,1.2-0.8,1.9-1.7,2.9c-1.3,1.4-2.7,2-5.3,3.1c-1.6,0.7-2.2,0.7-2.7,0.6
	C888.1,601.4,887.5,600.5,887,600.7z"/>
<path fill="#BABABA" d="M880,608.9c0.1,0-0.3,0.7-0.3,1.6c0.1,0.9,0.6,1.7,2.1,3c1,0.9,2.3,2,4.2,3.1c3.5-0.1,6.8-0.2,10.3-0.4
	c1.5,2,2.9,3.8,3.9,5.2c2.7,3.5,3.5,4.5,4.6,5.6c1.8,1.9,3.2,3,3.9,3.6c2.3,1.9,5.2,5.3,7.8,11.9c-1,3.8-1.9,7.5-2.9,11.2
	c-3.6,2.1-7.1,4.2-10.8,6.2c-1.5-0.1-3-0.1-4.5-0.2c-3-5-5.5-8.9-7.4-12.2c-0.6-0.9-1.7-2.8-2.3-5.4c-0.3-1.3-0.6-2.8-0.3-4.7
	c0.5-2.7,1.9-3.1,2.2-5.4c0.1-1.2-0.3-2.3-1-4.5c-0.7-2-2-4.3-4.6-8.7c-1.1-1.8-1.5-2.6-2.4-3.2c-1-0.7-1.8-0.7-2.6-1.7
	c-0.2-0.3-0.9-1-0.9-2.2C878.8,610.2,879.9,608.9,880,608.9z"/>
<path fill="#AC6E5E" d="M874.3,590.1c3.6,4,7,8,10.6,12c0-0.1,0-1.1,0.7-1.7c0.1,0,0.7-0.6,1.6-0.5c0.7,0.1,0.8,0.6,1.5,0.7
	c0.7,0.2,1.3-0.1,2.1-0.4c3.1-1.3,3-0.9,4.5-1.7c1.4-0.8,2.2-1.3,2.4-2.2c0.1-0.6,0-1-0.3-2c-0.4-1.4-0.9-1.6-1-2.6
	c-0.1-0.6-0.3-1.6,0.3-2.3c0.6-0.8,1.9-0.9,3.7-0.9c1.3-0.1,1.7,0.1,2.3-0.3c0.8-0.4,1.1-1.2,1.3-1.8c-2.7-1.2-5.4-2.5-8.1-3.7
	c-0.2-0.3-0.4-0.7-0.4-1.2c0-1,0.7-1.9,1.8-2.3c-0.6-0.6-1.2-1.1-1.9-1.7c-0.6,0.5-1.1,0.9-1.7,1.4c-0.5-0.3-1.3-0.6-2.2-0.8
	c-0.6-0.1-1.9-0.4-3.3,0.1c-0.7,0.2-0.7,0.4-3,1.9c-1.3,0.9-2,1.3-2.5,1.5c-1.2,0.5-1.6,0.3-2.9,0.7c-0.2,0.1-1.1,0.4-2.2,1.2
	c-0.6,0.5-2.2,1.7-3,3.9C874.6,588.2,874.3,589,874.3,590.1z"/>
<path fill="#AC6E5E" d="M871.2,568.1c2.9,4.5,5.9,9,8.7,13.5c0.8-0.2,2.1-0.5,3.6-1.3c1.7-0.9,1.7-1.4,3.3-2.2
	c2.3-1.1,4.3-1.1,4.8-1c1.1,0,2,0.3,2.5,0.5c0.6-0.3,1.5-0.8,2.3-1.7c1.8-1.9,1.9-3.8,2.9-6.4c0.4-1,1.5-2.6,3.7-5.8
	c1.3-1.9,3-4.4,5.2-7.2c-0.8,0.1-1.7,0.1-2.8-0.1c-2.3-0.4-4-1.4-4.9-2.1c-0.3,0.4-1,1-2.1,1.4c-1.6,0.6-2.9,0.1-3.4,0
	c-2,1.6-3.8,2.6-5,3.3c-2.9,1.6-3.9,1.6-7.8,3.7c-2.2,1.1-2.3,1.3-4.7,2.5C875,566.5,872.7,567.5,871.2,568.1z"/>
<path fill="#BABABA" d="M877.9,611.8c-0.7,0.5-1.7,1.3-2.9,2.4c-1.5,1.4-1.7,1.8-2.6,2.7c-2.2,2-2.9,1.3-5.8,3.4
	c-2,1.4-1.8,1.9-4.1,3.5c-1.2,0.8-1.8,1.1-2.9,2c-1.1,0.9-1.9,1.8-2.8,2.9c-2.4,3-4.5,6.3-5.5,7.9c1.3,1.9,2.1,3.5,2.5,4.7
	c0.4,0.9,0.5,1.4,1,2.1c1,1.3,2.1,1.4,3.4,2.3c1,0.8,1.6,1.6,2.6,3.4c1.4,2.4,2,4.1,2.7,6c0.7,1.8,1.8,4.3,3.7,7.1
	c3.9-0.4,7.9-0.8,12.1-1.4c6-0.8,11.6-1.9,17-3c-1.8-3.5-3.5-6.1-4.8-7.8c-1.4-1.9-2.7-3.7-3.8-6.5c-0.8-1.9-1.2-3.2-0.9-4.9
	c0.2-1.3,0.8-1.7,1.9-4.6c0.5-1.5,0.8-2.2,0.8-2.8c0.1-2.4-1.5-4.5-2-5.2c-0.9-1.1-1.3-1.1-2-2.3c-0.4-0.7-0.4-0.9-1.1-2.7
	c-0.7-1.9-1.1-2.9-1.5-3.5c-0.6-0.9-1.3-2-2.6-2.5c-0.9-0.4-1.4-0.2-1.9-0.7C877.8,613.8,877.8,612.7,877.9,611.8z"/>
<path fill="#BABABA" d="M849.1,670.3c0.6-0.9,1.5-2.2,1.8-4c0.1-0.7,0.1-1.1,0.1-2.7c-0.1-5.2,0-5.2-0.1-5.7c-0.3-1.8-0.9-2-2.4-5
	c-0.4-0.8-1.7-3.4-2.6-6.6c-0.7-2.5-1.4-5-1.2-8.2c0.1-1.7,0.4-3.3,0.7-6.4c0.1-1.4,0.2-2.8,0.2-2.8c0-0.8,0.1-1.5,0.1-2.1
	c0.5-0.3,1.3-0.6,2.2-0.7c1-0.1,1.8,0.1,2.2,0.2c1.1,0.3,2.9,0.5,5.7,0.2c0.2,0.5,0.4,1.1,0.6,1.6c-1.8,2.8-3.7,5.6-5.5,8.3
	c0.1,0.4,0.4,1,0.7,1.7c0.6,1.3,0.8,1.6,1.6,3.1c1.1,2.1,1,2.4,1.6,3c0.7,0.7,1.1,0.6,2.2,1.2c1.6,1,2.5,2.3,3,3.1
	c0.9,1.3,0.8,1.8,1.8,4.4c0.7,1.7,1.3,2.9,1.9,4.1c0.8,1.6,2,3.7,3.7,6.2c-0.2,0.7-0.6,1.7-1.1,2.8c-0.5,0.9-0.7,1.4-1,1.8
	c-0.6,0.8-1.5,1.2-4.9,2c-2.1,0.5-3.2,0.7-4.6,0.8C853.9,670.5,851.7,670.6,849.1,670.3z"/>
<path fill="#BABABA" d="M834.2,637.4c3-0.8,6-1.7,8.9-2.5c0.6,2,0.8,3.7,0.7,4.9c0,1.9-0.4,3.3-0.7,4.4c-0.4,1.6-1,2.9-1.4,3.8
	c-2.6,0-5.2,0-7.7,0C834.2,644.5,834.2,640.9,834.2,637.4z"/>
<path fill="#BABABA" d="M829.8,645.5c1.1-2.8,2.1-5.7,3.2-8.4c3.2-1,6.3-1.9,9.5-2.9c-0.2-0.4-0.4-1-0.5-1.7s-0.2-1.3,0.1-1.6
	c0.4-0.5,1.5-0.5,2.6,0c0.1-1.6,0.2-3.1,0.4-4.7c0.6-0.1,1.4-0.4,2.2-0.7c1.6-0.7,2.7-1.7,3.4-2.4c-0.6,0.2-1.5,0.5-2.5,0.5
	c-0.3,0-1,0-1.9-0.3c-1-0.3-1.2-0.6-1.9-0.8c-1.3-0.5-2.5-0.2-4.8,0.5c-1.1,0.3-1.8,0.5-2.7,1.1s-0.8,0.8-1.5,1.2
	c-1,0.5-1.6,0.3-3.2,0.7c-0.8,0.2-1.5,0.4-1.9,0.6c-2.3,2.3-4.6,4.6-6.7,6.8c-0.9-0.6-1.8-1.2-2.7-1.9c-0.1,0.4-0.2,1-0.4,1.8
	c-0.3,1.5-0.6,3.1-0.5,4.9c0.1,1.2,0.2,3,1.2,4.9c0.5,1,1.1,2,2.2,2.2c1.2,0.3,2.3-0.5,2.6-0.7C827.3,644.7,828.6,645.1,829.8,645.5
	z"/>
<path fill="#BABABA" d="M821,619.9c-0.4,1.7-0.5,3.2-0.5,4.2c0,0.5,0.1,2.7,1.1,5.5c0.4,1.1,0.9,2,1.2,2.6c1.6-0.7,2.5-1.6,3.1-2.2
	c0.8-1,1.8-3,3.1-3.6c0.3-0.1,0.6-0.3,0.6-0.3c0.6-0.2,1.2-0.3,3.8-1.2c1.4-0.5,1.9-0.6,2.7-1.1c1.3-0.8,1.3-1.3,2.3-1.7
	c0.3-0.1,0.5-0.2,3.3-0.4c2.1-0.2,2.2-0.2,2.5-0.1c1.5,0.3,1.5,1.1,2.6,1.1c1.3,0.1,1.7-1,3.1-0.7c0.5,0.1,1.3,0.4,1.5,0.9
	c0.2,0.7-0.7,1.9-2.3,2.7c3.1,0,6.1-0.1,9.1-0.1c1.2-1,2.1-1.8,2.8-2.2c1.6-1.1,2.1-1.3,3.7-2.5c1.7-1.3,1.5-1.3,2.6-2.1
	c1.9-1.3,2.6-1.1,4.2-2.2c1.2-0.8,1.4-1.3,3.1-3c2.4-2.5,3.3-3,4.6-4.3c1.5-1.5,3.3-4,4.5-8.1c-2.9-3.3-5.9-6.5-8.7-9.7
	c-1.8,2.4-3.5,4.1-4.9,5.2c-2.7,2.3-5.2,3.6-6.3,4.2c-2.2,1.1-2.3,0.9-3.7,1.8c-2.7,1.7-2.6,2.7-5,4.6c-1.4,1.1-4.5,3.5-7.7,3
	c-0.6-0.1-0.3-0.1-3.9-1.2c-2.4-0.7-3.2-0.9-4.2-0.6c-0.5,0.2-0.4,0.3-2.2,1.3c-1,0.6-1.9,1.1-2.2,1.3c-0.9,0.5-2.7,1-5.7,0.4
	c-0.2,2-0.4,3.9-0.6,5.9C826.2,618.2,823.6,619,821,619.9z"/>
<path fill="#BABABA" d="M811.1,619.6c-0.2,0.2-0.4,0.6-0.6,1.1c-0.3,0.7-0.4,1.2-0.3,1.7c0.2,0.7,1.1,1.3,1.9,1.2
	c0.9-0.1,1-0.9,2.5-1.7c0.4-0.2,1.1-0.5,2.1-0.6c1.4,0,2.5,0.7,2.9,1.1c-0.2-0.8-0.3-1.8,0.2-2.6c0.4-0.6,0.7-0.6,1.2-1.1
	c1-1.2,0.3-2.5,0.8-4.1c0.5-1.4,1.5-2.2,2.3-2.8c2-1.5,4.2-1.6,6.2-1.8c3.1-0.2,4.1,0.4,5.2-0.6c0.9-0.7,0.8-1.5,2-2.2
	c0.8-0.5,1.6-0.5,2.6-0.5c1.6,0,3,0.4,4.7,0.9c0.2,0.1,1.5,0.5,1.5,0.5l0,0c0,0,1.7,0.2,2.1,0.2c0.6,0,1.8,0,4.5-1.6
	c1.4-0.8,3.4-2.2,5.5-4.3c-0.8-0.8-2-2.1-3.7-3.3c-1.3-0.9-2.3-1.4-5.1-2.7c-2.5-1.2-4.5-2.2-6.1-2.9c-1.8,0.6-3.9,1.2-6.3,1.6
	c-3.1,0.5-5.8,0.6-7.9,0.5c0.1,0.7,0.1,1.4,0.2,2.1c-0.5,0.5-1.1,1.1-1.9,2c-0.8,0.8-2,2.3-3.6,4.6c-1.6,2.4-1.7,2.8-2.7,4.3
	s-2.6,3.5-5.2,5.6c-2.3-1.2-4.6-2.3-6.7-3.5c-1.1,1.2-2.2,2.4-3.4,3.7C807.8,616.2,809.4,617.9,811.1,619.6z"/>
<path fill="#AC6E5E" d="M824.5,585.8c6.6,2.2,12.1,4.2,16.1,5.7c4.4,1.7,6.2,2.6,8.3,3.6c4.6,2.4,8,5,10.3,6.8
	c0.7-0.8,1.8-2,3.4-3.1c2-1.4,3.3-1.7,5.2-2.9c1.3-0.8,3.2-2,5.1-4.1c0.1-1.2,0.3-2.7,1-4.5c1.4-3.3,3.7-5.3,4.9-6.1
	c-2.7-4.3-5.5-8.5-8.1-12.8c-0.9,0-2.2-0.1-3.6-0.4c-1.8-0.3-4.6-1-8-2.9c-3.8-2-4.9-3.6-7.8-5.7c-2.5-1.8-6.2-4.1-11.8-5.6
	c-2.2,1.8-4.3,3.6-6.4,5.4c0,1.1-0.1,2.2-0.1,3.4c-0.4,0.7-0.9,1.7-1.2,3c-0.8,2.6-0.3,3.6-0.9,6.1c-0.5,2.2-1.1,2.2-1.9,4.6
	c-0.8,2.3-0.9,4.4-0.9,5.7C826.8,583.3,825.7,584.5,824.5,585.8z"/>
<path fill="#C01F25" d="M844.5,554.3c1.2,0.8,2.8,1.8,4.9,3c3.7,2.1,6.2,3.6,9.5,4.9c2.7,1,3.2,0.9,6.2,2.1c2.3,0.9,4.1,1.8,5.2,2.5
	c1.1-0.2,2.8-0.6,4.9-1.4c6.2-2.3,12.1-6.5,13.6-7.6c1.3-1,3.3-2.5,6.2-3c1.2-0.2,2.3-0.2,3-0.1c0.3-0.8,0.6-1.7,0.9-2.5
	c-1.3-2.6-2.6-5.2-3.9-7.8c0.4-0.9,0.8-1.8,1.2-2.7c2.7-0.9,5.5-1.8,8.1-2.7c-0.7-0.6-2.6-2.3-3.4-5.2c-0.5-1.8-0.3-3.3-0.1-4.2
	c-0.7,0.1-1.8,0.1-3.1-0.2c-0.6-0.2-2.6-0.8-4.1-2.4c-1.9-2.1-0.8-3.7-2.2-6.1c-1.2-2.1-2.8-2.3-7.1-4.9c-1.8-1-4.3-2.6-7-4.7
	c-0.9,0.4-1.8,0.7-2.7,1.1c-1.7-2.1-3.5-4.2-5.2-6.3c-8.1,3.4-16.4,6.7-24.5,10.1c0.3,1.4,0.8,3.4,1.2,5.7c0.8,4.3,1.1,7.1,1.2,8.1
	c0.4,4.2,0.7,6.2,0.1,7.6c-0.5,1.4-1.3,2.4-1,3.7c0.3,1.2,1.5,1,2.2,2.5c0.1,0.2,0.9,1.9,0.2,3.4c-0.1,0.2-0.3,0.6-1.6,1.6
	c-0.7,0.5-1.7,1.2-3.1,1.9C844.3,551.9,844.4,553.1,844.5,554.3z"/>
<path fill="#7BB342" d="M762.2,571.4c2.1-0.8,3.9-1.5,5.4-2c5.6-2.1,7-2.5,9-2.7c1.5-0.2,2.9-0.2,4.7,0c7.6,0.6,14.5,2.8,16.5,3.4
	c6.8,2.2,8.3,3,15.1,5.4c6.1,2.1,11.1,3.5,14.3,4.4c-0.1-1.4-0.2-2.7-0.4-4.1c1.7-4.5,3.3-9,5-13.5c-0.2-1-0.4-2-0.6-3
	c2.6-2.2,5.2-4.5,7.8-6.6c1.5,0.6,3,1.2,4.5,1.7c0-1.2,0-2.3,0-3.5c1.5-1,3-2.1,4.5-3.1c0.1-0.1,0.9-1.1,0.6-2.4
	c-0.3-1.1-1.4-2-2.7-2c-0.2-0.7-0.6-1.9-0.6-3.4c-0.1-2.7,0.9-3.9,1.1-6.3c0.2-1.9-0.2-3.2-0.7-5.5c-0.7-2.8-1.6-6.8-2.6-12.4
	c-4.7-1.7-9.3-3.4-14-5.1c-1,0-2.1,0.1-3.1,0.1c-5.8-2-11.5-4-17.3-6c-2.3,3.7-4.6,7.4-6.8,11.1c0.4,0.8,0.8,1.7,1.2,2.6
	c1.4,2.6,2.9,4.6,4.4,6.2c-1.6,1.2-3.2,2.5-4.9,3.7c-1.4,2.5-2.7,5.1-4.1,7.5c-7.7-0.5-15.6-1-23.3-1.5c-3.6,3.5-7.1,7-10.8,10.5
	c-8.4,2.5-17,5.1-25.4,7.5c-0.3,2.7-0.7,5.4-1,8c2.3,2.5,4.6,5,6.8,7.4C750.5,569.3,756.4,570.3,762.2,571.4z"/>
<path fill="#C01F25" d="M829.2,508.5c0.8,0.6,2,1.4,3.6,2.2c1.1,0.6,2.2,1.1,5.6,2.2c1.6,0.5,3.6,1.2,6,2
	c8.4-3.5,16.8-6.8,25.2-10.3c1.9,2.1,3.7,4.2,5.6,6.3c2.3-1.7,4.7-3.4,6.9-5.1c-1.6-3.2-3.2-6.2-4.7-9.4c0.2-0.6,0.3-1.2,0.5-1.9
	c2.3-0.1,4.7-0.2,6.9-0.2c0.4-1.9,0.6-4.4,0.5-7.1s-0.6-5-1.1-6.6c-3.9-1.5-7.7-3-11.6-4.5c-0.8-0.1-1.8-0.2-3-0.6
	c-0.4-0.1-1.6-0.6-3.1-1.6c-2.4-1.6-2-2.3-3.7-3.2c-1.8-1-4.2-1.4-4.2-1.4l0,0c0,0-0.4,1.3-1.1,3.7c-1.1,0.3-2.6,0.7-4.2,0.7
	c-3.2,0.2-5.8-0.5-7.3-1.1c-1.5,1.9-1.8,3.5-1.7,4.6c0,1.1,0.3,1.6,0.1,2.7c-0.1,0.6-0.4,2.5-1.9,3.1s-3.2-0.6-3.5-0.9
	c-1-0.8-0.9-1.4-1.6-1.5c-0.9-0.1-1.3,0.8-3.1,1.5c-0.8,0.3-1.2,0.4-1.6,0.4c-1.7-0.2-1.9-2.6-3.5-2.7c-1-0.1-1.3,0.8-2.6,1
	c-1.4,0.2-2.7-0.6-3.6-1.2c0.2,1.3,0.5,2.7,0.7,4c-1.3,1.4-2.6,2.7-3.9,4.1c4.3,3.8,8.6,7.6,12.9,11.4c0,1-0.1,2.1-0.1,3.1
	C831.4,504.3,830.3,506.5,829.2,508.5z"/>
<path fill="#BABABA" d="M896.5,408.9c0.4-2.5,0.8-5.1,1.2-7.5c1.5-0.1,2.9-0.2,4.4-0.2c0.6,0.3,1.6,0.9,2.4,1.9
	c0.3,0.3,0.9,1.2,1.6,3.5c0.8,2.5,0.4,2.8,1.1,4.7c0.6,1.7,1,2.9,2.2,3.7c1.5,1,3.3,0.7,4,0.5c0.4,1.3,0.7,2.7,1.1,4
	c-0.8,0.4-3.5,1.8-3.9,4.1c-0.2,1.3,0.2,3.3,0.2,3.5c0.3,1.2,0.5,1.4,0.5,2.1c-0.1,1.5-1.2,1.9-1.6,3.1c-0.3,0.8-0.2,2.1,1.4,4.2
	c-2,1-3.9,1.9-5.9,2.9c-0.1-0.5-0.6-2-2-3.1c-0.5-0.5-1.9-1.4-3.7-1.4c-2.4,0-4,1.6-4.2,1.9c-1.6-1.2-3.2-2.3-4.7-3.5
	c0.3-1.6,0.9-2.3,1.4-2.6c1.4-1,2.8,0,4.6-1.1c0.9-0.6,1.4-1.4,1.7-2c0.9-1.6,0.5-2.3,1-3.9c0.9-2.7,2.8-2.8,3.1-4.9
	c0.1-0.5,0.1-1.3-1.1-3.5C900.5,413.7,899,411.3,896.5,408.9z"/>
<path fill="#66D128" d="M901,449.2c0.7-0.3,1.7-0.9,2.6-1.9c1.5-1.5,1.9-2.9,2.5-4c0.8-1.4,2.4-3.2,6-4.5c0.2,2,0.8,4.5,1.9,7.3
	c1.2,3.1,2.7,5.5,4,7c0.2,1.4,0.3,2.8,0.5,4.2c-5.6-0.5-11.1-1.1-16.6-1.6C901.5,453.7,901.3,451.5,901,449.2z"/>
<path fill="#8E23AA" d="M877.5,447.7c3.1-0.3,5.6-0.7,7.1-1c4.4-0.8,5.1-1.4,7-1c2.4,0.4,3,1.5,5.7,1.6c1.1,0.1,2.5,0.1,3.9-0.5
	c3.2-1.5,3.8-5.8,3.9-6.3c-0.5-0.1-1.5-0.4-2.5-1.2c-1.4-1.3-1.7-2.9-1.7-3.4c-0.2,0.2-2.1,2.4-5.1,2.2c-2.6-0.2-4.1-1.9-4.4-2.2
	c-0.8,0.3-1.9,0.8-3.2,1.2c-2.2,0.7-4,1.2-6.2,1c-0.9-0.1-2.4-0.4-4.1-1.4c-3.8,0-5.1,0.8-5.5,1.6c-0.3,0.6-0.2,1.5-0.7,1.7
	s-1.1-0.1-1.6-0.4c0.4,1.1,1.1,2.5,2.2,4C874.2,446.1,876.3,447.1,877.5,447.7z"/>
<path fill="#7BB342" d="M652.6,515.8c0-4.6,0-9.1,0-13.6c10.9,0.7,21.8,1.3,32.7,2c-2.6,10.2-3.6,16.4-3.6,19.9c0,0.9,0,3.6-1.7,5.6
	c-1,1.1-2.1,1.6-3,1.9c-1.7,0.9-3.8,2.1-6,3.9c-1.9,1.6-3.5,3.1-4.6,4.5c-0.7,2.9-1.3,5.9-1.9,8.9c-0.9,4.8-1.7,9.4-2.4,13.9
	c-2.2,2.2-4.5,4.4-6.6,6.5c-4.5,2-9,4.1-13.5,6.1c-3.8-0.3-7.5-0.6-11.3-0.9c-0.6-0.2-1.3-0.6-1.6-1.4c-0.8-1.5,0.4-3.6,0.7-4.1
	c1.2-2.1,2.4-6.2,2.7-15c0.5-0.2,1.2-0.4,2-0.6c2.2-0.6,2.9-0.6,3.1-1s-0.1-1.2-2.7-3.1c2.8-1,5.7-2,8.4-3c2.4-3,4.7-6,7-8.9
	c0-1.8,0.1-4.1,0.5-6.6c0.3-2.3,0.5-3.7,1-5.5c1.5-5.2,4-7.5,3-8.8C654.7,516,654.1,515.7,652.6,515.8z"/>
<path fill="#7BB342" d="M668.5,538.7c2.6-3,5.1-4.4,6.9-5.1c1.5-0.6,2.7-0.7,4-1.7c1.9-1.5,2.6-3.7,3-5.4c2.3-1.3,4.6-2.7,6.8-4
	c2.6,0,5.2,0,7.8,0c7.4,2.5,15,5.1,22.4,7.5c0.4,3.7,0.7,7.3,1.1,11c-3.6,2-6.6,2.6-8.5,2.7c-1.8,0.2-3.3,0.1-5.7-0.1
	c-3-0.2-5.5-0.6-7.1-0.9c-2.7,1.1-5.5,2.2-8.1,3.2c-2.7,4.6-5.4,9.1-8,13.6c-5.6,1.7-11.1,3.4-16.6,5.1c-1-0.4-2-0.8-3-1.2
	c-0.1-3.3,0.4-5.8,0.9-7.4c1.1-4,3.1-7.5,3.1-7.5c1.3-2.4,2.1-3,2.4-4.7C670,541.9,669.2,540,668.5,538.7z"/>
<path fill="#7BB342" d="M698.3,521.7c7.1,2.3,14.4,4.6,21.5,6.8c0.5,1,1.1,2.5,1.5,4.2c0.6,2.9,0.2,5.3-0.1,6.6
	c2.1,1.6,4.2,3.2,6.3,4.7c0.6,0.1,2.6,0.2,4.6-1c2.6-1.6,3.2-4.4,3.2-4.9c0.3,1.8,0.6,3.6,0.9,5.4c2.2,0,4.5,0.1,6.6,0.1
	c0.6-1.2,1.2-2.3,1.7-3.5c0.3,0.2,2.1,1.2,3.2,0.5c0.6-0.3,0.8-0.9,0.9-1.4c0.8-2.8,0.7-7.5,0.6-8.9c1.8,0.6,3.7,1.2,5.5,1.7
	c0.7-3.2,1.4-6.2,2.1-9.4c2.6-0.6,4-0.1,4.9,0.5c0.7,0.5,1,1.1,1.5,1c1-0.1,0.6-2.5,2.4-4.1c1.2-1.1,2.1-0.6,3.2-1.6
	c0.8-0.7,1.6-2,1.7-4.5c1.2,0.5,2.4,0.9,3.6,1.4c0.7,0.2,2.2,0.3,3.9-0.1c1.9-0.5,3.1-1.6,3.6-2.1c-1.7-3.2-3.3-6.3-5-9.5
	c-2.9-1.4-5.7-2.7-8.5-4.1c-1.5-2.2-3.1-4.5-4.6-6.6c-1,0-2.1,0-3.1,0c-8.4-5.8-16.9-11.5-25.3-17.3c-1.3,1.2-2.5,2-3.4,2.4
	c-2.5,1.3-3.9,1-7,2.6c-1.4,0.7-2,1-2.5,1.5c-1.5,1.6-1.1,3.2-1.6,8.1c-0.4,4.3-1.1,6.4-1.2,7c-0.4,1.4-0.8,2.6-1.6,4.1
	c-0.5,0.9-3.2,5.6-6,5.4c-0.7-0.1-1.3-0.4-2.1-0.1c-0.9,0.3-1,0.9-1.7,1.4c-1.1,0.8-2.6,0.5-4.4,0.1c-1-0.2-2.6-0.7-4.4-1.7
	c-0.2,2.7-0.3,5.5-0.5,8.1C698.7,517.1,698.5,519.4,698.3,521.7z"/>
<path fill="#BABABA" d="M779.8,456.8c-0.2,3.7-0.3,6.6-0.2,8.8c0,4.2,0.2,4.5,0.5,11.9c0.2,4.8,0.1,5.4,0.4,7.3
	c0.5,3.7,1.3,5.2,1.9,7.9c0.6,2.6,1.1,6.3,0.5,11.4c2.7-2.5,6-5.2,9.8-7.8c4.5-3.1,8.7-5.5,12.5-7.1c0.8,0.2,1.7,0.3,2.7,0.2
	c4.6-0.2,7.5-3.6,8.3-4.6c-1.5-2.2-3.1-4.5-4.6-6.6c-1.5-2.8-3.1-5.6-4.6-8.3c0.6-1.2,1.2-2.7,1.6-4.6c0.5-2.3,0.5-4.3,0.4-5.7
	c-2.4-1.4-4.2-1.6-5.5-1.5c-1.2,0.1-2.2,0.4-3.5,0c-1.2-0.4-2-1.2-2.5-1.7C791.6,456.5,785.7,456.7,779.8,456.8z"/>
<path fill="#BABABA" d="M780.5,441.8c1,0.9,3.5,3.6,4.2,7.8c0.4,2.4,0.1,4.4-0.2,5.6c4.7,0.1,9.2,0.2,13.9,0.4
	c0.6,0.5,1.5,1.1,2.7,1.5c1.9,0.6,2.6,0.1,4.9,0.5c2.2,0.4,2.4,1.1,4.4,1.4c1.8,0.3,3.4,0,4.4-0.2c-4.5-12.6-8.9-25.3-13.4-37.9
	c-0.8,1.6-2,3.7-3.6,6.2c-1.6,2.6-2,2.9-3.9,5.9c-3.1,4.8-2.9,5.2-4,6.2C788.2,440.4,785.5,441.9,780.5,441.8z"/>
<path fill="#BABABA" d="M802.2,419.4c2.1,6.1,4.2,12.1,6.2,18.3c1.5-0.3,3.7-0.7,6.3-0.2c2.7,0.4,3.3,1.2,6.2,1.9
	c3.1,0.7,5.6,0.5,7.8,0.4c2.1-0.1,5.1-0.5,8.3-1.6c-1.4-0.7-3.2-1.9-4.4-4c-0.9-1.6-0.7-2.4-1.9-6.3c-0.9-3.2-1.4-4.8-2.4-6
	c-0.4-0.5-2.4-2.8-5.1-3c-2.6-0.1-3.1,1.8-6.3,2c-1,0.1-2.3-0.2-4.7-0.7c-3.5-0.8-4.5-1.4-6.5-1.4
	C804.3,418.7,803,419.1,802.2,419.4z"/>
<path fill="#BABABA" d="M809,438.9c2.3-0.9,4-0.8,5.1-0.6c2.4,0.4,3.2,1.7,6.1,2.4c0.7,0.2,1.9,0.2,4.4,0.2c4.2,0.1,6.3,0.1,8.1-0.2
	c1.2-0.3,3-0.8,5-1.9c2,0.9,3.5,1.9,4.5,2.6c1.9,1.4,2.9,2.2,3,3.4c0.1,1.2-0.9,1.4-1.7,3.6c-0.5,1.3-1.1,2.8-0.6,4.2
	c0.6,1.9,2.7,2.7,3.7,3.1c1.8,0.7,3.4,0.7,4.2,0.6c1.3,1.7,2.6,3.4,3.9,5.1c0.7,0,1.4,0,2.1,0c0.7,2.3,1.4,4.6,2.1,6.8
	c-0.5,0-1.3,0-1.6,0.5c-0.5,0.7,0.2,1.5-0.2,2.6c-0.5,1.3-2,1.8-2.1,1.9c-0.9,0.3-1.7,0.1-2.1,0c-4.5-1.1-6-2.7-7.3-2
	c-0.8,0.4-1.2,1.5-1.9,3.6c-0.3,0.9-0.4,1.7-0.7,3.1c-0.5,2.6-0.5,3-0.9,3.2c-1.1,0.6-2.4-2-4.7-1.9c-1.6,0.1-1.7,1.4-3.4,1.5
	c-2.3,0.2-2.9-2.3-5.2-2.1c-1.6,0.1-1.7,1.2-3.4,1.1c-1.5-0.1-1.9-1-3.2-0.9s-1.7,1-2.7,1.5c-1.2,0.5-3.1,0.5-6.6-2.2
	c-1.5-2.8-3-5.6-4.5-8.3c0.7-1.3,1.3-2.6,2-3.9c0-2-0.1-4.1-0.1-6.1c2.1,0,4.2-0.1,6.2-0.1C813.8,452.8,811.4,445.9,809,438.9z"/>
<path fill="#BABABA" d="M826.8,417.9c0.3-0.5,1.8,0.1,4.5,0.5c3.8,0.6,5.4,0,7.6,0.1c3.8,0.1,7,1.2,11.6,4.1
	c3.6,2.3,6.3,5,11.9,10.3c4,3.9,5.8,7.2,6.8,8.4c2.1,2.3,3.8,4.4,5.1,6.1c-3.5-0.8-6.8-1.7-10.3-2.5c-0.9,0-2.4,0-3.9,0.6
	c-1.9,0.8-3,2-4.1,3.1c-1.4,1.5-3.5,3.5-6.4,5.9c-2.2,0.8-4.3,0.4-5.2-0.9s-0.4-3.2-0.2-3.5c0.6-2,2.1-2.1,2.6-3.9
	c0.6-2-0.5-4-0.6-4.2c-1.3-2.2-3.2-1.9-6.3-3.9c-0.9-0.6-3.9-2.5-5.7-5.7c-2-3.5-0.6-4.8-2.6-8.4
	C829.5,420.2,826.3,418.7,826.8,417.9z"/>
<path fill="#BABABA" d="M800.6,417.6c1.5-0.5,3.6-1.1,6.1-1.7c2.8-0.7,4.2-1.1,6.1-1.2c2.3-0.2,5-0.5,8,0.5c2,0.6,1.8,1.1,3.6,1.5
	c2.4,0.6,3.6,0.1,6.3,0c1.7,0,3.6,0.3,7.4,1c1.9,0.3,4.5,0.9,7.4,1.6c-5.2-3.6-7.6-7.2-9-10c-0.9-1.9-1.5-3.7-3.4-6.5
	c-2-3.1-2.5-2.8-4.5-5.9c-2.3-3.6-2.3-5.2-4.1-5.9c-1.7-0.7-3.6-0.1-4.1-1.1c-0.3-0.5,0.1-0.9-0.1-1.5c-0.3-1.2-1.8-1.8-3-2.1
	c-2.2-3.3-4.4-6.5-6.5-9.8c-1.1,1.8-2.1,3.2-2.9,4.2c-2.1,2.8-2.9,3.5-3.7,4c-1.3,0.8-1.5,0.5-2.7,1.1c-2.7,1.4-2.8,3.3-4.9,5.1
	c-1.3,1.1-2.2,1.2-6.2,2.4c-2.2,0.7-5.5,1.7-9.4,3.1c1.8,1.4,3,2.9,3.7,3.9c0.9,1.2,1,1.8,2.7,4.5c1.2,1.8,1.8,2.8,2.2,3.2
	c1.7,1.6,3.8,2.3,4.9,2.6c1.6,0.5,1.8,0.3,2.6,0.6C798.5,411.6,800,413.2,800.6,417.6z"/>
<path fill="#BABABA" d="M813.6,362.3c1.9-0.9,3.8-1.9,5.7-2.8c1.6-0.8,3.1-1.6,4.7-2.3c-0.4-0.6-0.9-1.1-1.3-1.7
	c0.3-3.3,0.6-6.5,0.8-9.7c0-0.4,0.2-1.7,0.2-2.2c3.5-2.1,4.9-3.8,5.5-5c0.2-0.4,0.5-0.9,1-1.7c1.2-1.6,2-1.6,2.2-2.6
	c0.4-1.2-0.5-2,0-2.6c0.3-0.4,1-0.4,2.3-0.5c1.1,0,1.9,0.1,2.5,0.2c0.6-1.6,1.2-3.2,1.8-4.8c-0.2-0.8-0.5-1.7-0.7-2.5
	c0.4-0.2,1.1-0.6,1.8-1.4c0.5-0.6,0.7-1.1,0.8-1.5c3.1-4.5,6.2-8.8,9.3-13.3c-3-1.4-6-2.7-8.9-4.1c-2.9,1.2-5.9,2.3-8.7,3.5
	c-3.2,3-6.2,5.9-9.4,8.8c1.7,5.4,3.4,10.7,5.1,16.1c-1.1,0.6-2,0.9-2.7,1c-2.8,0.7-5.1,0.1-6.2-0.3c-0.7-0.2-1.2-0.5-1.6-0.7
	c-0.9-0.3-1.8,0-2.4,0.7c-0.6,0.7-0.8,1.6-0.5,2.4c0.1,0.8,0.3,2,0.4,3.6c0.3,5-0.7,6.2-1,12.7c-0.1,2.1-0.1,3-0.3,7.1
	C813.8,360.3,813.7,361.5,813.6,362.3z"/>
<path fill="#BABABA" d="M696.8,439.6c-2.2,0.8-4.1,1.4-5.4,1.8c-2.5,0.7-3.1,0.7-3.7,0.5c-1.4-0.5-2.1-1.7-3.3-3.6
	c-0.4-0.7-1-1.5-1.4-2.8c-0.7-1.8-1.4-3.8-0.6-5.3c0.7-1.4,1.8-0.8,3.9-2.8c1.6-1.5,1.6-2.4,3-3.3c1.3-0.8,2.7-1,3.7-0.9
	c0.4-1.2,1.1-3,2.2-5.1c1.1-2,2-3.1,3.1-4.7c1.1-1.7,2.7-4.1,4.2-7.3c2.8-0.3,4-1.2,4.6-2.1c0.7-1,0.6-2.2,1.5-2.5
	c0.8-0.3,1.4,0.4,2.5,0.3s1.9-1,2.4-1.9c0.7,0,1.4,0.1,2.1,0.1c0.8-0.7,1.6-1.3,2.4-2c1.2,0.1,2.3,0.2,3.5,0.3
	c3.6-1.2,7.1-2.5,10.7-3.7c0.4-0.7,0.9-1.6,1.7-2.4c0.6-0.7,1.2-1.2,1.8-1.6c0-0.6-0.1-1.1-0.1-1.7c-1.2-0.8-2.4-1.6-3.6-2.4
	c-0.9-2-1.9-4.1-2.8-6.1c1-1.4,2-2.7,3-4.1c0.9-0.5,2-1.2,3.2-2.2c1.8-1.7,2.8-3.5,3.3-4.7c5,3.8,9.1,6.3,12.2,8.1
	c3,1.7,4.9,2.6,9.6,5.4c3.8,2.3,5.8,3.4,7.7,4.8c6,4.1,9.9,8.2,11.1,9.4c4.6,4.8,6.7,7.1,8.5,9.5c0.7,1,2,2.8,4.4,4
	c2,1,3.9,1.3,5.2,1.3c1.1,2.4,2.2,4.8,3.4,7.1c-1.9,2.4-3.3,4.5-4.1,6c-1.9,3.2-2.7,5.2-5.2,9c-1.5,2.3-2.3,3.5-3.3,4
	c-1.8,1-3.8,0.9-7.9,0.7c-2.6-0.1-2.4-0.3-3.6-0.2c-3.5,0.3-4.2,1.9-7,2.3c-2.9,0.5-5.4-0.6-6.6-1.2c-3.1-1.4-4.9-3.6-5.7-4.7
	c-0.7,0.4-1.7,0.9-3.1,0.9c-1.9,0.1-2.9-0.7-5.7-1.7c-2.3-0.8-3.6-1.3-5.2-1.4c-2.7-0.2-4.7,0.7-6.6,1.5c-3.5,1.5-3.9,2.7-7,3.9
	c-0.5,0.2-2.1,0.8-5.6,1.2c-3,0.4-7.3,0.7-12.8,0.2C706.5,439.8,701.7,439.7,696.8,439.6z"/>
<path fill="#BABABA" d="M734.6,358.6c-1.5-3.6-3.1-7.1-4.6-10.8c2.2,0.2,4.4,0.5,6.5,0.7c2.8-2.1,4.9-3.9,6.3-5.2
	c1.3-1.1,2.4-2.1,3.7-2c1.1,0.1,1.4,0.8,2.9,1.8c1.4,0.9,2.6,1.1,4.7,1.6c3.1,0.7,5.6,0.7,6.1,0.7c2.8,0,7.3,0.6,14.9,3.2
	c0.7,1.3,1.4,2.6,2.2,3.9c5.3-1.2,10.5-2.5,15.7-3.7c0,0.7,0,1.8,0.5,3c0.5,1.4,1.4,2.2,1.9,2.7c3,2.9,10,5.6,10.5,5.7
	c-3.1,4.8-6.2,9.5-9.2,14.2c2,1.7,3.9,3.5,5.9,5.2c2.1-1.7,4.2-3.4,6.2-5.1c0.5,0.6,1,1.2,1.5,1.8c-1,1.9-2.1,3.3-3,4.3
	c-1.1,1.2-1.7,1.9-2.8,2.6c-1.7,1.1-2.3,0.7-3.7,1.8c-1,0.8-1,1.2-2.4,2.7c-0.2,0.2-1.6,1.7-3,2.7c-1.1,0.8-1.6,0.8-6.3,2.2
	c-3.7,1.1-5.4,1.7-6.6,2.2c-1,0.4-1.9,0.8-2.4,1c-3.5-2.9-6.4-5.4-8.8-7.2c-4.2-3.4-6.2-4.8-8.5-6.4c-1.9-1.2-3.5-2.2-4.6-2.8
	c0.2-0.4,0.4-0.9,0.7-1.5c1.2-2.5,1.2-2.9,1.2-3.3c-0.1-1-0.8-2.2-1.5-2.2c-0.6,0-0.9,0.8-1.9,1.5c-1,0.8-2.2,1-3.1,1
	c-3.7-3.1-7.2-6.1-10.9-9.1C740,363.4,737.3,360.9,734.6,358.6z"/>
<path fill="#AC6E5E" d="M884.6,470.7c1-0.8,2-1.7,3-2.5c-2.1-3-4.1-6-6.2-8.8c1.3-1.1,2.6-2.1,3.9-3.2c0.1-0.5,0.1-1,0.2-1.5
	c0.7-0.1,1.4-0.2,2.1-0.3c0.1-2.2,0.2-4.4,0.3-6.5c0.9-0.2,2.4-0.4,4.1-0.3c1.2,0.1,2.1,0.2,3.7,0.6c1.2,0.2,2.7,0.6,4.6,1.1
	c-0.3,2.5-0.1,4.5,0.1,5.9c0.1,0.7,0.1,0.4,1.5,5.8c0.4,1.5,0.6,2.5,1.1,3.9c0.4,1.3,0.7,2.3,1,3c0.6,0.1,1.2,0.1,1.8,0.2
	c1.1,2.6,2.3,5.3,3.4,7.8c0.5,0.2,0.9,0.4,1.4,0.6c-0.4,0.9-0.7,2-1,3.4s-0.4,2.7-0.4,3.7c-1.4,1.3-2.9,2.5-4.3,3.8
	c-1,0.2-2.3,0.4-3.8,0.3c-1.3-0.1-2.4-0.3-3.2-0.5c-1.4-1.3-2.8-2.7-4.2-4c-2.9-3.7-5.7-7.2-8.5-10.9
	C884.9,471.4,884.7,471,884.6,470.7z"/>
<path fill="#8E23AA" d="M860.3,467.8c1.2,0.9,1.7,1,2.5,1.5c1.8,1.2,1.3,2.3,3,3.7c1,0.8,1.9,1.1,3.7,1.7c2.1,0.7,2.7,0.4,4.7,0.9
	s2.2,1,5.2,2.2c2.2,1,2.7,1,6.2,2.2c1.6,0.6,4.1,1.5,7,2.7c-2.9-3.9-5.8-7.7-8.6-11.6c-0.1-0.3-0.1-0.8,0.1-1.4
	c0.4-1,1.4-1.7,2.7-1.8c-2-2.9-3.9-5.8-5.9-8.6c1.2-1.2,2.5-2.5,3.7-3.7c0.1-0.6,0.2-1.1,0.4-1.7c0.5-0.1,1.1-0.2,1.6-0.2
	c0-2.2,0-4.4,0-6.5c-1.1,0.4-2.8,0.8-4.7,1.2c-2.5,0.4-4.2,0.8-6.3,0.6c-2-0.2-1.9-0.6-6.2-1.6c-2.7-0.6-4-0.9-5.3-0.8
	c-2.2,0.2-3.7,1-5.2,1.9c-0.5,0.3-2.7,1.5-5,3.9c-1.2,1.3-2,2.5-2.6,3.4c1.2,1.6,2.3,3.2,3.5,4.8c0.8,0.1,1.7,0.2,2.5,0.4
	c0.5,1.1,0.7,2,0.9,2.6c0.4,1.5,0.3,2,0.8,2.9C859.1,466.9,859.5,467.2,860.3,467.8z"/>
<path fill="#BABABA" d="M857.6,427.1c1.7,1.5,3,2.7,4,3.7c2.2,2.1,3.3,3.1,4.6,4.7c1.4,1.6,2.3,3,3,3.9c1.1,0.5,1.6,0.4,1.9,0.2
	c0.4-0.3,0.2-1,0.7-1.6c0.3-0.3,0.5-0.4,1.2-0.6c0.5-0.2,1.3-0.5,2.2-0.9c-0.4-1.1-0.7-2.1-1.1-3.2c-0.5-0.4-1-0.7-1.5-1.1
	c0.5-0.7,0.6-1.3,0.7-1.7c0.2-1.7-1-2.7-0.6-4.4c0.1-0.6,0.4-1,0.6-1.2c3,0.8,6,1.6,9,2.4c0-0.7,0-1.4,0.1-2.1
	c1.1,0.1,2.3,0.2,3.4,0.2c0,0.9,0,1.7,0,2.6c0.6,0.3,1.3,0.6,2.3,0.9c0.5,0.1,2,0.5,3.9,0.2c1.9-0.2,3.6-0.4,4.5-1.6
	c0.5-0.7,0.2-0.9,0.8-2.4c0.4-1,0.7-1.3,1.6-2.7c1.2-1.9,1.8-2.9,1.9-3.7c0.3-1.5-0.2-2.8-0.7-4.2c-0.5-1.4-1.3-3.5-3.2-4.6
	c-1.1-0.6-2.3-0.7-4.6-0.9c-2.9-0.2-3.5,0.2-4.4-0.4c-1.3-0.9-1.8-2.8-1.7-4.2c0.1-0.9,0.4-1.5,2.4-4.7c1.9-3.2,2.3-3.7,2.1-4.6
	c-0.3-1.7-2.4-2.6-2.9-2.8c-0.4-0.2-1.4-0.6-5.7-0.1c-2.8,0.3-4.3,0.4-5.3,1.1c-2.2,1.3-3.1,3.4-3.2,3.9c-0.2,0.6-0.7,1.8-0.5,3.2
	c0.2,2.1,1.4,3.2,0.9,3.9c-0.4,0.6-1.5-0.1-2.1,0.6c-0.5,0.6-0.1,1.3-0.7,2.4c-0.3,0.5-0.6,0.7-0.9,1c-1,1-1.1,2.3-1.3,3.7
	c-0.2,1.5-0.5,3.4-1.1,5.9c-1.3,0.2-2,0.3-2.5,0.4c-1.4,0.2-2,0.3-2.2,0.7c-0.2,0.4,0.1,0.7-0.1,1.2c-0.3,0.6-1,0.9-1.4,1.1
	c-1.2,0.5-1.6,0-2.2,0.4c-0.8,0.5-1,1.5-1.4,2.9C857.7,425.8,857.6,426.6,857.6,427.1z"/>
<path fill="#BABABA" d="M873.5,425.6c0.1,0.3,0.2,0.8,0.4,1.4c0.4,1.7,0.6,2.7,0.2,3.6c-0.1,0.3-0.4,0.8-1.1,1.3
	c0.5,0.3,1.1,0.5,1.6,0.8c0.2,1.1,0.5,2.1,0.7,3.2c0.4-0.2,0.9-0.4,1.6-0.4c0.8,0.1,1.1,0.5,2,1s1.7,0.6,2.3,0.7
	c0.7,0.1,1.6,0.2,3.1,0c2.6-0.4,5-1.3,6.3-1.9c-0.7-0.7-1.5-1.5-2.2-2.2c0.7-1,1.4-2.1,2.1-3.1c-0.6-0.1-1.4-0.2-2.3-0.4
	c-2.3-0.5-2.7-0.7-3-1.1c-0.2-0.3-0.7-0.9-0.6-2.3c-0.5-0.1-1.1-0.3-1.6-0.4c-0.1,0.8-0.2,1.6-0.2,2.4
	C879.8,427.4,876.7,426.5,873.5,425.6z"/>
<path fill="#BABABA" d="M839.8,411.6c0.5,1,1.3,2.4,2.6,3.8s2.4,2.3,4.6,3.9c2.9,2.1,3.8,2.4,6.2,4.3c1.7,1.2,2.9,2.3,3.7,3
	c-0.1-0.5-0.3-1.8,0.2-3.2c0.2-0.4,0.9-2.1,2.7-2.7c0.8-0.2,1.5-0.1,1.9-0.1c-0.5-1.8,0-2.4,0.1-2.5c0.3-0.3,0.8-0.3,2.8-0.4
	c0.7,0,1.2-0.1,1.6-0.1c0.5-0.5,1.2-1.2,1.5-2.3c0.3-1.1,0-1.5,0.2-3.3c0.1-1.9,0.2-3,1.1-3.9c0.7-0.7,1.3-0.7,1.7-1.5
	s0.1-1.3,0.6-1.9c0.4-0.5,1-0.6,1.5-0.6c0.4-1.4,0.2-2.1-0.1-2.5c-0.3-0.3-0.5-0.3-0.7-0.6c-0.3-0.5-0.3-1.1,0-2.4
	c0.2-0.7,0.4-1.7,0.7-2.7c-1.7-0.4-3.2-0.5-4.2-0.4c-1.4,0-2.6,0-4,0.5c-1.3,0.4-1.4,0.7-2.2,0.7c-1.4,0-1.9-0.9-3.2-0.7
	c-0.8,0.1-0.9,0.5-1.8,0.6c-0.9,0.1-1.7-0.1-2.2-0.2c-1.5,1.6-3.1,3.1-4.6,4.7C846.9,404.6,843.4,408.2,839.8,411.6z"/>
<path fill="#BABABA" d="M828.2,394.8c0.6,0.7,1.3,1.6,2.1,2.6c1.3,1.7,2.2,3,2.9,4.1c1.1,1.6,1.9,2.8,2.9,4.5
	c0.8,1.3,1.8,3.2,2.9,5.4c5.2-5.3,10.2-10.6,15.4-15.9c0.3,0.2,0.6,0.4,1,0.5c1.2,0.4,2.3,0,2.7-0.1c-0.9-0.7-1.7-1.5-2.6-2.2
	c0.1-0.9,0-1.6-0.1-2.1c-0.2-1-0.3-2.2-1.2-3.2c-0.5-0.6-1-0.8-1.1-1.4c-0.1-0.5,0.1-0.8,0.4-1.2c0.2-0.4,0.7-1.2,1.7-1.8
	c-5.6-0.7-11.1-1.4-16.8-2.1c-1.6,1.9-3.2,3.9-4.9,6C831.7,390.1,829.9,392.5,828.2,394.8z"/>
<path fill="#BABABA" d="M797.5,374.1c1.6,1.5,3.1,3,4.7,4.5c2.1-1.6,4.3-3.2,6.3-4.9c0.6,0.7,1.2,1.4,1.9,2.1
	c0.3,0.1,0.6,0.1,0.9,0.2c2.1,3.1,4.3,6.2,6.3,9.3c1,0.4,1.7,0.8,2.2,1.1c1,0.7,1.6,1.1,1.7,1.8c0.1,0.7-0.3,0.9-0.1,1.3
	c0.3,0.5,1.2,0.2,2.5,0.6c1,0.3,1.7,0.9,2,1.1c1.1,0.9,1.6,2.1,1.9,2.8c3.1-4,6.2-7.9,9.3-11.8c0.4-0.6,1-1.7,1.3-3.1
	c0.4-1.7,0.2-3.1,0.1-3.9c-1,0-1.9-0.1-2.9-0.1c-1-3-2.4-4.6-3.6-5.6c-0.7-0.7-1.9-1.5-3-3.1c-0.6-0.9-1-1.5-1.2-2.5
	c-0.2-1.4,0.4-2,0.3-3.6c0-1.1-0.3-1.9-0.6-2.5c-0.7,0-1.8,0-3,0.3s-2,0.7-3.7,1.6c-1.5,0.8-3.1,1.7-3.9,2.1c-1.5,0.9-1.6,1-2,1.1
	c-1.4,0.4-2.7-0.1-4.1-0.6c-1-0.4-2.5-1-4.1-2.2C803.9,364.9,800.7,369.5,797.5,374.1z"/>
<path fill="#BABABA" d="M825.2,356.7c-0.3-0.4-0.6-1-0.9-1.7c-0.6-1.6-0.4-3-0.2-5.4c0.2-1.7,0.3-3.2,0.6-5.4
	c1.1-0.9,1.9-1.7,2.6-2.2c2.3-2,2.6-2.4,2.9-2.9c0.5-0.9,0.5-1.3,1.2-2.2c0.8-1,1.1-0.9,1.6-1.6c0.8-1.3,0-2.4,0.7-3
	c0.4-0.3,0.7-0.2,2.4-0.2c0.9,0,1.6-0.1,2.1-0.1c0.6-1.9,1.2-3.7,1.8-5.6c-0.2-0.6-0.3-1.3-0.5-1.9c0.5-0.4,1.4-1.1,2.2-2.2
	c0.8-1,1.2-1.9,1.4-2.1c0.7-1.3,2.8-4.6,8.3-12.5l0,0c-3.3-1.6-6.5-3.1-9.8-4.7c-0.1-2-0.1-4-0.2-6c0.4-0.2,0.9-0.4,1.6-0.6
	c0.8-0.2,2.5-0.6,5.2-0.1c1.1,0.2,1.2,0.3,4.8,1.4c2.4,0.8,2.2,0.6,4.9,1.5c1.3,0.4,3.1,1,5.2,1.7c0.8,0.1,1.9,0.3,3.4,0.5
	c3.5,0.5,3.5,0.4,4.2,0.6c1.8,0.5,2.2,0.9,5.1,1.9c1.3,0.5,2.3,0.8,3,1c-0.1,0.7-0.3,1.9-0.5,3.2c-0.2,1.8-0.2,2.8-0.2,3.6
	c-0.1,1.1-0.3,2.3-2,6.5c-2,5-2.2,4.6-3.1,7.1c-0.5,1.5-0.3,1.1-1.9,7.3c-1.4,5.5-1.7,6.2-2.2,6.9c-0.9,1.5-1.8,2.3-2.5,4.2
	c-0.5,1.5-0.7,2.8-0.7,3.7c-2,2.1-3.9,3.1-5.3,3.6c-2.3,0.8-4,0.5-5.3,2c-0.7,0.8-0.6,1.4-1.5,2.7s-2.1,2.2-2.9,2.7
	c-0.3-0.4-1.6-1.7-3.6-1.9c-0.6-0.1-2-0.2-2.9,0.7c-0.8,0.8-0.8,2-0.8,4.4c0,2.3,0.4,2.6,0.2,4.2c0,0.6-0.2,2.3-1.1,4.1
	c-1,2.1-3.3,4.9-5.1,4.4c-0.5-0.1-0.9-0.5-1.1-0.7c-0.8-2.1-1.8-3.4-2.6-4.2c-1.4-1.5-2.4-1.8-3.2-3.4c-0.8-1.5-0.9-2.9-0.9-3.2
	c-0.1-1.8,0.5-2.3,0.2-3.7c-0.1-0.5-0.4-1.9-1.7-2.6C826.8,356,825.4,356.6,825.2,356.7z"/>
<path fill="#BABABA" d="M879.2,305.5c0.8,0,1.8,0,3,0.1c2.7,0.2,4.8,0.5,5.7,0.6c2.7,0.4,4,0.6,5.4,1.2c2.4,0.9,3.7,2,4.2,2.6
	c0.4,0.4,0.8,0.8,1,1.1c-0.1,1.3-0.2,2.6-0.3,3.9c-0.2,2.7-0.2,5.3-0.2,7.6c-0.3,0.9-0.6,1.7-0.7,2.3c-0.3,1.2-0.5,2-0.6,3.1
	c0,1.4,0.3,1.4,0.2,2.4c-0.2,1.6-1,1.8-1.2,3.2c-0.1,0.8,0.1,0.8,0.4,3c0.3,2.1,0.4,3.1,0.2,3.9c-0.4,1.7-1.3,1.9-1.5,3.7
	c-0.1,0.8,0.1,0.6,0.1,2.2c0,0.8-0.1,1.9-0.4,3.3c-0.3,1.3-0.5,1.2-0.5,1.9c0,1.4,0.9,1.7,0.8,2.9c0,0.2-0.1,0.5-1.1,2.1
	c-1.4,2.3-1.8,2.5-1.9,3.3c-0.2,1.1,0.2,2.1,0.3,2.6c0.3,0.7,0.6,1.2,1.4,2.2c1.3,1.8,2,2.2,1.9,2.7c-0.1,0.2-0.2,0.2-1.6,1.2
	c-0.9,0.7-1.1,0.8-1.2,1.1c-0.4,0.6-0.2,1.1-0.3,1.7c-0.3,1.4-2,1.2-3.3,2.9c-0.5,0.6-0.8,1.5-1.4,3.2c-0.6,1.7-0.6,2.1-0.9,3.2
	c-0.7,1.9-1.5,2.8-2.5,4.4c-0.9,1.3-2,3.4-3.1,6.1c-0.7,0.8-1.8,1.7-3.1,1.6c-1.1-0.1-1.4-0.7-2.6-0.7c-1.3,0-2.9,0.8-3.1,2
	c-0.1,0.6,0.1,1.2,0.3,1.5c-3.4,0-6.6-0.1-10-0.1c-0.3,0.3-0.8,0.9-1.6,1.1c-1.4,0.3-2.8-0.8-3.4-1.7c-1.1-1.6-0.1-2.7-1.4-4.5
	c-0.8-1.2-1.6-1.3-1.7-2.2c0-0.4,0.1-0.7,1.1-2.5c1.1-1.9,1.1-1.9,1.2-2.1c0.3-1.2-0.2-1.7-0.7-4c-0.4-2-0.7-3-0.4-4.2
	c0.4-1.7,1.4-1.7,2.1-3.6c0.1-0.3,0.7-2.2,0-4.2c-0.6-1.6-1.6-2-4.2-4.6c-1.3-1.2-2.2-2.3-2.8-2.9c1.3-0.8,2.1-1.6,2.5-2.2
	c0.5-0.7,0.6-1.2,1.2-2.1c0,0,0.7-0.9,1.7-1.7c2.5-2.1,5.1-1.1,7.6-2.9c0.6-0.5,1.6-1.3,2.3-2.9c-0.1-0.5-0.1-1.1,0-1.8
	c0.1-0.9,0.5-1.6,1.7-3.4c1.4-2,1.3-1.7,1.6-2.2c0.8-1.4,0.8-2.4,1.2-4.4c0.1-0.5,0.5-2,1.3-5.1c0.7-2.8,1.1-4.2,1.7-5.9
	c0.2-0.6,0.5-1.3,2-5.2c2.3-5.7,2.3-5.5,2.6-6.3C878.8,311.6,879.4,309.1,879.2,305.5z"/>
<polygon fill="#5C6BC0" points="1000.2,460.3 994.5,464.3 1000,471.2 1002.5,470.1 1003.9,468.7 1006.4,468.4 "/>
<polygon fill="#5C6BC0" points="985.4,482 977.8,472.8 985.4,469 990.8,475.4 987.1,478.7 991.7,479.4 988.9,481 "/>
<polygon fill="#5C6BC0" points="966.8,480.4 968.5,478.7 973.2,482 977.8,481 978.4,483.1 973.3,484.9 "/>
<polygon fill="#FBAF16" points="966.3,455.2 966.6,460.3 967,462.9 965.6,467.4 974.3,464.1 973.2,460.3 979.4,457.6 983.2,460.3 
	996.3,455.3 994.9,453.6 998.6,447.7 990.3,451.3 984.7,449.3 977.8,453.1 "/>
</svg>
