<?xml version="1.0" encoding="utf-8"?>
<!-- Generator: Adobe Illustrator 18.1.1, SVG Export Plug-In . SVG Version: 6.00 Build 0)  -->
<svg version="1.1" id="Layer_2" xmlns="http://www.w3.org/2000/svg" xmlns:xlink="http://www.w3.org/1999/xlink" x="0px" y="0px"
	 width="1920px" height="955px" viewBox="0 0 1920 955" enable-background="new 0 0 1920 955" xml:space="preserve">
<g id="roads_1_">
	<path fill="none" stroke="#3F2310" stroke-width="0.8428" stroke-miterlimit="10" d="M788.8,390.6c0,0,1.5-1.1,2.7-1.7
		s2.5-0.7,3.2-1.1c0.6-0.4,1.7-1.7,2.5-2.5c0.8-0.8,6.8-5,8.1-6.2c1.3-1.3,3.5-3.9,3.5-3.9S790.7,352,790,350.7
		c-0.7-1.2-2.3-4.8-2.4-5.5s0.7-8,0.8-8.9c0-0.8-0.2-1.8-0.5-2.3c-0.3-0.6-1-1.3-1-1.3l-8.1-1l-24-33.1c0,0.4-0.2,1.1-0.7,1.9
		c-0.5,0.7-1,1.1-1.3,1.3"/>
	<path fill="none" stroke="#3F2310" stroke-width="0.8428" stroke-miterlimit="10" d="M787,332.4c0,0,1.2,0.3,2,0.3s2-0.1,2-0.1
		s0.7,1.1,1.4,1.8c0.7,0.7,5.6,4.8,6.3,5.5c0.6,0.7,1.4,1.9,1.4,1.9l1.9,2l3.9,2.2l3.2,1.3l2.9,0.6l4.3,2.2l1.9,0.6l7.4,0.2l2.2,0.5
		l4.8,2.4l1.5,0.7l-0.1,5.4l0.3,4.4l-0.4,1.8l-0.4,3.2l3.1,1.6l0.6,1.7"/>
	<path fill="none" stroke="#3F2310" stroke-width="0.8428" stroke-miterlimit="10" d="M808.8,375"/>
	<path fill="none" stroke="#3F2310" stroke-width="0.8428" stroke-miterlimit="10" d="M808.8,375.1c2.2,3.4,4.4,6.6,6.6,10.1
		c4.3,3.6,8.6,7.2,12.9,10.9c3.2,5.1,6.2,10.5,9.5,15.6c2.6-2.7,5.1-5.2,7.7-7.9c0.6,0.4,2.7,1.6,5.4,1.3c2.8-0.3,4.4-2,4.9-2.5
		c0.9,0,2.2,0.1,3.8,0.4c3.6,0.5,4.3,1.1,6,0.8c2-0.4,2.2-1.6,4.3-2.5c1.4-0.6,3.6-1.2,7-0.3c5.1-3.5,10.4-7,15.5-10.6"/>
	<path fill="none" stroke="#3F2310" stroke-width="0.8428" stroke-miterlimit="10" d="M721.3,415.5c0.7-0.9,1.4-2,2.1-3.4
		c0.4-0.9,0.8-1.8,1-2.5c2.4-1.2,4.7-2.4,7.2-3.7c1.3,0,2.9,0,4.6-0.4c1.7-0.3,3.1-0.9,4.2-1.3c0.7,0.7,1.7,1.7,3.2,2.6
		c0.5,0.3,1.4,0.8,2.7,1.1c0.6,0.2,1.1,0.2,5.5,0.4c1.2,0,2,0,3.2,0.3c0.8,0.2,1.5,0.4,2,0.6c2.6,0.1,5.1,0.2,7.7,0.3
		c1.6,1.3,3.3,2.6,4.8,3.9c1.2,0.3,2.7,0.5,4.3,0.4c1.8-0.1,2-0.5,3.7-0.4c2.2,0,2.2,0.7,4.3,0.6c1.4,0,1.7-0.3,3.2-0.2
		c1.6,0.1,1.6,0.4,2.5,0.4c2-0.1,2.4-1.4,4.8-2c0.6-0.2,1.4-0.2,3.2-0.3c2.4-0.1,2.7,0.1,4.8-0.1c1.9-0.1,1.9-0.3,3.1-0.2
		c1.8,0.1,3.1,0.5,3.5,0.6c1.9,0.6,2,1.1,4.3,2c1.1,0.5,2.1,0.8,3.3,1.1c2.5,0.4,2.9-0.4,4.9,0s2.4,1.4,4.3,1.6
		c1.4,0.1,2.6-0.2,3.4-0.6c1.6-1.4,3.2-2.7,4.7-4.1c1.5,0.1,3,0.1,4.4,0.2c0.2-0.2,0.4-0.4,0.6-0.6"/>
	<path fill="none" stroke="#3F2310" stroke-width="0.8428" stroke-miterlimit="10" d="M837.7,411.6c2.2,3.1,4.3,5.1,5.8,6.4
		c1.7,1.5,2.6,1.9,7,5.1c2.9,2.2,4.3,3.2,5.3,4.1c2.1,1.7,4.4,4.3,9.3,9.4c2.5,2.7,3.6,3.9,4.8,5.5c1.4,1.8,2.4,3.4,3.1,4.5
		c0.3,0,1.2-0.1,2,0.4c1,0.6,1.3,1.5,1.4,1.8c0.3,0.9,0,1.3,0.1,2.2c0.1,1.3,0.7,1.7,1.5,3.4c0.3,0.5,0.4,0.9,0.6,1.4
		c0.4,1.1,0.7,2.1,0.9,2.7c1.5,1.6,3.8,4.2,6.2,7.4c3.9,5,5.4,8,9.2,13.5c1.8,2.7,4.5,6.5,8.1,11.1"/>
	<path fill="none" stroke="#3F2310" stroke-width="0.8428" stroke-miterlimit="10" d="M828.5,415.7c0.5,0.6,1.2,1.7,2,3
		c2.7,4.3,3,6.4,5.5,10c0.3,0.4,1,1.2,2.4,2.8c2.7,3.1,4.8,5.5,6.3,7.2c1.2-0.2,2.9-0.4,4.7-0.2c1.2,0.1,2.3,0.4,3.2,0.6
		c0.4-0.8,0.8-1.6,1.3-2.4c-0.2-1.4-0.3-2.7-0.5-4.1c0.9-1.6,1.9-3.2,2.8-4.8"/>
	<path fill="none" stroke="#3F2310" stroke-width="0.8428" stroke-miterlimit="10" d="M829.8,417.4c1.9-0.1,4.1-0.2,6.5,0.1
		c4.4,0.5,8.1,1.9,10.7,3.1"/>
	<path fill="none" stroke="#3F2310" stroke-width="0.8428" stroke-miterlimit="10" d="M836.3,412.3c0.2,1.8,0.4,3.7,0.6,5.4"/>
	<path fill="none" stroke="#3F2310" stroke-width="0.8428" stroke-miterlimit="10" d="M753.6,459.6c4.2-2.1,7.8-3.8,11.2-5
		c7.5-3.2,6.7-2.2,11.6-4.3c1.6-0.7,2.9-1.4,4.7-1.5c2.4-0.1,3.1,0.7,5.1,0.1c0.7-0.2,2.5-0.7,3.5-2.3c0.5-0.8,0.4-1.3,1.3-2.5
		c0.3-0.4,0.6-0.8,1.3-1.6c1.4-1.7,1.8-1.8,2.1-1.9c0.7-0.2,1.3,0.2,1.7,0.4c3.2,1.7,5.2,3.5,7.6,4.5c2.3,1.1,2.3,0.4,4.6,1.6
		c1.1,0.5,1.5,0.9,4.6,3.1c2.2,1.5,3.3,2.3,3.5,2.4c1.8,1,3.6,1.4,7.1,2.3c1.9,0.5,2.9,0.7,3.8,0.7c2.1,0,2.6-0.5,4.3-0.2
		c1.9,0.4,3.2,1.4,3.5,1.6c1.1,0.9,1,1.3,1.9,2c1,0.8,1.6,0.3,3.8,0.9c0.6,0.2,1.4,0.4,2.3,0.9c1.5,0.8,1.7,1.4,3,2.4
		c1.8,1.3,2.2,0.8,3.9,1.9c2,1.3,1.8,2.3,3.3,3.4c2.2,1.6,3.6,0.3,6.5,1.3c4.1,1.3,3.5,4.4,7.9,6.2c2.6,1.1,3.1,0,7.1,1.1
		c3.1,0.8,3.3,1.5,7.3,3.3c6.4,2.7,7.2,1.5,10.9,3.8c2.9,1.9,2.9,3,6.1,4.6c2.5,1.3,3.2,1,5.6,2.3c2.4,1.2,3.1,2.1,6.2,4.6
		c3.4,2.7,5.9,4.4,8.5,6c3.8,2.5,5.6,3.8,8.5,4.9c2.8,1.3,6.9,2.1,15.4,3.7c5.1,1,7.9,1.4,10.9-0.1c1.4-0.7,2.3-1.6,2.9-2.3
		c3.7,0.1,7.4,0.2,11.2,0.3c1.1-0.5,2.6-1.3,4.3-2.7c1.4-1.1,2.7-2.5,5.2-6.3c1.4-2.1,3.1-4.8,4.8-8.3c0.9-0.2,1.9-0.4,2.8-0.6
		c-0.3-2.1-0.7-4.2-1-6.2c2.2-0.3,4.3-0.6,6.5-0.9c3.5-3.2,7-6.4,10.6-9.7c4.7-1.6,9.5-3.2,14.2-4.7c6.4-4,12.4-6.4,16.7-8
		c8.6-3.1,14.5-3.7,16.3-3.9c4.4-0.4,7.5-0.1,9.8,0.3c2.1,0.4,3.9,0.9,5.1,1.3"/>
	<path fill="none" stroke="#3F2310" stroke-width="0.8428" stroke-miterlimit="10" d="M806.5,438.5c2.1-0.2,3.8-0.3,5-0.4
		c2.6-0.1,3.2-0.1,3.9,0.1c1.9,0.4,3.4,1.3,4.2,2c2.4-0.1,4.4-0.1,5.9,0s2.8,0.1,3.6,0.2c0.9,0.1,1.6,0.1,2.3,0.2
		c-0.1,1-0.2,2.4,0.2,4c0.3,1.2,0.7,1.4,1.3,3.1c0.7,1.9,0.9,3.4,1,4.2c0.1,1,0.2,2.3,0.1,3.9"/>
	<path fill="none" stroke="#3F2310" stroke-width="0.8428" stroke-miterlimit="10" d="M834.2,454.4c2.4-0.6,4.3-0.4,5.4-0.1
		c0.7,0.2,1.8,0.5,3.2,0.1c0.5-0.1,1.4-0.4,1.9-1.1c0.8-1.1,0.3-2.5,0.3-2.7c0.9,0.3,2.6,0.8,4.6,0.5c1.4-0.2,2.5-0.6,3.2-1
		c0.2-2.2,0-3.9-0.1-5.1c-0.1-0.8-0.3-1.4-0.3-2.5c0-1.5,0.2-2.7,0.5-3.5"/>
	<path fill="none" stroke="#3F2310" stroke-width="0.8428" stroke-miterlimit="10" d="M761.1,277.2c1,0.6,2.7,1.3,4.6,1.5
		c4,0.3,7.8-1.5,7.7-1.6c0,0-0.6,0-0.6,0.1c-0.1,0.6,16.1,3.8,32.1,6.7c7.2,7.9,14.4,16,21.6,23.9c5.1,6.2,10.4,12.7,15.4,19
		c5.8,7.2,11.7,14.5,17.3,21.7c3.7,4.4,7.3,9.1,11.2,13.5c4.9,6.1,10.1,12.4,15,18.5c2.2,2.7,4.4,5.3,6.6,8"/>
	<path fill="none" stroke="#3F2310" stroke-width="0.8428" stroke-miterlimit="10" d="M856.5,225.3c-2.3,2.9-4.4,5.7-6.7,8.7
		c0.1,1,0.2,2.1,0.3,3.1c-1.5,0.2-3.1,0.4-4.5,0.6c-1.1,1.9-2.3,3.8-3.4,5.5c1.9,2.3,3.8,4.4,5.5,6.7c0.1,2.2-0.1,4-0.3,5.2
		c-0.3,2.2-0.8,5.3-2.5,8.4c-0.4,0.7-1,1.6-1.4,3c-0.3,0.9-0.2,1.2-0.6,2.9c-0.4,1.7-0.5,1.6-0.7,2.8c-0.2,1-0.3,2.1-0.4,4.2
		c-0.1,0.9-0.1,1.4-0.1,2.2c-0.1,1.8-0.9,5.8-3.3,14.9c-4.6,1.1-9.4,2.1-14,3.2c-1.5,1.2-3.1,2.3-4.5,3.5"/>
	<path fill="none" stroke="#3F2310" stroke-width="0.8428" stroke-miterlimit="10" d="M838.4,293.7c0.4,0.2,0.9,0.6,1.3,1.3
		c0.2,0.4,0.3,0.8,0.3,2.1c0,0.7,0,1.5-0.1,2.5c0.1,0.3,0.2,0.5,0.4,0.8c4.8,2.7,9.8,5.2,14.6,7.9c4.9,3.5,10.1,6.9,15,10.5
		c6.4,4.4,13,9.1,19.5,13.5c10.9,12.8,21.6,25.6,32.6,38.3c-0.4,1.2-0.7,2.4-1.1,3.5"/>
	<path fill="none" stroke="#3F2310" stroke-width="0.8428" stroke-miterlimit="10" d="M791,332.6c1.5-0.4,3.1-0.9,4.5-1.3
		c3.2-3.5,6.4-6.8,9.7-10.4c0.9-1.5,1.7-2.9,2.6-4.3c0.3-1.3,0.5-2.7,0.8-4c4,0.3,7.9,0.6,12,0.8c2.1-1.8,4.2-3.7,6.3-5.4
		c1.3-1.2,2.6-2.4,3.9-3.6c2.8-1,5.6-1.9,8.5-2.9c0.3-0.6,0.5-1.1,0.8-1.7"/>
	<path fill="none" stroke="#3F2310" stroke-width="0.8428" stroke-miterlimit="10" d="M819.7,300.2c-0.9,1-1.8,2-2.7,3
		c0.1,3.3,0.3,6.6,0.4,10c-0.4,4.1-0.7,8.1-1.1,12.3c-0.3,1.5-0.6,3-0.9,4.3c-0.8,1.7-1.6,3.4-2.4,4.9c-0.4,4.3-0.8,8.8-1.2,13.1"/>
	<path fill="none" stroke="#3F2310" stroke-width="0.8428" stroke-miterlimit="10" d="M809.2,375.3c4.8-4.6,9.9-9.3,14.7-13.9
		c-0.5-3.5-1.1-6.9-1.6-10.5"/>
	<path fill="none" stroke="#3F2310" stroke-width="0.8428" stroke-miterlimit="10" d="M823,354.9c1.4-1.3,2.8-2.5,4.1-3.8"/>
	<path fill="none" stroke="#3F2310" stroke-width="0.8428" stroke-miterlimit="10" d="M832.5,353.7c2.2-1.9,4.3-3.8,6.4-5.6
		c0.4,0,0.9-0.2,1.4-0.5c0.9-0.5,1.2-1.4,1.5-2c0.4-0.8,1.1-1.8,2.4-2.9c2.7-1,5.4-1.9,8.1-2.9"/>
	<path fill="none" stroke="#3F2310" stroke-width="0.8428" stroke-miterlimit="10" d="M883.9,378.5c0.5-3.3,1.1-6.7,1.8-10.4
		c0.6-3.2,1.3-6.2,2.1-9.3c0.4-6.4,0.8-9.8,1.1-11.5c0.1-0.7,0.5-2.5,0.4-2.5l-0.1,0.3c0.1,0.1,0.6-0.6,1.9-2.4
		c0.4-2.4,0.8-4.8,1.1-7.2"/>
	<path fill="none" stroke="#3F2310" stroke-width="0.8428" stroke-miterlimit="10" d="M998.4,274.7c0.3,1.3,0.6,2.5,0.9,3.8
		c-2.2,5-4.4,10.2-6.6,15.2c-0.7,1.1-1.3,2-1.7,2.6c-0.5,0.7-0.9,1.2-1.4,1.7c-0.8,0.8-1.5,1.4-2,1.8c-0.5,1.3-0.6,2.3-0.7,3
		c-0.1,1.3,0.1,1.6-0.1,3c-0.1,0.5-0.1,0.6-0.7,2.8c-0.6,2.4-0.6,2.2-0.7,2.6c-0.6,1.7-1.1,2.3-1.7,3.6c-0.5,1.1-1.1,2.6-1.5,4.6
		c-0.5,0.3-1.3,0.8-1.9,1.6c-0.5,0.7-0.9,1.4-1.6,3.6c-0.6,2.1-0.7,2.6-1.1,4c-0.3,1-0.8,2.3-1.6,4c-0.8,0.7-1.7,1.4-2.5,2.2
		c-0.2,0.7-0.5,1.5-0.9,2.3c-1,1.9-2.2,3.2-3.2,4c0,1.6-0.1,3.2,0,4.8c0,1.8,0.1,3.5,0.1,5.1c-0.4,4.7-0.8,9.5-1.2,14.2
		c0,3,0.1,6,0.1,9.1c-0.6,1.1-1.2,2.1-1.8,3.2c0.1,3,0.3,5.9,0.5,9.1c0.1,1.4,0.2,2.8,0.3,4.1c-0.4,1.2-0.9,2.9-1,4.8
		c-0.1,2,0.2,3.6,0.5,4.7c0,3.6,0.4,6.4,0.8,8.4c0.3,1.6,0.5,2.2,1.4,6.4c0.8,3.8,0.9,4.5,0.9,5.3c0.2,2.6,0.1,4.7-0.1,6.2
		c0.6,0.9,1.2,2,1.7,3.5c1,3,0.8,5.5,0.6,6.9c0.9,1.4,1.9,3.2,2.7,5.4c1,3,1.4,5.5,1.5,7.4c-1.2,1.6-2.4,3.1-3.6,4.6"/>
	<path fill="none" stroke="#3F2310" stroke-width="0.8428" stroke-miterlimit="10" d="M935.1,363.9c2.8-1.2,5-1.6,6.6-1.7
		c2.1-0.2,3.4,0,5.3-0.6c1.7-0.6,3-1.5,3.8-2.3c2.4-0.6,4.2-1.5,5.2-2.3c1.3-0.8,1.8-1.4,3.7-2.5c1.7-1.1,2.6-1.4,3.7-2
		c1.5-0.8,3.6-2.3,5.6-4.8"/>
	<path fill="none" stroke="#3F2310" stroke-width="0.8428" stroke-miterlimit="10" d="M932.9,280.5c1.9,0.2,3.5,0.4,4.6,0.6
		c1.8,0.3,2.7,0.4,3,0.6c0.6,0.2,1.2,0.5,2,0.5c0.6,0,1.2-0.2,1.5-0.4c1.3,0.1,2.6,0.1,3.9,0.2c1.4-1.1,4.5-3.4,8-4.3
		c1-0.3,1.8-0.4,2.8-0.4c1.9,0,3.3,0.7,4.1,1.2c0.7,0.1,1.8,0.2,3,0.4c4.4,0.8,7.2,2,10.4,3c2.2,0.7,5.3,1.7,9.5,2.6
		c3,1.5,5.9,3.1,9,4.5"/>
	<path fill="none" stroke="#3F2310" stroke-width="0.8428" stroke-miterlimit="10" d="M930.6,304.2c-0.7,0.2-1.5,0.4-2.2,0.6
		c-0.9-0.4-1.9-0.8-2.8-1.2c-4.5-0.8-9.6-1.5-14.7-2c-2.4-0.2-4.7-0.4-7-0.5c-1.6,2.1-3.2,4.3-4.8,6.3c1.6,1.5,3.6,3.4,6.1,5.4
		c1.4,1.2,2.9,2.3,5.7,4.4c3.9,3,5.8,4.4,6.8,5c2.2,1.3,4.9,2.9,8.8,3.6c3.1,0.5,5.6,0.3,7.2,0"/>
	<path fill="none" stroke="#3F2310" stroke-width="0.8428" stroke-miterlimit="10" d="M897.3,341.2c3.2-2.8,6.3-5.4,9.6-8.3
		c2.9-1,4.6-2.5,5.6-3.5c1.3-1.3,2.3-2.8,3.4-4.3c0.7-1.1,1.3-2,1.7-2.7"/>
	<path fill="none" stroke="#3F2310" stroke-width="0.8428" stroke-miterlimit="10" d="M926.4,326.3c0.1,1.7,0.1,4.1-0.1,6.8
		c-0.3,3.5-0.8,6-1.3,8.5c-0.5,2.2-1.2,5-2.2,8.4c-2.2-0.5-4.3-1-6.5-1.5c-2.4,2.1-4.8,4.1-7.2,6.1"/>
	<path fill="none" stroke="#3F2310" stroke-width="0.8428" stroke-miterlimit="10" d="M907,333.1c0.7,0.2,1.8,0.6,2.8,1.6
		c0.4,0.3,0.6,0.7,0.8,1c4.8,1.9,9.8,3.8,14.6,5.6"/>
	<path fill="none" stroke="#3F2310" stroke-width="0.8428" stroke-miterlimit="10" d="M847.8,250c4.6,3.7,9.4,7.3,14,11.1
		c4.3,0.9,6.9,2.2,8.6,3.2c2.7,1.6,4.4,2.9,4.4,2.9c1.2,0.9,1.6,1.2,2.5,1.7c1.1,0.6,1.7,0.8,3.8,1.7c1.1,0.5,2,0.9,2.5,1.1
		c3.3,0,6.4-0.1,9.8-0.1c5.5,1.4,11.3,2.9,16.8,4.3c10.3,0.2,14.2,0.5,15.7,0.8c0.3,0.1,1.4,0.3,2.8,0.3c1.2,0,2.2-0.2,2.8-0.4"/>
	<path fill="none" stroke="#3F2310" stroke-width="0.8428" stroke-miterlimit="10" d="M899.2,307.8c-0.5-0.9-1.5-2.3-3.1-3.2
		c-1.5-0.9-2.8-0.9-4.7-1.1c-1.3-0.1-3.4-0.5-7.7-1.2c-4.2-0.7-6.2-1.1-8-1.7c-2.6-1-3.7-1.8-6.3-2.3c-1.8-0.3-2.4-0.1-4.1-0.2
		c-2.2-0.1-3.1-0.5-10.4-2.8c0,0-2.3-0.7-8.4-2.4c-1.4-0.4-3.5-0.9-5.9-0.3c-0.9,0.2-1.6,0.5-2.1,0.8"/>
	<path fill="none" stroke="#3F2310" stroke-width="0.8428" stroke-miterlimit="10" d="M838,321.8c-2.8,14.2-4.3,21.2-4.9,23.5
		c-0.2,0.6-0.9,2.8-1.1,5.8c-0.1,0.9-0.1,1.6-0.1,2.1"/>
	<path fill="none" stroke="#3F2310" stroke-width="0.8428" stroke-miterlimit="10" d="M842.2,243.2c-1.4-2.1-2.9-3.4-4-4.2
		c-2.3-1.6-3.9-1.9-6.4-4c-1.2-1-2.1-1.9-2.6-2.5"/>
	<path fill="none" stroke="#3F2310" stroke-width="0.8428" stroke-miterlimit="10" d="M915.1,443.6c1.8,0.7,4.5,1.7,7.7,3.2
		c6.6,3,10.1,4.5,12.7,7.6c1.2,1.5,3.1,4.2,4,8.7c3.7,1.6,7.3,3.2,11.1,4.7c1.5,1.7,2.9,3.4,4.3,4.9c5.4,3.6,10.9,7.2,16.3,11
		c1.6,1.1,3.1,2.1,4.6,3.2c2.9-1.1,5.6-2.2,8.6-3.3"/>
	<path fill="none" stroke="#3F2310" stroke-width="0.8428" stroke-miterlimit="10" d="M982,484.9c0.5,1.9,0.9,3.7,1.4,5.5"/>
	<path fill="none" stroke="#3F2310" stroke-width="0.8428" stroke-miterlimit="10" d="M963.9,478.5c2.8-5.9,5.5-12,8.5-17.9
		c0.3-2,0.5-4,0.8-6"/>
	<path fill="none" stroke="#3F2310" stroke-width="0.8428" stroke-miterlimit="10" d="M835.5,543.5c-1.7-2.6-1.9-4.6-1.8-6
		c0.2-2.3,1.5-3.5,1-5.7c-0.2-1.2-0.7-1.9-1.5-3.2c-0.8-1.2-2.1-2.9-4.3-4.4c1.1-2.5,2-4.4,2.5-5.7c1.4-3.4,1.8-4.6,3.3-5.5
		c1.3-0.7,2.6-0.7,3.4-0.6c3.2,0.1,4.2,2,6.1,1.6c0.8-0.2,2-0.7,3.2-2.8c0.8-2.6,1.7-4.7,2.4-6.3c0.6-1.4,1.4-3.1,2.7-5.2
		c1-1.7,2-3.1,2.8-4.2c3.3-0.3,5.8-0.1,7.6,0.1c2.3,0.3,3.1,0.7,4.8,0.5c2.4-0.3,3-1.3,5.5-2.1c1.8-0.6,2.1-0.3,7-0.8
		c4.2-0.4,6.2-0.5,9-1.1c3.7-0.8,4.2-1.5,7.1-1.9c2.7-0.4,4.8-0.2,6.3,0"/>
	<path fill="none" stroke="#3F2310" stroke-width="0.8428" stroke-miterlimit="10" d="M743.7,467.9c0.5,0.2,1.2,0.5,2,0.9
		c1.4,0.7,2.3,1.5,2.7,1.8c1.9,1.5,5.5,2.7,8.5,1.8c0.8-0.3,0.3-0.3,4.2-2.9c3.1-2.1,3.9-2.4,4.8-2.4c1.1,0,1.2,0.4,3.4,0.9
		c1.5,0.3,2.6,0.4,3.5,0.5c0.6,0.1,5.1,0.5,9.3,1.6c4.9,1.4,5,2.6,7.7,2.4c1.9-0.1,2.7-0.7,5.3-0.6c0.6,0,2.2,0.1,4.2,0.6
		c1,0.3,2.4,0.6,3.9,1.5c3.5,2,3.4,4.3,5.7,4.7c1.3,0.2,1.6-0.5,3.5-0.3c1.7,0.2,2.9,0.9,3.4,1.3c1.8,1.1,2.6,0.9,8.7,2.8
		c11.5,3.4,10.1,4.2,14.3,4.6c1,0.1,4.1,0.4,7.9,1.6c2.7,0.9,3.4,1.5,3.8,2.1c1.4,2.2-0.4,4.9,0.9,5.8c0.4,0.3,1.1,0.5,2.8-0.3"/>
	<path fill="none" stroke="#3F2310" stroke-width="0.8428" stroke-miterlimit="10" d="M845.6,488.3c0.4-2,0.9-4.1,1.3-6.2
		c0.5-2.8,0.9-5.4,1.3-8c2.9,0.1,5.8,0.3,8.8,0.4c-0.2-0.2-0.9-1.2-0.9-2.5c0-1.4,0.8-2.3,1-2.5"/>
	<path fill="none" stroke="#3F2310" stroke-width="0.8428" stroke-miterlimit="10" d="M844.3,541.5c0.5-0.3,0.9-0.6,1.4-0.9
		c1.2,0.1,3.2,0.3,5.6,0.6c5.7,0.8,6.5,1.4,10,1.5c4.4,0.2,4.1-0.8,7.9-0.4c3,0.3,4.8,1.1,6.1,0c1.1-1,0.7-2.3,2-3.2
		c1-0.6,1.7-0.2,3.7-0.3c3.7-0.1,4.3-1.6,7.1-1.3c1.9,0.2,3.2,1,3.8,1.4c2.8,1.9,3.6,4.8,3.8,5.7c1.8-0.3,4.3-1,7.3-2.3
		c4-1.7,5.8-3.4,10.9-6.3c1.9-1.2,4.7-2.8,8.3-4.6c-0.4-1.9-0.8-4.2-1.3-6.7c-1-5.5-1.2-6.8-0.8-8.6c0.2-1.1,0.5-1.3,2.3-4.9
		c1.2-2.5,2.2-4.5,2.8-5.8"/>
	<path fill="none" stroke="#3F2310" stroke-width="0.8428" stroke-miterlimit="10" d="M903.8,490.6c0,1.8,0.1,4.4,0.1,7.7
		c0.1,5.9,0.1,9,0,11.4c-0.1,2.8-0.5,6.7-1.4,11.7c0.4,0.1,1.3,0.4,1.9,1.1c0.7,1,0.4,2.3,0.1,3.4c-0.6,2.2-1.4,2.4-1.9,4
		c-0.6,1.9-0.2,3.6,0.4,5.5c0.7,2.6,2,4.4,3,5.7"/>
	<path fill="none" stroke="#3F2310" stroke-width="0.8428" stroke-miterlimit="10" d="M905.1,523.2c1.5,0,2.8-0.1,3.7-0.1
		c1-0.1,1.5-0.1,2.3,0c1.1,0.2,1.4,0.5,2.3,0.8c1.2,0.3,1.9-0.1,3.3-0.3c1-0.1,2.5-0.2,4.3,0.3"/>
	<path fill="none" stroke="#3F2310" stroke-width="0.8428" stroke-miterlimit="10" d="M902.8,530.5c2,0.6,3.8,1,5.1,1.4
		c3.7,0.9,4.4,1,5.3,0.9c1.5-0.1,1.8-0.5,3.7-0.8c1.6-0.2,3-0.1,3.9,0"/>
	<path fill="none" stroke="#3F2310" stroke-width="0.8428" stroke-miterlimit="10" d="M922,529.3c1.6-1.7,2.9-3.2,3.7-4.3
		c2.6-3.3,3.3-5.1,6-8.8c1.3-1.7,2.4-3.1,3.2-3.9"/>
	<path fill="none" stroke="#3F2310" stroke-width="0.8428" stroke-miterlimit="10" d="M855.8,542.3c-0.3,2.2-0.7,4.3-1,6.5
		c1-0.1,2.4-0.2,4,0c2.3,0.3,3.5,1.1,4.7,1.6c1.7,0.7,2.2,0.4,10.9,0.4c5.6,0,6.2,0.1,8.3-0.3c1.4-0.2,3.7-0.6,6.5-1.8
		c3.1-1.3,5.2-2.9,6.7-4.2"/>
	<path fill="none" stroke="#3F2310" stroke-width="0.8428" stroke-miterlimit="10" d="M906.7,541.3c0.1,0.7,0.3,2.7,2,4.3
		c1.3,1.2,2.7,1.5,3.5,1.6c2.5,0.5,4-0.4,6.6-0.9c1.6-0.3,4-0.6,7-0.1c-0.6-2.4-1.3-4.3-1.8-5.5c-0.7-1.9-1.3-3.2-0.8-4.4
		c0.3-0.7,0.9-1.1,1.3-1.4c-0.8-1-1.6-2-2.4-3"/>
	<path fill="none" stroke="#3F2310" stroke-width="0.8428" stroke-miterlimit="10" d="M818.3,654.6c-0.1-2.1,0.1-4.7,1.9-6.1
		c1.3-1,2.4-0.5,4.6-1.3c3-1,2.6-2.4,6-4.4c3.1-1.9,6.8-3,9.5-3.7c1.6-0.4,1.9-0.4,2.7-0.9c2.4-1.5,1.6-3.5,4-6.6
		c2-2.7,3.5-2.4,4.8-4.8c0.2-0.4,0.7-1.3,1.8-2c0.9-0.6,1.8-0.7,2.3-0.8c2.3-0.3,3.2-1.7,5.5-2.9c3.8-2,4.7-0.1,9.5-2
		c0.8-0.3,2.3-1.2,5.1-2.9c2.5-1.5,4.4-2.7,5.7-3.5c0.3-1.3,0.9-3.1,2-4.9c2.1-3.5,5-5.2,6.5-6c0.6-5.1,2.2-8.7,3.5-11
		c2.3-3.8,4.7-5.4,6.1-10c0.5-1.8,0.9-2.7,1.5-4.4c1.1-3,1.4-3.7,1.9-4.3c0.6-0.8,1.8-2,4.2-2.8c2.9-3.3,6.5-6.9,11-10.6
		c3.1-2.5,6-4.5,8.8-6.3c-0.3-1.9-0.7-3.8-1-5.6"/>
	<path fill="none" stroke="#3F2310" stroke-width="0.8428" stroke-miterlimit="10" d="M804.4,633.2c0.4-0.7,1.2-1.7,2.4-2.4
		c0.9-0.5,1.4-0.5,2.3-0.9c0.8-0.4,1.9-1.1,2.9-2.5c-0.7-2.4-0.3-3.6,0.3-4.3c0.4-0.5,0.7-0.5,3.3-2.3c1.3-0.9,1.6-1.1,1.8-1.4
		c0.9-1.1,0.3-1.8,1-3.2c0.8-1.7,1.9-1.3,2.8-3.2c0.2-0.3,0.4-1.1,0.9-2.8s0.5-1.9,0.8-2.1c1-0.9,2.2,0,3.7-0.9
		c1.1-0.7,0.7-1.4,1.6-2c1.2-0.8,2.2,0,4.9,0.1c1.9,0.1,3.2,0.1,4.4-0.6c1.6-0.9,1.1-1.9,3.2-3.7c0.9-0.7,1.9-1.3,4-2.4
		c1.3-0.7,2.4-1.2,3.2-1.5c2.3-2.8,4.3-4.8,6-6.3c3.7-3.4,3.7-2.4,6-4.8c1-1.1,1.9-2.2,3.4-2.5c1.4-0.3,2.7,0.1,3.5,0.5
		c1.1-0.6,2.6-1.5,4.3-2.8c2.1-1.7,2.2-2.3,5.1-5.2c3.4-3.4,4.4-3.9,5.3-6.1c0.8-2,0.6-3.4,0.5-3.8c-0.4-1.9-1.6-3.1-2.1-3.5
		c0.5-1.7,0.7-3.1,0.8-4c0.2-2.5-0.3-3.6,0.3-5.2c0.5-1.4,1.3-2.3,1.9-2.9"/>
	<path fill="none" data-pathType="road" data-toolTipName="Old Mumbai Pune Highway" stroke="#3F2310" stroke-width="0.8428" stroke-miterlimit="10" d="M749.5,185.2c0.9,0.7,2.1,1.5,3.7,1.5
		c1.1,0,1.4-0.5,2.7-0.8c2.9-0.8,4.3,0.8,7.1,0.3c0.9-0.1,2.3-0.5,3.9-1.7c4.3,0.3,7.6,0.1,10.1-0.2c3.4-0.3,5.1-0.8,8.4-0.5
		c3.1,0.3,4.1,1,6.1,1.3c2.8,0.4,6.7,0.2,12.3-3.2c0.6-0.7,1.1-1.5,1.7-2.2c3.5-0.7,8.5-1.3,14.2-0.7c4,0.4,7.3,1.3,10.1,2.2
		c1.2-0.5,2.5-1,4-1.3c1.9-0.5,3.6-0.7,4.9-0.8c1.2-2.2,3.1-5.2,6-8.4c2-2.1,5.5-5.8,11.3-8c1.4-0.6,0.7-0.1,10.4-2.5
		c5-1.3,6.4-1.7,7.5-2c4.3-1.4,7.1-2.8,8.9-3.5c3.6-1.5,9.1-3.1,17.2-3c1.4,0.6,2.8,1.1,4.2,1.7c2.5-0.2,5.5-0.2,9.1,0.5
		c2.6,0.5,3.1,1,6.5,1.9c3.5,0.8,3.9,0.6,9.1,1.5c5.9,1.1,6.4,1.6,9.8,1.9c3.5,0.3,6.4,0,8.4-0.3"/>
	<path fill="none" stroke="#3F2310" stroke-width="0.8428" stroke-miterlimit="10" d="M868.2,160.7c0.5,3.1,1,6.3,1.3,9.9
		c0.4,4.5,0.6,8.9,0.5,12.8c-0.7-0.1-2.1-0.3-3.7,0.3c-2.4,0.9-3.4,2.8-3.7,3.4c-3,6.5-5.8,13-8.9,19.6c0.9,6.2,1.8,12.6,2.7,18.7"
		/>
	<path fill="none" stroke="#3F2310" stroke-width="0.8428" stroke-miterlimit="10" d="M870.3,170.2c1.6-1.9,2.7-2.1,3.4-2
		c0.9,0.1,1.1,0.9,2.2,1.3c1.3,0.6,2.7,0.2,3.7-0.2c1.2,2.2,1.8,4,2,5.3c0.4,2,0.3,3.3,1.3,4.4c0.2,0.2,1.2,1.4,2.7,1.5
		c2.4,0.2,3.3-2.4,5.5-2c1.1,0.2,1.2,0.9,2.5,1.2c1.6,0.3,3-0.4,4-1c1.5-0.6,3-1.1,4.4-1.7c7,3.8,14,7.4,21.1,11.3
		c0.8,1.3,1.9,3.1,3.2,5.1c2.3,3.6,2.8,4.1,3.5,4.4c1.7,1,2.8,0.5,6.1,1.2c1.9,0.4,3.4,1,4.3,1.3c0.6-1.7,1.2-3.4,1.9-4.9
		c1.6,0.5,3.1,1,4.6,1.5c0.1,0.7,0.3,1.8,0.7,3c0.7,2.4,1.7,3.9,2.4,5.1c0.8,1.5,1.7,3.9,2,7.1c1.1,0,2.7,0.1,4.6,0
		c2.7-0.1,3.7-0.3,5.1,0c1.1,0.2,2.7,0.8,4.3,2.4c1.8,2.2,3.2,4.1,4,5.3c1.5,2.2,1.9,3.2,3.2,4.2c1.8,1.5,4,1.9,5.3,2
		c1,2.2,1.9,4.3,2.9,6.5c-1.1-0.1-2.2,0.4-2.7,1.3c-0.7,1.2,0.1,2.5,0.2,2.7c0.3,0.6,0.7,0.8,1.7,1.5c1.7,1.2,2.5,1.8,3,2.4
		c1.1,1.3,0.8,2,1.9,3.9c0.6,1,1.4,2,2.5,3c0.2,1.7,0.7,4.3,2,7c1.6,3.4,2.7,3.4,4.4,7c1.5,3.1,2.2,6,2.9,8.8
		c0.4,1.8,0.7,3.3,0.8,4.3"/>
	<path fill="none" stroke="#3F2310" stroke-width="0.8428" stroke-miterlimit="10" d="M989.1,177.1c1.8,0.6,4.5,1.4,8,2
		c4.6,0.9,6.4,0.7,10.6,1.3c3.8,0.6,6.3,1.5,11.4,3.2c4,1.4,7.3,2.7,13.9,5.3c6.5,2.7,7.3,3.1,9.8,3.5c3,0.5,5.4,0.4,10.4,0.2
		c4.1-0.2,7.3-0.6,9.8-0.8"/>
	<path fill="none" stroke="#3F2310" stroke-width="0.8428" stroke-miterlimit="10" d="M999.7,278.2c0.2-0.1,2.6-1.5,4.9-0.3
		c1.9,0.9,2.6,2.7,2.7,3c1.5-0.2,3.5-0.3,5.5,0.7s2.9,2.5,3.5,3.4c2.6,3.4,6.2,2.9,15.4,5.3c9.4,2.5,8.3,3.8,14,4.4
		c4,0.5,5.8,0,11.8,1c1.8,0.3,3.4,0.6,6,0.8c1.5,0.1,3.8,0.2,7.1,0c5.7-0.4,9.9-0.6,14.5-2.4c5.4-2,4.6-3.4,9.6-4.6
		c4-1.1,5.3-0.4,10.4-1.9c3.7-1.1,3.7-1.7,6.1-2c1.5-0.2,5.9-0.8,9.4,1.7c1.3,1,1,1.3,2.5,2.4c0.9,0.6,3.7,2.5,6.8,1.7
		c0.7-0.2,2.1-0.7,3.5-2.2c3,0.6,7.3,1.7,12.1,4.3c2.3,1.3,3.4,2.2,5.8,3.9c2.9,1.9,7,4.4,12.8,7c1.3,1.6,2.6,3.3,3.9,4.8"/>
	<path fill="none" stroke="#3F2310" stroke-width="0.8428" stroke-miterlimit="10" d="M1167.4,436.9c-3.9-0.6-6.9-1-9.1-1.2
		c-8.9-0.9-11.2-0.4-15-2.4c-1.8-0.9-2.4-1.6-5.1-2.9c-2.9-1.3-5-1.9-6.8-2.4c-5-1.4-2.7-1-11.4-3.5c-6.6-2-32.5-9.3-67.6-19.1
		c-0.8,0.6-2.2,1.4-4.2,1.9c-0.7,0.1-1.9,0.4-3.4,0.2c-2.4-0.3-4.1-1.6-4.8-2.4c-4.5-2.1-8.1-2.4-10.8-2.2c-3,0.2-4.9,1.1-9.6,1
		c-2.4-0.1-4.8-0.3-4.8-0.3c-4-0.4-3.9-0.8-5.3-0.7c-2.4,0.2-3,1.2-6.3,1.9c-1.2,0.2-2.2,0.3-2.9,0.3c-1.6,0.8-3.8,2.1-6,4.2
		c-2.7,2.5-3.8,4.4-6.5,8.4c-4.2,5.9-4.6,5.7-6.6,8.9c-2.1,3.2-4.5,8.3-5.8,15.6"/>
	<path fill="none" stroke="#3F2310" stroke-width="0.8428" stroke-miterlimit="10" d="M975.5,441.9c1.1-0.4,2.7-0.8,4.6-1.2
		c3.5-0.6,5.4-0.3,8.4-0.3c4.7-0.1,8.5-0.9,10.3-1.3c3.4-0.8,6.9-1.7,10.6-4.4c1.3-1,2.2-2,2.9-2.7c-0.7-2.2-1.5-4.4-2.2-6.6
		c1.2-0.8,2.4-1.7,3.5-2.5c3.6,0.6,5.8,0,7.3-0.7c1.8-0.8,1.9-1.6,7.1-6.3c3.7-3.4,4.4-3.8,5.3-4.2c2-0.9,3.2-0.7,4.9-1.9
		c1.7-1.1,2.7-2.5,3.4-3.5"/>
	<path fill="none" stroke="#3F2310" stroke-width="0.8428" stroke-miterlimit="10" d="M927.8,551.6c1.1,0,2.7,0.2,4,1.2
		c1.5,1.1,1.5,2.3,2.9,2.7c1.2,0.4,2.7-0.1,3.7-1c0.9-0.8,1.1-1.8,1.2-2.2"/>
	<path fill="none" stroke="#3F2310" stroke-width="0.8428" stroke-miterlimit="10" d="M939,554.6c0.1,1.1,0.2,2.1,0.3,3.2
		c1.7,0.3,3.5,0.7,5.1,1"/>
	<path fill="none" stroke="#3F2310" stroke-width="0.8428" stroke-miterlimit="10" d="M944.2,574c1.2,1.5,2.6,3.3,3.9,5.5
		c0.8,1.4,1.4,2.7,1.9,3.9c5.8,1,10.6,0.8,13.7,0.3c2.2-0.3,4.1-0.8,7.8-1.7c6.6-1.6,10-2.4,12.3-3.5c3.1-1.5,4.5-2.9,6.3-2.2
		s2.5,3.1,2.7,3.9c0.6,2.1,0.1,3.6-1.2,8.6c-1,3.8-1.4,5.6-1.7,7.3c-0.4,2.9-0.8,5.3-0.3,8.4c0.7,4.2,2.1,4.2,2.9,8.6
		c0.5,3-0.2,3.1,0.2,8.1c0.1,1.5,0.3,4.3,1,7.6c0.8,3.8,1.7,5.2,3.4,9.9c0.8,2.4,2,5.7,3,10.1"/>
	<path fill="none" stroke="#3F2310" stroke-width="0.8428" stroke-miterlimit="10" d="M896.3,617.5c1.7,0.6,4.2,1.6,7.1,2.7
		c7.9,3,11.9,4.4,14.7,5.5c8,3.1,16.2,5.5,24.2,8.6c1.3,0.5,3.1,1.2,5.5,1c2.8-0.2,3.1-1.4,6.5-1.9c2.7-0.4,3.4,0.3,6-0.3
		c2-0.4,2.1-0.9,4-1.5c4.3-1.4,5.7,0.4,10.4-0.8c3-0.8,5.2-2.2,5.5-2.4c2.5-1.6,2.8-2.6,4.4-3c0.6-0.2,1.7-0.3,6,1.2
		c4.8,1.7,4.7,2.4,7.3,2.9c3.3,0.6,3.5-0.4,7,0.2c2.9,0.5,2.8,1.2,7.1,2.4c4.6,1.2,6.1,0.8,6.6,0c0.4-0.6,0.3-1.3,0.8-1.5
		c0.7-0.3,1.3,0.7,2.5,1c1.6,0.4,2.5-1,4.8-1.7c1.7-0.5,2.4-0.1,4.4-0.2c2.3,0,2.5-0.4,9.1-2.2c5.2-1.4,5.9-1.3,8.4-2.4
		c1.9-0.8,1.8-1,4.6-2.4c3.5-1.6,5.5-2.7,8-3.2c5.1-1.1,5.8,1.2,9.6,0c1.3-0.4,2.1-0.9,8.9-7.8c4.4-4.5,5-5.2,6.5-5.8
		c3.7-1.4,7.7,0.2,10.9,2"/>
	<path fill="none" stroke="#3F2310" stroke-width="0.8428" stroke-miterlimit="10" d="M1062.6,552.8c2.7,3.3,5.2,5.4,7.1,6.8
		c2.3,1.7,3.1,2,4.8,3.5c2.7,2.4,4.2,4.7,5.6,7.5c3,5.2,4.4,7.9,6,12.5c2.2,5.9,9.9,22.6,30.9,64.4"/>
	<path fill="none" stroke="#3F2310" stroke-width="0.8428" stroke-miterlimit="10" d="M947.4,552.9c2.2,0.7,3.9,0.7,4.9,0.7
		c2.6-0.1,3.4-1,7.5-1.7c1.6-0.3,1.2-0.1,3.9-0.5c2.6-0.4,4.4-0.7,6.8-1.3c1.1-0.3,2.6-0.8,4.3-1.5"/>
	<path fill="none" stroke="#3F2310" stroke-width="0.8428" stroke-miterlimit="10" d="M945.2,565.8c3.6,0.1,6.5,0,8.8-0.2
		c4-0.3,6.1-0.5,9.1-1.3c3.6-1.1,5.4-1.7,7-3.5c1.9-2.1,1.9-4.3,4.2-5.5c1.1-0.6,2.3-0.7,3-0.7"/>
	<path fill="none" stroke="#3F2310" stroke-width="0.8428" stroke-miterlimit="10" d="M975.2,548.7c0.3,1.3,0.8,3.2,1.9,5.3
		c0.6,1.4,1.4,2.7,4.3,6.8c3.9,5.4,3.7,4.7,4.3,6c2.5,4.7,1.6,7.8,3.5,8.6c1.4,0.5,3.1-0.7,4.8-2c1-0.7,2.8-2.1,3.7-4.3
		c0.7-1.8,0.2-2.6,0.3-4.9c0.1-2.3,0.8-4,2.2-7.5c1.8-4.4,2.8-5.3,3.2-8.4c0.3-1.9,0.1-3.5,0-4.4"/>
	<path fill="none" stroke="#3F2310" stroke-width="0.8428" stroke-miterlimit="10" d="M975.9,629.6c-0.4-3-0.8-5.2-1.2-6.8
		c-0.9-4.2-1.6-5.3-1.7-8.1c-0.1-2.8,0.5-2.9,0.3-5.3c-0.2-2.8-1.1-3.1-2.2-6.8c-1.1-3.9-0.5-4.5-2-10.4c-0.3-1.2-0.5-2-0.8-3
		c-1.7-5.6-2.9-8.5-4-11.8c-1.4-4.1-2.6-7.5-2.9-12.3c-0.3-5.6,1.1-6.4,0.3-12.6c-0.4-3.4-1-4.1-1.2-7.6c-0.2-3.8,0.3-4.3,0.3-8.6
		c0-2.5-0.3-5.3-1-11.1c-0.3-2.6-0.7-5.9-1.3-10.1c2.2-1.9,4.1-2.8,5.5-3.2c0,0,1.1-0.3,6.5-0.8l0,0"/>
	<path fill="none" stroke="#3F2310" stroke-width="0.8428" stroke-miterlimit="10" d="M970.7,506.5c0.2,0.9,0.4,2.3,0.5,3.9
		c0.1,1,0.1,1.5,0.2,3.4c0.2,5.1,0.3,6,0,7.6c-0.2,1.2-0.6,2.1-0.8,2.7"/>
	<path fill="none" stroke="#3F2310" stroke-width="0.8428" stroke-miterlimit="10" d="M972.5,514.6c5.6,2.6,10.3,3.1,12.9,3.2
		c1.8,0.1,3.3-0.1,4.2-0.2c0.7-0.1,5.1-0.6,8.8-2.7c0.8-0.5,1.6-0.9,2.5-1.9c0.8-0.8,0.8-1.1,1.3-1.5c1.3-0.9,2.3-0.1,3.7-0.5
		c2.7-0.7,2.5-4.7,4.8-5.3c1.4-0.3,1.9,1,4.2,1.7c2.1,0.6,3.9,0.2,8.8-1.3c6.2-2,5.7-2,8.1-2.7c6.2-1.7,11-2,12.8-2
		c1.3,0,3.1-0.1,5.3,0.2c3.9,0.4,6.6,1.4,10.1,2.5c12.7,4.3,12.4,4.2,12.8,4.3c9.1,3.5,9.1,4.1,13.2,4.9c4.2,1,7.8,1.2,11.8,1.3
		c6.2,0.3,7.4-0.2,11.6,0.7c3.9,0.9,5.8,1.3,8.1,2.9c2.5,1.7,4.1,3.7,6.3,3.4c0.8-0.1,2-0.5,3-0.8c1.2-0.4,1.9-0.6,2.5-1
		c1.5-0.9,2-2.1,2.7-3.2c1.4-2.2,4.6-6.4,7.6-6.1c1.5,0.1,1.6,1.2,3,1.2c1.9,0,2.5-1.8,4.9-3.7c3.1-2.2,6.4-2.6,7.3-2.7
		c2.4-0.2,2.8,0.4,5.8,0c1.6-0.2,2.3-0.5,3.7-0.3c1.8,0.2,3.1,0.8,4,1.3"/>
	<path fill="none" stroke="#3F2310" stroke-width="0.8428" stroke-miterlimit="10" d="M985.4,490.6c0.1,2.9,0,6-0.2,9.4
		c-0.2,3.6-0.6,6.9-1,10.1c0.6,1.8,1.9,4.3,4.2,6.8c1.6,1.7,2.5,2,4,3.7c2.4,2.7,2,4.1,4,7.5c3,5.1,5.3,5,6.6,8.9
		c0.7,2,0.9,4.5,0,7.6"/>
	<path fill="none" stroke="#3F2310" stroke-width="0.8428" stroke-miterlimit="10" d="M985.6,492.6c6.5,0.2,11.7,0.2,15,0.2
		c4.8,0,7.2-0.1,10.6,0.8c3.1,0.9,4.4,1.9,8.6,4c2.8,1.5,6.7,3.5,11.9,5.5"/>
	<path fill="none" stroke="#3F2310" stroke-width="0.8428" stroke-miterlimit="10" d="M1002.3,473.2c0.3,2.3,0.5,5,0.3,8.1
		c-0.1,1.6-0.3,3.2-0.5,4.4c1.4-0.2,3.6-0.2,6,0.3c2,0.5,3.6,1.2,4.6,1.9c-0.4,1.6-0.9,3.3-1.3,4.8"/>
	<path fill="none" stroke="#3F2310" stroke-width="0.8428" stroke-miterlimit="10" d="M1015.3,468.4c0,1.2,0.1,4.3,0.2,6.1
		c0.1,4.9,0.2,7.4-0.5,9.8c-0.5,1.8-1.3,3.2-1.9,4"/>
	<path fill="none" stroke="#3F2310" stroke-width="0.8428" stroke-miterlimit="10" d="M1016,507.8c-0.3,3.9-0.3,7.1-0.3,9.7
		c0.1,4.2,0.3,6.1,0.6,7.7c0.3,1.7,0.7,3.2,1,4.2c-0.3,4.7-0.5,9.6-0.8,14.3"/>
	<path fill="none" stroke="#3F2310" stroke-width="0.8428" stroke-miterlimit="10" d="M1007.9,544.7c0,1.1-0.1,2.7-0.3,4.7
		c-0.2,3.8-0.6,6.5-0.6,7.2c-0.3,3-0.7,7.9-0.9,17.2c-0.8,0-1.9,0-3.3,0c-2.9-0.1-3.3-0.3-3.5-0.6c-0.5-0.8,0.6-1.7,0.8-3.3
		c0.1-1.8-1.1-3.4-2.3-4.4"/>
	<path fill="none" stroke="#3F2310" stroke-width="0.8428" stroke-miterlimit="10" d="M1006,573.9c1,0.7,2.3,1.9,3.5,3.7
		c1.3,1.9,2,3.7,2.3,4.8c-1,0-1.9-0.1-2.9-0.1c0,2.1,0.1,4.1,0.1,6.1c-2.4,0.2-4.6,0.4-7,0.6c-1.4-0.2-2.9-0.3-4.4-0.4
		c-2.1-0.1-4.1-0.1-5.8,0"/>
	<path fill="none" stroke="#3F2310" stroke-width="0.8428" stroke-miterlimit="10" d="M1001.4,589c1.3,1.5,2.2,3,2.8,4
		c0.8,1.5,1.8,3.5,2.1,6.2c0.2,1.7-0.1,2.3,0.5,3.4s1.2,1.1,2.3,2.8c0.6,0.9,0.6,1.1,1.4,2.5c0.6,1,1.1,1.9,1.5,2.4
		c3.1-0.4,5.6-0.4,7.3-0.3c2.6,0.2,4.9,0.6,6.1,0.8c0.6,0.1,1.1,0.2,1.4,0.3c0.6-2,1.5-3,2.3-3.5c1.9-1.3,3.7-0.4,4.8-1.9
		c0.9-1.1,0.5-2.4,1.6-3.2c0.7-0.4,1.4-0.4,1.9-0.4c0.1-0.8,0.4-2.1,1-3.4c0.9-1.8,1.5-2.1,2.4-3.5c1.7-2.9,0.3-4.1,1.9-6.7
		c1-1.7,1.5-1.2,3.5-3.7c1.1-1.3,1.4-2.1,3.2-4.9c0.7-1.3,1.9-3.2,3.3-5.3c0.1-0.8,0.5-4.3,0.6-5.2c0.4-3.2,0.5-3.9,0.6-4.8
		c0.4-2.5,0.7-3.2,1-4.9s0.7-4.2,0.8-7.2"/>
	<path fill="none" stroke="#3F2310" stroke-width="0.8428" stroke-miterlimit="10" d="M1052.7,574.9c0.1,1.2,0.2,3,0.3,5.1
		c0,2-0.1,3.6-0.3,5.5c-0.4,5.8-0.8,6.1-0.5,8.1c0,0.2,0.6,1.9,1.6,5.1c1.4,4.3,1.7,5.1,2,6.6c0.7,3.2,0.6,4.8,0.6,5.2
		c-0.1,1.5-0.3,2.4-0.6,4c-0.3,1.7-0.7,4.1-1,7.1"/>
	<path fill="none" stroke="#3F2310" stroke-width="0.8428" stroke-miterlimit="10" d="M1009.2,576.1c1.6,1.3,3.1,2,4.2,2.3
		c1.1,0.3,1.4,0.2,3.9,0.8c3.4,0.7,3.9,1.1,4.2,1.6c0.2,0.5,0,0.5,0.3,2.4c0,0,0,0.1,0.3,1.5l0,0c1.2,0.4,2.1,0.9,2.8,1.3
		c1.4,0.8,2.3,1.7,3.5,2.9c1,1,1.5,1.5,1.8,2c0.7,1.5-0.1,2.4,0.6,3.3c0.7,0.8,1.6,0.3,2.7,1.3c0.4,0.3,0.6,0.8,1.1,1.9
		c0.7,1.4,1.1,2.2,1.3,3.3c0.1,0.6,0.2,1.4,0,2.5"/>
	<path fill="none" stroke="#3F2310" stroke-width="0.8428" stroke-miterlimit="10" d="M1026.6,611.3c-0.5,2.1-1.1,3.7-1.5,4.7
		c-0.9,2.3-1.4,3.2-1,4.3c0.4,1.1,1.1,0.8,2.4,2.3c0.6,0.8,1.1,1.9,2.1,4.2c0.4,1,0.8,1.8,1,2.4"/>
	<path fill="none" stroke="#3F2310" stroke-width="0.8428" stroke-miterlimit="10" d="M1082.7,574.9c0.9,0.3,2.1,0.7,3.5,1.5
		c1.3,0.8,2,1.5,3.7,2.9c2.4,2.1,3.6,3.2,4.3,3.9c0.9,0.8,3,2.5,5.6,4.2c2.6,1.6,2.7,1.2,6.2,3.2c4.8,2.6,4.7,3.4,7.7,4.3
		c1.4,0.5,1.1,0.2,6,1.4c4.3,1,4.1,1.2,5.6,1.4c2.1,0.3,4,0.2,7.6,0c2.3-0.1,3.6-0.3,4.9-1.1c0.7-0.4,1.3-0.9,1.6-1.3
		c0.8-2.1,1.6-4.1,2.4-6.1c1.6,0.2,3.2,0.4,4.7,0.5c0.6,0,1.1,0.1,1.6,0.1c0.4-3.2,0.8-5.8,1.1-7.9c0.8-4.6,1.2-6.9,1.6-7.9
		c0.7-1.3,1.6-2.7,1.6-4.8c0-1-0.2-1.8-0.4-2.4"/>
	<path fill="none" stroke="#3F2310" stroke-width="0.8428" stroke-miterlimit="10" d="M1081.6,554.8c0.2-0.7,0.6-1.8,1.4-2.9
		c1-1.4,1.8-1.4,2.4-2.7c0.4-0.8,0.2-1,0.6-3.8c0.4-3.1,0.7-3.6,1.1-3.9c0.8-0.6,1.9-0.4,2.5-0.3c0.9-0.5,1.9-1,2.9-1.5
		c5.7-2.9,11.4-4.7,16.6-6c5.9-4.2,12-8.5,17.9-12.7c0.7-1.3,2.1-1.9,3.2-1.5c0.8,0.3,1.2,1,1.3,1.3c0.4,0.6,0.9,1.5,1,2.7
		c0.1,0.9,0,1.5-0.1,2.1c-0.3,2.2,0.2,2.1,0.5,7.5c0.1,0.9,0.1,1.7,0.6,2.3c0.5,0.5,0.9,0.4,2,1c0.7,0.4,1.4,0.8,1.8,1.6
		c0.3,0.7,0,1,0,2.7c0,1.8,0.4,2.4,0,2.8c-0.5,0.4-1.2-0.2-2.1,0.3c-0.8,0.4-0.7,1.1-1.3,1.4s-1.6,0.2-3.9-1.5
		c-0.5,3.1-0.5,5.5-0.5,7.2c0,1.8,0.2,2.6,0.1,4.3c0,2.9-0.5,5.1-0.9,6.6"/>
	<path fill="none" stroke="#3F2310" stroke-width="0.8428" stroke-miterlimit="10" d="M1139.3,510.4c-0.1-1.1-0.3-2.8-0.6-4.8
		c-0.6-4.1-1-4.7-1.1-7.1c0-0.6,0.1-2.4,0.4-5.8c0.4-4.6,0.4-4.9,0.3-6c-0.3-2-0.9-2.1-1.6-5.2c-0.5-2-0.7-3.6-0.8-4.2
		c-0.3-2.4-0.1-3-0.4-5.2c-0.2-2-0.5-2.2-0.8-3.9c-0.4-2.6-0.2-4,0.1-8.8c0.1-2.1,0.2-4.1,0.3-6.3c0-3.1,0-6.7-0.8-11.2
		c-0.6-3.2-1-3.7-1.4-6.7c-0.3-2.6-0.3-4.6-0.3-6.1"/>
	<path fill="none" stroke="#3F2310" stroke-width="0.8428" stroke-miterlimit="10" d="M961.1,537.7c4.7,1.6,9.6,3.2,14.3,4.7"/>
	<path fill="none" stroke="#3F2310" stroke-width="0.8428" stroke-miterlimit="10" d="M984.9,544.8c2.4,1.9,4.9,3.9,7.7,5.7
		c2.8,1.9,5.4,3.7,8,5.2"/>
	<path fill="none" stroke="#3F2310" stroke-width="0.8428" stroke-miterlimit="10" d="M920.4,515.9c2.4,0.2,4.2,0.8,5.3,1.3
		c1.8,0.7,2.1,1.2,4.3,2.1c2,0.8,3.2,1.3,4.7,1.1c1.6-0.1,2.7-0.8,3.9-1.5c1.2-0.7,3.2-2.1,4.8-4.6c0.4,0.8,0.8,1.7,1.3,2.5"/>
	<path fill="none" stroke="#3F2310" stroke-width="0.8428" stroke-miterlimit="10" d="M941.1,520.8c0.4-0.8,1.1-1.8,2.1-2.8
		c0.9-0.8,1.7-1.4,2.4-1.8"/>
	<path fill="none" stroke="#3F2310" stroke-width="0.8428" stroke-miterlimit="10" d="M945.7,516.5c0.5-0.4,1.1-0.9,1.9-1.5
		c1-0.8,1.7-1.3,2.7-1.9c0.8-0.5,1.9-1.1,3.4-1.6"/>
	<path fill="none" stroke="#3F2310" stroke-width="0.8428" stroke-miterlimit="10" d="M924.5,534.1c0.7-1.4,1.5-2.4,2.1-3.2
		c0.9-1.1,1.4-1.6,2.1-2c1.1-0.5,1.7-0.3,3.7-0.4c2.9-0.1,2.9-0.8,5.2-0.8c1.3,0,2.2,0.2,4.2,0.6c3,0.6,2.7,0.9,4.3,1.1
		c3,0.4,3.6-0.7,6.6-0.3c1.6,0.2,1.7,0.5,3.4,0.8c1.9,0.2,3.5,0.1,4.4-0.1"/>
	<path fill="none" stroke="#3F2310" stroke-width="0.8428" stroke-miterlimit="10" d="M942.4,524.2c0.8,0.3,2,0.6,3.4,0.8
		c0.5,0.1,1.7,0.1,4.2-0.1c4.7-0.5,4.8-1.3,7.1-1c1.2,0.1,1.9,0.4,3.2,0.1c1.2-0.3,1.5-0.8,2.7-1.1c0.8-0.2,1.9-0.4,3.5-0.1"/>
	<path fill="none" stroke="#3F2310" stroke-width="0.8428" stroke-miterlimit="10" d="M925.1,534.7c0.3,0.5,0.9,1.2,1.6,1.9
		c1,1,1.9,1.3,2.8,1.9c2.1,1.3,2.2,1.9,4.3,3.5c0.9,0.7,2.4,1.6,4.3,2.5"/>
	<path fill="none" stroke="#3F2310" stroke-width="0.8428" stroke-miterlimit="10" d="M934.1,542.6c0.6,2.9,0.7,5.1,0.6,6.6
		c0,0.4-0.1,2.2-0.1,4.4c0,0.9,0,1.5,0,2.3c0.1,1.7,0.2,2.8,0.3,3.3c0.1,1.3-0.1,3.2-1.6,5.7c-0.2,4.1-0.3,7.5-0.3,10.3
		c0,2.2,0.1,1,1.3,12c0.1,0.8,0.3,2.4,1.4,3.9c0.7,1,1.6,1.6,2.1,1.9c1.5,0,3,0,4.4,0"/>
	<path fill="none" stroke="#3F2310" stroke-width="0.8428" stroke-miterlimit="10" d="M900.1,580.1c0.5-0.2,1.3-0.4,2.3-0.3
		c1,0.1,1.6,0.5,2.9,1.3c1.5,0.9,2.3,1.4,2.7,2.1c0.5,1.2,0.1,2.4-0.1,3c-0.7,1.9-1.8,1.8-2.8,4c-0.6,1.2-0.4,1.7-1,2
		c-0.9,0.5-1.7-0.3-3.3,0c-0.4,0.1-1.4,0.3-2,1.1c-0.5,0.7-0.5,1.6-0.4,2.7c0.1,1.2,0.2,1.9,0.8,2.4c1,0.8,2.6,0,2.7,0
		c1.1,0.9,2.1,1.5,2.8,1.9c2.2,1.2,3.3,1.1,4.7,2.4c1.1,1,1.5,1.9,1.6,2.1c0.6,1.3,0.6,2.5,0.5,3.2c0.8,0,1.7,0,2.5,0
		c-0.2,0.9-0.5,2.4-0.9,4.2c-0.8,3.5-0.9,3.7-0.9,4.4c0,1.7,0.5,2.3,0.6,4.8c0,0.8,0,1.5,0,1.9"/>
	<path fill="none" stroke="#3F2310" stroke-width="0.8428" stroke-miterlimit="10" d="M928.7,648.3c0-0.8,0-1.9,0.3-3.3
		c0.3-2,0.8-2.8,1.6-5.1c1.4-4,0.9-4.3,2.3-7.7c0.9-2.3,1.1-2.1,1.5-3.5c0.5-1.7,1.1-4.3,0.1-6.6c-0.3-0.8-0.7-1.3-0.8-2.4
		c0-1,0.3-1.8,0.6-2.4c1.2-2.3,2.4-3.6,4.3-6.1c1.5-2.1,1.6-2.6,1.5-3.2c-0.3-1.1-1.5-1.3-2.3-2.8c-0.5-1-0.4-2-0.4-2.7
		c0.2-2.5,1.6-3.3,2.5-6.1c0.2-0.8,0.5-1.9,0.5-3.2"/>
	<path fill="none" stroke="#3F2310" stroke-width="0.8428" stroke-miterlimit="10" d="M937.3,603.1c0.7,0,1.7,0,2.9-0.1
		c1.4-0.1,2.2-0.2,3.9-0.4c2.8-0.3,4.1-0.4,5.1-0.5c1.2-0.1,2.9-0.1,4.8,0"/>
	<path fill="none" stroke="#3F2310" stroke-width="0.8428" stroke-miterlimit="10" d="M949.6,583.4c0.1,1.1,0.3,2.5,0.5,4.2
		c0.3,2.2,0.5,3.3,0.9,4.7c0.7,2.8,1.3,3.2,2.1,6.2c0.4,1.6,0.7,3,0.8,3.5c0.6,3.7,0.1,4.5,0.9,7.1c0.4,1.3,0.7,2.3,1.6,3.4
		c1.7,1.9,4,2.3,4.3,2.4c2.1,0.3,2.9-0.5,5.8-1c1.3-0.2,3.2-0.4,5.6-0.1"/>
	<path fill="none" stroke="#3F2310" stroke-width="0.8428" stroke-miterlimit="10" d="M973.1,605.9c0.4,0,1,0.1,1.6-0.1
		c1.2-0.3,1.3-1,2.1-1.3c1.1-0.4,1.8,0.5,4,1.1c1.1,0.3,2.5,0.7,3.8,0.5c0.6-0.1,2.6-0.6,4.3-3.5"/>
	<path fill="none" stroke="#3F2310" stroke-width="0.8428" stroke-miterlimit="10" d="M902,572c-0.9-0.4-1.9-0.8-2.8-1.3
		c0.7-0.7,1.7-1.8,2.7-3.3c1.4-2.1,1.2-2.4,2.4-4.3c2.2-3.5,3.8-3.4,4.8-6.2c0.4-0.9,0.4-1.4,1-2.9c0.7-1.7,1.1-2.2,1.4-3.3
		c0.2-0.8,0.4-1.9,0.3-3.4"/>
</g>
<path fill="none" stroke="#3F2310" stroke-width="1.826" stroke-linecap="round" stroke-linejoin="round" stroke-miterlimit="10" d="
	M935.5,512.6c0.9-1.4,1.8-2.9,2.7-4.3"/>
<path fill="none" stroke="#3F2310" stroke-width="1.826" stroke-linecap="round" stroke-linejoin="round" stroke-miterlimit="10" d="
	M975.9,544.2c2.7,0.3,5.4,0.5,8,0.8"/>
<path fill="none" data-pathType="road" data-toolTipName="Pune Nashik Highway" stroke="#3F2310" stroke-width="1.826" stroke-linecap="round" stroke-linejoin="round" stroke-miterlimit="10" d="
	M959.3,102.9c0.2,1.2,0.6,2.9,1.5,4.7c1.9,3.7,4.4,4.4,5.2,7.5c0.4,1.6,0.2,2.8-0.2,4.9c-0.6,3.1-1.6,4.5-3.5,8.6
	c-3,6.1-2.1,6.2-3.9,8.8c-2.4,3.2-3.6,2.7-6.6,6c-1.4,1.5-5.1,5.5-5.8,10.9c-0.6,4.2,1.4,4,1.9,11.1c0.3,3.8-0.1,6.7-0.8,13
	c-0.2,1.7-0.5,3.5-1,5.7c-0.6,2.3-1.1,3.5-1.7,5.2c-2.2,6.4-1.2,7.8-3,11.9c-1.2,2.5-1.6,2-4.5,6.3c-4,5.9-6.9,10.3-5.7,14.1"/>
<path fill="none" stroke="#3F2310" stroke-width="1.826" stroke-linecap="round" stroke-linejoin="round" stroke-miterlimit="10" d="
	M930.7,221.7c0.1,2.6,0.2,5.3,0.3,7.8"/>
<path fill="none" data-pathType="road" data-toolTipName="MBT Road" stroke="#3F2310" stroke-width="1.826" stroke-linecap="round" stroke-linejoin="round" stroke-miterlimit="10" d="
	M747.7,280l52.7,142.3l12.2,35.6c3.2,8.1,6.3,16.4,9.6,24.6c0.6,1.3,1.6,3.2,3.4,5c3,3.1,5.1,3,6.2,5.4c0.9,1.8,0.4,4-0.6,8.3
	c-1.2,5.2-1.8,7.6-3.7,9.7c-3.1,3.3-5.6,1.6-9.2,4.8c-4.9,4.4-4.4,11.6-4.4,11.9c0,0.6,0.6,6.6,5.2,10.2c0.6,0.4,3.6,1.6,9.7,3.9
	c3.2,1.2,3.8,1.4,4.8,1.5c3.5,0.4,4.5-1.2,8-1c1.5,0.1,4.9,0.2,6.5,2.5c2,2.8,0.1,6.9-0.1,7.5c-1.9,4.4-5.4,4.6-5.8,7.9
	c-0.4,2.3,1,4.3,2.3,6.1c3,4.3,6.8,6.2,9.2,7.5c3.7,2.1,8.6,5.5,13.9,11.4c7.4,13.2,14.3,19.9,19.1,23.8c2.4,1.9,5.1,3.6,8,7.2
	c4.5,5.6,4,8.6,8.7,12.5c2.8,2.3,4.1,2.2,6.3,4.9c2.1,2.5,1.7,3.5,4.2,7c3,4.4,4.7,4.4,4.9,6.6c0.3,3.2-2.9,4.2-2.5,7.2
	c0.4,2.7,2.9,2.8,4.3,6.5c1,2.8-0.1,3.3,0.8,6c1.2,4.1,4,4,6.2,8.3c1.8,3.4,1.9,6.6,2,9.8c0.1,4.7-1,5-0.8,9.6
	c0.2,3.7,1,6.5,1.8,9.1c1,3.3,2.2,5.9,3.2,7.9"/>
<path fill="none"  data-pathType="road" data-toolTipName="Pune Solapur Highway" stroke="#3F2310" stroke-width="1.826" stroke-linecap="round" stroke-linejoin="round" stroke-miterlimit="10" d="
	M930.9,230.1c-0.9,7.4-1,7.8-0.8,9.2s0.4,2,0.4,3.7c0,1.5-0.2,2.1-0.4,3.7c-0.6,4.2,0.4,4.3-0.3,6.4c-0.8,2.4-2.1,2.5-2.4,4.8
	c-0.2,1,0.1,1.1,0.4,4c0.4,3.4,0.1,3.8,0.6,6c0.4,1.8,0.9,3.1,1.1,3.8c0.8,2,1.4,3.6,2.5,5.5c0.4,0.7,0.9,1.3,1,2.3
	c0.1,0.8,0,1.5-0.4,2.7c-1.1,3.4-1.6,3.4-1.8,5.1c-0.1,1.1,0,2,0.1,3.4c0.1,1.1,0.3,1.4,0.4,2.8c0,0,0.2,1.5,0.2,3
	c0,1.4-0.1,2.1-0.4,4.8c-0.6,5.3-0.5,5.7-0.4,6.2c0.3,1.5,0.8,1.8,1.1,3.6c0.2,1.5-0.1,1.8,0,3.5c0,1.8,0.5,3.5,1.4,6.9
	c0.7,2.6,0.8,2.5,0.9,3.4c0.2,2.4-0.5,3.1-0.5,5.5c0,2.5,0.8,2.4,0.9,4.8c0.1,2.6-1,3-1.6,6.2c-0.4,2.3-0.2,4.1,0,6.4
	c0.3,3.4,0.5,5,1.4,6.4c1,1.7,2.1,2.2,2.3,3.8c0.1,0.9-0.2,1.4-0.7,3c-0.3,1-0.7,2.7-1.4,6c-0.7,3.6-0.7,4.2-1.4,5.3
	c-0.3,0.6-1.1,1.8-2.6,2.7c-0.7,0.4-2.2,1.1-5.7,0.6s-4-1.5-8.6-2.9c-2.5-0.7-4.3-1.1-6.5-1.5c-3.4-0.6-5.2-0.9-6.9-0.6
	c-2.5,0.5-4.3,1.8-5.4,2.7c-1.6,5.3-3.3,10.5-4.9,15.8c1,1.2,2.4,3,3.8,5.4c1.6,2.5,2.4,4.3,5.8,12.2c2.5,5.6,4.9,11.4,4.9,11.4
	s1.9,9.3,4.2,17.1c5.8,19.5,8.6,23.4,10.6,24.9c0.5,0.4,2.5,1.7,4.6,4.1c1.2,1.4,2.2,2.8,3.3,4.4c3.1,5,5.9,11.5,6.6,13.3
	c0,1-0.1,2.5-0.4,4.3c-0.3,2.4-0.6,3.2-1,5.8c-0.5,3.2-0.8,4.8-0.6,5.8c0.4,2.7,1.8,4.6,3.2,6.2c1.3,1.7,2.4,3.1,4.4,4
	c1.3,0.6,2.1,0.5,5.7,0.9c2.4,0.2,4.3,0.5,5.6,0.6c-0.1,0.9-0.1,2.1,0.6,3.2c1,1.5,2.4,1.3,5.3,2.8c1.1,0.6,3.1,1.7,4.7,3.8
	c1.2,1.6,0.9,2.2,1.6,3.3c2.6,3.8,8.4,1.1,11.6,4.5c2.7,2.9,1.7,8,1.5,9.2c-0.4,2.3-1.1,2.6-2.4,7.2c-1.3,4.7-1,5.6-0.5,5.8
	c0.3,0.2,0.8,0.2,2.4-0.5c1.5-0.7,3.6-1.8,5.8-3.9c1.2-0.2,3-0.4,5.2-0.4c2.7,0.1,3.9,0.5,6.3,0.6c1.4,0.1,3.6,0,6.1-0.5
	c8.4,0.2,16.8,0.4,25.2,0.6c6.6,1.9,13.4,3.9,20,5.8c27,3.8,53.8,7.7,80.8,11.9c19.6,3,39.4,5.9,59.1,9.1
	c69.2,1.2,138.4,2.4,207.6,3.5"/>
<path fill="none" data-pathType="road" data-toolTipName="Paud Road\Mulshi Road" stroke="#3F2310" stroke-width="1.826" stroke-linecap="round" stroke-linejoin="round" stroke-miterlimit="10" d="
	M780.8,551.8c0.8-0.1,2-0.3,3.4,0c2.6,0.5,3.1,1.8,5.6,2.3c1,0.2,3.1,0.6,4.8-0.5c1.3-0.8,1.6-2,3.2-2.3c0.9-0.2,1.2,0.1,1.9-0.3
	c1-0.5,1.1-1.5,1.6-2.3c1.4-2.2,4.5-0.5,8-2.5c2.7-1.5,2.1-3.2,4.7-4c1.8-0.6,3.6-0.3,5.7,0.1c2.4,0.4,2.8,1,4.5,1.1
	c2.2,0.2,4-0.3,5.2-0.8"/>
<path fill="none" data-pathType="road" data-toolTipName="Mundhwa-Kharadi Road" stroke="#3F2310" stroke-width="1.826" stroke-linecap="round" stroke-linejoin="round" stroke-miterlimit="10" d="
	M1062.5,459.3c-0.6,7.1-1.5,13-2.1,16.8c-0.6,3.5-0.9,4.5-4.8,22.2c-1.4,6.4-2.1,9.8-2.4,14.3c-0.2,3.9-0.4,6.8,0,11
	c0.3,3.1,0.8,5.1,0.6,8.5c-0.1,2.7-0.6,4.9-1,6.3c-1.1,0.6-4.5,2.8-6,7.1c-0.9,2.5-0.8,4.7-0.6,5.8"/>
<path fill="none" data-pathType="road" data-toolTipName="Samrat ashok Road\ Pune Nagar Road" stroke="#3F2310" stroke-width="1.826" stroke-linecap="round" stroke-linejoin="round" stroke-miterlimit="10" d="
	M1130.8,429.8c-3-0.1-7,0.1-11.7,1.3c-5.4,1.4-9.5,3.6-12.2,5.3c-7.7,0.7-13.2,3-16.8,5c-3.5,2-3.5,2.8-12.4,8.7
	c-3.5,2.3-6.4,4.2-9.2,5.8c-2.4,1.4-4.5,2.6-6.1,3.5"/>
<path fill="none" data-pathType="road" data-toolTipName="Kopargon-Shirdi - Ahmednagar-Pune Road" stroke="#3F2310" stroke-width="1.826" stroke-linecap="round" stroke-linejoin="round" stroke-miterlimit="10" d="
	M1384.8,237.2c-5.6,2.5-11.2,5-16.8,7.3c-2,0.1-4,0.3-6,0.4c-2.8,4.9-5.8,7.1-8.1,8.3c-2.2,1.1-3.6,1.1-6.5,2.8
	c-3.6,2-3.4,3.1-6.3,5c-6,4-10.6,2.1-17,7c-0.7,0.6-1.3,1.1-1.6,1.4c-12.8,12.1-25.7,24.1-38.4,36.3c-13.4,5.8-19.3,10.7-22.2,14.1
	c-1.1,1.3-4.8,5.8-9.1,6.7c-0.8,0.2-2.6,0.4-5,1.3c-2,0.7-2.4,1.1-3.4,1.3c-1.4,0.3-3.6,0.2-6.5-1.8c-4.2,5.1-7.7,7.2-10.3,8.5
	c-0.8,0.4-2.5,1.1-4.3,2.7c-2,1.8-3.1,3.8-3.7,5.3c-18.1,13.6-24.3,18.7-25.9,20.5c-0.4,0.5-1.2,1.6-2.8,2.5c-1.9,1.1-2.9,0.7-4,1.9
	c-1.2,1.2-0.5,2-1.6,3.3c-1.3,1.4-2.5,0.8-3.8,2.1c-1,1-0.6,1.7-1.3,3.7c-1,2.8-2.5,3-3.9,5.6c-0.7,1.2-1.4,3.1-1.4,5.8
	c-3.8,6.6-8.1,10.4-12.1,12.6c-2.8,1.5-3.5,1.3-5.8,2.9c-5.9,4.1-6.7,9.5-10.2,14.4c-2.4,3.5-6.8,7.7-15.9,10.6"/>
<path fill="none" data-pathType="road" data-toolTipName="Pune-Bangalore Highway" stroke="#3F2310" stroke-width="1.826" stroke-linecap="round" stroke-linejoin="round" stroke-miterlimit="10" d="
	M939.9,508.2c-3.8-1.4-6.8-0.9-7.3,0.4c-0.5,1.1,1.1,3.3,3.7,4.9c0.8,0.5,1.6,1.1,2.4,1.6c0.7,2.2,2,6.1,3.7,11.6
	c2,6.3,2.3,7.4,2.4,9.5c0.1,3.2-0.6,4.4,0.3,7.2c0.7,2.6,1.8,3.2,2.1,5.4c0.4,2.7-0.6,5.1-1.5,6.6c-2.2,19-2.7,33.3-2.4,38.4
	c0.2,3,0.5,5.8,0.5,5.8c0.5,4.7,0.8,5.3,1.1,8.3c0.6,5.2-0.1,6,0.3,13.5c0.1,2.6,0.2,1.8,0.5,6.6c0.7,9.7,0.4,11.6,1.3,15.8
	c0.4,1.8,1.1,4.4,2.4,7.5c-1.9,4.2-3.8,8.3-5.7,12.5c1.7,2.4,3.4,4.8,5,7.1c-1,1.5-2.5,4-3.3,7.2c-0.1,0.6-0.5,2.3-0.5,4.7
	c0,5.5,2,5.9,1.4,9.2c-0.6,3.4-3.1,4-3.4,7.7c-0.1,1,0,1.8-0.4,3c-0.5,1.6-1.3,2.3-1.1,3.7c0,0.2,0.1,1.3,0.8,1.5
	c0.8,0.3,1.6-1.3,2.3-1.1c0.6,0.1,0.9,1.6,0.5,6.3"/>
<path fill="none"  data-pathType="road" data-toolTipName="Bajirao Road"  stroke="#3F2310" stroke-width="1.826" stroke-linecap="round" stroke-linejoin="round" stroke-miterlimit="10" d="
	M941.3,523.2c-0.8,1.8-1.8,4.6-2.3,8.1c-0.5,3.8,0.1,4.4-0.1,9.7c-0.3,7.6-1.7,10.2,0.1,12.1c0.8,0.8,2.4,1.7,5.8,1.3"/>
<path fill="none" data-pathType="road" data-toolTipName="MBT Road\Mumbai Pune Bypass Road" stroke="#3F2310" stroke-width="1.826" stroke-linecap="round" stroke-linejoin="round" stroke-miterlimit="10" d="
	M748.9,281.4c-1.5-4.9-2.9-9.9-4.4-14.8c-7.2-6.2-14.6-12.6-21.8-18.7c-2.9,0.4-6.6,0.6-11.1,0c-6.1-0.8-11-2.8-14.1-4.4
	c-7-13.2-15.3-20.3-21.4-24.5c-9.7-6.4-17.7-7.6-29.9-17.2c-5.8-4.6-10.1-9-12.8-12.1c-4.8-1.1-9.6-2.2-14.5-3.4
	c-2-3.1-5-7-9.4-10.8c-9.3-7.6-19.4-9.6-24.1-10.1c-8.5-3-17.1-6-25.6-9.1c-5.6,0.8-13,1.3-21.4,0.3c-13.5-1.6-23.8-6.1-30.2-9.8
	c-5.3,2.8-10.5,5.6-15.8,8.4c-0.1-1.3-0.6-3.8-2.4-6c-0.5-0.7-3.9-5-7.6-4c-2,0.5-3.2,2.2-3.7,3"/>
<path fill="none" data-pathType="road" data-toolTipName="Chakan Shikrapur Road" stroke="#3F2310" stroke-width="1.826" stroke-linecap="round" stroke-linejoin="round" stroke-miterlimit="10" d="
	M947.1,159.8c2.9,2.8,5.8,4.5,7.8,5.6c2.3,1.1,4.2,1.6,7.1,2.5c5.4,1.6,5.5,1,9.3,2.2c3.6,1.1,4.3,1.8,11.3,4.7c2.7,1.1,5,2,6.3,2.5
	"/>
<path fill="none" data-pathType="road" data-toolTipName="Chakan Shikrapur Road" stroke="#3F2310" stroke-width="1.826" stroke-linecap="round" stroke-linejoin="round" stroke-miterlimit="10" d="
	M1063.4,192c1.2,0.1,3.9,0.3,6.8-1c2.7-1.2,4.3-3.1,5-4c1.3,0.9,3.5,2,6.1,2.7c4.1,1,6.6,0.1,10.6-0.2c4.1-0.3,7.3,0.4,14,1.9
	c8.1,1.8,7.7,2.9,15.3,4.2c4.3,0.8,5.9,0.7,10.6,1.9c1.7,0.4,3.7,1,7.5,2.2c2.8,0.8,4.3,1.3,5.6,1.7c3.2,1,3.8,1.3,5.4,1.7
	c2.1,0.5,4,0.6,5.7,0.5"/>
<path fill="none" data-pathType="road" data-toolTipName="Mumbai Pune Expressway" stroke="#3F2310" stroke-width="1.826" stroke-linecap="round" stroke-linejoin="round" stroke-miterlimit="10" d="
	M643.5,228.7c3.8,1.9,7.9,4,12.6,6.1c6.1,3,7.4,3.5,9.6,3.5c4.5,0.1,6-2.1,9.8-1.2c3,0.8,4.8,3.1,5.8,4.5c3.1,4,2.1,6.7,5.7,13.3
	c0.9,1.6,1.7,2.7,2.4,3.7c4.2,5.9,8.7,9.3,11.4,11.6c3,2.5,9.8,8.4,15.5,16.7c3.6,5.1,5.8,9.9,11.9,13.1c1.8,1,3.4,1.5,4.5,1.9
	c7.6,0.4,15.4,0.8,23,1.2"/>
</svg>
