<?xml version="1.0" encoding="utf-8"?>
<!-- Generator: Adobe Illustrator 18.1.1, SVG Export Plug-In . SVG Version: 6.00 Build 0)  -->
<svg version="1.1" id="Layer_1" xmlns="http://www.w3.org/2000/svg" xmlns:xlink="http://www.w3.org/1999/xlink" x="0px" y="0px"
	 width="1920px" height="955px" viewBox="0 0 1920 955" enable-background="new 0 0 1920 955" xml:space="preserve">
<g id="Layer_4">
	<g>
		<g id="rail_1_">
			<g>
				<path fill="#936E37" d="M918.6,459.3c-0.4,0-0.8-0.3-0.9-0.7c-2.3-6.3-6.2-16.9-9.3-25.4c-1.7-4.5-3.1-8.3-3.8-10.2
					c-3.8-10.4-4.6-12.7-4.9-13.6c-0.1-0.3-0.1-0.4-0.2-0.6c-0.8-2.4-1.7-4.9-2.6-7.2c-0.6-1.6-1.2-3.2-1.8-4.8
					c-0.5-1.3-0.9-2.6-1.8-4.3c-0.5-0.8-0.9-1.3-2.1-2.9c-0.6-0.7-1.3-1.7-2.4-3.1c-0.6-0.8-1-1.4-1.4-1.8c-0.6-0.8-0.7-1-1.1-1.3
					c-1.5-1.5-2.6-2.3-4.2-3.3L882,380c-2.3-1.6-4.6-3.3-6.7-4.8c-4.5-3.1-6.7-4.6-7.9-5.8c-1.4-1.3-3-3.1-6.1-6.7
					c-3-3.4-4.9-5.7-5.8-6.8c-0.2-0.3-0.4-0.4-0.5-0.6l-0.1-0.2c-3.1-3.9-4.7-5.9-5.5-8c-0.6-1.5-0.8-2.4-0.9-3.3
					c-0.1-0.9-0.3-1.8-1-3.5l-0.1-0.2c-0.9-2.1-1.8-4.5-4.2-6.7c-1.3-1.3-2.9-2.4-4.6-3.1c-2.8-1.3-5-1.3-5-1.3
					c-1.2-0.1-2.5,0.1-5,0.5l-1,0.2c-1.6,0.3-2.7,0.5-3.5,0.6c-1.6,0.3-2.3,0.4-3.5,0.4c-2.6-0.1-4.6-0.8-5.7-1.2
					c-2.6-1-4.4-2.2-5.9-3.4c-1.5-1.1-2.8-2.4-5.2-4.7l-1.8-1.7c-2.4-2.3-3.6-3.4-4.2-4.5c-0.4-0.6-0.6-0.9-1-1.7
					c-0.4-0.7-1-1.9-2.3-4.4c-1.7-3.1-2.1-3.7-2.8-4.5c-1.4-1.6-3-2.6-3.5-2.9c-1.2-0.8-2.2-1.2-3.3-1.5l-0.3-0.1
					c-0.8-0.3-1.3-0.4-1.7-0.5c-0.4-0.1-0.9-0.2-1.6-0.5l-0.2-0.1c-1.4-0.5-3.2-1.2-5-2.6c0,0-0.1-0.1-0.1-0.1
					c-0.8-0.7-2.5-2.2-3.6-4.8c-0.2-0.5-0.2-0.7-0.3-1.1c-0.1-0.4-0.2-1.2-0.6-2.9c-0.5-1.9-0.8-3-1-3.6c-0.9-2-2.1-3.3-2.2-3.4
					c-0.6-0.6-1-0.9-1.5-1.2c-0.6-0.4-1.3-0.9-2.2-1.9c-0.7-0.7-1.2-1.3-1.5-1.8c-0.1-0.2-0.2-0.3-0.3-0.4c-0.3-0.4-0.3-1.1,0.2-1.4
					c0.4-0.3,1.1-0.3,1.4,0.2c0.1,0.1,0.2,0.3,0.4,0.5c0.3,0.5,0.7,1,1.4,1.6c0.8,0.9,1.4,1.2,1.9,1.6c0.5,0.4,1.1,0.8,1.8,1.5
					c0.3,0.3,1.6,1.7,2.6,4c0.3,0.8,0.6,1.9,1.2,4c0.4,1.8,0.6,2.6,0.7,3c0.1,0.4,0.1,0.5,0.2,0.8c0.9,2.2,2.3,3.4,3,4
					c1.5,1.3,3.2,1.8,4.5,2.3l0.2,0.1c0.6,0.2,1,0.3,1.4,0.4c0.5,0.1,1,0.3,1.9,0.6l0.2,0.1c1.1,0.4,2.3,0.8,3.6,1.7
					c1.5,1,2.8,2,3.9,3.3c0.9,1,1.3,1.8,3,4.9c1.3,2.5,2,3.7,2.3,4.5c0.4,0.8,0.5,0.9,0.8,1.4c0.6,0.9,1.8,2.1,4,4.2l1.8,1.7
					c2.3,2.3,3.6,3.5,5,4.5c1.5,1.1,3,2.2,5.4,3.1c1.1,0.4,2.9,1,5.2,1.1c1,0.1,1.5,0,3-0.3c0.8-0.2,1.9-0.4,3.5-0.7l1-0.2
					c2.6-0.4,4-0.7,5.4-0.6c0,0,2.5,0,5.7,1.5c2,0.8,3.7,2,5.2,3.5c2.6,2.5,3.7,5.2,4.6,7.4l0.1,0.2c0.8,2,0.9,3,1.1,3.9
					c0.1,0.8,0.3,1.5,0.8,2.9c0.7,1.8,2.2,3.7,5.2,7.5l0.1,0.2c0.1,0.1,0.2,0.3,0.5,0.6c0.9,1.1,2.7,3.4,5.7,6.8
					c3,3.5,4.6,5.3,5.9,6.5c1.1,1,3.3,2.6,7.7,5.6c2.2,1.6,4.4,3.2,6.7,4.8l0.2,0.2c1.6,1,2.9,1.9,4.5,3.6c0.4,0.4,0.6,0.7,1.2,1.5
					c0.3,0.4,0.7,1,1.3,1.8c1.1,1.4,1.8,2.4,2.4,3.1c1.2,1.6,1.6,2.1,2.3,3.1c1,1.9,1.5,3.3,2,4.6c0.6,1.6,1.1,3.2,1.7,4.8
					c0.9,2.4,1.8,4.8,2.6,7.2c0.1,0.2,0.1,0.3,0.2,0.6c0.3,0.9,1.1,3.2,4.9,13.6c0.7,1.9,2.1,5.7,3.8,10.2
					c3.1,8.5,7.1,19.1,9.3,25.4c0.2,0.5-0.1,1.1-0.6,1.3C918.8,459.3,918.7,459.3,918.6,459.3z"/>
			</g>
		</g>
		<g>
			
				<path fill="none" stroke="#D42027" stroke-width="2" stroke-linecap="round" stroke-linejoin="round" stroke-miterlimit="10" stroke-dasharray="2,9" d="
				M934.3,511.8"/>
		</g>
		<g> 
			<path fill="#D42027" data-pathType="train" data-toolTipName="Vanaz - Ramwadi" d="M897.8,543.6c-0.4,0-0.8-0.3-0.9-0.7c-0.2-0.5,0.1-1.1,0.6-1.3c0.6-0.2,1.2-0.5,1.8-0.7
				c0.5-0.2,1.1,0,1.3,0.6c0.2,0.5,0,1.1-0.6,1.3c-0.6,0.3-1.3,0.5-1.9,0.7C898.1,543.6,898,543.6,897.8,543.6z M894.6,543.6
				c-0.4,0-0.7-0.2-0.9-0.5c-0.3-0.5-0.6-1-1-1.5c-0.3-0.4-0.3-1.1,0.2-1.4c0.4-0.3,1.1-0.3,1.4,0.2c0.4,0.6,0.8,1.2,1.2,1.8
				c0.3,0.5,0.1,1.1-0.4,1.4C894.9,543.6,894.8,543.6,894.6,543.6z M862.3,542.9c-0.5,0-0.9-0.4-1-0.9c-0.1-0.5,0.3-1,0.9-1.1
				c0.7-0.1,1.2-0.2,1.7-0.4l0.6,1.9c-0.6,0.2-1.2,0.4-2.1,0.5C862.4,542.9,862.3,542.9,862.3,542.9z M858.3,542.8
				c-0.1,0-0.1,0-0.2,0c-0.8-0.2-1.5-0.4-2-0.6c-0.5-0.2-0.8-0.8-0.6-1.3c0.2-0.5,0.8-0.8,1.3-0.6c0.5,0.2,1.1,0.4,1.8,0.5
				c0.5,0.1,0.9,0.6,0.8,1.2C859.2,542.4,858.8,542.8,858.3,542.8z M873.9,542.6c-0.3,0-0.6-0.1-0.8-0.4c-0.3-0.4-0.3-1.1,0.2-1.4
				c0.3-0.2,0.4-0.6,0.6-1.2c0.1-0.5,0.7-0.8,1.2-0.7c0.5,0.1,0.8,0.7,0.7,1.2c-0.2,0.8-0.5,1.6-1.3,2.2
				C874.4,542.6,874.1,542.6,873.9,542.6z M870.1,542.5c-0.1,0-0.2,0-0.3,0c-0.6-0.2-1.2-0.3-1.8-0.4c-0.5-0.1-0.9-0.6-0.9-1.1
				c0.1-0.5,0.6-0.9,1.1-0.9c0.7,0.1,1.4,0.2,2.1,0.4c0.5,0.2,0.8,0.7,0.7,1.2C871,542.2,870.6,542.5,870.1,542.5z M903.4,541.4
				c-0.4,0-0.7-0.2-0.9-0.6c-0.2-0.5,0-1.1,0.5-1.3c0.6-0.3,1.2-0.6,1.8-0.8c0.5-0.2,1.1,0,1.3,0.5s0,1.1-0.5,1.3
				c-0.6,0.3-1.2,0.6-1.8,0.9C903.7,541.3,903.5,541.4,903.4,541.4z M890.6,539.2c-0.2,0-0.4-0.1-0.6-0.2c-0.5-0.4-1-0.7-1.5-1
				c-0.5-0.3-0.6-0.9-0.4-1.4c0.3-0.5,0.9-0.6,1.4-0.4c0.7,0.4,1.2,0.8,1.8,1.2c0.4,0.3,0.5,1,0.2,1.4
				C891.2,539.1,890.9,539.2,890.6,539.2z M879.4,538.8C879.4,538.8,879.4,538.8,879.4,538.8c-0.6,0-1.1-0.1-1.4-0.2
				c-0.2,0-0.4-0.1-0.7-0.1c-0.5-0.1-1-0.5-0.9-1.1c0.1-0.5,0.5-1,1.1-0.9c0.3,0,0.6,0.1,0.9,0.2c0.3,0.1,0.7,0.1,1.1,0.2
				c0.6,0,1,0.5,0.9,1.1C880.4,538.4,879.9,538.8,879.4,538.8z M908.8,538.7c-0.4,0-0.7-0.2-0.9-0.5c-0.3-0.5-0.1-1.1,0.4-1.4
				c0.6-0.3,1.2-0.6,1.7-0.9c0.5-0.3,1.1-0.1,1.4,0.4s0.1,1.1-0.4,1.4c-0.6,0.3-1.2,0.6-1.8,1C909.1,538.7,908.9,538.7,908.8,538.7z
				 M883.3,538c-0.4,0-0.7-0.2-0.9-0.5c-0.3-0.5-0.1-1.1,0.4-1.3l0.2-0.1c0.5-0.3,1.1-0.6,2-0.7c0.5-0.1,1.1,0.3,1.1,0.8
				c0.1,0.5-0.3,1.1-0.8,1.1c-0.5,0.1-0.9,0.3-1.3,0.5l-0.2,0.1C883.6,537.9,883.4,538,883.3,538z M914,535.7
				c-0.3,0-0.7-0.2-0.9-0.5c-0.3-0.5-0.1-1.1,0.3-1.4c0.6-0.4,1.1-0.7,1.7-1.1c0.5-0.3,1.1-0.2,1.4,0.3c0.3,0.5,0.2,1.1-0.3,1.4
				c-0.6,0.4-1.1,0.7-1.7,1.1C914.3,535.7,914.1,535.7,914,535.7z M919,532.4c-0.3,0-0.6-0.1-0.8-0.4c-0.3-0.4-0.2-1.1,0.2-1.4
				c0.5-0.4,1.1-0.8,1.6-1.2c0.4-0.3,1.1-0.2,1.4,0.2c0.3,0.4,0.2,1.1-0.2,1.4c-0.5,0.4-1.1,0.8-1.6,1.2
				C919.4,532.3,919.2,532.4,919,532.4z M921.7,527.5c-0.2,0-0.5-0.1-0.6-0.2c-0.4-0.4-0.5-1-0.1-1.4l1.3-1.5c0.4-0.4,1-0.5,1.4-0.1
				c0.4,0.4,0.5,1,0.1,1.4l-1.3,1.5C922.3,527.4,922,527.5,921.7,527.5z M925.6,522.9c-0.2,0-0.4-0.1-0.6-0.2
				c-0.4-0.3-0.5-1-0.1-1.4c0.4-0.5,0.8-1,1.2-1.5c0.3-0.4,1-0.5,1.4-0.2c0.4,0.3,0.5,1,0.2,1.4c-0.4,0.5-0.8,1-1.3,1.6
				C926.2,522.8,925.9,522.9,925.6,522.9z M929.3,518.2c-0.2,0-0.4-0.1-0.6-0.2c-0.4-0.3-0.5-1-0.2-1.4c0.3-0.4,0.6-0.8,0.9-1.2
				l0.3-0.4c0.3-0.4,1-0.5,1.4-0.2c0.4,0.3,0.5,1,0.2,1.4l-0.3,0.4c-0.3,0.4-0.6,0.8-0.9,1.2C929.9,518.1,929.6,518.2,929.3,518.2z
				 M932.8,513.4c-0.2,0-0.4-0.1-0.6-0.2c-0.4-0.3-0.6-0.9-0.2-1.4c0.4-0.5,0.8-1.1,1.1-1.6c0.3-0.5,0.9-0.6,1.4-0.2
				c0.5,0.3,0.6,0.9,0.2,1.4c-0.4,0.5-0.8,1.1-1.2,1.6C933.5,513.2,933.2,513.4,932.8,513.4z M949.8,511.5c-0.7,0-1.3-0.1-1.9-0.2
				c-0.5-0.1-0.9-0.6-0.8-1.2c0.1-0.5,0.6-0.9,1.2-0.8c0.5,0.1,1,0.2,1.5,0.2l0.2,0c0.5-0.1,1,0.4,1.1,0.9c0,0.5-0.4,1-0.9,1.1
				L949.8,511.5C949.8,511.5,949.8,511.5,949.8,511.5z M944.2,510.3c-0.1,0-0.2,0-0.3,0c-0.2-0.1-0.5-0.1-0.7-0.2
				c-0.4-0.1-0.8-0.2-1.2-0.3c-0.5-0.1-0.9-0.7-0.7-1.2s0.7-0.9,1.2-0.7c0.4,0.1,0.8,0.2,1.2,0.3c0.3,0.1,0.5,0.1,0.7,0.2
				c0.5,0.1,0.9,0.7,0.7,1.2C945.1,510,944.7,510.3,944.2,510.3z M953.9,510.3c-0.4,0-0.7-0.2-0.9-0.5c-0.3-0.5-0.1-1.1,0.4-1.4
				c0.5-0.3,1-0.6,1.5-1c0.4-0.3,1.1-0.3,1.4,0.2c0.3,0.4,0.3,1.1-0.2,1.4c-0.6,0.5-1.2,0.8-1.8,1.2
				C954.2,510.2,954,510.3,953.9,510.3z M938.4,509c-0.1,0-0.1,0-0.2,0c-0.7-0.1-1.4-0.2-1.9-0.3c-0.5-0.1-0.9-0.6-0.9-1.1
				c0.1-0.5,0.6-1,1.1-0.9c0.6,0.1,1.3,0.2,2,0.3c0.5,0.1,0.9,0.6,0.8,1.1C939.3,508.7,938.9,509,938.4,509z M959,507.8
				c-0.5,0-1-0.4-1-1c0-0.6,0.4-1,1-1c0.7,0,1.3,0,2,0c0.5,0,1,0.4,1,1s-0.4,1-1,1C960.4,507.7,959.7,507.7,959,507.8
				C959,507.8,959,507.8,959,507.8z M965,507.7c-0.5,0-1-0.4-1-1c0-0.6,0.4-1,1-1c0.7,0,1.3,0,2,0c0,0,0,0,0,0c0.5,0,1,0.4,1,1
				c0,0.6-0.4,1-1,1C966.4,507.6,965.7,507.6,965,507.7C965,507.7,965,507.7,965,507.7z M970.7,506.2c-0.3,0-0.7-0.2-0.8-0.5
				c-0.3-0.5-0.2-1.1,0.3-1.4c0.5-0.3,1-0.7,1.5-1.1c0.4-0.4,1-0.3,1.4,0.1c0.4,0.4,0.3,1-0.1,1.4c-0.5,0.5-1.1,0.9-1.7,1.3
				C971.1,506.1,970.9,506.2,970.7,506.2z M975,502c-0.2,0-0.4-0.1-0.6-0.2c-0.4-0.3-0.5-1-0.2-1.4c0.4-0.5,0.8-1,1.2-1.6
				c0.3-0.4,0.9-0.6,1.4-0.2c0.4,0.3,0.6,0.9,0.2,1.4c-0.4,0.6-0.8,1.1-1.2,1.6C975.6,501.9,975.3,502,975,502z M978.4,497.1
				c-0.2,0-0.4-0.1-0.5-0.2c-0.5-0.3-0.6-0.9-0.3-1.4c0.3-0.5,0.7-1.1,1.1-1.7c0.3-0.5,0.9-0.6,1.4-0.3c0.5,0.3,0.6,0.9,0.3,1.4
				c-0.4,0.6-0.7,1.2-1.1,1.7C979.1,497,978.7,497.1,978.4,497.1z M981.6,492c-0.2,0-0.4,0-0.5-0.1c-0.5-0.3-0.6-0.9-0.3-1.4
				c0.3-0.4,0.5-0.9,0.8-1.3c0.1-0.2,0.3-0.3,0.5-0.4l0.4-0.2c0.5-0.2,1.1,0.1,1.3,0.6c0.2,0.5-0.1,1.1-0.6,1.3l-0.1,0
				c-0.2,0.4-0.4,0.7-0.6,1C982.3,491.9,981.9,492,981.6,492z M984.6,488c-0.5,0-0.9-0.4-1-0.9l-0.2-2c-0.1-0.5,0.3-1,0.9-1.1
				c0.6-0.1,1,0.3,1.1,0.9l0.2,2c0.1,0.5-0.3,1-0.9,1.1C984.7,488,984.6,488,984.6,488z M985.4,483.2c-0.5,0-1-0.4-1-1
				c0-0.6,0.4-1,1-1l2-0.1c0.5,0,1,0.4,1,1c0,0.6-0.4,1-1,1L985.4,483.2C985.4,483.2,985.4,483.2,985.4,483.2z M991.2,482.4
				c-0.3,0-0.6-0.1-0.8-0.3c-0.4-0.4-0.3-1,0.1-1.4l1.5-1.3c0.4-0.4,1-0.3,1.4,0.1c0.4,0.4,0.3,1-0.1,1.4l-1.5,1.3
				C991.6,482.3,991.4,482.4,991.2,482.4z M995.7,478.5c-0.3,0-0.6-0.1-0.8-0.3c-0.4-0.4-0.3-1,0.1-1.4l1.5-1.3
				c0.4-0.4,1-0.3,1.4,0.1c0.4,0.4,0.3,1-0.1,1.4l-1.5,1.3C996.2,478.4,995.9,478.5,995.7,478.5z M1000.2,474.6
				c-0.3,0-0.6-0.1-0.8-0.3c-0.4-0.4-0.3-1,0.1-1.4l1.5-1.3c0.4-0.4,1-0.3,1.4,0.1c0.4,0.4,0.3,1-0.1,1.4l-1.5,1.3
				C1000.7,474.5,1000.5,474.6,1000.2,474.6z M1005.5,471.9c-0.4,0-0.8-0.3-0.9-0.7c-0.2-0.5,0.1-1.1,0.6-1.3l1.9-0.7
				c0.5-0.2,1.1,0.1,1.3,0.6c0.2,0.5-0.1,1.1-0.6,1.3l-1.9,0.7C1005.7,471.8,1005.6,471.9,1005.5,471.9z M1011.1,469.8
				c-0.4,0-0.8-0.3-0.9-0.7c-0.2-0.5,0.1-1.1,0.6-1.3l1.9-0.7c0.5-0.2,1.1,0.1,1.3,0.6c0.2,0.5-0.1,1.1-0.6,1.3l-1.9,0.7
				C1011.3,469.8,1011.2,469.8,1011.1,469.8z M1016.6,467.4c-0.3,0-0.6-0.2-0.8-0.5c-0.3-0.5-0.2-1.1,0.3-1.4
				c0.6-0.4,1.1-0.7,1.7-1.1c0.5-0.3,1.1-0.1,1.4,0.4c0.3,0.5,0.1,1.1-0.4,1.4c-0.6,0.3-1.1,0.7-1.7,1
				C1016.9,467.3,1016.7,467.4,1016.6,467.4z M1021.8,464.4c-0.4,0-0.7-0.2-0.9-0.5c-0.3-0.5-0.1-1.1,0.4-1.3
				c0.6-0.3,1.2-0.6,1.8-0.9c0.5-0.2,1.1,0,1.3,0.5c0.2,0.5,0,1.1-0.5,1.3c-0.6,0.3-1.2,0.6-1.8,0.9
				C1022.1,464.4,1021.9,464.4,1021.8,464.4z M1027.2,461.9c-0.4,0-0.8-0.2-0.9-0.6c-0.2-0.5,0.1-1.1,0.6-1.3
				c0.6-0.2,1.3-0.5,1.9-0.7c0.5-0.2,1.1,0.1,1.3,0.6c0.2,0.5-0.1,1.1-0.6,1.3c-0.6,0.2-1.2,0.4-1.8,0.7
				C1027.5,461.9,1027.4,461.9,1027.2,461.9z M1032.9,460.1c-0.4,0-0.8-0.3-1-0.7c-0.1-0.5,0.2-1.1,0.7-1.2c0.7-0.2,1.3-0.3,2-0.5
				c0.5-0.1,1.1,0.2,1.2,0.8c0.1,0.5-0.2,1.1-0.8,1.2c-0.6,0.1-1.3,0.3-1.9,0.5C1033.1,460.1,1033,460.1,1032.9,460.1z"/>
		</g>
		<g>
			<path fill="#D42027" data-pathType="train" data-toolTipName="PCMC Station - Swar Gate" d="M943.7,562.5c-0.5,0-1-0.4-1-0.9c0-0.7-0.1-1.4-0.1-2c0-0.6,0.4-1,1-1c0,0,0,0,0,0c0.6,0,1,0.4,1,1
				c0,0.6,0,1.3,0.1,1.9C944.7,562,944.3,562.4,943.7,562.5C943.7,562.5,943.7,562.5,943.7,562.5z M943.9,556.5c0,0-0.1,0-0.1,0
				c-0.5-0.1-0.9-0.6-0.9-1.1c0.1-0.7,0.2-1.4,0.3-2c0.1-0.5,0.6-0.9,1.2-0.8c0.5,0.1,0.9,0.6,0.8,1.2c-0.1,0.6-0.2,1.2-0.3,1.9
				C944.8,556.1,944.4,556.5,943.9,556.5z M945,550.6c-0.1,0-0.2,0-0.3,0c-0.5-0.2-0.8-0.7-0.7-1.2l0.2-0.5c0.1-0.5,0.3-0.9,0.4-1.4
				c0.1-0.5,0.7-0.9,1.2-0.8c0.5,0.1,0.9,0.7,0.8,1.2c-0.1,0.5-0.2,0.9-0.4,1.5l-0.1,0.5C945.9,550.3,945.5,550.6,945,550.6z
				 M945.5,544.7c-0.5,0-0.9-0.3-1-0.8c-0.1-0.6-0.3-1.1-0.6-1.7c-0.2-0.5,0-1.1,0.5-1.3s1.1,0,1.3,0.5c0.3,0.7,0.6,1.4,0.7,2.1
				c0.1,0.5-0.2,1.1-0.8,1.2C945.7,544.7,945.6,544.7,945.5,544.7z M943.3,539.2c-0.5,0-0.9-0.3-1-0.8c-0.1-0.4-0.1-0.9-0.2-1.4
				c0-0.2,0-0.3,0-0.4c0-0.1,0-0.2,0-0.4c0-0.6,0.5-1,1-1c0.6,0,1,0.5,1,1l0,0.3c0,0.1,0,0.2,0,0.4c0,0.4,0.1,0.8,0.1,1.1
				c0.1,0.5-0.3,1.1-0.8,1.2C943.5,539.2,943.4,539.2,943.3,539.2z M943.8,533.2C943.8,533.2,943.8,533.2,943.8,533.2
				c-0.6,0-1-0.5-1-1l0-0.2c0-0.3,0-0.7-0.1-1c0-0.2-0.1-0.4-0.1-0.5c-0.1-0.5,0.3-1.1,0.8-1.2c0.5-0.1,1.1,0.3,1.2,0.8
				c0,0.2,0.1,0.4,0.1,0.6c0.1,0.4,0.1,0.9,0.1,1.3c0,0.1,0,0.2,0,0.3C944.8,532.8,944.3,533.2,943.8,533.2z M942.1,527.6
				c-0.3,0-0.6-0.2-0.8-0.4c-0.3-0.4-0.6-0.9-1-1.3c-0.2-0.3-0.3-0.6-0.2-0.9l0.1-0.2c0.1-0.5,0.7-0.9,1.2-0.7
				c0.4,0.1,0.7,0.5,0.8,0.9c0.3,0.4,0.6,0.7,0.9,1.1c0.3,0.5,0.2,1.1-0.3,1.4C942.5,527.5,942.3,527.6,942.1,527.6z M941.5,522
				c-0.5,0-1-0.4-1-1c0-0.2,0-0.4,0-0.7c0-0.4,0-0.8-0.1-1.3c-0.1-0.5,0.4-1,0.9-1.1c0.6,0,1,0.4,1.1,0.9c0,0.5,0.1,0.9,0.1,1.3
				c0,0.3,0,0.5,0,0.7C942.5,521.5,942.1,522,941.5,522C941.5,522,941.5,522,941.5,522z M940.4,516.2c-0.4,0-0.7-0.2-0.9-0.5
				c-0.2-0.5-0.6-0.9-0.9-1.2c0,0,0,0-0.1-0.1c-0.4-0.4-0.5-1-0.1-1.4c0.4-0.4,1-0.5,1.4-0.1c0.1,0.1,0.1,0.1,0.2,0.2
				c0.5,0.5,0.9,1,1.3,1.7c0.3,0.5,0.1,1.1-0.4,1.4C940.7,516.1,940.6,516.2,940.4,516.2z M935.5,513.1c-0.1,0-0.2,0-0.3,0
				c-0.6-0.2-1.2-0.4-1.9-0.6c-0.5-0.2-0.8-0.7-0.7-1.2c0.2-0.5,0.7-0.8,1.2-0.7c0.7,0.2,1.4,0.4,1.9,0.6c0.5,0.2,0.8,0.7,0.7,1.2
				C936.3,512.8,935.9,513.1,935.5,513.1z M929.8,511.4c-0.1,0-0.2,0-0.4-0.1c-1-0.4-1.5-0.8-1.9-1.4c0-0.1-0.1-0.1-0.1-0.2
				c-0.3-0.5-0.1-1.1,0.4-1.4c0.5-0.3,1.1-0.1,1.4,0.4l0,0.1c0.1,0.2,0.3,0.4,1,0.7c0.5,0.2,0.8,0.8,0.6,1.3
				C930.5,511.1,930.2,511.4,929.8,511.4z M928.3,506.3c-0.1,0-0.2,0-0.4-0.1c-0.5-0.2-0.8-0.8-0.6-1.3c0.1-0.4,0.3-0.7,0.3-0.8
				c0.2-0.5,0.5-0.9,0.8-1.2c0.3-0.4,1-0.5,1.4-0.1s0.5,1,0.1,1.4c-0.2,0.3-0.4,0.5-0.6,0.9c0,0.1-0.1,0.3-0.2,0.6
				C929.1,506,928.7,506.3,928.3,506.3z M932.1,501.8c-0.2,0-0.4-0.1-0.6-0.2c-0.5-0.3-0.6-0.9-0.2-1.4c0.1-0.1,0.2-0.3,0.3-0.5
				c0.2-0.3,0.3-0.6,0.4-1c0.1-0.5,0.7-0.9,1.2-0.7c0.5,0.1,0.9,0.7,0.7,1.2c-0.1,0.5-0.3,1-0.5,1.4c-0.1,0.3-0.3,0.5-0.4,0.7
				C932.8,501.6,932.5,501.8,932.1,501.8z M933,496c-0.5,0-0.9-0.4-1-0.9c-0.1-0.7-0.2-1.2-0.4-1.8c-0.2-0.5,0.1-1.1,0.7-1.2
				c0.5-0.2,1.1,0.1,1.2,0.7c0.2,0.7,0.3,1.4,0.4,2.1c0.1,0.5-0.3,1-0.9,1.1C933,496,933,496,933,496z M930.9,490.4
				c-0.4,0-0.7-0.2-0.9-0.5c-0.3-0.7-0.6-1.3-0.9-1.9c-0.2-0.5,0.1-1.1,0.6-1.3c0.5-0.2,1.1,0.1,1.3,0.6c0.2,0.6,0.5,1.1,0.8,1.7
				c0.2,0.5,0,1.1-0.4,1.3C931.2,490.4,931,490.4,930.9,490.4z M928.9,484.8c-0.5,0-0.9-0.3-1-0.8c-0.1-0.7-0.3-1.4-0.4-2.1
				c-0.1-0.5,0.3-1,0.9-1.1c0.5-0.1,1,0.3,1.1,0.9c0.1,0.6,0.2,1.3,0.3,1.9c0.1,0.5-0.2,1.1-0.8,1.2
				C929.1,484.8,929,484.8,928.9,484.8z M928.5,478.8C928.5,478.8,928.4,478.8,928.5,478.8c-0.6,0-1-0.5-1-1.1
				c0-0.4,0.1-0.8,0.1-1.2c0.1-0.3,0.1-0.6,0.2-0.9c0.1-0.5,0.6-0.9,1.2-0.8c0.5,0.1,0.9,0.6,0.8,1.2c-0.1,0.3-0.1,0.5-0.1,0.8
				c0,0.3-0.1,0.7-0.1,1C929.4,478.4,929,478.8,928.5,478.8z M929.9,473c-0.1,0-0.3,0-0.4-0.1c-0.5-0.2-0.7-0.8-0.5-1.3
				c0.1-0.3,0.3-0.6,0.4-0.9c0-0.1,0-0.1-0.1-0.2c-0.2-0.5,0-1.1,0.5-1.3c0.5-0.2,1.1,0,1.3,0.5c0.1,0.2,0.2,0.4,0.3,0.6
				c0.1,0.3,0.1,0.6,0,0.9c-0.2,0.3-0.4,0.7-0.5,1.1C930.7,472.8,930.3,473,929.9,473z M928.4,467.6c-0.3,0-0.7-0.2-0.9-0.5
				c-0.3-0.5-0.7-1.1-1-1.7c-0.3-0.5-0.2-1.1,0.3-1.4c0.5-0.3,1.1-0.2,1.4,0.3c0.4,0.6,0.8,1.2,1.1,1.7c0.3,0.5,0.1,1.1-0.4,1.4
				C928.8,467.6,928.6,467.6,928.4,467.6z M925,462.7c-0.3,0-0.6-0.1-0.8-0.3c-0.4-0.5-0.8-0.9-1.3-1.4c-0.4-0.4-0.4-1,0-1.4
				c0.4-0.4,1-0.4,1.4,0c0.5,0.5,1,1,1.4,1.5c0.4,0.4,0.3,1.1-0.1,1.4C925.4,462.7,925.2,462.7,925,462.7z M920.5,458.7
				c-0.2,0-0.4-0.1-0.6-0.2c-0.5-0.4-1.1-0.9-1.6-1.5c-0.4-0.4-0.3-1,0.1-1.4c0.4-0.4,1-0.3,1.4,0.1c0.4,0.5,0.9,0.9,1.4,1.2
				c0.4,0.3,0.5,1,0.1,1.4C921.1,458.6,920.8,458.7,920.5,458.7z M916.8,454.1c-0.3,0-0.7-0.2-0.9-0.5c-0.3-0.6-0.6-1.2-0.9-1.9
				c-0.2-0.5,0-1.1,0.5-1.3c0.5-0.2,1.1,0,1.3,0.5c0.3,0.6,0.5,1.1,0.9,1.7c0.3,0.5,0.1,1.1-0.4,1.4
				C917.2,454,917,454.1,916.8,454.1z M914.5,448.5c-0.4,0-0.8-0.3-1-0.7c-0.2-0.6-0.4-1.3-0.6-1.9c-0.1-0.5,0.2-1.1,0.7-1.2
				c0.5-0.1,1.1,0.2,1.2,0.7c0.2,0.7,0.4,1.3,0.5,1.9c0.2,0.5-0.1,1.1-0.7,1.2C914.7,448.5,914.6,448.5,914.5,448.5z M913,442.7
				c-0.4,0-0.9-0.3-1-0.8l-0.5-1.9c-0.1-0.5,0.2-1.1,0.7-1.2c0.5-0.1,1.1,0.2,1.2,0.7l0.5,1.9c0.1,0.5-0.2,1.1-0.7,1.2
				C913.2,442.7,913.1,442.7,913,442.7z M911.5,436.9c-0.4,0-0.8-0.3-1-0.7c-0.2-0.6-0.3-1.3-0.5-1.9c-0.1-0.5,0.2-1.1,0.7-1.2
				c0.5-0.1,1.1,0.2,1.2,0.7c0.2,0.7,0.4,1.3,0.5,1.9c0.1,0.5-0.2,1.1-0.7,1.2C911.7,436.9,911.6,436.9,911.5,436.9z M909.9,431.2
				c-0.4,0-0.8-0.3-1-0.7l-0.6-1.9c-0.2-0.5,0.1-1.1,0.7-1.2c0.5-0.2,1.1,0.1,1.2,0.7l0.6,1.9c0.2,0.5-0.2,1.1-0.7,1.2
				C910.1,431.1,910,431.2,909.9,431.2z M908.2,425.4c-0.4,0-0.8-0.3-1-0.7c-0.2-0.6-0.4-1.3-0.6-1.9c-0.2-0.5,0.1-1.1,0.7-1.3
				c0.5-0.2,1.1,0.1,1.3,0.7c0.2,0.7,0.4,1.3,0.6,1.9c0.2,0.5-0.1,1.1-0.7,1.2C908.4,425.4,908.3,425.4,908.2,425.4z M906.4,419.7
				c-0.4,0-0.8-0.3-0.9-0.7l-0.6-1.9c-0.2-0.5,0.1-1.1,0.6-1.3c0.5-0.2,1.1,0.1,1.3,0.6l0.6,1.9c0.2,0.5-0.1,1.1-0.6,1.3
				C906.6,419.7,906.5,419.7,906.4,419.7z M904.5,414c-0.4,0-0.8-0.3-0.9-0.7c-0.2-0.7-0.4-1.3-0.6-1.9c-0.2-0.5,0.1-1.1,0.6-1.3
				c0.5-0.2,1.1,0.1,1.3,0.6c0.2,0.6,0.4,1.2,0.6,1.9c0.2,0.5-0.1,1.1-0.6,1.3C904.7,414,904.6,414,904.5,414z M902.6,408.3
				c-0.4,0-0.8-0.3-0.9-0.7c-0.2-0.7-0.5-1.3-0.7-1.9c-0.2-0.5,0.1-1.1,0.6-1.3c0.5-0.2,1.1,0.1,1.3,0.6c0.2,0.6,0.5,1.2,0.7,1.9
				c0.2,0.5-0.1,1.1-0.6,1.3C902.8,408.3,902.7,408.3,902.6,408.3z M900.3,402.8c-0.4,0-0.7-0.2-0.9-0.6c-0.3-0.6-0.6-1.2-0.8-1.8
				c-0.2-0.5,0-1.1,0.5-1.3c0.5-0.2,1.1,0,1.3,0.5c0.3,0.6,0.6,1.2,0.9,1.8c0.2,0.5,0,1.1-0.5,1.3
				C900.6,402.7,900.5,402.8,900.3,402.8z M897.6,397.4c-0.3,0-0.7-0.2-0.9-0.5c-0.3-0.6-0.7-1.1-1-1.7c-0.3-0.5-0.2-1.1,0.3-1.4
				c0.5-0.3,1.1-0.2,1.4,0.3c0.3,0.6,0.7,1.1,1.1,1.7c0.3,0.5,0.1,1.1-0.4,1.4C897.9,397.4,897.8,397.4,897.6,397.4z M894.3,392.4
				c-0.3,0-0.6-0.1-0.8-0.4c-0.4-0.6-0.8-1.1-1.2-1.6c-0.3-0.4-0.2-1.1,0.2-1.4c0.4-0.3,1.1-0.2,1.4,0.2c0.4,0.5,0.8,1.1,1.2,1.6
				c0.3,0.5,0.2,1.1-0.2,1.4C894.7,392.4,894.5,392.4,894.3,392.4z M890.6,387.7c-0.3,0-0.6-0.1-0.8-0.4l-1.3-1.5
				c-0.3-0.4-0.3-1.1,0.1-1.4c0.4-0.3,1.1-0.3,1.4,0.1l1.3,1.5c0.4,0.4,0.3,1.1-0.1,1.4C891.1,387.6,890.8,387.7,890.6,387.7z
				 M886.8,383c-0.3,0-0.6-0.1-0.8-0.4l-1.3-1.6c-0.3-0.4-0.3-1.1,0.1-1.4c0.4-0.3,1.1-0.3,1.4,0.1l1.3,1.5c0.3,0.4,0.3,1.1-0.1,1.4
				C887.3,383,887,383,886.8,383z M883,378.4c-0.3,0-0.6-0.1-0.8-0.4l-1.3-1.5c-0.3-0.4-0.3-1.1,0.1-1.4c0.4-0.3,1.1-0.3,1.4,0.1
				l1.3,1.6c0.3,0.4,0.3,1.1-0.1,1.4C883.5,378.3,883.3,378.4,883,378.4z M879.2,373.7c-0.3,0-0.6-0.1-0.8-0.4l-1.3-1.6
				c-0.3-0.4-0.3-1.1,0.1-1.4c0.4-0.3,1.1-0.3,1.4,0.1l1.3,1.6c0.3,0.4,0.3,1.1-0.1,1.4C879.7,373.7,879.5,373.7,879.2,373.7z
				 M875.4,369.1c-0.3,0-0.6-0.1-0.8-0.4l-1.3-1.6c-0.3-0.4-0.3-1.1,0.1-1.4c0.4-0.3,1.1-0.3,1.4,0.1l1.3,1.6
				c0.3,0.4,0.3,1.1-0.1,1.4C875.9,369,875.7,369.1,875.4,369.1z M871.7,364.4c-0.3,0-0.6-0.1-0.8-0.4l-1.3-1.5
				c-0.3-0.4-0.3-1.1,0.1-1.4c0.4-0.3,1.1-0.3,1.4,0.1l1.3,1.6c0.3,0.4,0.3,1.1-0.1,1.4C872.1,364.4,871.9,364.4,871.7,364.4z
				 M867.9,359.8c-0.3,0-0.6-0.1-0.8-0.4l-1.3-1.5c-0.3-0.4-0.3-1.1,0.1-1.4c0.4-0.4,1.1-0.3,1.4,0.1l1.3,1.5
				c0.3,0.4,0.3,1.1-0.1,1.4C868.3,359.7,868.1,359.8,867.9,359.8z M864.1,355.1c-0.3,0-0.6-0.1-0.8-0.4l-1.3-1.5
				c-0.3-0.4-0.3-1.1,0.1-1.4c0.4-0.3,1.1-0.3,1.4,0.1l1.3,1.5c0.4,0.4,0.3,1.1-0.1,1.4C864.5,355.1,864.3,355.1,864.1,355.1z"/>
		</g>
	</g>
</g>
</svg>
