<?xml version="1.0" encoding="utf-8"?>
<!-- Generator: Adobe Illustrator 18.1.1, SVG Export Plug-In . SVG Version: 6.00 Build 0)  -->
<svg version="1.1" id="Layer_2" xmlns="http://www.w3.org/2000/svg" xmlns:xlink="http://www.w3.org/1999/xlink" x="0px" y="0px"
	 width="1920px" height="955px" viewBox="930 -447 1920 955" enable-background="new 930 -447 1920 955" xml:space="preserve">
<path  fill="none" stroke="#3F2310" stroke-width="2" stroke-linecap="round" stroke-linejoin="round" stroke-miterlimit="10" d="
	M1641.7-4.3c1.4,0.4,3.6,1.2,6.3,2.3c4.5,1.8,5.5,2.6,7.8,2.8c1.3,0.1,3.3-0.4,7.3-1.5c2.9-0.8,4.7-1.4,9.3-2.8
	c5.7-1.7,6.6-2,7.8-2.3c3.8-0.9,5.7-1.3,7.8-1.3c4.6,0.2,4.7,2.2,10,3.3c4.7,0.9,8.7,0.4,11.4,0.1c0.2,0,0.3-0.1,0.4-0.1
	c0.9-2.3,2.2-5.4,4-9c4.5-8.9,7-10.3,7-14.8c0-4.2-2.1-6.3-0.5-9c1-1.7,2.3-1.6,4.3-4c1-1.2,1.7-2.4,2.8-5.3
	c2.2-5.6,2.1-7.5,3.3-10.5c0.9-2.3,2.6-5.5,6.3-8.8"/>
<path  fill="none" stroke="#3F2310" stroke-width="2" stroke-linecap="round" stroke-linejoin="round" stroke-miterlimit="10" d="
	M1699.9-3.3c-0.7,1-1.5,2.5-2,4.5c-0.7,3.1,0.2,4.3-0.3,8.3c-0.1,1.1-0.4,3.3-1.5,5.8s-2,3-3.5,5.5c-0.1,0.2-1.9,3.2-3,7
	c-1.6,5.5,0.2,6.6-1.5,11.3c-0.9,2.4-1.1,1.6-3.3,6.3c-1.1,2.4-1.7,4.1-3.5,5.8c-1,0.9-1.7,1.2-2.5,1.8c-4.1,2.7-5.5,8.2-6.3,11.3
	c-0.7,2.6-0.3,2.9-1.8,10c-0.5,2.7-1.1,5.1-2.5,5.5s-2.3-1.4-3.5-1c-1.6,0.5-1.5,4-2.5,8.3c-1,4-1.7,3.3-3.8,9
	c-2.4,6.6-1.7,8.5-4,12.5c-1.6,2.7-3.4,4.6-4.8,5.8c3.4,0.3,7.5,0.1,9.8-2.5c1-1.1,1.1-1.9,2-3.8c1.5-2.9,3.5-4.5,6.8-7
	c6.9-5.3,10.3-8,11.5-9c0.5-0.4,0.5-0.5,10.3-9.5c4.1-3.8,6.2-5.7,8-6.5c3.9-1.7,5.3-0.4,10.5-2.3c2.3-0.8,5.2-1.8,7.8-4.3
	c3.5-3.3,2.5-5.3,6-8.3c1.4-1.2,1.5-0.8,7.3-3.8c1.3-0.7,5.2-2.6,8.8-4.8c5-3,4.5-3.4,8.5-5.8c5.7-3.4,6.3-2.4,14.8-6.8
	c3-1.6,4.5-2.5,7.5-3.5c2.6-0.9,3.9-0.9,7.3-1.8c4.9-1.2,5.1-1.9,9-2.8c4.3-0.9,6.3-0.6,7-0.5c2.4,0.4,3.3,1.2,5,1.8
	c2.2,0.7,5.6,0.9,10.8-1.5"/>
<path  fill="none" stroke="#3F2310" stroke-width="2" stroke-linecap="round" stroke-linejoin="round" stroke-miterlimit="10" d="
	M1709.7-4c0.5,1.7,0.8,4.2-0.3,6.5c-0.8,1.8-1.9,2.3-3.5,4.3c-1.8,2.2-2.5,4.2-3.5,6.8c-0.9,2.4-1.4,5.2-2.3,10.5
	c-1.1,7-1.1,9-0.8,11c0.3,1.9,0.8,3.5,1.3,4.5c3.3,0.4,6.5,0.8,9.8,1.3c0.1,1.6,0.4,3.7,1,6.3c0.5,2.1,1.1,4.5,2.5,6.8
	c0.9,1.5,3,4.5,7.5,6.8"/>
<path  fill="none" stroke="#3F2310" stroke-width="2" stroke-linecap="round" stroke-linejoin="round" stroke-miterlimit="10" d="
	M1735.8,53.9c0.3-1.1,0.5-2.8,0-4.5c-0.6-1.9-1.7-2.8-2.8-4.3c-1-1.4-2.2-3.6-2.8-7c2.4-4.3,3.8-8,4.8-10.5c0,0,0.4-1,2.8-8.3l0,0
	c4.8,0.2,8.4-0.5,10.8-1.3c3.1-0.9,3.8-1.7,4-2c1.9-2.4-0.3-4.8,0.3-10.3c0.3-2.9,0.9-2.5,2.3-8.8c0.6-3,0.9-4.4,1-6.3
	c0.1-2.6-0.4-4.7-1.3-8.8c-1-4.5-1.5-5.4-2-9c-0.3-2.1-0.4-4,0-6.3c0.4-1.9,0.6-3,1.5-4c2-2.2,4.7-1.1,6-3c0.5-0.6,0.9-1.8,0.3-4"/>
<path  fill="none" stroke="#3F2310" stroke-width="2" stroke-linecap="round" stroke-linejoin="round" stroke-miterlimit="10" d="
	M1736.3,49.2c1.8,0.3,3.7,0.5,5.5,0.8"/>
<path  fill="none" stroke="#3F2310" stroke-width="2" stroke-linecap="round" stroke-linejoin="round" stroke-miterlimit="10" d="
	M1716.5-195.2l2,2.8c-0.3,1.1-0.6,2.7,0.3,3.5c0.9,0.9,2.2,0.2,3.3,1c1.1,0.9,0.4,2.5,0.8,5.8c0.1,1.3,0.5,4.2,2.3,6.8
	c1.4,2,2.1,1.6,3.3,3.5c1.2,1.9,1.1,3.2,1.8,6.3c0.3,1.6,0.9,4,2,6.8c0.9,0.1,2.1,0.2,3.5,0.5c1.9,0.3,3.2,0.7,6.3,1.5
	c6.8,1.8,7.3,2.1,8,2.8c1.7,1.6,2.2,3.5,2.5,4.5c0.4,1.5,0.6,3.4-0.8,9c-0.6,2.3-0.9,3.2-2.8,9.3c-1.8,5.9-2.1,6.8-2.3,8.3
	c-0.3,2.5-0.7,4.9,0,7.8c0.6,2.6,1.6,3.2,5.3,8.5c4.3,6.2,3.6,6.1,6.3,9.5c3.8,4.8,4.9,4.5,6.3,7.5c1.4,3.1,1.4,6.1,1.5,9.3
	c0.1,3-0.2,5.6-0.5,7.3c2.2,2.7,3.7,5.2,4.8,7c2,3.4,2.5,5.2,2.8,6c0.5,1.8,0.9,3.2,0.8,5c-0.1,1.5-0.9,3.2-2.3,6.5
	c-0.3,0.7-0.6,1.4-0.8,1.8"/>
<path  fill="none" stroke="#3F2310" stroke-width="2" stroke-linecap="round" stroke-linejoin="round" stroke-miterlimit="10" d="
	M1752.9-144.3c1.2-1,2.6-2,4.3-3c2.1-1.3,4.1-2.1,5.8-2.8c-0.5-3.2,0.2-4.8,1-5.8c1-1.2,2.1-1.1,3.8-2.8c0.9-0.9,1.2-1.6,2.5-3.8
	c0.7-1.2,1.8-3.1,3.3-5.3c3.9,0.1,7.1-0.2,9.5-0.5c2.5-0.3,4.4-0.7,5.8-1c2.5-0.5,4.5-1.1,7-1.8c3.1-0.9,7.2-2.1,12.3-3.8"/>
<path  fill="none" stroke="#3F2310" stroke-width="2" stroke-linecap="round" stroke-linejoin="round" stroke-miterlimit="10" d="
	M1820.1-163.9c3.3-4.7,6.5-9.4,9.8-14.1c1.7-0.2,4.1-0.4,7-0.5c4.1-0.1,7,0.1,12.3,0.5c5,0.4,8.1,0.6,12.3,1.3c4.4,0.7,4,0.8,10.5,2
	c8.5,1.5,9.6,1.3,13.3,2.5c1.5,0.5,3.9,1.7,8.5,4c11.8,5.9,13.2,7.1,13.8,9c0.8,2.4,0.2,5.2-0.5,8.3c-0.7,3.1-1.5,4.1-1.3,6.5
	c0.2,2,0.9,3,0.5,4.8c-0.3,1.6-1.3,2.8-2,3.5c-0.3,5.9-0.7,11.7-1,17.6c-0.9,0.3-2.2,0.8-3,2c-1.7,2.5,0.6,5.2-0.8,8.8
	c-0.8,2.1-1.6,1.4-3.3,4.3c-1,1.7-0.9,2.3-2.5,8.8c-1.1,4.6-1.2,4.4-1.3,5.3c-0.2,4.2,1.9,6.5,0.8,7.8c-0.4,0.5-1.5,0.9-4,0.3
	c0,1.1-0.3,2.7-1.3,4.3c-1.1,1.8-2.4,2.1-4.3,3.5c-0.9,0.7-1.3,1.2-5.3,6.5c-3,4.1-4.5,6.1-4.8,6.5c-0.7,1.2-2.5,4.5-3.8,9
	c-1.3,4.9-0.6,6-2,9c-1.4,3.1-3.7,5.1-5.3,6.3"/>
<path  fill="none" stroke="#3F2310" stroke-width="2" stroke-linecap="round" stroke-linejoin="round" stroke-miterlimit="10" d="
	M1721.7,191.9c0.6-1.2,1.6-2.9,3-4.8c2-2.6,3.5-3.8,5.3-5.5c1.9-2,3.2-4,5.8-8c2.7-4.2,2.9-5,4.5-6.3c2.4-1.9,3.8-1.6,5.8-3
	c1.9-1.3,4-3.9,4.8-9.8c2.9-0.9,7.1-2.3,12-4c7.9-2.8,9.4-3.6,10.5-4.3c5.5-3.3,8.6-7.5,10.3-9.8c1.9-2.6,3.9-5.3,5-9.5
	c1-3.9,0.8-7.2,0.5-9.3c5.1,1,9.3,1.2,12.3,1.3c5.1,0.1,6.5-0.5,14.8-0.5c0.2,0,0.1,0,7.8,0c0.1,0,5.2,0,5.3,0
	c0.6,0.9,1.5,2.4,1.8,4.3c0.5,3.5-1.2,6-2.8,9.3c-0.9,1.9-1.9,5.8-4,13.5c-0.4,1.5-1.7,6.3-3,12.8c-1.5,7.2-1.1,6.9-2.3,12
	c-1.3,5.6-2.2,9.7-4.5,14.8c-1.7,3.7-2.4,4.2-3.3,7c-1.4,4.5-1.3,8.6-1,11.3"/>
<path  fill="none" data-pathType="road" data-toolTipName="Magadi Road"  stroke="#3F2310" stroke-width="2" stroke-linecap="round" stroke-linejoin="round" stroke-miterlimit="10" d="
	M1543.1,27.3c0.5-0.9,1.5-2.6,3.5-3.8c4-2.3,8.2-0.7,8.8-0.5c2.5-1.5,6.5-3.6,11.5-5.8c4.8-2,6-2.1,12-4.5c5.8-2.3,9-3.6,13-6
	c4.6-2.7,4.4-3.4,11.3-8c5.1-3.4,7.7-5.1,10-5.8c2.6-0.7,1.9,0,14.1-0.5c2.5-0.1,4.6-0.2,7.5,0.5c2.4,0.6,4.3,1.5,5.5,2.3"/>
<path  fill="none" stroke="#3F2310" stroke-width="2" stroke-linecap="round" stroke-linejoin="round" stroke-miterlimit="10" d="
	M1573.7,67.7c0.1,1,0.5,3.2,2.3,5.3c0.2,0.2,2.7,3.1,6.8,3.5c3.2,0.3,6.1-1.1,7-1.5c1.8-0.9,2.6-1.7,4.3-1.8c1.4-0.1,2.2,0.4,3.8,1
	c3,1.2,2.9,0.6,7.3,2c5.3,1.6,4.6,2.2,7.5,2.8c1.9,0.4,4.1,0.4,8.3,0.5c4,0.1,4.7-0.1,6,0.5c1.6,0.8,1.7,1.6,4.5,4.5
	c1.5,1.6,2.8,2.9,4.5,4.3c1.8,1.3,2.1,1.2,7.3,4.3c3.4,2,3.8,2.4,4.3,3c1.5,2.2,0.4,3.5,2,5.5c1.4,1.8,2.8,1.5,3.8,3.3
	c0.8,1.4,0.7,2.9,0.5,4"/>
<path  fill="none" stroke="#3F2310" stroke-width="2" stroke-linecap="round" stroke-linejoin="round" stroke-miterlimit="10" d="
	M1661,110.6c0.4,0.7,1,1.6,1.8,2.8c1.5,2.4,1.8,2.7,2.3,3c1.3,0.9,3.4,1.4,4.5,0.5c1.2-0.9,0.6-2.7,1.5-3s1.6,1.2,3.8,2
	c1.6,0.6,2.1,0.1,3.8,0.5c2.7,0.6,2.9,2.2,5.8,3.8c1.8,1,3.4,1.3,6.3,1.8c3.2,0.5,3.3,0.1,7.3,0.5c5.1,0.5,7.6,0.8,9.8,2
	c0.8,0.4,1.9,1.2,3.5,1.3c1.5,0.1,2.7-0.4,3.5-0.8"/>
<path  fill="none" stroke="#3F2310" stroke-width="2" stroke-linecap="round" stroke-linejoin="round" stroke-miterlimit="10" d="
	M1720.3,121c0.6,0.2,5.6,0.1,6.7-0.1c1.5-0.2,2.2-1,3.8-2c0.3-0.2,2.2-1.4,4.5-2c1.8-0.5,4.3-1.2,6.3,0c1.7,1,1.3,2.5,2.8,3
	c1.7,0.7,3.7-0.8,6.5-2.8c2.5-1.7,2.8-2.5,5.8-4.5c1.6-1.1,2.4-1.6,3.5-2c2.6-0.9,5.1-0.4,6.5,0c0.7-2.3,1.3-4.2,1.8-5.8
	c1.3-4.5,1.4-5.8,0.8-7c-0.2-0.5-0.7-1.1-2.5-2.3c-3.5-2.2-5.3-2-8.8-3.5c-2.3-1-3.8-2.1-6.8-4.3c-2.3-1.7-2.7-2.2-5.5-4.5
	c-3-2.4-4-3-8.8-6.5c-2-1.5-4.9-3.6-8.3-6.3"/>
<path  fill="none" stroke="#3F2310" stroke-width="2" stroke-linecap="round" stroke-linejoin="round" stroke-miterlimit="10" d="
	M1769.4,97.6c1-0.2,2.9-0.3,4.5,0.8c1,0.7,1.5,1.6,2.5,3.8c2.2,4.7,2,4.8,2.8,6.3c1.3,2.5,2.9,4,5.3,6.3c1.8,1.8,3.5,3.1,4.8,4"/>
<path  fill="none" stroke="#3F2310" stroke-width="2" stroke-linecap="round" stroke-linejoin="round" stroke-miterlimit="10" d="
	M1924.2,97.3c2,1,3.7,1.8,5,2.5c3.6,1.8,4.3,2.3,5,3c1.7,1.6,1.4,2.1,2.8,3c1.8,1.2,2.9,0.6,5.3,1.5c1.9,0.7,2.8,1.6,4,2.5
	c2.2,1.6,4.7,2.5,9.8,4.3c5.6,2,6.2,1.6,12.8,3.8c2.7,0.9,4.8,1.6,7.5,2.8c3.9,1.7,5,2.6,10.5,5.5c2.2,1.2,6.3,3.3,11,5.5
	c2.3,1.1,5.2,2.3,11,4.8c9.9,4.2,11.3,4.6,13,6.8c1.1,1.4,1.9,3,4,4c2,1,3.5,0.7,6,0.8c1.1,0,2,0.2,12.5,3.5
	c2.1,0.7,4.7,1.5,7.8,2.5"/>
<path  fill="none" stroke="#3F2310" stroke-width="2" stroke-linecap="round" stroke-linejoin="round" stroke-miterlimit="10" d="
	M1979.9,299.8c-0.2-0.6-0.5-1.6-0.3-2.8c0.6-2.7,3.6-2.8,4.5-5.5c0.4-1.2-0.1-1.4-0.5-5.8c-0.3-3,0-2.8-0.3-5.5
	c-0.4-5-1.4-5.5-1-8.3c0.1-1.1,0.4-3.4,2-5.3c1.8-2.1,3.1-1.4,5.8-3.5c2.2-1.8,3.4-4,4.8-6.8c1.3-2.6,1.2-3.2,2.5-5.3
	c1.7-2.7,2.4-2.3,3.5-4.3c0.9-1.6,0.6-2.1,1.5-8.5c0.7-5.1,1-5.2,0.8-6.5c-0.4-2.3-1.4-3.5-0.8-5.3c0.2-0.6,0.6-1.2,2.3-2.5
	c4-3,6-2.3,7.5-4.3c1.3-1.6,0.2-2.5,1-6.8c0.5-2.4,0.9-2.5,3.5-9c1.6-4.1,2.5-6.1,3-8.5c0.3-1.4,0.9-3.8,1-7c0.2-4.1-0.6-4.7,0-7.5
	c0.6-2.7,1.3-2.7,2-5.8c0.6-3,0-3.3,0.5-6c0.6-3.2,1.6-3.1,3.3-7.8c0.8-2.2,1.2-3.9,2-7.3c0.6-2.4,1-4.5,1.3-6"/>
<path  fill="none" stroke="#3F2310" stroke-width="2" stroke-linecap="round" stroke-linejoin="round" stroke-miterlimit="10" d="
	M1946.8-21.6c2.8-0.1,5.5-0.2,8.3-0.3c1.2,1.1,3.2,2.6,5.8,4c2.6,1.3,4.5,1.9,9.3,3.3c8.9,2.6,7.3,2.3,9.3,2.8
	c2.8,0.7,8.7,1.9,16.3,2.3c3,0.1,5.5,0.1,7.3,0c1.2,0.6,2.9,1.4,5,2.3c0.9,0.3,3.6,1.4,10,2.8c4.9,1.1,9.3,1.8,13.3,2.3
	c3.1,0.4,5.7,0.6,7.5,0.8c1.3,0.9,3.2,2.2,5.8,3.3c1.8,0.7,4,1.3,12.8,2c5.4,0.4,8.1,0.6,10.5,0.5c5-0.2,9.1-1.1,10.8-1.5
	c3.4-0.8,4.6-1.4,8.8-2.3c2.5-0.5,4.6-0.8,6-1"/>
<path  fill="none" stroke="#3F2310" stroke-width="2" stroke-linecap="round" stroke-linejoin="round" stroke-miterlimit="10" d="
	M1995.5-8.8c-1.3,0.3-6.5,1.6-8.5,6c-1,2.1-0.9,4.1-0.8,6.5c0.2,4,1.3,6.9,2.3,9.5c1.5,3.9,3.4,8.6,5.8,14.1
	c0.6-0.2,1.8-0.5,3.3-0.3c0.5,0.1,2.8,0.5,3.3,2c0.4,1.2-0.7,1.9-1.8,4.3c-0.6,1.4-0.8,3-1.3,6.3c-0.2,1.5-0.4,3.4-0.5,5.8"/>
<path  fill="none" stroke="#3F2310" stroke-width="2" stroke-linecap="round" stroke-linejoin="round" stroke-miterlimit="10" d="
	M1788,117.7c0.6-5.2,1.2-10.4,1.8-15.6c2,0.1,5.1,0.2,8.8,0.5c5.2,0.4,8,1,10.5,1.3c6.2,0.7,7.3-0.2,17.8-0.5
	c10.6-0.3,11.6,0.4,22.1,0c5.9-0.2,10.7-0.7,13.8-1c-3-4.8-6.4-10.3-10-16.6c-4.7-8-7.1-12.1-9.5-17.1c-2-4.1-4.7-10.2-7.3-18.1
	c0.6-3.7,1.1-7.6,1.5-11.5c0.4-3.5,0.7-6.9,1-10.3c3.6-0.8,6.3-0.5,8,0c1.8,0.5,3.5,1.4,6.3,1.3c0.7,0,1.7-0.1,3-0.5
	c2-0.7,2.1-1.4,3.5-1.8c1.7-0.4,3.6,0.2,4.8,1.3c1.6,1.4,1,2.6,2.8,4.3c1.3,1.3,2.7,1.7,3.8,2c2.6,0.8,4.6,0.4,6.5,0.3
	c3.1-0.2,3.5,0.6,9.8,1.8c5.4,1,9.7,1.3,12.5,1.5c3.3,0.2,6.7,0.4,11.3,0.3c3-0.1,5.1-0.4,8.5,0c1.5,0.2,2.7,0.4,5.5,1
	c6.9,1.5,8.4,2.2,13.3,3.3c3.9,0.9,6.6,1.5,10.3,1.8c1,0.1,4.7,0.4,9.8,0c6.3-0.4,6.2-1.3,10.5-1.3c3.6,0,3.9,0.6,10.3,1
	c1.2,0.1,2.3,0.1,7,0.3c7.2,0.2,10.8,0.3,12.3,0.3c7.1-0.1,6.8-1,16.6-1.8c4.9-0.4,8.9-0.4,14.8-0.5c4.3-0.1,7.9,0,10.5,0"/>
<path  fill="none" stroke="#3F2310" stroke-width="2" stroke-linecap="round" stroke-linejoin="round" stroke-miterlimit="10" d="
	M1863.5-81.1c-0.4,1.1-1,2.6-1.8,4.5c-1,2.8-1.6,4.2-2,5.5c-0.5,1.6-0.8,2.9-1.8,7.5c-0.8,3.8-1.2,5.7-1.5,7.5
	c-1.7,8.8-1.4,9.5-2.5,12c-1.5,3.6-3.6,6.4-3.8,6.5c-2.5,3.3-3.8,3.3-4.5,5.5c-1,3.1,1.2,4.3,0.3,7.8c-0.6,2.1-1.3,1.6-3.5,5.5
	c-1.9,3.4-1.8,4.5-3.5,6.3c-0.4,0.4-1.8,1.7-4,2.5c-3,1.1-5.7,0.5-6.8,0.3c-0.2,0.9-0.5,2-1.3,2.3s-1.7-0.7-3.8-2.5
	c-2.5-2.2-3.7-3.3-5-3.8c-0.5-0.2-3.4-1.3-5.5,0c-2.7,1.6-2.6,6-2.5,8.5c0.1,3.3,1,5.9,1.8,7.5c1.4,0.9,3.5,2,6.3,2.8
	c2.4,0.6,4.5,0.8,6,0.8c2.9,2,3.7,5.7,2.3,8.3c-1.1,1.9-3.3,3.1-5.8,3c-2.3,1.9-4.1,3.6-5.5,5c-3.2,3.2-4.2,4.7-4.8,5.8
	c-0.8,1.4-1.2,2.6-1.5,3.5"/>
<path  fill="none" stroke="#3F2310" stroke-width="2" stroke-linecap="round" stroke-linejoin="round" stroke-miterlimit="10" d="
	M1820.2-12.7c1.3,0,2.3,0.3,3,0.5c0.6,0.2,1.3,0.6,2.7,1.3c1.6,0.9,1.6,1,2.2,1.2c1.1,0.4,2,0.4,3,0.4c1.6,0,2.5,0,3.3-0.4
	c0.6-0.3,1.1-0.8,2.2-2.9c1-1.9,1-2.4,1.8-3.8c1.3-2.7,2.1-4.4,3.9-5.4c1-0.6,3-1.2,3-1.2l0,0c2.5-0.4,4.3,0,5.5,0.4
	c1.3,0.5,2.6,1.2,4.8,1.4c0.7,0.1,1.3,0,1.7,0c0.1-0.1,1.3-1.1,1.2-2.7c-0.1-1.2-0.8-2.2-1.9-2.7"/>
<path  fill="none" stroke="#3F2310" stroke-width="2" stroke-linecap="round" stroke-linejoin="round" stroke-miterlimit="10" d="
	M1799.3,102.9c0.1-2.4,0.3-6.6,0.3-11.8c-0.1-12.6-1.2-17.9-1-28.6c0.1-3.3,0.2-8.6,1-15.1c1.4-2.5,2.5-4.5,3.3-5.8
	c1.3-2.1,2.1-3.5,2.8-5.8c0.3-1,0.4-1.9,0.5-2.5"/>
<path  fill="none" stroke="#3F2310" stroke-width="2" stroke-linecap="round" stroke-linejoin="round" stroke-miterlimit="10" d="
	M1803.3-42.9c0.5,1.9,1.2,4.7,1.5,8.3c0.4,4.3-0.1,5.2,0,10.8c0.1,7.7,1.2,12.1,1.5,13.3c0.7,2.9,1.1,4.5,2.3,6.4
	c1.5,2.5,2.5,2.9,2.6,4.5c0.1,1-0.3,1.7-3.1,6.2c-1.3,2-2.2,3.5-2.3,3.5c-1.2,1.8-2.8,4.4-4.5,7.8c0.7,2.3,1.8,3.7,2.6,4.4
	c1.6,1.4,3,1.6,4.5,3.4c0.6,0.7,0.8,1.2,1.5,2.8c0.7,1.5,1.7,3.6,3.2,6.3c-1.2,1.6-2.4,2.7-3.2,3.4c-2.3,2-3.8,2.2-4.9,4.2
	c-0.3,0.6-1.2,2.1-0.7,3.5c0.3,0.8,1,1.3,3.3,2.5c3.1,1.6,4.3,1.9,6.3,2.9c1.8,0.9,2.9,1.5,4.2,2.7c2.1,1.9,3.1,4,4.6,7
	c0.7,1.5,1.1,2.3,1.6,3.7c1.2,3.5,0.6,4.8,1.8,6.3c0.7,0.9,1.9,1.3,4.2,2.2c2.4,0.9,3.1,0.8,6.2,1.7c2.9,0.8,4.6,1.3,6.7,2.3
	c0.6,0.3,2.6,1.4,4.8,3.3c2.9,2.6,5.9,6.8,6.9,8.9"/>
<path  fill="none" stroke="#3F2310" stroke-width="2" stroke-linecap="round" stroke-linejoin="round" stroke-miterlimit="10" d="
	M1835.4,50.5c-0.5,0.1-1.2,0.4-1.8,1c-1.6,1.4-1.6,3.7-1.6,6c0,2.8-0.2,5.7-0.3,8.5c-0.1,3.4-0.5,3.8-1.3,9.5
	c-0.7,5.1-1,8.9-1.3,14.6c-0.2,2.8,0,0.9-0.5,11.6c-0.2,4.1-0.3,5.4-0.2,7.4c0.2,4.1,0.9,7.4,1.4,9.5"/>
<path  fill="none" stroke="#3F2310" stroke-width="2" stroke-linecap="round" stroke-linejoin="round" stroke-miterlimit="10" d="
	M1805.4,11.2c0.7,0.3,2,0.9,3,2.2c1,1.3,1.1,2.7,1.3,4.3c0.2,1.5,0.1,2.6-0.1,4.7c-0.1,1.8-0.3,3.2-0.5,4.3"/>
<path  fill="none" stroke="#3F2310" stroke-width="2" stroke-linecap="round" stroke-linejoin="round" stroke-miterlimit="10" d="
	M1852.6,84.8c0.9,0.1,2.2,0.2,3.8,0.8c1.5,0.5,1.8,0.9,3.9,2c1.9,1,3.4,1.7,6.4,2.9c2.1,0.9,3.1,1.3,3.5,1.4c1.4,0.3,2.5,0.2,8-0.8
	c3.8-0.7,4.2-0.8,5.1-0.5c2.2,0.7,2.1,2.4,4.1,2.9c1.8,0.4,2.6-0.8,5.8-1.3c1.8-0.3,3.3-0.2,4.4,0"/>
<path  fill="none" stroke="#3F2310" stroke-width="2" stroke-linecap="round" stroke-linejoin="round" stroke-miterlimit="10" d="
	M1855.9,91.1c0.9-0.8,2.1-2,3-3.9c1.1-2.4,0.5-3.3,1.3-5.8c1.1-3.5,3.6-5.6,5.4-7.3c1.8-1.6,3.5-2.6,4.8-3.3
	c3.3-0.1,6.6-0.2,9.9-0.3c0.9-2.7,2.1-4.5,3-5.6c1.8-2.3,3.3-2.9,4.1-5.4c0.3-0.8,0.8-2.2,0.4-3.9c-0.4-1.6-1.4-2-1.6-3.3
	c-0.2-1,0-2.6,2.3-4.9c-0.2-15.2-0.4-30.4-0.6-45.5c2.6-0.5,6.4-1.4,10.7-3.3c2.2-0.9,4.3-2.1,8.3-4.3c6.1-3.3,7.8-4.6,12.4-6.9
	c2.5-1.2,4.5-2.1,5.8-2.6"/>
<path  fill="none" stroke="#3F2310" stroke-width="2" stroke-linecap="round" stroke-linejoin="round" stroke-miterlimit="10" d="
	M1856.9,49.4c1,0.5,2.2,1.1,3.8,1.6c1.8,0.6,2.5,0.7,3.8,1.3c0,0,1.8,0.8,3.4,2.4c2.1,2.1,2.8,4.5,3.5,6.5c0.8,2.4,2.3,5.6,4.9,9.4"
	/>
<path  fill="none" stroke="#3F2310" stroke-width="2" stroke-linecap="round" stroke-linejoin="round" stroke-miterlimit="10" d="
	M1888,1.9c-1.5,1.7-3,2.4-4,2.8c-1.4,0.5-2.3,0.4-7,0.9c-1.1,0.1-2,0.2-2.5,0.3c-1.1,1.3-2.7,3.1-4.6,5.3c-3.3,3.8-4.1,4.8-5.8,5.3
	c-0.7,0.2-1.2,0.2-6-0.9c-5.6-1.3-7.7-1.9-8.5-0.9c-0.2,0.3-0.5,0.8-0.3,1.9c-3.3,0.7-5.8,0.5-7.5,0.1c-3.4-0.6-4.9-2-8.9-2.8
	c-2.3-0.5-4.3-0.5-5.5-0.5"/>
<path  fill="none" stroke="#3F2310" stroke-width="2" stroke-linecap="round" stroke-linejoin="round" stroke-miterlimit="10" d="
	M1820.9,17.5c-0.3,1.7-0.5,3.2-0.5,4.3c-0.1,2.3-0.1,3.7,0.5,5.4c0.4,1,0.9,2.5,2.3,3.3c0.8,0.5,1.4,0.4,5.9-0.1
	c3.8-0.4,5.1-0.5,7.5-1c0.8-0.1,1.4-0.3,1.9-0.4"/>
<path  fill="none" stroke="#3F2310" stroke-width="2" stroke-linecap="round" stroke-linejoin="round" stroke-miterlimit="10" d="
	M1843.9,17.2c-0.6,1.4-1.1,3.4-0.3,4.9c0.3,0.6,0.7,0.8,3.4,2.4c3.4,2,4.5,2.7,5.5,4.1c0.5,0.7,0.7,1.3,0.9,1.6"/>
<path  fill="none"  data-pathType="road" data-toolTipName="Hosur Road" stroke="#3F2310" stroke-width="4" stroke-linecap="round" stroke-linejoin="round" stroke-miterlimit="10" d="
	M1867.5,112.6c1.8,3.2,4.4,7.8,7.5,13.3c5.5,9.5,8.2,14.3,10.5,18.1c8.1,13,8.7,10.7,17.8,24.8c4.5,6.9,4.3,10.7,10.5,18l9.6,8.6
	c2.5,1.5,5.8,4.5,8,11c-0.4,0.6-1.3,1.9-3,2.8c-2.2,1.1-4.3,0.9-5,0.8"/>
<path  fill="none" data-pathType="road" data-toolTipName="NICE Ring Road" stroke="#3F2310" stroke-width="4" stroke-linecap="round" stroke-linejoin="round" stroke-miterlimit="10" d="
	M1648-105.8c-0.2,2.2-0.6,5.6-1.3,9.8c-0.8,4.9-1.2,5.5-1.3,8c-0.1,4.8,1.2,5.6,1.3,10.5c0,3.4-0.5,3.2-1,8.3
	c-0.4,4.3-0.2,7.3,0,12.5c0.4,7.9,1.1,7.7,1,11.8c-0.2,5.4-1.4,6.2-2.5,12.8c-1.5,8.9,0.4,9.1-1,17.8c-1.1,7.3-2.5,7.6-3.5,15.3
	c-0.4,2.8-0.4,4.9-0.5,12c-0.1,16.1,0.2,15.4,0,21.6c-0.3,9.4-1.1,9.9-1.5,22.1c-0.2,4.7-0.2,9.4-0.3,11.3c-0.1,9.8,0.1,12-0.3,17.1
	c-0.1,1-0.5,6.2-1.8,13c-1.2,6.8-2,8.2-1.8,11.8c0.3,4.4,1.8,7.6,3.3,10.8c2.5,5.3,5.3,8.6,9.3,13.3c5.1,6,8.6,10,14.3,14.1
	c1.4,1,5.1,3.4,9.5,7.3c2.3,2,3.7,3.4,5,5.5c1.7,2.8,2.3,5.5,2.5,7.3c2.1,1.7,5,3.9,8.5,6.3c3.5,2.4,10.7,7.3,20.3,12
	c2.9,1.4,12.7,6.1,26.1,9.8c4.4,1.2,2.7,0.5,22.8,5.3c2.1,0.5,6,1.4,11.3,2.5c8.2,1.7,12.2,2.5,14.8,2.5c8.6-0.1,8.4-3.6,17.1-3.8
	c6.8-0.1,9.5,2.1,15.1,0.3c3.2-1.1,5.5-2.9,7-4.3c5.1-0.7,9.3-1,12.3-1.3c7.6-0.5,9.7-0.3,13-1.8c1.5-0.7,1.7-1,8.3-6.3
	c5.7-4.6,8.6-6.9,10.3-7.8c2.1-1.1,6.7-3.5,12.8-3.5c4,0,7,1.2,13,3.5c6.3,2.4,6.4,3.3,14.8,6.8c4.8,2,9,3.5,9,3.5
	c6.7,2.4,4.6,1,6.5,2.2"/> 
<path  fill="none" data-pathType="road" data-toolTipName="Bangalore Mangalore Highway" stroke="#3F2310" stroke-width="4" stroke-linecap="round" stroke-linejoin="round" stroke-miterlimit="10" d="
	M1502.2-189.5c2.6,6.2,5.5,11,7.8,14.3c3.5,5.1,5.7,7.1,6.5,7.8c2.5,2.2,4.8,3.3,9.3,5.5c2.7,1.3,4.5,2.1,12.3,5.3
	c10.5,4.3,10,4,11,4.5c5.1,2.3,6.2,3.3,13.5,6.8c2.1,1,4.3,2.1,7,3.3c13,5.7,16,4.8,22.6,9.3c4.2,2.8,3.5,3.5,8,6.3
	c4.2,2.6,6.5,3,12.5,6c4.2,2.1,6.7,3.7,8.5,4.8c4.9,2.9,13,6.5,26.8,9.8"/>
<path  fill="none" data-pathType="road" data-toolTipName="NICE Bangalore Mysore Expressway" stroke="#3F2310" stroke-width="4" stroke-linecap="round" stroke-linejoin="round" stroke-miterlimit="10" d="
	M1650.7,192.2c1.2-2.6,3-6.1,5.5-10c3.2-5,6.1-8.4,8.8-11.5c4.2-4.9,7.3-8.5,12.3-12.5c4.8-3.8,7.6-6.2,12-8.3
	c1.5-0.7,3.3-1.5,5.5-3.3c2.8-2.3,4.1-4.5,5.3-6.3c2.7-4,5.8-6.9,12-12.5c6.1-5.6,6.6-4.8,9.5-8.3c1.9-2.3,5.2-6.3,6.5-12
	c0.5-2.3,0.3-6.2-0.3-14.1c-0.3-3.8-0.4-7.2-0.8-14.1c-0.2-3.8-0.3-6.6,1.3-9.8c1.1-2.2,2.5-3.6,3.5-4.5"/>
<path  fill="none" stroke="#3F2310" stroke-width="4" stroke-linecap="round" stroke-linejoin="round" stroke-miterlimit="10" d="
	M1648.7-105.9c2.1,1.1,5.3,2.6,9.3,4.3c5.1,2.1,7.9,2.9,13.5,4.8c12.1,4.1,10.1,4.2,17.1,6.3c10.6,3.1,13.7,2.3,17.3,6
	c1.7,1.8,2.7,3.7,5.8,5.5c0.8,0.5,1.8,1,7.5,2.8c6.6,2,8.1,2.2,10,3.8s2.9,3.5,3.5,4.8"/>
<path  fill="none" data-pathType="road" data-toolTipName="Doddaballapur Road" stroke="#3F2310" stroke-width="4" stroke-linecap="round" stroke-linejoin="round" stroke-miterlimit="10" d="
	M1774.4-312.9c-0.6,5.2-0.6,9.5-0.5,12.8c0,0.8,0.2,4.7,1,9.8c0.7,4.8,1.2,5.3,1.8,9.5c0.6,4.6,0.2,4.6,0.8,9.5
	c0.3,2.8,0.8,6.9,2.3,11.8c1.7,5.7,2.6,5.4,3.3,9.3c0.6,3.4,0.2,5.1-0.3,11.8c-0.5,8-1.1,9-0.5,12c0.5,2.1,1.4,4,3.3,7.8
	c2.6,5.1,3.4,5.9,6.3,11c3.5,6.4,5.3,9.6,6,13.3c0.9,4.6,0,5.7,1.5,9.3c1.5,3.5,3.7,5.6,6,7.8c4.4,4.2,6.6,4.2,10,8
	c2,2.1,3.5,3.7,4.3,6.3c0.7,2.2,0.5,3.8,0,8.3c-0.5,4.8-1,8.5-1.3,10.8"/>
<path  fill="none" data-pathType="road" data-toolTipName="Thanisandra Main Road" stroke="#3F2310" stroke-width="4" stroke-linecap="round" stroke-linejoin="round" stroke-miterlimit="10" d="
	M1876.1-202.8c1.4,1.9,3,4.7,3,8.3c0,3.2-1.4,3.9-1.8,7.8c-0.3,2.8,0.4,3.6,1.5,10.3c0.5,2.6,1,5.9,1.3,9c0.4,4.8-0.2,7.7-0.8,12.5
	c-1.4,11.8,0,10.9-1.3,20.8c-1.4,10.8-2.9,10.9-2.3,16.3c0.4,3.1,1.2,6.1,0.3,10.3c-0.8,3.3-2.2,5.5-3,6.8
	c-2.3,3.7-5.5,9.4-8.8,18.1"/>
<path  fill="none" stroke="#3F2310" stroke-width="4" stroke-linecap="round" stroke-linejoin="round" stroke-miterlimit="10" d="
	M1733.3-67.5c1.2,0.6,3,1.6,5.3,2.8c6.7,3.5,6.2,3.4,8,4.3c5.5,2.7,6.4,2.3,8.8,4.3c1.1,0.9,3,2.5,4.3,5.3c1.3,2.7,1.3,5.2,1.3,6.5
	c0.7-0.3,1.6-0.7,2.5-1.5c2-1.6,1.9-2.9,3-3.3c1.6-0.5,3,2,6,3.8c2.2,1.2,4.2,1.4,8.3,1.8c5.6,0.5,7.2-0.4,12.5-0.3
	c2.3,0.1,5.7,0.3,9.8,1.3c-0.2-2.3-0.2-5.8,0.8-10c1.2-5.4,2.8-5.9,5-12.8c1.3-4.1,1-4.6,3.3-13.3c0.8-3.1,1.5-5.6,2-7.3"/>
<path  fill="none" data-pathType="road" data-toolTipName="MBT Road" stroke="#3F2310" stroke-width="4" stroke-linecap="round" stroke-linejoin="round" stroke-miterlimit="10" d="
	M1741.3-63.7c-0.2-2.2-0.3-5.6,0.5-9.5c0.7-3.6,1.2-6,3-8c1.9-2.1,4.4-2.7,9.5-4c0.9-0.2,4.8-1.2,10.3-1.5c3.1-0.2,5.6-0.1,7.5,0
	c2.2-2.4,4.3-3.6,5.8-4.3c2-0.9,4.2-1.4,14.3-1.5c2.6,0,4.8,0,6.3,0c2.5,3.6,5,4.9,6.8,5.5c4,1.3,6-0.7,11.3,1
	c2.4,0.8,3.2,1.6,5.3,1.5c2.6-0.1,4.7-1.4,6-2.5c5.3-0.7,9.5-0.3,12.5,0.3c4,0.7,5.9,1.8,10.8,3s9,1.8,12,2c1.1,1.8,2.9,4.4,5,7.5
	c5.3,7.7,6.8,9.2,7.8,10c2.2,1.9,3.4,2.2,10.8,5.3c11.8,5,12.4,6,22.3,9.8c3.8,1.5,6.9,2.6,9,3.3c3.3,8.3,3.1,14.2,2.3,18.1
	c-0.4,2.1-1.6,5.9,0.3,9.3c1,1.9,2.6,3.1,3.8,3.8c7.4-2.7,13.2-5.4,17.3-7.5c1.8-0.9,4.2-2.2,18.6-10.8l0,0c1.2,0.2,4.8,0.7,8.5-1.3
	c5.6-3,6.7-9,6.8-9.8c3.6-2.1,8.8-5.1,15.1-8.8c13.2-7.8,19.8-11.7,26.8-16.3c6.5-4.3,12.9-8.5,21.1-14.8c1.2-0.9,9.6-7.5,18.3-13.5
	c2.9-2,5.7-3.9,9.5-5.8c4.4-2.2,4.9-1.7,7.3-3.3c1.2-0.8,2.6-1.9,8.8-9.8c3.8-4.9,4.2-5.6,5.8-6.8c3.2-2.4,6.7-3.2,9-3.5"/>
<path  fill="none" data-pathType="road" data-toolTipName="Outer Ring Road" stroke="#3F2310" stroke-width="4" stroke-linecap="round" stroke-linejoin="round" stroke-miterlimit="10" d="
	M1944.6-23.4c1.1,0.8,2.2,1.7,3.3,2.5c10,16.1,19.9,32.3,29.9,48.4c0,0.9,0,2.4-0.3,4.3c-0.6,5.2-2,6.5-2.5,11
	c-0.4,3.4,0.4,3.2,0,6.8c-0.2,1.9-0.6,4.1-2.3,8.5c-1.2,3.2-3,7.5-5.8,12.5c-1.9,2.1-4.4,4.5-7.5,7c-1.3,1-4.4,3.4-8.8,5.8
	c-4.8,2.6-7.4,3.3-11.5,5c-3.8,1.6-9,4.1-15.1,8.3c-7.6-1.8-15.2-3.5-22.8-5.3c-1.5,0.1-3.4,0.5-5.3,1.8c-2.1,1.5-2.1,2.9-4.3,5.5
	c-1.4,1.7-3.5,4.3-6.8,5.3c-1,0.3-3.3,0.1-7.8-0.3c-3.7-0.3-5.6-0.5-7-0.8c-4.6-0.9-6.1-2.2-6.8-1.5c-0.7,0.6-0.5,2.9,4.5,10.8"/>
<path  fill="none" data-pathType="road" data-toolTipName="SH 17 Mysore Road" stroke="#3F2310" stroke-width="4" stroke-linecap="round" stroke-linejoin="round" stroke-miterlimit="10" d="
	M1553.1,240.6c0.1-1.2,0.3-2.9,0.8-5c0.3-1.3,0.7-2.8,1.5-5.8c1.3-4.8,1.5-5.1,1.8-5.5c1-1.6,1.8-1.8,4.5-4.3
	c1.9-1.7,3.1-2.8,4.3-4.3c1.8-2.3,1.5-3.2,4.5-10.5c0.6-1.4,1.3-3.1,2.3-5.3c1.3-2.9,2.2-4.8,3.3-6.5c2.6-4.3,4.3-3.7,9-9
	c1.5-1.6,3.5-4,5.5-7.5c2.4-4.3,2-5.6,4.3-8.5s3.3-2.4,6-5.5c2.1-2.4,1.8-3,4.8-8c2.5-4.3,4.2-7,7-9.8c2.5-2.5,2.7-1.8,6.8-5.3
	c3.9-3.4,3.9-4.1,7.8-7.5c4.4-3.9,4.3-2.8,7.8-6c4.3-4,5.2-6.3,8.3-7.5c0.5-0.2,2.1-0.8,4-2c1-0.7,1.8-1.3,2.3-1.8"/>
<path  fill="none" data-pathType="road" data-toolTipName="Kanakpura Road"  stroke="#3F2310" stroke-width="4" stroke-linecap="round" stroke-linejoin="round" stroke-miterlimit="10" d="
	M1695.6,273.2c0.7-1,1.6-2.5,2-4.5c0.5-2.6-0.2-4,0-6.8c0.1-2.3,0.7-3.1,1.5-6c0.7-2.6,2.4-8.4,1.8-14.8c-0.4-3.9-1.3-4.2-1-7.3
	c0.3-4,2.1-7.1,2.5-7.8c1.3-2.1,1.6-1.8,2.8-3.8c1.7-3,1-4.1,2.5-7.5c1.2-2.8,1.7-2.3,3.5-5.8c1.2-2.4,0.9-2.5,2.8-7
	c2.1-5,3.1-6.3,4-7.3c1.3-1.3,2.6-2.1,3.5-2.5"/>
<path  fill="none" data-pathType="road" data-toolTipName="Bannerghatta Main Road" stroke="#3F2310" stroke-width="4" stroke-linecap="round" stroke-linejoin="round" stroke-miterlimit="10" d="
	M1809.8,203.7c0.2,2.7,0.3,5.1,0.5,7c0.3,3.8,0.5,6,1,8.8c0.5,2.7,1,4.9,1.5,6.8c-5.8,8.5-6.8,14.1-6.5,17.8
	c0.1,0.9,0.3,2.8-0.3,5.3c-0.9,4-3.2,6.9-5,8.8c3.2,1.1,6.9,2.9,10.5,5.5c2.7,1.9,4.7,3.9,8.5,7.8c2.4,2.4,5.2,5.3,8.3,8.8
	c2,0.2,4.9,0.5,8.5,0.5c1.7,0,1.6,0,2.8,0c3.5,0.1,7.2,0.2,11.3,1.8c1.6,0.6,3.8,1.5,6,3.5c1.8,1.6,1.5,2.1,3.5,4
	c2.4,2.2,4.8,3.4,6.5,4.3c1.8,0.9,3.4,1.4,4.5,1.8c-0.3,0.7-1.2,3.5,0,6.5c0.2,0.5,1,2.4,3,3.8c1.3,0.9,2.1,1,7.3,1.8
	c4,0.6,8,1.3,8,1.3l0,0c3.2,3.5,5.8,6.6,7.8,8.8c4.5,5.2,5.2,6.3,6,7.5c2.1,3.5,3.6,7.4,4.3,9c0.9,2.3,1,3,2,5.3c1.5,3.4,2,3.6,3,6
	c2,4.7,1.1,6,2.8,9c0.8,1.5,2.3,3.5,5.3,5.3"/>
<path  fill="none" data-pathType="road" data-toolTipName="NH 7" stroke="#3F2310" stroke-width="4" stroke-linecap="round" stroke-linejoin="round" stroke-miterlimit="10" d="
	M1933,207.5c0.9,1.4,2.3,3.5,4,6c4.8,7.1,4.9,7,6,8.8c4.1,6.7,2.7,9,6.3,16.1c1.5,3,3.4,5.3,7,10c6.9,8.8,10.6,11.2,16.1,19.6
	c1.4,2.1,6.8,5.2,6.8,5.2c1.8,0.5,5.2,1.5,9.5,2.8c6.3,1.8,8,2.4,9.8,4c2.4,2.2,1.6,3.3,4,5.3s4.2,1.8,9.5,3.5
	c1.4,0.5,3.7,1.4,8.3,3.3c10.2,4.2,9,4.4,11.8,5c6.1,1.4,7.8-0.4,13.3,1.8c2.9,1.2,2.4,1.7,5.8,3.3c5.6,2.7,8.2,1.8,15.3,3.8
	c2.6,0.7,5.2,1.8,10.5,4c1.9,0.8,7,2.9,13.5,6.3c5.9,3,8.8,4.5,10.3,5.8c3.6,3.2,4.2,5.4,9.3,10.8c2.1,2.2,3.9,3.8,5,4.8"/>
<path  fill="none" data-pathType="road" data-toolTipName="State Highway 35"  stroke="#3F2310" stroke-width="4" stroke-linecap="round" stroke-linejoin="round" stroke-miterlimit="10" d="
	M2063.7-101.1c-0.1,2.5-0.1,5.7-0.3,9.5c-0.2,7-0.3,7.8-0.5,8.8c-1,4.9-2.4,5.6-2.5,9.5c-0.1,2.1,0.3,3.6,1,6.5
	c1.1,4.6,2,5.3,2.8,8.5c0.2,1,1.2,5.4,0.3,10.5c-0.3,1.7-1.7,5-4.5,11.3c-2.3,5.1-2.3,5.1-2.5,6c-0.9,4.9,1.6,6.4,1.8,12
	c0.1,4.2-1.2,7.4-2.3,10c-2.1,5.3-3.6,4.9-5.8,9.8c-0.8,1.9-1.6,5.9-3,13.8c-0.8,4.5-0.9,5.4-1.8,9.8c-1.7,9.2-2.2,10.5-2.5,11.3
	c-2.2,5.4-3.9,5.1-4.5,9c-0.6,3.6,0.3,7,1,9.8c0.7,2.6,0.9,2.4,2,6c1.5,5.1,2.3,7.8,1.3,9.5c-1.2,2.1-3.1,1.4-5.3,3.8
	c-1.9,2.1-1.9,4.2-2.5,7c-2,8.7-6.7,8.8-7.3,15.6c-0.1,1.2-0.3,6,2.5,10c2.3,3.3,4.8,3.4,8,7.8c1.9,2.5,2.8,4.8,3.3,6
	c1.9,4.9,1,6.5,2.5,13c0.9,3.8,1,2.5,3,9.3c1.9,6.6,2,8.5,4,10c2.1,1.6,3.1,0.4,6.8,2c3.2,1.4,5.1,3.4,8,6.5c3,3.2,4.7,5,5.5,8
	c0.8,2.8-0.1,3.5,0.5,6c1.2,4.6,5.3,7.4,6.8,8.3c2.6,1.7,7.3,2.4,16.6,3.8c4.1,0.6,6.7,0.9,8.8,1c3.1,0.2,5.8,0.3,8,0.3"/>
<path  fill="none" data-pathType="road" data-toolTipName="State Highway 35 Sarjapura, Attlibele Road" stroke="#3F2310" stroke-width="4" stroke-linecap="round" stroke-linejoin="round" stroke-miterlimit="10" d="
	M2078,309.4c0.6-1.4,1.6-3.6,2.8-6.3c2.9-6.5,2.9-6.6,3.3-7.3c3.2-5.5,5.4-4.7,6.8-8.8c0.9-2.8,0.3-4.5,2-7c1.2-1.7,2-1.8,3-3
	c2.4-2.9,1.1-6.2,1.3-12c0-1.4,0.9-5.7,2.8-14.3c1.7-8.2,2-8.4,2-10.5c0-2.7-0.6-5.9-2-12.3c-0.3-1.4-1.1-5.2-2.5-10.5
	c-2.1-8-2.2-7.2-2.5-9.5c-0.6-4-0.4-7.3,0-13.8c0.2-2.6,0.4-4.8,0.5-6.3"/>
<path  fill="none" data-pathType="road" data-toolTipName="National Highway 207" stroke="#3F2310" stroke-width="4" stroke-linecap="round" stroke-linejoin="round" stroke-miterlimit="10" d="
	M2098.1-126.2c0.3,1,0.8,2.5,1,4.3c0.3,2,0.5,3.8,0,5.8c-0.8,3.1-2.4,2.9-3.3,6c-0.6,2.3-0.2,4.3,0,5.5c0.5,2.5,1.3,3.4,2,5.3
	c1.2,3.2,0.2,4.3,0.5,10.3c0.3,6.7,1.6,6.2,1.3,10.8s-1.6,5.6-0.8,8.8c0.8,3.1,2.3,3.6,2.3,6c-0.1,2.3-1.5,2.5-3,6.3
	c-1,2.4-2.2,5.4-1,7.8c0.9,1.9,2.5,1.7,2.8,3.3c0.3,1.9-1.7,2.7-2.3,6c-0.3,1.5,0.2,1.4,0,3.3c-0.4,3.9-2.3,5.3-1.5,6.8
	c0.6,1.2,1.9,0.6,2.8,1.8c1.1,1.6-0.6,3.7-1.8,8.3c-1,3.8-0.1,3.6-1.3,8.5c-0.9,3.9-1.5,4.5-1.5,7c0,1.5,0,3.9,1.5,6.3
	c0.5,0.8,1.3,1.8,4,3.5c4.4,2.8,6.6,4.3,9.3,4.5c2.8,0.3,6.8-0.5,10-1.8c1.1-0.5,2.9-1.3,4.3-0.5c1,0.5,0.9,1.4,1.8,2.3
	c1.5,1.5,3.7,0.8,6.8,0.8c2.2,0,4.4,0.6,8.8,1.8c4.7,1.2,7,1.9,7.8,3.3s0.1,3.9-1.3,8.8c-0.7,2.5-1.2,4-1.8,5.8
	c-0.7,2.3-1.7,5.7-2.8,10"/>
<path  fill="none" data-pathType="road" data-toolTipName="Bangalore Hyderabad Highway" stroke="#3F2310" stroke-width="4" stroke-linecap="round" stroke-linejoin="round" stroke-miterlimit="10" d="
	M1813.8-86.1c0.6-1.5,1.5-3.7,2.3-6.3c1.4-4.6,1.8-8.2,2.3-12.3c0.4-3.4,0.9-7.7,0.8-13.3c-0.2-8.7-1.6-8.7-1.5-15.6
	c0.1-6.3,1.5-11.4,2.5-15.3c0.7-2.5,1.6-5.2,3.5-10.8c0.5-1.4,2.5-7.3,4-11.3c1.8-4.8,5.2-13,11.3-24.3l1.5-4.4
	c2.8-5.7,3.8-7.3,5.6-10.4c1.4-2.3,3.8-6.4,5.8-12c1-2.8,1.4-4.5,1.5-6.3c0.1-2.8-0.5-3.8-0.5-7c0-2.6,0.5-4.5,1-6.5
	c0.7-2.4,1.9-6,4.3-10l1.8-1.4c3.4-3,4.2-4.5,5.8-6.6c2.6-3.6,4.1-6.8,5.5-9.8c2.1-4.4,1.8-4.7,3.5-8c1.7-3.2,2.2-3.5,5.8-9
	c4.2-6.5,4-7,7-11.3c1.6-2.2,3.3-4.7,6-7.5c3.4-3.6,6.4-5.8,9.8-8.3c3.5-2.5,8.3-5.8,14.6-9"/>
<path  fill="none" data-pathType="road" data-toolTipName="Hesarghatta Main Road" stroke="#3F2310" stroke-width="4" stroke-linecap="round" stroke-linejoin="round" stroke-miterlimit="10" d="
	M1654-184.7c-0.1,1.6-0.6,3.5-2,4.7c-1.9,1.7-4.4,1-4.7,2c-0.3,1,2.2,2.8,4.7,3.7c3.3,1.2,4.6,0,6.3,1.3c1.4,1.1,0.9,2.1,2.7,5.7
	c0.4,0.8,1.7,3.3,4,5.7c1.9,2,2.3,1.6,5,4c0.8,0.7,2.6,2.6,6,6.3c2.7,2.9,2.9,3.2,3.7,3.7c2.8,1.8,5,1.4,5.3,2.7
	c0.4,1.5-2.6,2.6-2.3,4.3c0.3,1.9,4.3,1.6,5,3.7c0.7,2.2-3.3,3.9-3,7.3c0.2,2.4,2.3,2.6,2.7,5.3c0.4,2.7-1.4,3.7-1.3,6
	c0.1,1.7,1.2,4,5.7,6.7c0.3,7.4,0.7,14.9,1,22.3"/>
</svg>
