<?xml version="1.0" encoding="utf-8"?>
<!-- Generator: Adobe Illustrator 18.1.1, SVG Export Plug-In . SVG Version: 6.00 Build 0)  -->
<svg version="1.1" id="Layer_1" xmlns="http://www.w3.org/2000/svg" xmlns:xlink="http://www.w3.org/1999/xlink" x="0px" y="0px"
	 width="1920px" height="955px" viewBox="900 -417 1920 955" enable-background="new 900 -417 1920 955" xml:space="preserve">
<g id="Layer_3">
	<g id="Layer_6">
		<rect x="878.3" y="-408.1" fill="none" width="1921" height="891"/>
	</g>
	<g id="rail_lines">
		<path fill="none" stroke="#936E37" stroke-width="4" stroke-linecap="round" stroke-linejoin="round" stroke-miterlimit="10" d="
			M1504.2-237.8c8.2,9,14.7,16.4,18.9,21.3c12.8,14.9,15.4,18.8,23.2,25.8c3.9,3.4,10.9,9.8,21.6,15.6c9.8,5.4,13.4,5.4,23.8,10.2
			c1.3,0.6,14.7,6.9,26.9,16.3c9.9,7.7,9.4,10,37.4,42.5c11.3,13.1,14.6,16.3,20.2,19.2c8.9,4.5,14,3.5,22.2,10.2
			c3.1,2.5,8.1,6.6,11.6,13.6c3.3,6.4,2.4,9.7,6.3,13.3c3.8,3.5,8.8,4.2,12.2,4.6c7.2,0.9,12.6-1.1,14.9-2c2.7-1,7.9-3,11.9-8
			c2.4-2.9,1.8-3.6,4.9-9.7c4.4-8.2,6.6-12.3,10.6-13.6c5.1-1.6,8.2,2.8,12.6,0.3c2.7-1.4,3.7-4.1,4.9-7.3c2.2-5.5,1.5-8.4,2.4-12.9
			c1.9-10,7.9-10.3,9-17.9c0.5-3.6-0.7-4.9-7.6-19.2c-8.7-17.8-8.3-18.9-12.2-24.5c-5.6-7.7-7.5-7.1-11.6-13.9
			c-1.8-2.9-3-5.5-7.3-20.6c-4.8-16.8-7.3-25.4-8.3-34.8c-0.3-2.8-0.5-6.5-1-13.9c-0.9-14-0.7-16.5-1.3-22.2
			c-0.6-5-1.9-12.4-4.9-21.2"/>
		<path fill="none" stroke="#936E37" stroke-width="4" stroke-linecap="round" stroke-linejoin="round" stroke-miterlimit="10" d="
			M1721.6-45.6c1.9,4.5,4.8,11.5,9,19.9c3.6,7.4,5.5,10.5,13.9,26.2c9.7,17.9,11.8,22.4,13.3,29.5c0.3,1.4,1.7,8.2,0.7,16.9
			c-0.7,6.2-1.1,9.9-3.9,12.6c-2.5,2.3-3.9,1.4-14.9,4.3c-6.9,1.9-10.3,3.3-11.2,3.6c-4.9,2.1-7.4,3.2-9.7,5.3
			c-4.7,4.5-2.9,8.1-7.3,11.6c-3.7,3.1-5.8,1.1-9.9,3.9c-4.9,3.4-4,7.8-8,12.9c-2.6,3.3-4.4,3.5-16,9c-12.3,5.8-18.4,8.7-24.2,12.9
			c-7.3,5.4-12.9,11.5-13.3,11.9c-4.8,5.3-4.5,6.3-8,9.3c-5.2,4.4-7.6,3.5-17.5,8.6c-6.5,3.3-11.2,5.7-15.6,10.6
			c-4.4,4.9-3,6.1-7.3,11.9c-5,6.6-11,10.4-20.2,16.3c-7,4.4-9.2,4.9-11.9,8.6c-2.8,3.6-3.1,6.3-4.9,12.9
			c-2.5,8.4-4.9,16.7-10.2,24.8c-3.6,5.6-6.5,8-9.7,15.3c-1.1,2.7-1.8,4.8-2.7,8c-1.6,5.8-3.6,14-5.6,24.5"/>
		<path fill="none" stroke="#936E37" stroke-width="4" stroke-linecap="round" stroke-linejoin="round" stroke-miterlimit="10" d="
			M1817.7-42.3c2.4,9.6,6.4,15.2,9.7,18.5c5.2,5.5,10.6,7.5,10.6,11.9c-0.1,3.7-4,4.7-4.9,10.6c-0.2,1.2-0.9,5.2,1.3,8.3
			c2.1,2.9,5.8,3.6,11.2,3.9c11.1,0.7,14.6-1.4,21.6-1.3c12.3,0.1,12.4,6.5,26.5,8c10.2,1.1,9.4-2.5,22.9-2
			c10.5,0.3,12.7,2.5,26.2,3c8.3,0.3,8-0.5,14.6,0c11.8,0.9,13.9,3.5,22.9,4.3c11,1,11-2.8,24.5-3c9.3-0.2,9.3,1.6,25.8,3.3
			c13,1.4,19.5,2.1,27.2,1c11.1-1.6,13.1-4.5,22.9-4.3c3.6,0.1,10.4,0.3,17.9,3.9c10,5,15.2,13.3,17.2,17.2"/>
		<path fill="none" stroke="#936E37" stroke-width="4" stroke-linecap="round" stroke-linejoin="round" stroke-miterlimit="10" d="
			M1818-42.6c-3.5-0.7-9.3-1.7-16.3-2c-11-0.5-13.4,1.1-18.9-1c-7.4-2.9-7.8-7.8-14.6-9.7c-5.4-1.5-10.5,0.2-13.9,1.7"/>
		<path fill="none" stroke="#936E37" stroke-width="4" stroke-linecap="round" stroke-linejoin="round" stroke-miterlimit="10" d="
			M1758,29c6.2-5.3,12.4-10.6,18.5-16c12.1,10.2,20.4,11.1,25.8,9.9c9.1-2.1,11.8-10.3,20.2-9.7c4.3,0.4,4.3,2.7,16.3,8.3
			c6.5,3.1,5.5,2,11.9,4.9c8.7,4.1,11.6,6.7,16,5.6c2-0.5,4.6-2,4.9-3.9c0.4-2.2-2.2-3.7-4.6-7c-1.8-2.3-3.8-5.7-4.9-10.9"/>
		<path fill="none" stroke="#936E37" stroke-width="4" stroke-linecap="round" stroke-linejoin="round" stroke-miterlimit="10" d="
			M1895,76.7c-0.5-1.9-1.3-4.6-2.7-8c-3-7.1-6.4-11.2-9.7-16c-2.7-3.8-6.3-9.7-9.9-17.5c1.8-2.3,4.5-5.5,8.3-9
			c5.1-4.7,9.2-8.4,12.2-7.3c2.4,0.9,2,3.6,5.3,8.6c3,4.2,6.3,6.6,8.3,8c6.1,4.1,9.4,3.3,16.3,6.3c6,2.7,9.8,6.1,13.3,9.3
			c3.7,3.4,14.6,14.3,18.2,30.8c1.5,6.8-0.1,6.2,2,24.5c1.2,10.4,1.7,10.4,2,15.6c0.8,12.9-1.8,18.8-3,29.8
			c-0.4,3.3,0.4,13.1,2,32.5c2.2,26.7,3.3,40.1,3.9,44.1c0.9,5.1,2.5,12.2,3,22.6c0.4,6.7,0.2,12.1,0,16c-0.8,16.1-3,26.5-5.6,44.7
			c-1.2,7.9-2.2,19.5-4.3,42.7c-0.9,10-1.6,18.4,3,27.2c3.4,6.6,8.4,10.8,11.9,13.3"/>
		<path fill="none" stroke="#936E37" stroke-width="4" stroke-linecap="round" stroke-linejoin="round" stroke-miterlimit="10" d="
			M1780.3-159.9c-0.5-6.1,0.3-12.7,4.3-17.9c3.6-4.7,6.8-4,11.6-9.7c5.9-6.9,7.3-15.1,7.6-17.2c1.1-7.6-1.5-8.9,0.3-16
			c0.8-2.9,2.3-8.6,7-11.2c3.7-2.2,6.1-0.4,11.6-1.3c6.1-1.1,6.5-3.7,14.9-8.3c5.2-2.9,12.9-6.9,22.6-7.3c6.7-0.3,9.6,1.5,13.6-1
			c4.8-3,6.1-8.6,6.3-9.7c1.6-7.2-2.3-12.9-3-13.9"/>
	</g>
	<path fill="none" data-pathType="train" data-toolTipName="Bangalore International Exhibition Center - Anjanapura/NICE Junction" stroke="#D3002E" stroke-width="4" stroke-linecap="round" stroke-linejoin="round" stroke-miterlimit="10" d="
		M1652-61.2c10.9,4.8,21.9,9.7,32.8,14.4c1.6,1.2,3.7,2.8,6.6,3.9c3,1.3,5.6,1.9,7.6,2.2c9.5,6.2,19,12.4,28.5,18.5
		c1.1,0.9,2.7,2.4,3.6,4.8c0.5,1.1,1.8,4.3,0.3,7c-0.8,1.5-1.8,1.4-3.6,3.2c-0.6,0.6-2.9,2.9-3.8,6.3c-1.2,4.2,0.3,7.9,1,9.5
		c0.9,2.3,1.7,4,3.4,4.9c2.2,1.1,3.3-0.3,7.1,0.3c2.3,0.4,2.2,0.9,6.3,2.2c3.9,1.2,3.8,0.7,6,1.5c3.6,1.5,5.9,3.9,7.3,5.5
		c2.1,2.4,3.3,3.6,3.6,5.8c0.3,2-0.4,2.8-1.5,7.6c-0.7,3.2-1.1,4.8-1.2,6.3c-0.1,3.6,1.1,4.6,2.2,10.2c0.1,0.8,0.4,3.3,1,8.1
		c0.7,6.2,1.1,9.4,1,10.2c-0.4,4.2-1.8,5.8-0.8,9.2c0.7,2.4,1.9,3.7,2.2,3.9c2.7,2.9,6.4,3,7.3,3c0.6,12,1,20.9,1.3,25.7
		c0.2,2.4,0.1,4.7,0.2,7.1c0.2,3.3,0.4,4.8-0.5,6.8c-0.5,1.1-1.2,3-2.9,3.4c-2.1,0.7-3.3-1.6-5.1-1c-1.9,0.6-2.5,3.9-2.9,6.5
		c-0.1,0.8-0.4,2.9,0,8.5c0.4,5.1,0.8,5.7,0.5,8c-0.4,3.2-1.6,5.4-2.4,6.8c-3,5.5-5.3,4.4-9,10.2c-1.6,2.5-2.4,4.6-4.9,6.1
		c-1.1,0.6-1.4,0.5-3.3,1.3c-3.6,1.6-3.9,2.8-6.3,3.8c-3.9,1.8-5-0.3-8.3,1.5c-1.9,1.1-3.2,2.7-5.1,5.3c-1.9,2.5-1.4,2.5-2.7,3.9
		c-2.8,3.3-5.1,3.2-8.5,6.3c-1.4,1.3-2.2,2.5-3.6,4.6c-3.3,4.8-6.6,9.8-9.9,14.9"/>
	<path fill="none" data-pathType="train" data-toolTipName="Kengeri - Whitefield" stroke="#D3002E" stroke-width="4" stroke-linecap="round" stroke-linejoin="round" stroke-miterlimit="10" d="
		M1593.6,165c2-4.2,4.4-6.2,6.3-7.3c2.9-1.7,4.2-0.9,6.8-2.9c3.1-2.3,2.3-4,5.6-7.1c2.2-2.1,4.3-3.1,6.8-4.1c4-1.9,5.2-1.5,8.8-3.4
		c0.6-0.4,1.9-1.3,4.4-3.2c5.3-3.8,6.2-4.8,6.6-5.3c1-1.1,2.3-3,3.3-5.6c9.6-7.6,19.1-15.3,28.7-22.9c7.5,0.9,11.4-1.8,12.8-2.9
		c2-1.6,3.3-3.6,4.3-5.1c2.9-4.3,2.6-6.6,5.5-9.2c0.9-0.8,2.1-1.4,4.3-2.5c3.1-1.5,5.6-2.6,7.5-3.2c-1.9-4.7-3.7-9.4-5.6-14.1
		c0.8-1.9,1.9-4.6,3.6-7.8c2.5-4.5,3.8-6.9,6.5-9c1-0.8,3.9-3.1,8.5-3.4c2.8-0.3,5.1,0.2,6.5,0.7c0.9,0,2.2-0.2,3.4-0.7
		c2.6-0.9,4.1-2.5,4.9-3.3c2.2,0.1,5.4,0.2,9.3,0.3c9.2,0.3,10.6,0.3,13.1,0.5c3.7,0.3,9,1.1,15.3,3c3.5-0.9,6.2-2,8-2.9
		c3.5-1.7,5.1-3.2,9.2-4.4c2.2-0.7,3.3-1.1,5.1-1.2c1.8,0,3.5,0.3,9,2.9c5.3,2.5,5,2.7,8,3.8c2.1,0.8,5.1,1.8,9,2.4
		c3.8,0.5,6,0.9,8.8,0c2.1-0.6,3.4-1.6,6.1-3.4c2.2-1.5,3.8-3,4.9-3.9c1.6-0.2,3.7-0.3,6.5,0c3.7,0.5,5.2,1.4,7,0.5
		c1.4-0.7,1.9-2.2,3-4.8c1.3-3.3,0.8-4.1,2-5.6c1.1-1.3,2.5-1.9,4.6-2.7c3.4-1.3,4.5-0.7,6-2c1.6-1.5,0.8-2.7,2.2-3.8
		c2.2-1.9,5.1,0.1,9.5-0.5c1.9-0.3,1.8-0.8,7.3-3.6c6.5-3.4,11.6-5.4,13.1-6c1-0.4,3.3-1.1,8-2.7c5-1.7,6-2,7.6-2
		c0.6,0,3.7-0.1,7.5,1.3c1.7,0.7,3.1,1.6,5.6,3.3c4.7,3.2,4.4,3.7,6.6,4.6c2.1,0.9,4,1,8,1.3s4.6-0.1,5.8,0.7
		c2.2,1.4,2.8,4.2,3.3,7.3c0.8,4.3-0.2,5.3,1,8.6c0.4,1,1.1,3.1,3,4.9c3.4,3.4,8.1,3.7,10.4,3.8c1.8,0.1,4.6,0.2,7.8-1.3
		c0.5-0.2,2.6-1.3,4.6-3.6c2.7-3.2,2-4.7,4.6-8.5c1.4-2,3-4.1,5.6-4.8c0.6-0.1,1.7-0.3,6.5,1.2s5.6,2.3,9.5,3.3c3.3,0.9,4.9,1.3,7,1
		c4.4-0.7,7.1-4,7.6-4.8c1.6-2,2.2-3.8,2.9-6c0.8-2.7,1.1-4.9,1.2-6.5"/>
	
		<path fill="none" data-pathType="train" data-toolTipName="Nagawara - Gottigere" stroke="#D3002E" stroke-width="4" stroke-linecap="round" stroke-linejoin="round" stroke-dasharray="2.4892,7.9655" d="
		M1833.8-47.3c-0.5,1.5-1.2,4-2,7.1c-1.5,5.6-8.1,20.7-8.7,24c-0.8,4.7-6.1,12.8-7.6,15.1c-0.2,0.4,0.7,5,0.3,5.6
		c-1.7,2.2-2.7,3.3-5.5,7.4c-1.9,2.8-3.7,5.8-5.2,8.9c-1.6,3.5-5.7-2.4-7.3-1.5c-0.9,0.5-1.5,1.4-1.5,2.4c-0.1,1.5,1.3,2.5,2.4,3.4
		c5,4.6,3.7,6.2,7.5,8.5c2.8,1.7,3.9,1.2,5.8,3.2c0.5,0.6,2,2.2,2,4.3c0,1.9-1.1,2.6-2.2,5.1c-0.8,2-0.8,3-1.3,5.6
		c-1.2,6.5-2.4,6.4-3,10.7c-0.8,5.8,1.1,6.2,0,11.6c-0.4,2-1.2,3.9-2.9,7.8c-2.4,5.6-3,5.7-3.4,8.3c-0.2,1-0.3,1.8-0.2,9
		c0.1,6,0.2,5.7,0.2,7.1c-0.1,5.5-1,6.7-2,14.1c-0.7,5.3-0.8,9.2-0.8,12.1c-0.2,8.6,0.7,11,1.2,12.1c1.3,3.2-3.3,19-5.7,28.5
		c-1.4,5.6-2.2,5.5-3.6,14c-0.8,4.7-1.6,9.5-3.9,16.4c-2.9,8.7-4,9.8-5.2,15.8c-0.5,2.3,2,7.8,1.8,16.1c-0.3,9.9-0.1,9.3-0.3,12.9
		c-0.3,5.8-1,10.1-2.4,18.7c-1.4,9.2-2.1,11-3.8,12.4c-1.2,1-3.3,2.1-4.1,4.6c-0.2,0.6-0.7,2-0.2,3.3c0.8,2.3,3.6,2.7,7,4.1
		c2.3,1,4.2,2.4,8,5.1c6.2,4.5,6.1,6.3,11.4,9.7c2.3,1.4,4.3,2.7,7.5,3.4c4.3,1.1,5.8,0,11.1,1c4.3,0.8,7.4,2.3,8.1,2.7
		c3.7,1.9,3.3,4.5,9.3,6.6c11,3.9-0.6,9.9,5,13.8c7.3,4.8,21.5,4.3,22.7,5.9c1.2,1.6,0.1,2.6,3.3,6.5c3,3.7,4.4,5.7,5.2,6.9
		c2.1,3,1.9,4,5.6,13.1c0,0,2.7,7.3,4.9,12.8c1.1,2.6,3.6,6.4,7.2,9.2c2.4,1.9,5.7,2.3,7.2,5.1"/>
	
		<path fill="none" data-pathType="train" data-toolTipName="RV Road Interchange - Bomamasandra" stroke="#D3002E" stroke-width="4" stroke-linecap="round" stroke-linejoin="round" stroke-dasharray="2.4892,7.9655" d="
		M1766.4,131.9c22.5,0.2,44.8,0.4,67.3,0.6c81.2,79.9,158.1,164.8,230.5,255c1.1,1.3,2.1,2.7,3.2,3.9"/>
</g>
</svg>
