<?xml version="1.0" encoding="utf-8"?>
<!-- Generator: Adobe Illustrator 18.1.1, SVG Export Plug-In . SVG Version: 6.00 Build 0)  -->
<svg version="1.1" id="Layer_1" xmlns="http://www.w3.org/2000/svg" xmlns:xlink="http://www.w3.org/1999/xlink" x="0px" y="0px"
	 width="1920px" height="955px" viewBox="0 0 1920 955" enable-background="new 0 0 1920 955" xml:space="preserve">
<g id="Layer_12">
	
		<path fill="none" stroke="#AE539F" stroke-width="1.891" stroke-linecap="round" stroke-linejoin="round" stroke-miterlimit="10" d="
		M674.5,223.1c0,0-0.5,19-0.4,20.1c0,0.3,0.9,3.3,2.1,6.3c1.8,4.1,5.2,9.5,7.5,14.6c3.2,6.9,5.5,8.7,5.2,13c-0.3,3.9-4,8.4-7.7,14.5
		c-2.4,3.9-6.3,15.8-8.3,18.9c-2.5,3.8-3.3,6.1-3.5,7.1c-0.4,1.8-0.2,9.8-0.5,11.2c-0.3,1.4-2.7,4.3-3.1,5.6
		c-0.2,0.5,0.3,3.8,0.7,8.2c0.6,7.3-13.7,16.1-14.1,17.7c-0.4,1.7-1.1,5.2-1,6.5c0.1,0.7,0.9,2.5,2,3.6c1,1,0.6,8.7,0.8,9.3
		c0.2,0.6-1.1,5.4,0.4,7.1s75.7,50.2,77.2,51.9c1.5,1.6,10.4,53,10.8,53.8c0.5,0.8,3.1,1.8,3.7,2.7c0.5,0.9,0.5,5.1,2.3,8.5
		c0.6,1.2,4.1,4,7.4,7.4c6.1,6.3,11.7,12.2,13.9,14c2.2,1.8,14.6,10.2,17,11.9c1.5,1.1,12.5,5.7,20.9,8.5c4.7,1.6,8.7,2.5,9.2,2.4
		c1.4-0.2,7.7-3.9,8.6-3.9c0.4,0,5,2.2,10,5.4c7,4.4,15,10.1,15,10.1s4.8,6.4,6.1,6.9s8.7-0.1,11.1,0.5c2.5,0.6,5.8,1.3,8,1.4
		c2.1,0.2,21.8,0.7,22.8,1.2c1,0.6,4.3,3.4,4.6,4.6c0.3,1.1,0.7,3.9,1.5,6s8.9,15,9.9,16.5c1,1.5,22.9,16.4,25.1,18.6
		c2.3,2.2,17.7,16.5,18.5,18.4s1.1,8,1.2,9.5c0.2,1.4,1.3,6.9,2.1,7.3s37.1,11.3,38.1,11.9c0.4,0.3,3,4.6,6.6,9.3
		c5.6,7.3,11.7,14.6,12.8,16.2c0.3,0.5,5.2,3.9,11.4,9c4.8,4,10.3,9.1,15.8,13.7c10,8.4,17.7,14.9,19.1,15.7
		c1.4,0.9,22.6,9.8,24.1,10.7c1.4,0.9,3.4,12.4,3.9,13.4c0.5,1,5.7,2.9,7.4,3.1s8.8-1.1,10.3-1.1s6.6,0.9,7.5,1.1
		c0.5,0.1,0.8,1.3,1,2.5c0.2,1,0.4,2,0.1,2.4c-0.6,0.8-4.4,5.6-4.9,5.8s-2,0.3-2.4,0c-0.5-0.3-1.7-5.3-1.7-5.3"/>
	
		<path fill="none" stroke="#AE539F" stroke-width="1.891" stroke-linecap="round" stroke-linejoin="round" stroke-miterlimit="10" d="
		M1040,786.2c0,0,8.6-2.4,15.8-4.9c7.2-2.5,25.5-8.8,25.5-8.8s9.5-2,12.1-3c2.6-1,9.7-3.6,9.7-3.6s5.7-4.1,6.6-5.3
		c0.4-0.5,4.2-16.5,4.7-23.4c0.7-11.3,4.2-18.9,6.7-27.7c2.2-7.6,6.3-8.6,8-12.3c1.8-3.7,18.3-12.7,18.3-12.7"/>
	
		<path fill="none" stroke="#AE539F" stroke-width="1.891" stroke-linecap="round" stroke-linejoin="round" stroke-miterlimit="10" d="
		M866.5,396.8c0,0-2.9-8.8-4.1-12.2c-1.1-3.4-3.8-9.9-6.1-13.4c-2.3-3.5-23.6-36.2-24.8-38.6c-1.2-2.4-0.9-13-2.2-22.6
		c-1.3-9.6-2.6-20.2-2.7-22.5c-0.3-4.6-1-7.9-1.3-10.5c-0.3-2.6-5-19.6-5-19.6"/>
	
		<path fill="none" stroke="#AE539F" stroke-width="1.891" stroke-linecap="round" stroke-linejoin="round" stroke-miterlimit="10" d="
		M834.9,181.8c0,0-0.3,12.6-0.4,14.4s0.1,3-0.1,4.4c-0.1,1.4-0.3,3.7,0,5.4c0.3,1.8-1.8,1.9-1.7,5.9c0.1,2.3-1.2,17.2-0.9,19.1
		c0.3,2,2.2,5.4,2.2,5.4"/>
	<polygon fill="#AE539F" points="673.3,233.9 672.3,232.2 673.3,230.4 675.3,230.4 676.3,232.2 675.3,233.9 	"/>
	<polygon fill="#AE539F" points="675,249.4 673.5,248.1 673.9,246.1 675.8,245.5 677.3,246.8 676.9,248.7 	"/>
	<polygon fill="#AE539F" points="682.2,262.9 680.6,261.8 680.8,259.8 682.6,259 684.2,260.1 684,262.1 	"/>
	<polygon fill="#AE539F" points="614,265.8 612.4,264.7 612.6,262.7 614.4,261.9 616,263 615.8,265 	"/>
	<polygon fill="#AE539F" points="615,275.9 613.4,274.7 613.5,272.7 615.3,271.9 617,273.1 616.8,275 	"/>
	<polygon fill="#AE539F" points="619.6,286.4 618,285.3 618.2,283.3 620,282.4 621.6,283.6 621.5,285.6 	"/>
	<polygon fill="#AE539F" points="630.9,292 629.2,290.8 629.4,288.8 631.2,288 632.8,289.1 632.7,291.1 	"/>
	<polygon fill="#AE539F" points="688.9,277.9 687.4,276.6 687.8,274.6 689.6,274 691.1,275.3 690.8,277.2 	"/>
	<polygon fill="#AE539F" points="681.4,291.2 680.4,289.5 681.4,287.8 683.4,287.7 684.4,289.5 683.4,291.2 	"/>
	<polygon fill="#AE539F" points="674.8,306.7 673.5,305.2 674,303.3 676,302.9 677.3,304.4 676.8,306.3 	"/>
	<polygon fill="#AE539F" points="669.4,320.8 667.7,319.8 667.8,317.8 669.5,316.8 671.2,317.9 671.1,319.8 	"/>
	<polygon fill="#AE539F" points="836.5,190.3 834.7,191.3 833,190.2 833.1,188.3 834.8,187.3 836.5,188.3 	"/>
	<polygon fill="#AE539F" points="834.1,205.2 832.4,204.1 832.5,202.2 834.3,201.2 835.9,202.3 835.9,204.3 	"/>
	<polygon fill="#AE539F" points="832.1,221.8 830.4,220.7 830.5,218.7 832.3,217.8 834,218.9 833.9,220.9 	"/>
	<polygon fill="#AE539F" points="832.4,236 830.7,234.9 830.8,233 832.5,232 834.2,233.1 834.1,235.1 	"/>
	<polygon fill="#AE539F" points="822.6,266.3 820.7,265.9 820.1,264 821.4,262.5 823.3,263 823.9,264.9 	"/>
	<polygon fill="#AE539F" points="826.7,289.4 824.9,288.6 824.6,286.7 826.2,285.4 828,286.2 828.3,288.1 	"/>
	<polygon fill="#AE539F" points="829.8,312.5 827.9,311.8 827.7,309.8 829.3,308.6 831.1,309.4 831.4,311.3 	"/>
	<polygon fill="#AE539F" points="831.6,333.8 829.8,333 829.5,331.1 831.1,329.8 832.9,330.6 833.2,332.6 	"/>
	<polygon fill="#AE539F" points="843.4,351.3 841.4,351.4 840.4,349.7 841.3,347.9 843.3,347.8 844.3,349.5 	"/>
	<polygon fill="#AE539F" points="857,372.2 855,372.3 854,370.6 854.9,368.8 856.9,368.8 857.9,370.5 	"/>
	<polygon fill="#AE539F" points="865.5,393.4 863.6,393 862.9,391.2 864.2,389.6 866.1,390 866.8,391.9 	"/>
	<polygon fill="#AE539F" points="665.7,335.8 664.4,334.4 665,332.5 666.9,332 668.2,333.5 667.7,335.4 	"/>
	<polygon fill="#AE539F" points="661.1,353.6 659.6,352.2 660.2,350.3 662.1,349.7 663.5,351.1 663,353.1 	"/>
	<polygon fill="#AE539F" points="651.4,364.2 650,362.7 650.6,360.8 652.6,360.4 653.9,361.8 653.3,363.7 	"/>
	<polygon fill="#AE539F" points="654.7,377.4 652.9,376.6 652.7,374.7 654.3,373.5 656.1,374.3 656.3,376.3 	"/>
	<polygon fill="#AE539F" points="663.6,392.6 661.8,393.5 660.2,392.4 660.3,390.4 662.1,389.5 663.7,390.6 	"/>
	<polygon fill="#AE539F" points="677.6,402.2 675.9,403 674.2,402 674.3,400 676.1,399.1 677.7,400.2 	"/>
	<polygon fill="#AE539F" points="690.1,410.4 688.4,411.3 686.7,410.2 686.8,408.2 688.6,407.3 690.2,408.4 	"/>
	<polygon fill="#AE539F" points="704.2,419.9 702.4,420.8 700.7,419.7 700.8,417.7 702.6,416.8 704.3,417.9 	"/>
	<polygon fill="#AE539F" points="718.6,429.3 716.8,430.2 715.1,429.1 715.2,427.1 717,426.2 718.7,427.3 	"/>
	<polygon fill="#AE539F" points="732.6,438.8 730.8,439.7 729.1,438.6 729.3,436.6 731,435.7 732.7,436.8 	"/>
	<polygon fill="#AE539F" points="735.5,453.3 733.6,452.7 733.2,450.8 734.6,449.4 736.5,450 737,451.9 	"/>
	<polygon fill="#AE539F" points="738.7,469.9 736.8,469.3 736.3,467.3 737.8,466 739.7,466.6 740.1,468.5 	"/>
	<polygon fill="#AE539F" points="741.2,484 739.3,483.4 738.9,481.5 740.3,480.1 742.2,480.7 742.7,482.6 	"/>
	<polygon fill="#AE539F" points="746.2,494.7 744.4,495.6 742.8,494.4 742.9,492.4 744.7,491.6 746.4,492.7 	"/>
	<polygon fill="#AE539F" points="750.7,506.3 748.7,506.2 747.8,504.5 748.8,502.8 750.8,502.9 751.8,504.6 	"/>
	<polygon fill="#AE539F" points="770.1,525.6 768.2,525.9 766.9,524.5 767.5,522.6 769.5,522.2 770.8,523.7 	"/>
	<polygon fill="#AE539F" points="785.9,536.4 784.1,537.2 782.4,536.1 782.6,534.2 784.4,533.3 786,534.4 	"/>
	<polygon fill="#AE539F" points="802.8,543.1 801.4,544.5 799.4,544 798.9,542.1 800.3,540.7 802.2,541.2 	"/>
	<polygon fill="#AE539F" points="818.8,548.5 817.4,549.9 815.4,549.4 814.9,547.5 816.3,546.1 818.2,546.6 	"/>
	<polygon fill="#AE539F" points="836.9,549.6 835.5,551.1 833.6,550.6 833.1,548.6 834.4,547.2 836.4,547.7 	"/>
	<polygon fill="#AE539F" points="852.8,560.3 851.4,561.7 849.4,561.2 848.9,559.3 850.3,557.9 852.2,558.4 	"/>
	<polygon fill="#AE539F" points="868.1,567.2 866.7,568.7 864.8,568.2 864.2,566.3 865.6,564.8 867.5,565.3 	"/>
	<polygon fill="#AE539F" points="887.9,569.2 886.5,570.6 884.6,570.1 884,568.2 885.4,566.7 887.3,567.2 	"/>
	<polygon fill="#AE539F" points="905.4,577.2 904,578.6 902,578.2 901.5,576.3 902.9,574.8 904.8,575.3 	"/>
	<polygon fill="#AE539F" points="916,596.6 914.6,598 912.7,597.5 912.2,595.6 913.6,594.2 915.5,594.7 	"/>
	<polygon fill="#AE539F" points="932.2,607.7 931.6,609.6 929.7,610 928.3,608.6 928.9,606.7 930.9,606.2 	"/>
	<polygon fill="#AE539F" points="944.7,617.9 944.1,619.8 942.2,620.2 940.8,618.8 941.4,616.9 943.4,616.5 	"/>
	<polygon fill="#AE539F" points="956.5,629.3 955.9,631.3 954,631.7 952.6,630.2 953.2,628.3 955.2,627.9 	"/>
	<polygon fill="#AE539F" points="961.9,645.5 960.6,647 958.6,646.6 957.9,644.8 959.2,643.2 961.2,643.6 	"/>
	<polygon fill="#AE539F" points="975.8,653.1 976.2,655 974.7,656.3 972.8,655.6 972.4,653.6 974,652.4 	"/>
	<polygon fill="#AE539F" points="994.4,658.8 994.8,660.8 993.3,662.1 991.4,661.4 991,659.4 992.6,658.2 	"/>
	<polygon fill="#AE539F" points="1009.9,674.1 1009,675.9 1007,676 1005.9,674.3 1006.8,672.6 1008.8,672.4 	"/>
	<polygon fill="#AE539F" points="1021.4,687.6 1021,689.5 1019.1,690.2 1017.6,688.9 1018,687 1019.9,686.3 	"/>
	<polygon fill="#AE539F" points="1038,701.5 1037.1,703.3 1035.2,703.4 1034.1,701.8 1035,700 1036.9,699.9 	"/>
	<polygon fill="#AE539F" points="1052.3,713.6 1052,715.5 1050.1,716.2 1048.6,714.9 1048.9,712.9 1050.8,712.3 	"/>
	<polygon fill="#AE539F" points="1068.3,726.1 1067.9,728 1066,728.7 1064.5,727.4 1064.9,725.4 1066.7,724.8 	"/>
	<polygon fill="#AE539F" points="1091.4,737 1090.5,738.8 1088.5,738.9 1087.4,737.2 1088.3,735.4 1090.3,735.3 	"/>
	<polygon fill="#AE539F" points="1099.2,751.7 1098.8,753.6 1097,754.3 1095.5,753 1095.8,751.1 1097.7,750.4 	"/>
	<polygon fill="#AE539F" points="1045.7,784.5 1045.3,786.4 1043.5,787.1 1042,785.8 1042.3,783.8 1044.2,783.2 	"/>
	<polygon fill="#AE539F" points="1066.7,777.5 1066.3,779.5 1064.4,780.1 1062.9,778.8 1063.3,776.9 1065.1,776.2 	"/>
	<polygon fill="#AE539F" points="1092.1,770 1091.8,771.9 1089.9,772.6 1088.4,771.3 1088.7,769.4 1090.6,768.7 	"/>
	<polygon fill="#AE539F" points="1116.6,736.3 1116.3,738.3 1114.5,739.1 1112.9,737.9 1113.1,735.9 1114.9,735.1 	"/>
	<polygon fill="#AE539F" points="1122.4,711.2 1121.9,713.1 1120,713.7 1118.6,712.3 1119.1,710.4 1121,709.8 	"/>
	<polygon fill="#AE539F" points="1139.9,690.7 1138.5,692.1 1136.6,691.7 1136,689.8 1137.4,688.3 1139.3,688.8 	"/>
	<polygon fill="#AE539F" points="1114.1,751.7 1113.8,753.6 1111.9,754.3 1110.4,753 1110.8,751.1 1112.6,750.4 	"/>
	<polygon fill="#AE539F" points="1118.5,761.1 1118.1,763.1 1116.3,763.8 1114.7,762.5 1115.1,760.5 1117,759.9 	"/>
	<polygon fill="#AE539F" points="760.5,515.7 758.6,516 757.3,514.5 757.9,512.6 759.9,512.3 761.2,513.8 	"/>
	
		<path fill="none" stroke="#AE539F" stroke-width="1.891" stroke-linecap="round" stroke-linejoin="round" stroke-miterlimit="10" d="
		M611,260.1c0,0,4.9,5.2,5.3,6.4c0.4,1.2-1,6.2-1,7.1c0,0.9,2.8,10,4.2,10.7c1.4,0.7,14.4,7.4,14.4,7.4"/>
</g>
<path fill="none" stroke="#6AC8CE" stroke-width="1.9071" stroke-linecap="round" stroke-linejoin="round" stroke-miterlimit="10" d="
	M606.7,254.7c1.9,0.5-5.4-3.5-5.7-4.4c-0.3-1-0.8-4.3-0.7-5.5c0-0.5,11.8-15.8,24.6-33.3c17.2-23.4,35.5-48.2,36.8-50.7
	s2.4-7.5,1.8-9.4c-0.5-2-15.1-36.8-15.1-36.8"/>
<polyline fill="none" stroke="#6AC8CE" stroke-width="1.9071" stroke-linecap="round" stroke-linejoin="round" stroke-miterlimit="10" points="
	717.3,100.9 606.5,252.2 608.2,258.4 616.4,259.2 661.9,303.6 668.8,346.6 664.6,368.9 665.6,389 667.4,393.5 666.5,432.7 "/>
<path fill="none" stroke="#6AC8CE" stroke-width="1.9071" stroke-linecap="round" stroke-linejoin="round" stroke-miterlimit="10" d="
	M636.7,213.1l4.3,3.6l25.4,42l5.3-3.2l20.8,24.6l-1.2,1.8l15.2,16.8l0.7,12.6l19.8,16.1l-0.9,2.9c0,0,3.3,2.7,6.9,3.1
	c3.6,0.4,23.2-5.4,27.6-5.7c4.4-0.3,16.8,1.2,16.8,1.2l8.3-10.5l6,7.2c0,0,15.5-10.4,19.7-13.6c4.2-3.2,8.7-4.7,8.7-4.7
	s-43.7-31.1-48.8-34.7c-5.1-3.6-3.3-12.1-10.3-14.7c-6.9-2.6-8.8-6.5-8.8-6.5l3.5-3.7l-5.3-18.3l6.8-6.5c0,0-1.4-1.4-3.4-4.8
	c-2-3.4-0.3-7.7-0.3-7.7l-21.4,2.3l-33.4-29.2"/>
<path fill="none" stroke="#6AC8CE" stroke-width="1.9071" stroke-linecap="round" stroke-linejoin="round" stroke-miterlimit="10" d="
	M820,307.4l33.3,55.7l8.9,11l6.8,15.8l5.6,16.1l3.3,4.7l0.8,17.1c0,0,2.2,5.9,2.1,11c-0.1,5.1,1.2,16.2,1.2,16.2s-0.5,6.9-7.6,14.3
	c4.6,4.7,18.8,11.9,20,14.7s43.6,24.6,43.6,24.6s-4.2,12.1-8.5,16c-3.2,3-15.8,17.6-16,22.7c-0.2,5.1,3.3,11.8,4,17.2
	c0.7,5.4-0.2,69.4-0.2,69.4"/>
<polyline fill="none" stroke="#6AC8CE" stroke-width="1.9071" stroke-linecap="round" stroke-linejoin="round" stroke-miterlimit="10" points="
	732.1,104.8 839.9,104.8 880.8,89.3 "/>
<path fill="none" stroke="#6AC8CE" stroke-width="1.9071" stroke-linecap="round" stroke-linejoin="round" stroke-miterlimit="10" d="
	M783.8,280.9c0,0,9.2-8.2,18.5-16c4.2-3.5,8.3-6.4,11.7-9.3c4.6-3.8,6.7-6.3,7.1-6.4c1.3-0.2-1.7-6.7-5.3-14.7
	c-1.2-2.7-1.4-5.8-1.8-8.3c-0.5-3.2,0-9.4,0.6-16.2c0.4-5.6,0.6-12.4,1.1-17.7c0.5-5.7,0.9-11.6,1.1-14c0.2-4,1.6-10.5,2.3-18.7
	c0.7-8.8,0.9-17.5,1.5-21.9c1.5-11,1.5-35.2,1.5-35.2"/>
<path fill="none" stroke="#6AC8CE" stroke-width="1.9071" stroke-linecap="round" stroke-linejoin="round" stroke-miterlimit="10" d="
	M910.6,216.8c0,0-46,12.3-48,12.9c-2.1,0.6-4.2,1-5.5,1.9c-1.2,0.9-4.2-0.1-6.2,0.8c-1.4,0.6-4.6,2.3-7.8,4
	c-1.7,0.9-3.7,1.8-4.8,2.5c-3.3,2.3-15.9,9.7-15.9,9.7s3.1,10.8,5.2,19.4c1,4,1.6,8.7,1.8,9.5c2.4,11.4,7.5,57.7,7.5,57.7"/>
<g id="Layer_8">
	<g>
		<path fill="none" d="M820.5,126.2"/>
	</g>
</g>
</svg>
