<?xml version="1.0" encoding="utf-8"?>
<!-- Generator: Adobe Illustrator 18.1.1, SVG Export Plug-In . SVG Version: 6.00 Build 0)  -->
<svg version="1.1" id="Layer_1" xmlns="http://www.w3.org/2000/svg" xmlns:xlink="http://www.w3.org/1999/xlink" x="0px" y="0px"
	 width="1920px" height="955px" viewBox="930 -447 1920 955" enable-background="new 930 -447 1920 955" xml:space="preserve">
<path fill="#66D128" d="M2118.1,354.7c-0.4-2.9-0.9-5.9-0.6-8.9c0-0.6,0-1,0.1-1.6c-0.1-0.2-0.3-0.4-0.4-0.6
	c-0.2-0.2-0.4-0.4-0.6-0.6c-2-1.6-3-4.7-2.9-7.1c0-1.9,0.6-3.7,1.5-5.3l-0.1-0.1c-0.1-0.1-0.2-0.3-0.3-0.4s-0.2-0.3-0.3-0.5
	c0-0.1-0.1-0.3-0.1-0.4s0-0.1-0.1-0.2c0-0.2,0-0.5,0-0.7c0,0,0,0,0-0.1c0-0.2,0-0.4,0.1-0.5c0.2-1,0.5-2,0.8-3
	c0.1-0.4,0.3-0.8,0.5-1.2c0-0.1,0.1-0.2,0.1-0.3c0.1-0.3,0.3-0.6,0.4-0.9c0.5-1,1-1.9,1.4-2.9c-0.1-1,0-2-0.1-3
	c0-10.7,1.4-21.4,0.2-32c-0.4-2.2-0.8-4.4-1.7-6.5c-0.4-0.8-0.9-1.7-1.4-2.5c-0.4-0.5-0.9-0.9-1.3-1.4c-0.6-0.4-1.1-0.7-1.7-1
	c-1.4-0.5-2.7-1.3-3.8-2.4c-0.5-0.7-1-1.4-1.6-2.1c-0.5-0.8-0.8-1.7-1-2.6c-1.6-0.2-3.1-0.3-4.7-0.4c-0.4,0-0.8-0.1-1.2-0.1
	c-0.1,0-0.3,0-0.4-0.1c-0.7-0.1-1.5-0.3-2.2-0.6c-0.1-0.1-0.3-0.1-0.4-0.2c-0.1-0.1-0.3-0.2-0.4-0.2c-0.1-0.1-0.3-0.3-0.4-0.5l0,0
	c0,0,0,0,0-0.1s0-0.1-0.1-0.2c0-0.2-0.1-0.6-0.1-0.8s0-0.4,0-0.6c0-0.1,0.1-0.9,0.2-1.1c0.7-3.4,2.3-6.7,2-10.2
	c-0.1-0.8-0.3-1.5-0.7-2.1c0.1-0.8,0-1.8-0.5-2.6c-1-1.8-1.7-3.6-2.9-5.2c-1.5-2.2-3.5-3.8-5.8-5.1c-2-1.1-4-2-5.9-3.2
	c-0.8-0.5-1.5-1-2.2-1.5c-0.2-0.1-0.4-0.3-0.5-0.4c-0.4-0.4-0.8-0.7-1.2-1c-0.5-0.5-1-1-1.4-1.6c0,0-0.5-0.7-0.6-0.8
	c-0.3-0.5-0.5-0.8-0.8-1.3c0-0.1-0.1-0.1-0.1-0.2c0-0.1-0.1-0.2-0.1-0.3c-0.2-0.4-0.3-0.8-0.4-1.2c-0.1-0.2-0.2-0.8-0.2-1
	c0-0.4-0.1-0.8-0.1-1.2c-0.1-2.3-0.2-4.7-0.7-7c-0.5-2-1.5-4-2.4-5.8c-3.8-7.2-10.3-13.4-18.7-14.1c-2.3-0.2-4.7,0.3-6.9,0.7
	c-2.2,0.5-4.4,1-6.7,1.6c-1.8,0.5-3.6,0.7-5.3,1.4c-1.9,0.8-3.7,1.7-5.6,2.5c-0.2,0.1-0.3,0.1-0.5,0.2c-0.1,0.1-0.3,0.1-0.5,0.2
	c0,0,0-0.1,0.1-0.2c0.3-0.6,0.7-1.2,1-1.8c0.2-0.3,0.4-0.5,0.5-0.8c0.1-0.1,0.1-0.2,0.2-0.2c0.3-0.4,0.7-0.7,0.9-1
	c0.1-0.1,0.3-0.2,0.4-0.3c0.5-0.4,0.9-0.7,1.5-1c1.9-1.3,3.7-2.7,5.5-4.1c3.4-2.8,6-6.3,8.2-10.1c0.9-1.7,1.8-3.5,2.1-5.4
	c0.4-2.5,0.3-4.8-0.2-7.2c-0.3-1.8-0.9-3.6-1.4-5.4c-0.1-0.5-0.2-0.9-0.3-1.4c0-0.1,0-0.2-0.1-0.3c0-0.1,0-0.3-0.1-0.3
	c-0.1-0.5-0.1-0.9,0-1.3c0,0,0,0,0-0.1s0.1-0.5,0.1-0.6l0,0c0,0,0.1-0.1,0.2-0.1c0.2-0.1,0.3-0.1,0.5-0.2c0.4-0.1,0.7-0.2,1-0.2l0,0
	c0.1,0,0.2,0,0.3,0c0.8-0.1,1.7-0.1,2.5-0.2c1.9-0.1,3.7-0.4,5.5-0.8c2.3-0.7,4.5-1.5,6.7-2.5c2.1-1,4-2.3,5.5-4.2
	c1.3-1.8,1.3-4,1-6c-0.3-2.1-0.9-4-1.7-5.9c-0.5-1.2-1-2.4-1.6-3.6c-0.2-0.5-0.4-1-0.7-1.5c0,0,0-0.1-0.1-0.2
	c-0.1-0.3-0.2-0.6-0.3-0.8c-1.4-3.8-1.4-8.2-3.9-11.5c-1.5-2-3.5-3.7-5.8-4.6c-2.2-1-4.6-1.6-7-2.1c-3.7-0.7-7.4-1.2-11.1-1.6
	c-0.4,0-0.8-0.1-1.1-0.1c-0.1,0-0.2,0-0.3,0h-0.1c-0.8-0.1-1.7-0.3-2.5-0.4c-0.8-0.2-1.6-0.4-2.4-0.6c-0.1,0-0.4-0.2-0.6-0.3
	c-0.3-0.1-0.5-0.3-0.7-0.4c-0.4-0.2-0.8-0.4-1.2-0.5c-0.3-0.3-0.6-0.6-0.9-0.8c-0.9-0.6-1.9-1.2-2.9-1.9c-0.5-0.3-0.9-0.7-1.4-1
	c-0.2-0.2-0.5-0.4-0.7-0.5c-0.1-0.1-0.3-0.2-0.4-0.3c-1.9-1.4-3.7-3-5.5-4.5c-3.8-3.2-7.6-6.4-11.8-9.2c-1.9-1.2-3.9-2.5-6.1-3.4
	s-4.4-1.5-6.7-2.1c-1-0.3-2-0.6-2.9-0.8c-0.1,0-0.2-0.1-0.3-0.1s-0.3-0.1-0.4-0.2c-0.5-0.2-0.9-0.5-1.3-0.8l0,0
	c-0.2-0.2-0.4-0.4-0.5-0.5c0,0,0-0.1-0.1-0.1c-0.2-0.2-0.3-0.5-0.4-0.7c-0.7-1-1.3-2.1-1.9-3.1c-1-1.4-1.9-3.2-3.5-3.9
	c-2.1-0.9-4.4-0.8-6.6-0.9c-5.5-0.3-11.1-1.2-16.6-1.6c-2.3-0.2-4.7-0.3-7.1-0.1c-0.8,0.1-1.7,0.2-2.5,0.3c-0.3,0-0.6,0-0.9,0.1
	c0-0.1,0-0.2,0-0.3c0.3-1.4,0.7-2.7,0.8-4.1c0.1-1.3,0.1-2.6-0.1-3.8c-0.6-5.3-2.6-10.3-4-15.4c-0.3-1.1-0.6-2.3-0.7-3.5
	c0,0,0,0,0-0.1l0,0c-0.1-0.6-0.2-1-0.2-1.6c-0.1-0.6-0.2-1.2-0.3-1.9c-0.4-2-0.7-3.9-1.1-5.9c0.4-2.4,0.7-4.9,0.7-7.3
	c0-0.9,0-1.9-0.1-2.9c0.4-1.2,0.9-2.4,1.3-3.6c1.4-4.1,2.5-8.3,2.7-12.7c1.2-2.2,1.2-4.5,0.6-7c-0.3-1.5-0.9-2.9-1.5-4.2
	c-0.8-1.8-1.4-3.7-2.5-5.3c-0.9-1.3-2-2.5-3.1-3.7c-1.9-2.9-4.3-5.6-7-7.9c-1.9-1.5-3.8-2.8-6-3.7c-2.5-1.1-5.1-1.9-7.8-2.5
	c-2.4-0.6-4.9-1.1-7.3-1.8c-1.1-0.3-2.3-0.7-3.4-1.1h-0.1c-0.2-0.1-0.4-0.2-0.6-0.3c-0.5-0.2-0.9-0.5-1.4-0.8
	c-0.2-0.1-0.4-0.2-0.5-0.4c-0.3-0.3-0.6-0.5-0.8-0.8c-0.1-0.2-0.2-0.4-0.3-0.6v-0.1c-0.1-0.2-0.1-0.4-0.2-0.6c0-0.1,0-0.1-0.1-0.2
	c0-0.1,0-0.3,0-0.4c0-0.4,0-0.8,0-1.2c0-0.5,0-0.9,0.1-1.3l0,0c0-0.2,0.1-0.5,0.1-0.7c0-0.1,0.1-0.2,0.1-0.3c0.1,0,0.3,0,0.4,0
	c1.6,0,2.8-0.4,4.2-1.1c1-0.5,1.9-1.2,2.9-1.8c2.1-1.2,4-2.5,5.7-4.1c1.9-1.7,3.4-3.8,4.7-5.9c1.2-1.8,2.2-3.9,2.6-6.1
	c0.6-2.6,0.4-5-0.1-7.6c-0.1-0.5-0.2-1-0.3-1.5c0-0.9-0.4-1.9-1.1-2.5c-0.1-0.1-0.3-0.4-0.4-0.5c-0.1-0.1-0.1-0.3-0.2-0.3
	c-0.2-0.6-0.3-1.1-0.4-1.7c-0.4-1.7-0.8-3.3-1.8-4.7c-1.9-2.7-4.6-4.4-7.3-6.1c-0.6-0.4-1.1-0.7-1.7-1.1c0,0-0.4-0.3-0.5-0.4
	c-0.2-0.2-0.4-0.4-0.6-0.5c-0.3-0.2-0.5-0.5-0.7-0.8c-0.1-0.1-0.1-0.1-0.2-0.2l-0.1-0.1c-0.5-0.7-0.9-1.5-1.4-2.2
	c-1-1.4-2.2-2.7-3.3-4.1c0.3,0.3-0.4-0.5-0.4-0.6c-0.1-0.1-0.6-1.1-0.2-0.3c-0.1-0.2-0.1-0.3-0.1-0.3c0-0.1,0-0.2,0-0.3
	c-0.1-0.6,0-1.2,0-1.7c0-2.1-0.7-4-1.8-5.8c-0.2-0.4-0.4-0.7-0.6-1l-0.4-0.7c-0.1-0.2-0.1-0.3-0.1-0.5c0.1,0.3,0-0.6,0-0.7l0,0
	c0-0.3,0.1-0.5,0.2-0.7c0,0,0,0,0-0.1c0.1-0.2,0.2-0.5,0.4-0.7c0.1-0.2,0.8-1.1,0.7-1c0.3-0.4,0.7-0.8,1-1.2
	c1.6-1.8,3.4-3.5,4.4-5.7c1.3-2.9,1.2-5.8,0-8.7c-2.6-6.4-6.8-11.7-12.1-16.2c-2.6-2.2-5.6-4-8.4-6c-1-0.7-1.9-1.4-3-2.6
	c0,0-0.5-0.7-0.5-0.6c-0.2-0.3-0.4-0.5-0.5-0.8c-0.6-0.9-1.1-1.8-1.5-2.7c-1.5-2.7-2.2-5.7-1.6-8.6c0.7-3.7,1.9-7.4,3.3-10.9
	c2.6-6.6,6.8-13.3,10.6-19.6c3.8-6.4,8-12.8,9.4-20.3c1.2-6.7,1.3-13.7,0.1-20.4c-1.1-6.2-4.3-11.8-9.2-15.7
	c-2.6-2.1-5.6-3.7-8.4-5.4c-3.1-1.8-6-4-9.3-5.5c-3.7-1.7-7.8-2.7-11.9-3.4c-2.6-0.5-5.2-0.6-7.8-0.8h-0.1c0,0,0,0-0.1,0
	c-0.3,0-0.6-0.1-0.9-0.2c-0.6-0.1-1.1-0.2-1.7-0.4c-0.1,0-0.3-0.1-0.5-0.2c-0.1-0.1-0.2-0.1-0.3-0.2l0,0l0,0c0-0.3,0-0.6,0-0.9
	c0-0.1,0.1-0.5,0.1-0.6c0.3-1.5,0.7-2.9,1.2-4.3c1-2.9,2-5.8,2.9-8.8c1.2-3.7,2.2-7.4,2.2-11.3c-0.1-3.9-0.8-7.8-2.4-11.3
	c-1.5-3.4-4.2-6-7-8.3c-2.4-1.9-5-3.6-7.5-5.3c-0.6-0.4-1.2-0.8-1.7-1.2c-0.2-0.1-0.4-0.3-0.6-0.4c0.3,0.2-0.8-0.6-0.7-0.6
	c-1.4-1.1-2.8-2.2-4.3-3.3c-4.9-3.6-10-7-15.2-10.1c-0.3-0.8-0.8-1.7-1.4-2.3c-0.3-0.3-0.6-0.6-0.8-0.9c-1.1-1.6-1.9-3.3-2.7-5.1
	c-1-2.3-1.9-4.7-3.2-6.9c-1.3-2.2-3-4.3-5-6c-2.1-1.7-4.2-3.2-6.7-4.3c-2.7-1.2-5.6-2.2-8.6-1.9c-1.7,0.2-3.1,0.6-4.4,1.8
	c-1.2,1.2-1.8,2.8-1.9,4.4c0,1.7,0.7,3.2,1.8,4.4c1,1,2.9,2,4.4,1.9c0.4-0.1,0.8-0.1,1.2-0.1c0.6,0.1,1.2,0.3,1.9,0.6
	c1.2,0.6,2.4,1.3,3.5,2.1c0.7,0.6,1.3,1.2,2,1.9c1.1,1.6,2,3.4,2.7,5.1c0.4,0.9,0.7,1.8,1.1,2.7c1.5,1,3,2.3,4.3,3.6
	c6.1,6.1,9.6,14.4,9.6,23.1c0,6.4-1.9,12.7-5.4,18c0.1,0.1,0.3,0.1,0.4,0.2c-0.6,1.2-1,2.4-1.4,3.6c3.6,1.6,6.9,3.8,9.7,6.7
	c5.2,5.2,8.4,12,9.3,19.2c5.8,1.4,11.2,4.4,15.5,8.7c1.6,1.6,3.1,3.4,4.3,5.3c3.5,1,6,4.2,6,8c0,1.6-0.5,3.1-1.2,4.3
	c0.3,1.8,0.5,3.6,0.5,5.4c0,5.7-1.6,11.3-4.4,16.2c-0.1,0-0.1,0-0.2,0c-0.5,2.2-1.2,4.5-1.8,6.7c-0.3,1.1-0.5,2.2-0.7,3.3
	c-0.3,1.1-0.7,2.1-1.1,3.2c-0.3,0.9-0.5,1.9-0.8,2.7c-0.3,1.1-0.7,2.2-1,3.3c-0.7,2.2-1.4,4.3-1.7,6.6c0,0.2-0.1,0.4-0.1,0.5
	c0.1,0,0.3,0,0.5,0c4.5,0,8.3,3.8,8.3,8.3s-3.8,8.3-8.3,8.3c-1.3,0-2.6-0.3-3.7-0.9c0.4,1.9,1.1,3.7,2,5.4c0.7,1.2,1.6,2.2,2.3,3.5
	c0.2,0.6,0.3,1.1,0.4,1.7c0.2,1.9,0.4,3.7,0.8,5.6c1.9-1.1,4.3-1.6,6.5-0.9c4.4,1.2,6.9,5.8,5.8,10.2c0,0.1-0.1,0.2-0.1,0.4
	c-0.1,1,0,2,0,3.1c0,2-0.2,3.9-0.5,6c0.1-0.7,0.2-1.5,0.3-2.2c-0.2,1.6-0.2,3.1-0.4,4.7s-0.4,3.1-0.7,4.7c-0.3,2.4-0.5,4.9-1.1,7.2
	c0.4,0.7,0.6,1.4,0.8,2.1c0.8,1.3,1.3,2.8,1.3,4.4c0,1.5-0.4,2.8-1,4c0.1,0.1,0.2,0.2,0.3,0.4c-0.1,2.9-0.1,5.7,0,8.6
	c3.2,1.2,5.6,4.3,5.5,7.8c0,0.5,0,0.9,0.1,1.4c0.3,1.8,0.6,3.6,0.9,5.4c0.1,0.8,0.1,1.7,0.1,2.5c1.8,1.5,3,3.8,3,6.3
	c0,3.4-2.2,6.4-5.2,7.7c-0.2,0.3-0.4,0.6-0.6,0.9c-0.4,0.6-0.8,1.1-1.2,1.6c0.1,2.6,0.2,5.2,0.4,7.8c0.2,3.2,0.7,6.3,2.2,9.2
	c0.5,1,1.3,2,2.2,2.8c-0.1,0.4-0.1,0.8-0.1,1.3c0.1,1.7,0.5,2.9,1.3,4.4c0.6,1,1.3,1.9,2.1,2.8c0.8,0.9,1.7,1.7,2.4,2.5
	c0.8,1.2,1.5,2.5,2.3,3.8c0.8,1.4,1.8,2.8,2.7,4.2c0.1,0.2,0.2,0.3,0.3,0.5c0.9-3.6,4.2-6.3,8.1-6.3c4.5,0,8.3,3.8,8.3,8.3
	c0,0.8-0.1,1.6-0.4,2.3c0.3,0.7,0.4,1.5,0.4,2.3c0,3.5-2.3,6.6-5.4,7.8c0.5,0.3,0.9,0.6,1.4,0.9c1.9,1,3.9,1.7,5.9,2.2
	c1.1,0.3,2.2,0.6,3.3,0.9c0-0.2,0-0.5,0-0.6c0-4.5,3.8-8.3,8.3-8.3s8.3,3.8,8.3,8.3s-3.8,8.3-8.3,8.3c-0.1,0-0.3,0-0.4,0
	c0.3,0.4,0.5,0.7,0.8,1.1c0.8,1.1,1.7,2.2,2.6,3.3c1.2,1.2,2.3,1.9,3.8,2.5c-0.4,3.4,0.3,6.9,0.8,10.3c0,0.1,0,0.1,0,0.2
	c0,1.4-0.1,2.8-0.2,4.3c-0.5,3.1-1.6,6-2.4,9.1c-1,4-1.8,8.5-0.5,12.7c0.2,0.6,0.5,1.2,0.8,1.8c-0.3,1.6-0.5,3.2-0.7,4.9
	c-0.4,4.4-0.2,8.9-0.1,13.3c0,1.4,0,2.8,0,4.1c-0.6,1.5-1.2,2.9-1.8,4.4c0,0.1-0.1,0.2-0.1,0.2c4.5,0,8.3,3.8,8.2,8.3
	c0,1.3-0.3,2.6-0.9,3.7c3.2,1.1,5.6,4.2,5.6,7.8c0,0.8-0.1,1.5-0.3,2.2c0,0.1,0,0.3,0,0.5c0,0.6-0.1,1.1-0.2,1.7c0,0,0,0,0.1,0
	c0.7,0.1,1.5,0.2,2.2,0.3c0.3,0,0.6,0.1,0.9,0.1c3,0.4,6.1,0.7,9.1,1.2c1.4,0.2,2.8,0.5,4.3,0.8c0.7,0.2,1.4,0.4,2.2,0.6
	c0.8-0.5,1.7-1,2.6-1.5c2.4-1.2,4.9-2.2,7.7-2.1c4.5,0.1,8.3,3.7,8.3,8.3c0,3-1.7,5.7-4.1,7.2c2,1.5,3.2,3.9,3.2,6.5
	c0,0.6-0.1,1.2-0.2,1.8c0.9,0.4,1.8,0.7,2.7,1c1.3,0.5,2.6,0.9,3.9,1.3c1.2,0.6,2.3,1.3,3.4,2.1c3.2,2.6,6.1,5.4,9.5,7.7
	c3.3,2.2,7.1,3.5,10.4,5.7c0.3,0.2,0.5,0.5,0.7,0.7c0.2,0.3,0.4,0.6,0.5,0.9c0.3,0.7,0.4,1.5,0.6,2.2c0.1,1.2,0.1,2.4,0,3.7
	c-0.1,0.2-0.3,0.4-0.4,0.6c-0.9,1.2-1.4,2.8-1.6,4.2c-0.3,1.8-0.5,3.6-0.6,5.4c-0.1,3.2,0.4,6.4,0.8,9.7c0.7,5,2.7,9.7,4.3,14.4
	c-0.2,0.7-0.3,1.4-0.5,2c-0.9,3.5-2,7-1.8,10.7c0.2,2.5,0.8,4.8,2,6.9c0.7,1.2,1.6,2.2,2.5,3.3l0,0c1.8-1,4.4-1.6,6.4-0.8
	s3.6,1.6,5.1,3.2c0.5,0.6,0.9,1.1,1.5,1.6c1.1,1.2,2.3,2.3,3.6,3.4c1.7,1.5,3.4,3,5.2,4.4c0.9-0.4,1.8-0.7,2.7-1
	c0.2-0.1,0.3-0.1,0.5-0.2c1.3-0.7,2.7-1.1,4.2-1.1c0.7,0.1,1.5,0.2,2.2,0.3c1.9,0.5,4.1,1.9,5,3.8c0.5,1,1.1,2,1.7,2.9
	c1,1.2,2.1,2.3,2.8,3.7c1,2.1,1.2,3.3,1.4,5.6c0,0.4,0.1,0.8,0.1,1.1c0.3,1.2,0.7,2.4,1,3.6c0.6,2.1,1,4.3,1.2,6.5
	c0.1,0.8-0.1,1.6-0.3,2.4c3.4,7,7.1,13.9,11.1,20.5c1.1,1.9,2.2,3.8,3.5,5.6c0.3,0.5,0.6,0.8,0.9,1.3c1.4-1.2,3.3-1.9,5.3-1.9
	c4.5,0,8.3,3.8,8.3,8.3c0,2.8-1.4,5.2-3.6,6.7c1.1,0.1,2.2-0.3,3.1-1c0.6,0.2,1.3,0.2,2.1,0c0.3-0.1,0.6-0.2,0.8-0.3
	c0.2,0.6,0.3,1.3,0.4,1.9c0.5,2.3,1,4.7,1.7,7c1.3,4.7,3,9.3,4.7,13.9c0.7,2.1,1.5,4.3,2,6.5c0.5,2,0.8,4.1,1.3,6.1
	c0.6,2.2,1.4,4.4,2.5,6.3c0.1,0.2,0.2,0.3,0.3,0.5c-1.2,0.8-2.1,2.1-2.5,3.5c-0.5,1.6-0.2,3.4,0.6,4.8c0.5,0.9,1.2,1.5,2,2
	c0.2,0.2,0.3,0.4,0.4,0.5c-0.1-0.2-0.3-0.3-0.4-0.5l0,0c1.5,1.9,3.1,3.5,4.9,5.1c2,1.8,4.2,3.2,6.3,4.8c0.1,0.1,0.3,0.2,0.5,0.3
	c0.1,0,0.1,0.1,0.2,0.1c0,0-0.1,0-0.1-0.1c1.1,0.8,2.2,1.2,3.7,1.3c0.3,0,0.6,0,0.9-0.1c0.4,0.5,0.8,0.9,1.3,1.3
	c0.9,0.8,1.9,1.2,3.1,1.1c0.3,0.2,0.6,0.4,0.8,0.6v0.1c-0.7,1.1-1.4,2.1-2.2,3.1c-1.5,2.1-2.9,4.2-4.1,6.4c-1.1,2.1-2.2,4.1-3.4,6.2
	c-0.5-0.2-1.1-0.2-1.7-0.3c-1.4-0.1-2.7,0.5-4,1c-2.3,1-4.3,2.7-6.1,4.4c-0.3,0.3-0.6,0.5-0.8,0.8c-1.8-1.2-3.6-2.5-5.4-3.8
	c-6-4.7-11.4-10.1-16.1-16.1c-0.5-0.7-0.9-1.2-1.4-1.9c-1,0.5-2.2,0.8-3.4,0.8c-2.5,0-4.8-1.2-6.4-3c-0.4,0.1-0.7,0.2-1.1,0.2
	c-1.8,0-3.2-1.5-3.2-3.2c0-1.5,1-2.7,2.4-3.1c0.3-2.8,2-5.2,4.4-6.5c-0.3-1.8-0.7-3.6-1.3-5.3c-0.1-1.4-0.1-2.9-0.4-4.3
	c-0.5-2.4-1.9-4.6-3.6-6.5c-0.4,0.1-0.8,0.1-1.2,0.1c-1.8,0-3.7-0.3-5.5-0.9c-1.7-0.6-3.6-1.3-5.1-2.3s-3.1-2.2-4.2-3.6
	c-0.5-0.6-1-1.2-1.6-1.8c-1.8-1.4-3.1-3.1-3.7-5.4c-0.1-0.4-0.2-0.7-0.2-1c-0.2,0-0.4,0-0.6,0c-4.8,0-8.9-3.5-9.8-8.1
	c-0.9-0.3-1.8-0.6-2.6-1c-0.8-0.3-1.7-0.7-2.6-0.9c-2-1.7-3.9-3.4-5.6-5.4c-0.1-0.3-0.1-0.6-0.2-0.8c-1-3-2.9-5.1-5.6-6.4
	c-3.2-2.8-6.6-5.6-9.9-8.2c1-1.5,1.4-3.4,1-5.3c-0.1-0.3-0.2-0.6-0.3-0.9c-0.1,0-0.2,0-0.3,0c-5.5,0-10.1-4.6-10.1-10.1l0,0
	c-0.5-0.3-0.8-0.5-1.3-0.8c-0.9-0.6-1.9-1.2-2.8-1.8c-0.3,0-0.5,0-0.8,0c-5.5,0-10.1-4.6-10.1-10.1c0-2,0.6-3.8,1.6-5.4
	c-1.6,1.1-3.6,1.8-5.6,1.8c-5.5,0-10.1-4.6-10.1-10.1c0-0.7,0.1-1.4,0.2-2c-0.1-0.1-0.2-0.1-0.3-0.2c-4.9-0.5-8.8-4.7-9-9.7l0,0
	c0-0.5-0.1-0.9-0.2-1.3c-0.4-1.2-1-2.1-1.9-2.9c-3.3-0.2-6.3-2.2-8-4.9c-3.2-1.6-6.6-2.9-9.9-4.3c-3.9-1.7-7.8-3.4-11.9-4.5
	c-4.3-1.2-9.1-1.9-13.5-0.8c-0.2-0.3-0.4-0.7-0.6-0.9c-1.4-2.1-2.6-4.2-4-6.3c-2.5-3.8-5.5-7.4-7.4-11.6c-0.4-1-0.8-2-1.3-2.9
	c-0.9-1.5-1.9-2.4-3.3-3.4c-0.6-0.4-1.2-0.7-1.9-1c-0.9-0.5-1.8-0.9-2.6-1.5c-1.7-1.5-3.1-3.2-4.9-4.6c-3-2.4-6.5-4.1-10.5-3.8
	c-1.7,0.1-3.2,0.6-4.4,1.8c-0.3,0.3-0.5,0.5-0.7,0.8c-0.4-0.3-0.7-0.7-1.1-1c-0.9-0.8-1.8-1.8-2.6-2.6c-0.7-0.8-1.5-1.5-2.2-2.3
	c1,2.8,1.9,5.7,2.9,8.5c1.6,3.2,3.3,6.3,5.3,9.2c1.5,1.8,3,3.6,4.5,5.4c2.8,3.6,5.9,7.2,8.3,11.2c2.4,4,4,8.5,5.7,12.7
	c1.8,4.3,3.6,8.6,5.4,12.9c0.9,2.2,1.8,4.4,2.6,6.6c0.2,0.6,0.4,1.1,0.6,1.7c1,1.8,2.1,3.5,3.3,5.1c2.1,2.7,4.2,5.4,6.2,8.2
	c0.6,0.8,1.2,1.6,1.7,2.4c0.9,0.8,1.9,1.5,2.9,2.2c1.9,1.4,3.9,2.4,6.2,2.4c0.9,0.7,1.8,1.3,2.8,1.9c1.7,1,3.4,1.8,5.2,2.7
	c0.8,0.5,1.6,0.9,2.4,1.4c0.4,0.3,0.8,0.5,1.1,0.8l0.1,0.1c0.3,0.2,0.5,0.5,0.8,0.7c1.6,1.3,3,2.9,4.4,4.5c2.5,2.8,5.8,4.8,8.8,7.1
	c0.1,0,0.1,0.1,0.2,0.1c0.1,0.1,0.2,0.1,0.2,0.2c0.3,0.3,0.6,0.6,0.9,0.8c0.7,0.6,1.3,1.2,1.9,1.9c0.1,0.1,0.1,0.1,0.2,0.2l0.1,0.1
	c0.3,0.4,0.5,0.7,0.7,1c0.1,0.2,0.4,0.7,0.4,0.8c0.2,0.5,0.3,0.8,0.4,1.3c0,0.1,0,0.2,0.1,0.3c0,0.2,0,0.4,0,0.5c0,0.6,0,1,0,1.6
	c0,1.1-0.1,2.2-0.3,3.4c-0.2,2.5-0.2,4.9,0.3,7.3c1,4.6,4.7,7.7,8.5,10.1c8,5.2,17.1,8.1,25.9,11.3c1.1,0.4,2.2,0.8,3.2,1.2
	c0.5,0.2,1.1,0.4,1.6,0.7c0.3,0.1,0.5,0.2,0.8,0.4c0.1,0,0.1,0,0.2,0.1c0.1,0,0.2,0.1,0.3,0.1c2.4,1,4.9,2.1,7.3,3.1
	c3.7,1.6,7.5,2.9,11.3,4c3.3,0.9,6.6,1.9,9.7,3.2c0.2,0.1,0.4,0.2,0.5,0.2c0.4,0.2,0.7,0.4,1.1,0.6c0.8,0.4,1.5,0.8,2.3,1.3
	c0.4,0.2,0.7,0.4,1,0.7c0.1,0.1,0.2,0.1,0.3,0.2c0.6,0.5,1.2,1,1.7,1.7c0.1,0.1,0.1,0.2,0.2,0.3c0.1,0.1,0.2,0.3,0.3,0.4
	c0.4,0.7,1,1.1,1.6,1.5c0,1,0.4,1.9,1.1,2.7c0.7,0.7,1.4,1.5,2.1,2.2c0,0,0.1,0.1,0.1,0.2c0.1,0.2,0.2,0.3,0.4,0.5
	c0.4,0.5,0.7,1,1,1.5c1.2,1.8,2.3,3.7,3.4,5.5c1.2,2,2.6,3.7,4.4,5.2c0.7,0.6,1.5,1.2,2.2,1.8c0.4,0.3,0.7,0.7,1,1
	c0.1,0.1,0.2,0.2,0.3,0.4c0,0,0,0.1,0.1,0.1c0.4,0.6,0.8,1.3,1.1,2c0.1,0.2,0.1,0.4,0.2,0.6c0.2,0.5,0.3,0.9,0.4,1.4
	c0.2,0.8,0.4,1.7,0.5,2.5c0,0.1,0.1,0.3,0.1,0.4c0,0,0,0,0,0.1c0.1,0.5,0.1,1,0.1,1.5c0.3,3.6,0.3,7.2,0.6,10.8
	c0.3,2.4,0.7,4.9,1,7.3c0.2,0.8,0.3,1.7,0.4,2.6c1.2,0.5,2.3,1.2,3.2,2.2c0.9,0.9,1.7,2.1,2.2,3.3c0.6,0.4,1.1,0.8,1.7,1.1
	c0.3-0.2,0.7-0.4,0.9-0.6c2.1-1.2,5.4-1.9,7.8-1c2.5,0.9,5,1.6,7.6,2c3.6,0.4,7.2,0.4,10.7,0.4c4.1,0,8.3,0.1,12.4,0.2
	c2.1,0,4.2,0.2,6.3,0.1c2-0.1,4-0.4,6-0.7c3.6-0.5,7.1-0.6,10.7-0.9c1.1-0.2,2.1-0.4,3.2-0.6c0.7-2.5,2.2-4.7,4.6-6
	c1.9-1,3.5-2.2,5.1-3.5c0.8-0.6,1.6-1.2,2.4-1.8c0-0.1,0.1-0.3,0.1-0.4c0.4-1.2,0.9-2.3,1.4-3.5c0.8-2,1.4-3.9,1.7-6
	c0.3-2.6,0.2-5.3-0.1-7.9C2118.7,358.4,2118.4,356.5,2118.1,354.7z M1895.5-205.8c0,0.1,0,0.3,0,0.3c0-0.1,0-0.1-0.1-0.2
	C1895.5-205.7,1895.5-205.8,1895.5-205.8z M1895.6-48.6C1895.6-48.6,1895.6-48.7,1895.6-48.6c0.1,0,0.2,0.1,0.2,0.1
	C1895.7-48.6,1895.7-48.6,1895.6-48.6z M1931,99.3c0.2-0.1,0.4-0.2,0.6-0.3c0.1,0.2,0.2,0.4,0.2,0.6
	C1931.6,99.5,1931.3,99.4,1931,99.3z M1976.4,85.9c-0.2-0.1-0.4-0.1-0.6-0.2h0.1c0.1,0,0.3,0,0.4,0
	C1976.4,85.7,1976.4,85.8,1976.4,85.9L1976.4,85.9z M2026.7,204L2026.7,204C2026.9,204.8,2026.7,204.3,2026.7,204z M1948.6,275.2
	c-0.1,0-0.2,0-0.3,0c0.1-0.1,0.3-0.3,0.4-0.4c0.1,0.1,0.2,0.3,0.3,0.4C1948.8,275.2,1948.7,275.2,1948.6,275.2z M1967.3,297
	c0-0.1,0-0.1,0-0.2c0.2,0.1,0.4,0.2,0.5,0.3C1967.7,297.1,1967.5,297.1,1967.3,297z"/>
<path fill="#E21F26" d="M1644.7-338.2l2.3-3.4l5.6,0.8l4,3.6c0,0-0.5,2.7-0.9,3c-0.5,0.3-2.7,1.3-2.7,1.3l-5.2-2.1L1644.7-338.2z"/>
<path fill="#7CB342" d="M1634-330.5l-6.3-10.8c0,0,2.1-0.6,5-1c2.8-0.5,10,0.3,10,0.3L1634-330.5z"/>
<polygon fill="#5C6BC0" points="1636.7,-336.4 1632.9,-336.5 1632.6,-342.3 1637.7,-342.4 "/>
<path fill="#FCB017" d="M1644.7-338.2l-8.1,11.6l13.7,10.2c0,0,0.4,5.7,1.7,7.4c0.6,0.7,1.6,1.7,2.4,2.8c1.2,1.6,1.1,3.1,1.1,3.1
	l-0.2,19.8l-1.6,4.1c0,0,1.6,0.7,2.4,1.4c0.8,0.7,1.1,1.9,1.1,1.9l-0.1,12.5c0,0,13.9-0.7,18.6-1.7c4.3-0.7,8.4-1.2,10.8-2.2
	c4.8-2,5.5-4.6,5.5-4.6s0-1.4,0.5-3.4s0.8-4.4,0.9-8.8c0-4.4,0.5-56.6,0.5-56.6l-41.3-0.4c0,0,1.1,1.2,1.1,2.9
	c0,1.2-0.7,2.4-1.4,2.8c-0.7,0.4-2.5-1-4.1-1.7C1646.3-337.7,1644.7-338.2,1644.7-338.2z"/>
<polygon fill="#C02026" points="1676.7,-337 1680.1,-338 1679.9,-330.1 1688.6,-323.8 1688.7,-330.9 1693.8,-331 1693.9,-340.3 
	1676.7,-340.5 "/>
<path fill="#5C6BC0" d="M1696.6-341.2l54.7,0.5c0,0,0.1,11.3-0.6,22.9c-0.4,5.8-1.3,14-1.5,18.5c-0.7,13.5-3,29.9-3,29.9l-11.3-0.1
	c0,0,0.3-11.1,0.4-12.7c0.1-1.6-2.1-1.6-2.1-1.6s-4.9,4.7-11.4,4s-8.5-3.2-8.5-3.2l-3.3-0.1l0.2,11.1c0,0-8-1-9.7-1.3
	c-1.7-0.2-3.6-0.9-4.5-1c-1-0.1-2.7,2-2.7,2s2.4-6,2.5-8.8C1695.9-284,1696.6-341.2,1696.6-341.2z"/>
<path fill="#8E24AA" d="M1752.6-340.6c0,0,15.3,0.7,20.2,0.1c5-0.6,13.7-4.9,13.7-4.9s3.1,3.6,6.4,5s6.9,1.3,8.9,3s0.8,8.1,7.7,13.7
	c6.9,5.7,12.1,10,12.1,10s-0.3,6.5-1.5,11.1c-1.7,6.4-3.7,13.6-3.7,13.6l-11.1-2c0,0-0.1-4.5-0.7-6.2c-0.6-1.8-1.2-3.9-2.1-3.9
	c-0.9,0-0.9,2.6-0.9,2.6l-5.3,0.1l-0.7-0.9l-2.7-0.1l-0.1,0.9l-1.2,0.2c0,0-0.4,9.9,0.1,10.6s3.1,0.5,3.1,0.5l-1.1,5.6l-44.4-4
	c0,0,0.9-13.9,2.2-25.9C1752.8-323.4,1752.6-340.6,1752.6-340.6z"/>
<path fill="#8DC641" d="M1751-315.3"/>
<path fill="#AD6F5E" d="M1657.8-262.1l6.7-0.3c0,0,0.4,8.6,1.1,13.6c0.7,5.1,2.2,16.1,2.2,16.1l-9.2-0.1l-3.9-3.9l-4.9,3.6l-6.4-8.2
	l4.3-4.2l-0.3-2.7c0,0,5.4-1.6,7.6-4.2C1657.3-255,1657.8-262.1,1657.8-262.1z"/>
<path fill="#AD6F5E" d="M1666-262.4l14-1.9c0,0,0.6,8,1.1,14.5c0.5,6.6,1.7,12.8,1.7,12.8s-3.2,0.9-6.9,1.7s-7.1,0.7-7.1,0.7
	L1666-262.4z"/>
<path fill="#8E24AA" d="M1681.3-264.9c0,0,4.4,0.6,5.4-0.5c1-1,2.1-2.1,2.1-2.1s5.8,6.8,7.1,12.4c1.3,5.6,1.6,16.5,1.6,16.5
	l-13.3,1.2c0,0-1.5-7.5-1.9-12.7C1681.9-255.3,1681.3-264.9,1681.3-264.9z"/>
<path fill="#8E24AA" d="M1690.3-267.3c-0.3,0.3,2.2-2.8,4.7-4.7c0.9-0.7,7.7,0.1,7.7,0.1s4,2,7.6,2.4c2.2,0.2,6.1-0.3,6.1-0.3
	l0.4,4.6l-0.7,1.4l-0.8,16.9c0,0-1,7.4-1,7.7l-7.1-0.1c0,0-2.3,0.7-3.9,0.6c-1.5-0.1-3.8-0.5-3.8-0.5s-0.7-10.9-2.9-17.2
	C1694.4-263,1690.3-267.3,1690.3-267.3z"/>
<path fill="#8E24AA" d="M1717.9-269.8c0,0,0.1,2.5-0.1,3.4s-0.5,2.3-0.7,3.7c-0.3,1.4-0.5,7.5-0.5,7.5s26.2,0.5,28,0.5
	c1.3,0,0.6-4.8,0.6-5.6c0-0.8,0.5-3.1,0.5-4s0-4.1,0-4.1l-11.7-0.3l-0.2-1l-16.1-0.4"/>
<path fill="#8E24AA" d="M1716.8-254.2l26.7,0.6l-0.1,13.6c0,0-4.1-0.2-7.3,0.5c-1,0.2-2.9,0.8-2.9,0.8s-4.2,3.4-7.6,6.7
	c-7.7-6.8-10.1-7-10.1-7s0.2-3.7,0.4-5.5c0.2-1.8,1.1-2.9,1.1-4.4C1717-250.6,1716.8-254.2,1716.8-254.2z"/>
<path fill="#8E24AA" d="M1748.8-283.8c0,0,0.2,3.6,0.2,4.9s-0.6,3.4-0.9,4.9s-0.3,4.7-0.3,4.7h1.2c0,0,0.9-1,1.4-1.2
	s3.7,0.3,3.7,0.3l-0.2,0.9l8,0.1c0,0,0.7-1,1.4-1.3s3.5,0.2,3.5,0.2s0.5-2.1,0.9-4.3c0.4-2.2,0.1-7.2,0.1-7.2L1748.8-283.8z"/>
<path fill="#8E24AA" d="M1617.1-233.1l13.4,15.8l18.6-15.1l-6.6-8.1c0,0-2.4,2.1-4.1,1.9c-1.6-0.2-2.1-1.9-3.3-1.9
	c-1.2,0-2,0.9-3,0.8c-1,0-3.5-0.1-4.3,0.4s-2.2,3.7-4.4,3.7c-0.7,0-1.7-1.8-1.7-1.8s-4.2,2-4.7,2.8
	C1616.6-233.9,1617.1-233.1,1617.1-233.1z"/>
<path fill="#AD6F5E" d="M1631.1-216l23.6-19.7c0,0,2,3,3.1,3.8c1.2,0.8,4.7,0.1,4.7,0.1s0.7,5.8-0.3,6.7c-0.5,0.4-4.4,5.1-9.5,9.5
	c-6,5.3-13.1,10.5-13.1,10.5L1631.1-216z"/>
<path fill="#AD6F5E" d="M1654.3-215l10,11.1l16-13.5c0,0,1.7,0.2,2.1-0.5c-1.7-1.1-0.6-2.3,0.3-2.8c1.8-1.1,4.5-1.7,4.5-1.7l0.4-1.7
	c0,0-2.4-2-3-3.5c-0.6-1.5-0.4-7.8-0.4-7.8l-20,3.2c0,0,0.9,4.1-0.9,7.5S1654.3-215,1654.3-215z"/>
<polygon fill="#AD6F5E" points="1683.2,-217.3 1688.4,-221.9 1699.4,-210 1687.8,-200.3 1685.7,-203.1 "/>
<polygon fill="#5C6BC0" points="1665.2,-202.9 1681,-216.6 1685.9,-199.1 1675.5,-190.2 "/>
<polygon fill="#7CB342" points="1640.7,-203.7 1653.3,-214 1663.6,-202.5 1650.5,-191.8 "/>
<polygon fill="#C02026" points="1651.4,-190.7 1664,-201.4 1673.9,-189 1662.3,-178.9 "/>
<path fill="#8E24AA" d="M1594.9-227.4l2.9-2.7c0,0,6.6,0.1,12.1-0.7c2.8-0.5,5.7-2.2,5.7-2.2l13.2,15.7l-16.1,13.9L1594.9-227.4z"/>
<polygon fill="#8E24AA" points="1616.6,-205 1629.3,-215.9 1638.7,-203.7 1626.7,-194.1 "/>
<polygon fill="#AD6F5E" points="1628.6,-194.1 1639.3,-203 1648.8,-191.2 1638.5,-182.1 "/>
<polygon fill="#AD6F5E" points="1639.6,-181.3 1649.8,-190.4 1660.4,-178.5 1649.5,-169.1 "/>
<path fill="#8E24AA" d="M1575.4-212.2c0,0-3.4-4.3-4.6-6.7c-0.9-1.7-0.5-5.4,2.7-7c2-1.1,12.7,0.7,15.5-0.4c1.8-0.7,3.7-2.4,3.7-2.4
	l2.2,3.7L1575.4-212.2z"/>
<polygon fill="#8E24AA" points="1575.6,-211.1 1595.4,-224.1 1601.7,-215.7 1581.2,-201.2 "/>
<polygon fill="#8E24AA" points="1582,-199.9 1602.4,-214.1 1611.7,-202.8 1591.1,-185.7 "/>
<path fill="#8E24AA" d="M1591.8-184.5c0,0,3.1,7.5,4.8,9.2c1.7,1.6,3.6,2.8,3.6,2.8l10.3-8.8l-8.5-10.9L1591.8-184.5z"/>
<polygon fill="#8E24AA" points="1603,-193.3 1615.6,-204.3 1625.6,-193.5 1612,-182.4 "/>
<polygon fill="#AD6F5E" points="1612.7,-181.3 1627.2,-193 1637,-181.5 1622.5,-169.4 "/>
<path fill="#7CB342" d="M1684.4-195.7l15.5-12.6l8.3,9.9l-8.3,7.6c0,0-0.9-0.5-1.2-1.3c-0.4-0.9-0.3-2.2-0.6-2.4
	c-0.6-0.3-1.3,0.1-1.2,1.1s1.1,3.5,1.1,3.5l-2.4,2.6c0,0-1.3-2.7-3.6-4.2c-1.1-0.7-4.1-0.4-4.1-0.4L1684.4-195.7z"/>
<path fill="#C02026" d="M1683.3-194.6c0,0,1.3,0.7,1.9,1.2c0.6,0.6,0.4,3.2,1.3,3.9c0.8,0.7,5.4,0.5,6.1,0.4s1.8,2.5,1.8,2.5
	s-10.9,8.6-10.8,9.5c0,0.8,15.1,22.2,15.1,22.2l-10.4,8.7l-24.8-31.5L1683.3-194.6z"/>
<polygon fill="#AD6F5E" points="1645.1,-162.7 1660.9,-176.7 1678.6,-155.3 1662.2,-142 "/>
<polygon fill="#AD6F5E" points="1663.5,-141.3 1679.5,-154.9 1686.5,-145.5 1671.4,-131.8 "/>
<polygon fill="#AD6F5E" points="1634.1,-153.8 1643.9,-162 1660.9,-141.4 1651.4,-133.3 "/>
<polygon fill="#AD6F5E" points="1621.1,-131.3 1638.9,-146 1650,-132.9 1635.4,-119.6 "/>
<path fill="#AD6F5E" d="M1636.9-119.1l24.8-21.7c0,0,4.1,5.2,5.9,7.4c1.7,2.2,1.3,4.1,1.3,4.1l-21.7,17.8c0,0-1.6-0.3-3.7-1.7
	C1641.3-114.6,1636.9-119.1,1636.9-119.1z"/>
<path fill="#AD6F5E" d="M1647.9-110.8l22-18.1c0,0,2.9,1.3,4.2,3.9c1.3,2.6,1.8,6.8,2.3,9.6c0.6,2.8,0.7,7,0.7,7l21.3,0.6
	c0,0-0.7,11.1-1.4,17.1c-0.7,6-1.6,14.8-1.6,14.8s-20.9-14.1-22.3-14.7c-1.5-0.7-4.2-0.7-4.2-0.7s-0.6-11.4-0.6-12.4
	c-0.2-2.5-1.9-3.1-3.2-3c-1.4,0.1-12.2,0.5-12.2,0.5s-2-1-3-1.8C1648.7-108.9,1647.9-110.8,1647.9-110.8z"/>
<path fill="#5C6BC0" d="M1670.9-130.3l0.2,0.1c0,0,3.2,2.1,4.2,4.8c0.9,2.6,1.9,6.6,1.9,6.6l29.4-23.8l-7.1-10.8
	c0,0-22.1,18.6-24,20.3C1673.6-131.4,1670.9-130.3,1670.9-130.3z"/>
<path fill="#AD6F5E" d="M1678-117.7c0,0,0.3,7.3,0.5,8.2c1.4,0.5,6,0,10.1,0c4.2,0,9.9,0.8,9.9,0.8s0.2-2.1,0.6-3.8
	c0.4-1.7,7.4-8.4,7.4-8.4l-8.7-11.2L1678-117.7z"/>
<polygon fill="#AD6F5E" points="1623.2,-168.6 1638.1,-181.1 1648.6,-168.1 1633.8,-155.3 "/>
<polygon fill="#AD6F5E" points="1613.9,-137.4 1632.8,-153.3 1638,-147.2 1619.9,-132.2 "/>
<polygon fill="#AD6F5E" points="1602.1,-149.8 1621.9,-167.1 1632.1,-154.9 1612.7,-138.5 "/>
<polygon fill="#AD6F5E" points="1589.8,-161.9 1611.2,-180.1 1620.9,-168.3 1600.9,-150.5 "/>
<path fill="#8E24AA" d="M1579.5-173.2l11.1-10.2c0,0,2.8,5.8,4.4,8.1c1.6,2.3,3.8,3.5,3.8,3.5l-10.1,9.4L1579.5-173.2z"/>
<path fill="#8E24AA" d="M1566.8-190.2l13.7-9.3l9.9,14.7l-11.6,10.1c0,0-4.4-3.5-6.9-7.5C1569.3-186.2,1566.8-190.2,1566.8-190.2z"
	/>
<path fill="#8E24AA" d="M1566.5-191.6l13.3-9.4c0,0-3.6-4.5-5-7.8c-1.4-3.3-3.4-7.2-3.4-7.2s-1.6-0.2-2.6,0.6
	c-0.9,0.7-3.5,2.6-3.5,2.6s0.9,2.3,0.6,3.4c-0.3,1.1-5.8,7-5.8,7L1566.5-191.6z"/>
<path fill="#AD6F5E" d="M1701.2-209.2l14.2-12l16.8,17.9c0,0-6.8,6.7-7.3,7.3c-0.9,0.9-3.2,0.2-3.9,0.8c-0.7,0.6-4.4,3.8-4.4,3.8
	L1701.2-209.2z"/>
<path fill="#AD6F5E" d="M1716.4-221.9l17,17.6c0,0,6-5.6,8.5-7.1c1.3-0.7,3.5-1.8,3.5-1.8s-1.7-3.2-1.9-7.8c-0.3-4.5,1-17,1-17
	s-6.2-0.6-9.3,0.7C1732.2-236,1716.4-221.9,1716.4-221.9z"/>
<path fill="#AD6F5E" d="M1747.8-268.6c0,0-0.7,8.7-1.2,14.3c-0.5,5.6-0.1,14.8-0.1,14.8l19.2,1.1l0.8-28.8c0,0-2.3,0-8.4-0.8
	C1754.7-269.2,1747.8-268.6,1747.8-268.6z"/>
<path fill="#8E24AA" d="M1764.8-268.6c0.2,0.6,31.8,2.2,31.8,2.2s-1-12.4,0.7-13.8c1.8-1.4,5.2-1.1,5.2-1.1s1.3-14.7,0.4-15.4
	c-1-0.7-9.9-0.2-9.9-0.2s0.1,7,0.3,7.8c0.3,0.7,2.6,0.3,2.6,0.3v8.2c0,0-3.2,1-7.6,0.9c-3.6-0.1-18.5-2.2-18.5-2.2s0,10.5-0.9,11.5
	C1768-269.5,1764.6-269.3,1764.8-268.6z"/>
<path fill="#5C6BC0" d="M1797.2-279.2c0,0,4.6,0.6,5.5-0.5c0.9-1,1.2-10.4,1.2-10.4l12,3.1c0,0-3.5,10.1-2.2,11.3
	c1.3,1.2,9.7,9.5,9.7,9.5s-2.5,4.1-4.7,3.9s-21.6-1.6-21.6-1.6L1797.2-279.2z"/>
<path fill="#AD6F5E" d="M1819.9-260.8l4.1-4.5l29.2,31.1l-60.2,16.7l0.5-17.8l6.2,0.1l2.5,1c0,0-2.7,4.6-1.6,6.3
	c0.5,0.7,3.1,0.5,4.8,0.9c2.2,0.6,3.6,1.8,3.6,1.8s3.5-1.4,7.3-5.3c3.8-3.9,7.5-7.8,7.5-7.8l-0.6-8.1c0,0,5.7-2.2,6-3.4
	c0.2-0.7-1.7-2.6-2.7-4.6c-0.6-1-0.7-2.7-1.6-3.4c-1-0.8-3.1-0.7-3.1-0.7L1819.9-260.8z"/>
<polygon fill="#8E24AA" points="1767.7,-266.3 1795.5,-263.6 1792.9,-237.8 1767.6,-238 "/>
<path fill="#AD6F5E" d="M1766.1-236.7l26.2-0.4l-1.2,19.4c0,0-2.3,1.1-4.3,1.5c-1.9,0.4-4.6,0.1-6.2,0.9c-1.6,0.8-11.5,6.3-12.6,6.4
	c-1,0.1-2.3-1.4-3-2.5c-0.6-1,0-4.3,0.1-7.9c0-3.6,1-3.7,1-7.8C1766.1-231,1766.1-236.7,1766.1-236.7z"/>
<path fill="#AD6F5E" d="M1745.4-237.8l18.6,0.6c0,0-0.1,18.9-0.7,22.7c-0.4,2.8,2.5,6.6,2.5,6.6l-14.2,8.9c0,0-6.1-15.7-5.3-13.4
	c0.8,2.2-1.7-4.7-1.7-7.6C1744.7-223,1745.4-237.8,1745.4-237.8z"/>
<polygon fill="#AD6F5E" points="1547.9,-190 1559.8,-199.7 1564.8,-191.1 1554,-183.8 "/>
<path fill="#AD6F5E" d="M1534.7-187.5c0,0,2.5-2.3,6-1.9c3.4,0.4,8.7,7.4,8.7,7.4l-6.2,5.2L1534.7-187.5z"/>
<path fill="#AD6F5E" d="M1535.2-170.1l6.2-3.7c0,0,1.6,1.2,2.3,0.7c-0.7-1-0.6-1.9-0.6-1.9l7.2-5.6l21.4,21.6l-12.7,7.7l1.8,4.1
	c0,0-6.9,1-7.4,0.4c-0.5-0.7-7.4-10.2-10.5-14.5C1539.8-165.7,1535.2-170.1,1535.2-170.1z"/>
<path fill="#AD6F5E" d="M1554.8-182.2l14,15.9l7.9-7.8c0,0-4.5-4.7-6.3-7.5c-1.9-2.8-5.2-8-5.2-8L1554.8-182.2z"/>
<polygon fill="#8E24AA" points="1569.5,-165.6 1577.5,-173.1 1587.3,-161.7 1578.8,-155.2 "/>
<path fill="#AD6F5E" d="M1581.3-155.2c0.9-0.7,7.1-5.3,7.1-5.3l11.5,10.7l-12.1,11.1c0,0-0.2-3.1-1-4.7s-7-7.8-7-7.8
	S1580.4-154.5,1581.3-155.2z"/>
<path fill="#AD6F5E" d="M1557.4-144.3h4.7c0,0,0.6-1.9,0-3.1c-0.6-1.1-1.7-3.3-1.7-3.3l11.7-7c0,0,12,12,12.8,13.4
	c2.5,6.3,2.9,21.1,2.9,21.1s-9.2,0.9-9.9,1.5c-0.7,0.6-4.3,3.8-4.3,3.8s-7.3-8.6-11.1-15.3C1558.7-139.7,1557.4-144.3,1557.4-144.3z
	"/>
<path fill="#C02026" d="M1588.1-137.3l12.7-12.2l10.2,11.7c0,0-7.5,9.3-10.6,11.5c-3.1,2.2-10.2,2.5-10.2,2.5L1588.1-137.3z"/>
<path fill="#7CB342" d="M1579.5-120.4c0,0,13.3-0.8,19.4-3.6c6-2.9,13.1-12.5,13.1-12.5l32.7,26.2l-38,17.9c0,0-7.4-6.6-16.6-11.4
	C1585.3-107.1,1579.5-120.4,1579.5-120.4z"/>
<polygon fill="#C02026" points="1591,-78.6 1591.3,-61.9 1609.2,-50.6 1612.3,-55.4 1601.2,-63 1617.6,-81 1606.6,-90.9 "/>
<polygon fill="#C02026" points="1603,-63.3 1613.2,-56.7 1628.1,-70.6 1618.3,-79.9 "/>
<path fill="#5C6BC0" d="M1610.7-49.9c0,0,1.5-4,3.7-6s13.8-12.9,13.8-12.9l13.4,12.7l-16.5,17.3L1610.7-49.9z"/>
<path fill="#AD6F5E" d="M1607.8-91.2c0,0,14,11.1,19.6,17.9c5.5,6.9,21.8,22,21.8,22s8.5-12.2,11.5-18.5s9.8-20.2,9.8-20.2
	s-3.6,0-3.9-1.2c-0.4-1.2,1.1-13.3,0.1-14.1s-15.7,0.8-16.5-0.1c-0.8-1-3.7-4.2-3.7-4.2L1607.8-91.2z"/>
<path fill="#8E24AA" d="M1793.9-236.1l8.4,0.1c0,0,0.7-1.3,0.7-3.8s-1.7-4-1.4-6.1c0.2-1.1,5.2-4.3,8.9-7.7c3.7-3.4,6-7.1,6-7.1
	l-19.9-1.3L1793.9-236.1z"/>
<path fill="#FCB017" d="M1803.7-246c0,0,5.2-4.2,8.6-7.1c0.9-0.8,3.2-2,3.6-2.6c2-2.5,1.1-3.7,1.1-3.7h2.4c0,0,1.7,2.6,2.5,2.8
	c0.8,0.3,2.7-0.4,2.7-0.4s0.1,2.6,0.9,3.5s2.5,2.9,2.5,2.9l-6.2,3.4c0,0,0.5,8.7,0,9.2c-2,2.9-12.4,10.9-12.4,10.9s-5.2-1.1-5.9-1.9
	c-0.8-0.7,0.1-6.7,0.1-6.7s1.5-3.8,1.6-4.7c0.1-0.8-1.1-2-1.6-2.7C1803.2-243.6,1803.7-246,1803.7-246z"/>
<path fill="#7CB342" d="M1839.1-228.6l14.2-4.3c0,0,5.6,1.9,6.3,8c0.3,2.8-1.5,6.3-2.8,9.3c-1.6,3.6-2.7,6.3-2.7,6.3l-10,2.2
	L1839.1-228.6z"/>
<path fill="#AD6F5E" d="M1791.3-215.9l46.3-12.5l4.9,21.2l-38.2,11.8l-1.4-4.1h-4.8c0,0-2.2-3-3.8-7.4
	C1792.9-211.3,1791.3-215.9,1791.3-215.9z"/>
<path fill="#AD6F5E" d="M1820.7-198.7l4.2,16.6l21.3-5.4c0,0,1.2-3.7,2.8-9.1c1.6-5.5,4.7-11.3,4.7-11.3L1820.7-198.7z"/>
<path fill="#AD6F5E" d="M1804.9-193.9l13.4-4.3l3.9,16.7c0,0-3.3,0.3-5.7,1s-5.7,1.7-5.7,1.7L1804.9-193.9z"/>
<polygon fill="#AD6F5E" points="1824.7,-181 1846.5,-186.3 1851.3,-170.5 1828.7,-165 "/>
<path fill="#AD6F5E" d="M1829.6-163.4l22.1-5.8c0,0,2.9,4.1,3.7,9.6c0.8,5.4,2.8,20.5,2.8,20.5s-7.2,0.8-8.5,1.7s-2.8,3.7-4.5,4.1
	c-1.8,0.5-7.1,1.9-7.1,1.9l-10.2-0.4l-6.6-12.6c0,0,2.4-10.9,3-12.6c0.6-1.8,4.3-2,4.3-2L1829.6-163.4z"/>
<path fill="#7CB342" d="M1685.1-177l9.6-8.1c0,0,2.6,8.1,5.1,10.2c2.4,2.2,13.4,8.6,13.4,8.6l-12.4,10.6L1685.1-177z"/>
<path fill="#AD6F5E" d="M1696.2-186c0,0,3.1,9.4,4.8,10.5c1.7,1.1,13.2,8.3,13.2,8.3l11.6-10.4l-16.8-19.7L1696.2-186z"/>
<path fill="#AD6F5E" d="M1717.2-190.1c0,0,2-1.9,3.5-3.2c1.4-1.3,3.7-0.5,4.7-1.3c0.6-0.5,7.3-7.2,12.8-12.1c3.7-3.2,7-5.4,7-5.4
	s1.7,1.4,2.3,4.1c0.7,2.7,2.5,9.9,2.5,9.9l-22.6,19.1L1717.2-190.1z"/>
<path fill="#AD6F5E" d="M1701.6-154.7l7.3,10.9c0,0,19-15.9,22.3-17.7s26.3-7.2,26.3-7.2l-6.6-28.2L1701.6-154.7z"/>
<path fill="#AD6F5E" d="M1752.2-198l7,29l15.7-3.5c0,0-2.3-6.1-3.6-6.7c-0.8-0.4-3.1-0.8-2.8-2.5c0.3-1.6,4.1-2.3,4.1-3.5
	s-2.4-2.8-2.4-2.8s1.2-1.9,0.5-3.1c-0.3-0.5-2.5-1.1-3.8-2.5c-2-2.2-2.2-5.1-2.2-5.1s1.3-1.1,2.2-2.6c1-1.5-0.1-5.4-0.1-5.4
	L1752.2-198z"/>
<path fill="#AD6F5E" d="M1768-207.7l12.6-5.9c0,0,4,0.4,5.3,0c1.2-0.3,3.7-2.2,3.7-2.2s5.7,15.3,6.9,16.3c1.3,1,5.5,1,5.5,1
	l7.6,19.7c0,0-3.7,3-5.1,4.5c-1.4,1.5-3.6,5.8-3.6,5.8s-3.5-0.8-6-2.3c-1.9-1-1.8-2.6-3.4-2.8c-1.1-0.1-3.3,5-5.7,5
	c-0.8,0-1.8-2.1-1.8-2.1l-2.6,2.6c0,0-2.8-1.3-4-3.3c-0.5-0.8-1.4-3.4-2.3-5c-1.5-2.5-3.6-4.8-3.6-4.8l3.7-4.3l-3-3l1-2.1l-6.8-7
	l2.3-2.3L1768-207.7z"/>
<path fill="#AD6F5E" d="M1783-165.9c-0.5-1.7,0.9-3,0.9-3s1.5,1.4,2.5,1.5c1.1,0,4.6-4.9,5.2-4.9c0.6,0,2.4,3.5,3.2,3.7
	c0.7,0.2,3,0.4,4.6,1c1.6,0.6,2.1,2.4,3,2.6c0.9,0.2,3,0.4,3.2,0.8c0.2,0.4-2.2,2.7-1.8,4.3s1.6,15.2,1.6,15.2l-18.9,2
	c0,0-0.9-18.4-1.2-20.2C1785-164.8,1783.2-165.1,1783-165.9z"/>
<path fill="#7CB342" d="M1783-165.9c-0.5-1.7,0.9-3,0.9-3s1.5,1.4,2.5,1.5c1.1,0,4.6-4.9,5.2-4.9c0.6,0,2.4,3.5,3.2,3.7
	c0.7,0.2,3,0.4,4.6,1c1.6,0.6,2.1,2.4,3,2.6c0.9,0.2,3,0.4,3.2,0.8c0.2,0.4-2.2,2.7-1.8,4.3s0.4,3.2,0.4,3.2l-18.4-0.5
	c0,0-0.1-4-0.5-5.8C1785-164.9,1783.2-165.1,1783-165.9z"/>
<path fill="#AD6F5E" d="M1759.7-167.5c0,0,14.4-3.4,15.6-3.4c1.2-0.1,8,6.6,8.3,7.4s0.7,21.1,0.7,21.1l-21.3,1.5L1759.7-167.5z"/>
<path fill="#AD6F5E" d="M1709.7-142.7l22.2-17.7c0,0,25.1-6.6,25.9-6.7c0.9-0.2,3.9,30.3,6.2,44.8c0.6,3.7-0.1,7.2-0.1,7.2
	s-11.5-25.1-15.2-24.7c-2.9,0.3-25.1,17-25.1,17L1709.7-142.7z"/>
<path fill="#AD6F5E" d="M1698.9-133.3l8.2-8.2c0,0,14.2,16.9,15.2,20.1c1.4,4.6,0.4,14,0.4,14l-22.6-1.6c0,0,0.1-2.3,0.7-3.7
	c0.6-1.5,6.8-6.8,7-8.2C1707.9-122.4,1698.9-133.3,1698.9-133.3z"/>
<path fill="#AD6F5E" d="M1723.7-121.4c0,0,1,3.5,1,5.7c-0.1,2.2-0.3,9.5-0.3,9.5s9.8,0.8,10.8,1.3c1.1,0.4,14.9,20.6,14.9,20.6
	s8.3-7.5,9.9-12.1c1.5-4.6,3.9-16.8,3.2-17.9c-1.6-2.6-6.7-12.5-10.4-18.7c-2-3.4-4.1-5.2-4.1-5.2L1723.7-121.4z"/>
<path fill="#7CB342" d="M1764.5-111.4c0,0-0.3,9.7-3.5,15.7c-4.2,8.8-10,12.5-10,12.5s3.3,5.1,4.9,7.3c1.6,2.2,8.5,8.3,8.5,8.3
	s4.7-13,5.6-13.5c0.8-0.5,12.6-1,12.6-1L1764.5-111.4z"/>
<polygon fill="#5C6BC0" points="1758.9,-91.8 1751,-83.2 1755.9,-75.9 "/>
<polygon fill="#C02026" points="1764.5,-111.4 1761,-95.7 1771.6,-99.9 "/>
<path fill="#AD6F5E" d="M1763.1-139.6l20.9-1.6l-0.2,23.2c0,0-13.2-0.2-14.8,0.5c-1.7,0.7-3.7,1.6-3.7,1.6s0.2-5.3-0.3-11.4
	C1764.4-133.4,1763.1-139.6,1763.1-139.6z"/>
<polygon fill="#AD6F5E" points="1786.4,-141.2 1785.8,-118.3 1806.1,-119.3 1805.5,-143.3 "/>
<path fill="#AD6F5E" d="M1764.1-113.8c0,0,3.6-1.8,5.8-2.4c2.1-0.6,35.3-1.6,35.3-1.6s0.2,4.8-1.8,9.2c-3.6,7.7-12.6,14.5-14,15.1
	c-1.4,0.6-11.2,1.3-11.2,1.3L1764.1-113.8z"/>
<path fill="#AD6F5E" d="M1723.6-104.4l-1.3,22.6c0,0,17.5,2.5,20.4,2.2c2.9-0.3,5.9-3.5,5.9-3.5s-4-3.8-6.3-8.1
	c-2.3-4.3-5-10.4-8.2-12.1C1731-105,1723.6-104.4,1723.6-104.4z"/>
<path fill="#AD6F5E" d="M1721.4-80.6c0,0,21.9,3.1,24,2.2c2.1-0.9,4.3-3.7,4.3-3.7s3.1,3.8,3.5,5.3c0.4,1.5-3.4,18.9-3.4,18.9
	l-29.4-3.3L1721.4-80.6z"/>
<path fill="#AD6F5E" d="M1699.7-107.2l22.5,1.5l-1.6,22.7c0,0-5.6-4.8-7.7-4.9c-2.1-0.1-14.5-0.6-14.5-0.6L1699.7-107.2z"/>
<path fill="#AD6F5E" d="M1697.9-87c0,0,14.5,0.3,15.8,0.5s6.4,6.7,6.4,6.7l-2.2,19.6c0,0-2.8-2.8-8.7-7.2c-5.9-4.4-12-7.2-12-7.2
	L1697.9-87z"/>
<path fill="#AD6F5E" d="M1697.1-72.9l0.2,0.1c0,0,6,2.7,10.5,6.4c4.5,3.7,10.2,7.7,10.2,7.7s-0.8,3.4-3,5.6
	c-2.2,2.2-11.3,11.8-11.3,11.8l-16.1-10.9c0,0,1.7-3.8,4.3-6.7c1.9-2.2,5.2-3.9,5.2-6.5C1697-67.6,1697.1-72.9,1697.1-72.9z"/>
<path fill="#AD6F5E" d="M1671.5-89.2c0,0,22.4,12.6,23.5,14.8c1.1,2.2,1.3,7.2,0.7,8.8c-0.6,1.6-4.2,4.5-4.2,4.5s-8.7-2-15-3
	c-6.3-1.1-16.2-1.7-16.2-1.7L1671.5-89.2z"/>
<path fill="#AD6F5E" d="M1650.2-50.8l9.2-13.8l31.2,4.8l-9.1,13.1c0,0-1.8-1-3-2.8c-1.4-2.1-2.3-5.1-3.1-5.2
	c-1.4-0.1-3.7,2.4-4.4,3.6c-0.7,1.2-1.4,4.1,0,4.2c1.4,0.1,2.4-5.3,3.7-5.2c1.3,0.1,5.2,7.4,5.2,7.4l-8.4,10L1650.2-50.8z"/>
<polygon fill="#AD6F5E" points="1673.2,-33.7 1686.4,-50.9 1702.5,-40.1 1690.2,-20.5 "/>
<polygon fill="#AD6F5E" points="1692,-20.5 1705.7,-41.7 1717.3,-33 1717.1,-13.1 1710.7,-4.5 "/>
<path fill="#AD6F5E" d="M1707.4-42.8l11.7,8.6c0,0,16.5-11.8,22.5-15.2c6.1-3.4,6.1-6.8,6.1-6.8l-28.1-3.5c0,0-0.7,2.9-1.6,4.5
	C1717.1-53.5,1707.4-42.8,1707.4-42.8z"/>
<path fill="#AD6F5E" d="M1738.2-45c0,0,10.1-6.3,12.5-10.8c2.4-4.5,3.8-19.7,3.8-19.7s9.7,8.4,10,10.5s-16.3,25.7-16.3,25.7
	L1738.2-45z"/>
<path fill="#5C6BC0" d="M1626.2-38.1l15.9-17.2c0,0,3.4,2.3,5,3.5c1.6,1.2,0.3,3.5,1.6,4.4c1.3,0.9,21.2,13.8,21.2,13.8l-11.5,16.2
	L1626.2-38.1z"/>
<path fill="#5C6BC0" d="M1659.9-17l11.7-15.6l17.4,13c0,0-6.9,9.7-8.4,11.2c-2.2,2-10.6,4.2-10.6,4.2s-0.6-5.2-2.1-6.9
	C1666.4-12.7,1659.9-17,1659.9-17z"/>
<path fill="#AD6F5E" d="M1670.9-2.2c0,0,8.8-3.4,11.1-5.7s8.7-11.4,8.7-11.4s12.9,11.2,18.9,15.4c6,4.1,15.2,9.2,20.4,13.2
	c2.2,1.6,6.3,5.7,10.8,9.2c6.6,5.1,13.6,9.6,13.6,9.6L1737.2,52c0,0-12.4-1.6-15.5-5.5c-3.1-3.8-1.6-14.5-1.7-16.5
	c-0.1-2-0.9-10.6-10-10.7c-2.1,0-4.4,4.5-8,6c-2,0.8-5,1.6-6.7,2.9c-1.3,1-1.6,2.7-1.5,3.4c0.2,1,1.3,2.2,1.2,2.8
	c-0.1,1.4-0.5,2-1.6,2.2c-1,0.2-1.2-0.9-2.6-0.9c-2.7,0-9.8,7.7-9.8,7.7l-1.9,4.2L1670.9-2.2z"/>
<path fill="#AD6F5E" d="M1712.8-3.9c0,0,5.5-6.5,6.5-8.9s0.6-11.2,0.6-11.2s6.7-0.1,8.5,0.5c1.9,0.7,4.5,2.8,5.4,3.8
	c0.8,0.9,1.2,3.1,1.2,3.1l13,9.6l-13.9,17.6L1712.8-3.9z"/>
<path fill="#7CB342" d="M1719.5-33l-0.1,7.4c0,0,10.7-0.7,13.8,2.6s2.9,5.9,2.9,5.9l13.3,8.4l5.4-5.6l3.3,2.6l1.3-3.2
	c0,0,3,0.6,4.4-1.1c0.6-0.7,0.8-2.2,1.3-3.3c0.7-1.5,1.4-2.5,1.4-2.5l-0.6-5.7c0,0,2.5-0.7,4.5-0.2c0.8,0.2,2.2,1.7,4,2.6
	c3,1.5,6.5,2.5,6.5,2.5s2.1-8.1-0.8-13.6c-0.9-1.7-13.2-9.6-14.2-11.4c-0.4-0.7,0.3-3.9,0.5-6.8c0.2-4.3,0.1-8.7,0.1-8.7l-17.3,25.9
	l-13.5-7L1719.5-33z"/>
<path fill="#7CB342" d="M1759.6-11.1c0,0,4.4-2,5.9-4.3c1.4-2.3,2.8-10.4,2.8-10.4s8.2,4.2,10.7,5.2c2.5,1.1,5.1,0.7,6.2,1.4
	c1.1,0.7,3.1,2,3.1,2l-13.2,17.7L1759.6-11.1z"/>
<polygon fill="#AD6F5E" points="1735.2,11.4 1754.9,-12.2 1773.8,1.9 1755.9,26.3 "/>
<polygon fill="#AD6F5E" points="1756.7,27.9 1763.2,18.4 1788.9,38.1 1778.7,51 "/>
<polygon fill="#AD6F5E" points="1764.1,17.7 1775.4,2.7 1784.4,8.9 1785.8,7.3 1788,10.4 1800.7,22 1789.6,36.3 "/>
<polygon fill="#5C6BC0" points="1735.5,57.4 1755.9,29.7 1777.4,52.5 1762,73.1 "/>
<path fill="#AD6F5E" d="M1718.4,86.2c-0.3-0.4,17.8-33.3,17.8-33.3s-11.5-0.7-15.6-5.2c-3.5-3.9-1.4-13.7-2.3-20.5
	c-0.8-6.1-5.5-6.2-6.9-6.2c-1.4,0-4.9,4.5-7.7,5.9s-8,3.8-8,3.8s4.4,5.4,1.5,8.3c-2.2,2.2-7.2-1.3-7.2-1.3l-8.2,7.9
	c0,0,2.1,1.2,1.1,3.8c-0.5,1.2-2.2,0.7-2.2,0.7L1718.4,86.2z"/>
<path fill="#AD6F5E" d="M1720.1,87.3l15.4-28.8l29.1,18.5c0,0-6.6,6.6-8.3,9.9c-1.7,3.3-4.6,7.4-4.5,8.1
	C1751.8,95.5,1720.1,87.3,1720.1,87.3z"/>
<path fill="#AD6F5E" d="M1763.6,73.3c0,0,9.7,7.7,14.9,9.1c5.2,1.3,27.8,7.2,27.8,7.2s0-2.7,1-4.4c1-1.6,3.2-5.2,3.2-5.2
	s-11.2-3.7-16.1-7.4c-4.9-3.7-15.7-20.1-15.7-20.1L1763.6,73.3z"/>
<path fill="#AD6F5E" d="M1763.9,100.4c1.1,1.6,1.9,3.9,3.8,4.6c2.1,0.7,5.3-2.2,5.3-2.2l5,2.3c0,0-1.9-4.8-3.3-8.3l-0.1-0.2
	c0,0,4.4-2.3,5.7-4.3c1.3-2,1.5-7.3,1.5-7.3l-6.1-2.2l-9.5-4.3c0,0-5.7,4.5-7.6,7.5c-1.9,3-4.8,8.9-4.8,8.9s5.7,1.7,7.7,2.3
	C1762.2,97.4,1763.1,98.8,1763.9,100.4z"/>
<path fill="#7CB342" d="M1780,105.1c0,0,7.8,6,11.5,7.6c3.8,0.2,11.1,0.4,11.1,0.4l4.1-0.2l-0.1-2.9l-0.4-19l-22.7-5.4
	c0,0,0.3,5.2-0.8,7c-0.9,1.4-4,3.3-5.3,4.6c0.3,0-0.5,1.5,0,3.1C1778,102.4,1780,105.1,1780,105.1z"/>
<path fill="#AD6F5E" d="M1811.3,113.3c3.7-0.2,9.5-0.5,12-0.3c3.9,0.3,11.9,0.9,11.9,0.9l5.1-18.2l-28-13.6c0,0-4,4-4,6.9
	c0,2.2-0.1,16-0.2,21.8C1809.1,111.7,1810.2,112.5,1811.3,113.3z"/>
<path fill="#C02026" d="M1780.1,52.5c0,0,10.8,14.8,12.1,16.3c2.1,2.3,5.9,3,5.9,3s6.4-7.4,9.2-10.8c0.9-1.1,1.2-9.3,1.2-9.3
	l-18-12.9L1780.1,52.5z"/>
<path fill="#7CB342" d="M1791,37.1l2.1-3.2c0,0,16.6,13.3,19.3,13c2.7-0.4,6.5-8.6,8.5-9.6c0.9-0.4,4.2,2.3,8,4.5
	c4.5,2.5,9.6,4.6,10.4,5.3c-1.1,1.5-11.2,5.9-11.2,5.9l1.1,5.4l-16.1,18l-11.8-6.1c0,0,8.6-8,8.8-13.2c0.1-2.3-0.6-5.7-0.6-5.7
	L1791,37.1z"/>
<path fill="#AD6F5E" d="M1802.3-167.9l4.7,3.2c0,0-1.7,3.7-1.4,7.3c0.3,3.5,1.2,14.3,1.2,14.3s2.8,0.2,6.5,0.4
	c1.5,0.1,4.4-0.4,5.8-1.5c2-1.5,2.3-3.8,2.3-3.8l1.8-11.3c0,0,3.6-0.8,4.1-2.6c0.5-1.7-3.6-18.2-3.6-18.2s-9.1,0.4-13.4,3.5
	C1805.9-173.5,1802.3-167.9,1802.3-167.9z"/>
<path fill="#7CB342" d="M1802.3-167.9l4.7,3.2l19.3-4.8l-2.5-10.6c0,0-9.1,0.4-13.4,3.5C1805.9-173.5,1802.3-167.9,1802.3-167.9z"/>
<path fill="#AD6F5E" d="M1807.5-140.3c0,0,5.2-0.1,7.1,0.1c1.9,0.1,5-2.2,5-2.2s6.5,8.3,7.5,11.3c1,3.1-1,11.7-1,11.7l-18,0.4
	L1807.5-140.3z"/>
<path fill="#7CB342" d="M2044.2,350.9l37.7-20.9c0,0,1.4,6.3,2.9,7.5c1.5,1.1,21.6,16.1,22.6,18.5c1,2.3,1.4,11.4-0.1,14.8
	s-7.4,7-14.1,10.6c-3.3,1.7-8,4.2-12.3,5.2c-4.7,1.1-9,2.2-11.2-1.8c-1.2-2.1-5.4-5.5-11.7-14.5
	C2051.5,361.3,2044.2,350.9,2044.2,350.9z"/>
<path fill="#7CB342" d="M2043.5,349l37.6-20.7c0,0-5-25.8-6.7-31.4s-9.6-18-9.6-18l-2.1,2.2l-10.1-0.2l-1.3,20.7
	c0,0-1.3-0.8-1.6,0.6c-0.4,1.4,0.7,3.9,0.7,3.9s-3.4,2.2-3.2,3.5s0.5,2.8,0.5,2.8s-8.9,7.3-9.9,6.5c-1-0.9-7.6-6.4-8.4-6.8
	s0-2.8,0-2.8s1.7-0.5,2.4-2.2c0.8-1.7-0.8-3.3-0.8-3.3l4.5-11.3l-16.9,15.1c0,0,10,9.4,11,11.3s0.6,5.1,0.6,5.1s7.8-0.9,10.1,0.2
	c2.2,1.1,4.1,5.2,5,8c0.9,2.7,2.7,7.3,2.1,9.8C2046.8,344.6,2043.5,349,2043.5,349z"/>
<path fill="#7CB342" d="M2025.8,278.6l11.2-13.1c0,0,9.2,12.5,10.7,13.3c1.5,0.8,4,2,4,2l-2.4,15.7c0,0-3.8-2-6.3-3
	s-4.3-2.4-4.3-2.4s-2.7,0.1-3.7-1C2034,288.9,2025.8,278.6,2025.8,278.6z"/>
<polygon fill="#5C6BC0" points="2022.3,244.3 2037.5,263.3 2046.5,256.3 2033.8,231 "/>
<polygon fill="#5C6BC0" points="2001.2,253.2 2016.7,240.5 2036.1,264.9 2024,277.3 "/>
<path fill="#AD6F5E" d="M1981.1,270.3l18.7-16c0,0,22,23.9,25.2,26.6c3.2,2.6,9,11.2,9,11.2l-16.9,15.1c0,0-13.7-9-17-13.1
	C1996.8,290,1981.1,270.3,1981.1,270.3z"/>
<polygon fill="#5C6BC0" points="1985.9,237.5 2000.3,252.4 2016.2,239.3 2001.2,223.6 "/>
<polygon fill="#7CB342" points="1985.9,237.5 2000.3,252.4 2009.1,245.2 1994.5,229.6 "/>
<polygon fill="#AD6F5E" points="1966.1,257.1 1984.4,238.7 1998.9,253 1980.3,269.1 "/>
<path fill="#5C6BC0" d="M1972.5,224l12.1,12.1l15.7-13.8c0,0-3.6-2.9-6-5c-2.5-2.2-5.3-8.2-5.3-8.2L1972.5,224z"/>
<polygon fill="#8E24AA" points="1951.3,243.2 1970,225.2 1983.1,237.9 1964.7,256 "/>
<path fill="#5C6BC0" d="M1952.8,202c0,0,4.1,9.3,7.6,12.2c3.5,3,10.6,9.1,10.6,9.1l16.7-14.9l-13.7-9.9l-11.7-8.2L1952.8,202z"/>
<path fill="#8E24AA" d="M1933.7,218.9l17.3-15.5c0,0,2.6,5.6,4.1,7.2c1.6,1.7,3.1,3.3,3.1,3.3l-17.4,15.3L1933.7,218.9z"/>
<polygon fill="#8E24AA" points="1959.1,215.4 1969.2,223.9 1950.4,242.1 1941.5,230.2 "/>
<path fill="#8E24AA" d="M1919.7,146.2l33.9-41.5l40.1,24.2c0,0-3.2,11-3.4,23.1s-1,34.6-1,34.6s25.8,24.1,37,33.7
	c-3.9,5.3-12.7,12.6-12.7,12.6l-25.9-28.3l-26.7-18l-16.9-17.8L1919.7,146.2z"/>
<polygon fill="#5C6BC0" points="1910.5,161.2 1920.3,149.9 1944.4,170.4 1932.2,181.8 "/>
<polygon fill="#5C6BC0" points="1933.1,183 1945.3,171.6 1961.2,188.6 1951.7,200.9 "/>
<polygon fill="#AD6F5E" points="1918.2,198.5 1931.9,183.9 1950.7,201.8 1935.7,215.2 "/>
<polygon fill="#8E24AA" points="1897.9,177.8 1909.5,162.1 1930.7,183.2 1917.1,197.5 "/>
<polygon fill="#8E24AA" points="1873.5,153.9 1896.7,176.2 1907.5,161.5 1882.9,141.5 "/>
<path fill="#7CB342" d="M1872.9,154.9l60.9,60.3c0,0-0.1,3.2-4.3,1.9s-40.8-13-40.8-13l-23.4-38.1L1872.9,154.9z"/>
<path fill="#8E24AA" d="M1882.8,138.4l26.5,21.4l10.3-11.5c0,0-0.9-2.6-4.4-5.5s-21-17.2-21-17.2L1882.8,138.4z"/>
<path fill="#5C6BC0" d="M1897.2,125.6l14.8,12.2l7.7,6.4l32.5-40.1c0,0-5.6-3.4-14.7-5.7c-9.2-2.3-18.4-2.5-18.4-2.5L1897.2,125.6z"
	/>
<path fill="#8DC641" d="M1914.6,143.7"/>
<path fill="#7CB342" d="M1881.6,137.6l10.8-13.2c0,0-14.5-14.3-21.5-14.3c-3.5,0-17.7,13.3-19.3,14.4c-2.9,1.9-1.5,6.1,6.1,15.9
	c4.4,5.6,10.3,9.2,10.3,9.2l9.9-11.7L1881.6,137.6z"/>
<path fill="#5C6BC0" d="M1873.9,108.9c0,0,5.2,1.9,9.8,5.6s12.2,10,12.2,10l21.7-28.7c0,0-5.8-2.5-7.8-4.7s-7.9-17.6-7.9-17.6
	s-14.8,16.6-17.1,18.8c-2.3,2.2-2.1,4.8-3.3,6.6c-0.8,1-3.1,4.1-4.9,6.6C1875.1,107.3,1873.9,108.9,1873.9,108.9z"/>
<path fill="#AD6F5E" d="M1794.4,32.6l18.2,12.7c0,0,6.2-7.5,5.1-10.2c-2.1-3.8-15.2-12.1-15.2-12.1L1794.4,32.6z"/>
<path fill="#AD6F5E" d="M1777.2,1.1l6.5,4.9c0,0,1.2-1,2.2-1.1s3.2,4.1,3.2,4.1l11.6,10.6c0,0,7.1-6.7,8.1-10.5
	c0.9-3.8-1.4-24.2-1.4-24.2s-4.5,1.1-6.6,0.4c-2-0.8-2.8-5.8-5.4-6.2c-2.6-0.4-6.1,4.2-6.1,4.2L1777.2,1.1z"/>
<path fill="#7CB342" d="M1798.2-20.9c0,0,2.2,5.5,4.1,5.2c1.8-0.3,4.2-0.7,4.2-0.7l-1.1-13.2L1797-26L1798.2-20.9z"/>
<polygon fill="#5C6BC0" points="1811.9,79.5 1830.1,59.6 1846.1,82.4 1844.2,95.2 "/>
<polygon fill="#AD6F5E" points="1830,54.7 1847.8,82.5 1848.4,87.8 1860.3,75.8 1867.5,62.3 1842.1,49.1 "/>
<path fill="#7CB342" d="M1868.8,63l-7.7,14.7l11.2,7c0,0,0.3,4,1.7,5s3.1-0.6,3.1-0.6l4.8,4.6l12.7-15.7L1868.8,63z"/>
<path fill="#5C6BC0" d="M1846.3,96.3l1.6-6.4l11.3-11.8c0,0,5.6,3.6,8,5.3c2.4,1.7,4.2,6.8,6.3,7.6s4.2-0.1,4.2-0.1s2.2,2.8,3.3,4.4
	c1.1,1.7-9.7,13-9.7,13L1846.3,96.3z"/>
<path fill="#FCB017" d="M1782.7-22.8c0.2,2.2,5.2,4.7,6.7,3.6c1.6-1.2,5.6-4.2,5.6-4.2l-0.3-3.6c0,0,6.9-3.2,9.5-4.5
	c2.6-1.3,0.1-7.1,0.1-7.1s-2.9-4.3-5-7.6c-2.1-3.3-6.9-28.8-16.1-33.7c-3.5-1.9-11.6,0.6-11.6,0.6s-4.6,9.3-5,11.8
	c-0.4,2.4,3.7,4.3,3.2,5.9s-3.1,9-1.6,12.4s11.5,10.4,11.5,10.4l3.2,0.7c0,0-0.9,1.6,0.3,5.5c1.2,3.8,1.8,5.6,1.8,5.6
	S1782.5-25,1782.7-22.8z"/>
<path fill="#8E24AA" d="M1790.5-75.1c0,0,2.1,1.8,3.8,6.5c1.7,4.7,5.4,14.6,5.4,14.6s1.1-0.9,1.6-2.5c0.6-2.2-0.2-4.5,1.9-6.3
	c4.1-3.2,10.6-1.1,12.6,0.2c2.1,1.2,3.7,3.8,3.7,3.8s4.2,0,7.1,1.3c2.9,1.3,7.1,4.8,7.1,4.8s3-5.9,4.6-7.9c1.7-2,8.2-1,8.2-1
	s-0.1-1.6-0.8-2.1c-0.7-0.5-2.9-0.4-3-1.3c-0.1-0.8,0.3-3.8-0.6-5c-0.9-1.2-39.3-12.1-41.3-11.8
	C1798.8-81.2,1790.5-75.1,1790.5-75.1z"/>
<path fill="#7CB342" d="M1779.4-90.8l6.1,9.1l5.1,5.5c0,0,7.4-5,10-7.6c2.6-2.6,19.8-17,21.1-19.3c1.3-2.3,3.7-14.4,3.7-14.4
	l-17.9,0.5c0,0-0.6,5.4-3.2,10.7c-1.2,2.4-3.6,4.8-5.3,6.8c-1.8,2-4.8,5.5-7.6,6.8C1785.4-90.1,1779.4-90.8,1779.4-90.8z"/>
<path fill="#AD6F5E" d="M1827.7-118l14.4,0.1l-0.1,14.7c0,0-3.2-0.5-4.1,0c-0.8,0.4-1.9,3.3-3.1,3.1c-1-0.2-2.8-2.1-4.7-3.1
	c-2.9-1.6-5.9-2.4-5.9-2.4L1827.7-118z"/>
<polygon fill="#AD6F5E" points="1844.3,-117.9 1844.2,-107.4 1856.3,-109 1856.4,-117.8 "/>
<path fill="#8E24AA" d="M1802.8-83.9l22.4-19.6c0,0,7.8,5.8,9.7,5.5c1.9-0.4,2.9-3.2,4.1-4c0.5-0.3,2.3-0.2,4.4-0.5
	c3.3-0.5,7.4-1.3,9.8-1.3c3.8,0.1,9.9,1,10.6,3.5s2.8,32.9,2.8,32.9l-8.7-2c0,0,1.7-13.4,0.6-14.1c-1.1-0.8-3,2.4-4.6,2.8
	c-1.6,0.4-1.7-2.3-4.4,0.3c-2.8,2.6-3.1,4.3-2.8,5.9c0.4,1.6,3.3,3.7,3.3,3.7s-3.1,0.6-8.8-1.2C1835.5-73.7,1802.8-83.9,1802.8-83.9
	z"/>
<path fill="#8E24AA" d="M1810.5-0.4c0,0-2-32.6-2-37c0-2-2.9-3.8-4.5-6.6c-2-3.4-2.9-5.4-2.8-7.4c0.1-2,1.1-3.9,1.9-5.2
	c0.8-1.2-0.2-3,0.5-4.1s1.8-1.9,3.3-2s8.7,0.5,9.8,3.3s-1.9,11.2-1,12.1c0.9,0.9,11.6,1.4,11.6,1.4s1.9-5.4,3.2-6
	c1.3-0.7,3.2,2.6,4.4,2c1.2-0.6,2.9-7.4,4-8.6c1.1-1.2,7.5-0.6,8.8-1.7c1.3-1.1-1.3-7.8,0-8.4s3.4,1.9,5.4,1.9s2.3-2.1,3.5-1.9
	s4.3,2.7,5.4,2.9c1.2,0.3,3.7-0.1,3.7-0.1s0.1,4.1,2.7,11.3c2.6,7.2,18.3,30.8,18.3,30.8h-5.5l0.2,16.3L1810.5-0.4z"/>
<path fill="#8E24AA" d="M1803,20.7l11.8,9.5c0,0,16.5-21.2,17.7-23.4c1.2-2.3,0.4-7.8,0.4-7.8l-22.5,2c0,0,1.1,7.1-0.8,10.5
	C1807.7,14.9,1803,20.7,1803,20.7z"/>
<polygon fill="#8E24AA" points="1842.1,46.7 1855.9,39.5 1822.9,21.8 1815.7,31 "/>
<polygon fill="#AD6F5E" points="1851.2,13.2 1844,7.7 1834.2,7.6 1824,20.7 1838.3,28.1 "/>
<polygon fill="#7CB342" points="1838.3,28.2 1858,39.4 1872.9,27 1849,11.6 "/>
<polygon fill="#C02026" points="1844,48 1857.2,40.9 1873.3,50 1868.1,60.9 "/>
<polygon fill="#8E24AA" points="1859.5,40.3 1874,48.8 1881.5,36 1890.9,42.1 1891.1,13.3 "/>
<polygon fill="#8E24AA" points="1834.3,4.8 1843.9,5.5 1851.2,10.3 1859.6,-0.9 1859.6,-3.9 1834.3,-1.6 "/>
<path fill="#8E24AA" d="M1861.1-3.9l20.1-2.2l-0.1,8.3c0,0-6.5,3-10.2,7s-6.7,8.6-6.7,8.6l-11.2-7.6l8-10.6L1861.1-3.9z"/>
<path fill="#8E24AA" d="M1865.5,18.7l8.8,7.3l17.1-15.1l-9.3-7.5c0,0-5.4,2.3-9.1,5.9C1869.4,13,1865.5,18.7,1865.5,18.7z"/>
<path fill="#8E24AA" d="M1882.8-22.6l0.7,25l9.3,7.7l17.8-16.8c0,0-3.7-3.7-4.7-5.4c-0.9-1.8,0.3-5.7-4-7.9S1882.8-22.6,1882.8-22.6
	z"/>
<path fill="#8E24AA" d="M1893.7,11.2l17.7-17l6.6,0.6c0,0-0.8,15.8-0.8,30.1c0.1,10.9,0.9,20.9,1.7,23.1c1.8,5.2,10.5,7.7,11.6,14.7
	c0.6,3.5-1,5.3-2.5,7.8s-2.9,5.7-4.2,8.2c-2.6,4.9-3.3,10.1-2.4,11.3c1.2,1.6,3.5,2.1,3.5,2.6c-3.3,4-12.7-0.4-14.5-2.6
	c-1.9-2.2-11.2-31.5-17-46.5L1893.7,11.2z"/>
<polygon fill="#8E24AA" points="1881.8,38.1 1892.9,45.6 1901.1,71.4 1895.9,77 1869.5,61.7 "/>
<path fill="#7CB342" d="M1686.2-235.4c0,0,6.8-1.9,17.7-1.7c4,0.1,8.4-0.9,11.7,0.1c5.6,1.8,8.9,5.8,8.9,5.8l-23.2,18.7
	c0,0-14.3-13.4-15.1-16.8C1685.3-232.5,1686.2-235.4,1686.2-235.4z"/>
<polygon fill="#C02026" points="1673.6,-263.2 1680,-264.3 1680,-260.6 "/>
<polygon fill="#C02026" points="1716.6,-340.3 1716.5,-334.1 1721.9,-334 1721.9,-337 1720.3,-340.3 "/>
<polygon fill="#C02026" points="1729.9,-340.2 1727.7,-337.1 1728.2,-334 1732.8,-333.9 1732.2,-340.2 "/>
<path fill="#C02026" d="M1719-298.4l-8.9-0.1c0,0,0,2.5,1.2,5.6s3.2,5.3,3.2,5.3l5.9-5.8c0,0-0.8-0.6-1.4-1.8
	C1718.4-296.4,1719-298.4,1719-298.4z"/>
<path fill="#FCB017" d="M1732.1-310.7l1.4-1.2h2l6.6,4.7l-3.1,4.5c0,0-4.5-0.3-6.4-2.2c-2-2-3-2.6-3-2.6s2.2-1.1,2.5-1.7
	C1732.5-309.7,1732.1-310.7,1732.1-310.7z"/>
<path fill="#AD6F5E" d="M1733.1-311.9l0.1-9.1l17.8,0.2l-0.4,6.2l-0.7,7.8l-7.9-0.1c0,0-2.2-0.2-4-2.2
	C1736.2-311.1,1733.1-311.9,1733.1-311.9z"/>
<polygon fill="#FCB017" points="1751.6,-313.6 1753.9,-316.7 1756,-315.1 1756.8,-315.9 1760.1,-315 1758.9,-311.9 1759.6,-310.4 
	1758.3,-308.8 1757.4,-309.7 1756.9,-308.4 "/>
<polygon fill="#5C6BC0" points="1779.6,-329.8 1779,-327 1780.5,-326.9 1779,-324.5 1781.9,-323.8 1780.3,-310.4 1782.7,-310.3 
	1781.6,-299.1 1784,-299.1 1788.1,-299 1784.6,-328 1780.4,-331.9 "/>
<polygon fill="#C02026" points="1782.8,-284.2 1790.2,-284.1 1788.1,-299 1783.9,-299.1 "/>
<path fill="#FCB017" d="M1779.3-340.5l-2.2,2.5l-1.9-1.2l-0.6,0.7l0.5,3.9l-1.1,0.4l1,2l-0.1,1.2l2.1,0.4l-1.2,1.8l0.4,2.1l1.5-0.7
	l1,0.7l0.6-0.8l0.4-2.5c0,0,0.3,0.6,0.5,0.6s0.6-0.7,0.6-0.7l0.3,1l3.7,1.2L1779.3-340.5z"/>
<polygon fill="#C02026" points="2014.7,234.2 2027.4,221.2 2030.3,225.7 2017.2,238.1 "/>
<polygon fill="#7CB342" points="2017.9,239.4 2020.4,243 2031.7,231.3 2030.5,227.3 "/>
<path fill="#7CB342" d="M2038.9,264.4l9-6.7l16.1,19.9l-2.3,2.2c0,0-7.6,0.5-9.9-0.1C2045.5,275.5,2038.9,264.4,2038.9,264.4z"/>
<polygon fill="#FCB017" points="2043.3,261.1 2051.7,273.8 2059.1,271.6 2047.9,257.7 "/>
<path fill="#FCB017" d="M2036.8,292.5l-3,9.7c0,0,0.6,4.7-0.1,5.9s-3.3,3.1-3.3,3.1l8.8,6c0,0,4.8-3.7,5.7-4.4
	c0.9-0.6,0.2-3.8,1-5.5c0.9-1.7,3.3-2,3.3-2s-1.1-3.7-1-4.8s1.7-1.7,1.7-1.7L2036.8,292.5z"/>
<polygon fill="#C02026" points="2043.2,273.7 2040.5,277.4 2047.4,281.1 2048.4,279.2 "/>
<polygon fill="#5C6BC0" points="2055.5,344.6 2058.4,350 2073.5,341.5 2068.8,337.2 "/>
<polygon fill="#7CB342" points="1946.2,195.6 1952.9,187.6 1958.4,192.1 1951.7,200.9 "/>
<polygon fill="#7CB342" points="1959,194.3 1964,203.5 1958.3,212 1952.8,202 "/>
<polygon fill="#FCB017" points="1967.4,213.6 1966.5,208.9 1968.4,205.5 1967.5,199.8 1972.7,202.3 1972.8,205.3 1978,206.9 
	1972.6,212.1 1972.6,215.6 "/>
<polygon fill="#FCB017" points="1927.6,147 1932.4,139 1939.3,144.4 1933.4,153.4 "/>
<polygon fill="#C02026" points="1916.4,154.3 1923.1,159.9 1926.6,155.3 1920.3,149.9 "/>
<polygon fill="#FCB017" points="1920.1,170.3 1921.4,168.3 1919.5,165.8 1920.5,162.2 1924.3,164.3 1926.6,163.7 1928.5,165.9 
	1926.5,168.3 1928.5,170.4 1924,174 "/>
<polygon fill="#FCB017" points="1892.4,149.7 1890.6,153 1897,156.9 1899.1,154.7 "/>
<polyline fill="#FCB017" points="1894.1,146.6 1894.9,145.8 1902.9,151.4 1901.4,153.3 1894.1,147.5 "/>
<polygon fill="#FCB017" points="1999.1,234.5 1995.1,238 2002.1,242.8 2004.6,240.4 2007.9,236.4 2001.4,229.7 1997.5,230.6 
	1996.1,231.3 "/>
<polygon fill="#7CB342" points="1919.8,127.9 1912.4,122.3 1919,112.2 1935.8,124.4 1927.7,134.4 "/>
<polygon fill="#C02026" points="1921.8,125.8 1929.5,132.1 1919.7,144.2 1911.3,137.2 "/>
<polygon fill="#BDB8BF" points="1900.1,128 1908.7,119.3 1919.8,127.9 1911.3,137.2 "/>
<polygon fill="#AD6F5E" points="1924.2,116 1927.9,110.6 1939.5,119.6 1935.8,124.4 "/>
<path fill="#AD6F5E" d="M1936,97.5c0,0,2.8,0.7,7.8,2.7s8.4,3.8,8.4,3.8l-7.4,9.1l-13.5-7L1936,97.5z"/>
<path fill="#C02026" d="M1883.1,110.2l-1.4,2.8c0,0-2.1-1.3-4-2.4c-2-1.1-3.7-1.7-3.7-1.7l2.6-3.4L1883.1,110.2z"/>
<polygon fill="#AD6F5E" points="1876.5,105.4 1881.4,98.9 1883.5,94 1901.9,73.5 1908.1,88.3 1898.1,104.2 1892.3,99.7 
	1887.6,105.5 1885,104.1 1881.1,108.6 "/>
<polygon fill="#FCB017" points="1894.2,114.3 1897.1,116.5 1897.1,113.8 1900.1,113.1 1895.6,109.3 1894.5,105 1892.2,107.1 
	1894.4,110.3 1892.1,113.1 1894.3,115.9 "/>
<polygon fill="#FCB017" points="1866.3,124.2 1870.6,127.9 1871.4,123.8 1874.5,122.9 1874.5,118.1 1872.1,118.1 1870.5,112.4 
	1867,112.8 1868.4,116.2 1864.7,118.1 1862.6,116.8 1860.8,120.2 1864.6,120.8 1860.7,123.7 1856.7,124.1 1858.4,127.7 
	1862.5,127.8 "/>
<polygon fill="#FCB017" points="1858.6,136.8 1864,143.4 1865.5,141.4 1868.1,142.4 1871.8,138.4 1868.7,136.9 1868.7,132.6 
	1864.6,129.7 1862.5,133.8 "/>
<path fill="#FCB017" d="M1837.8,128.5h2.2l-1.3-8.8h2.7l6.5-20.7l-6-2.7c0,0-5.8,22.1-5.4,24
	C1836.7,122.3,1837.8,128.5,1837.8,128.5z"/>
<polygon fill="#BDB8BF" points="1837.8,128.5 1840,128.5 1838.6,119.9 1854,120.1 1850.5,122.8 1841.4,141.1 "/>
<polygon fill="#AD6F5E" points="1841.3,119.7 1847.7,119.7 1859.6,104.5 1847.8,98.9 "/>
<polygon fill="#C02026" points="1859.6,104.7 1868.4,109.1 1861.7,112.8 1854.2,111.6 "/>
<polygon fill="#384BA0" points="1847.7,120 1854,120.1 1861.7,112.8 1854.2,111.6 "/>
<polygon fill="#FCB017" points="1868.6,77.8 1874.8,81.6 1874.8,86.4 1878.9,84 1883.9,86.4 1888.4,82.2 1884.2,80.3 1884,76 
	1874.2,71.1 1872.5,73.3 1869.4,74.4 "/>
<polygon fill="#C02026" points="1882.9,-18.8 1899.9,-16.4 1897.2,-5.9 1883.3,-5.4 "/>
<polygon fill="#FCB017" points="1818.5,-42.6 1832.5,-41.4 1828.1,-33.5 1819.2,-33.6 1821.5,-38.1 1818.3,-39.8 "/>
<polygon fill="#FCB017" points="1841.3,-14.2 1852.1,-12.6 1853.4,-23.3 1860,-23.2 1860.2,-30.8 1847.7,-30.9 1847.5,-25.2 
	1843.6,-26.9 "/>
<polygon fill="#FCB017" points="1851.1,-72 1849.3,-75.4 1850.5,-79 1852.6,-79 1857,-80.2 1856,-72 "/>
<polygon fill="#FCB017" points="1837.3,11.5 1851.3,22 1845.8,27.1 1835.9,20.8 1838.7,17.9 1834.3,14.6 "/>
<polygon fill="#FCB017" points="1860.2,36.9 1869.1,30.2 1864.7,25.9 1862,27.2 1859.7,25.5 1852.9,31.2 "/>
<polygon fill="#FCB017" points="1857.7,5.8 1865.8,10.4 1877.4,1.5 1861.2,-3.9 1861.1,-0.3 "/>
<polygon fill="#8DC641" points="1893.7,11.2 1917.4,12.1 1918,-5.2 1911.4,-5.8 "/>
<polygon fill="#5C6BC0" points="1907.9,12.1 1907.8,20.7 1917.2,22.6 1917.3,12.1 "/>
<polygon fill="#7CB342" points="1744.5,21.2 1741.3,30.2 1748.2,37 1754.6,28.2 "/>
<polygon fill="#7CB342" points="1750.1,38.5 1756.5,44.8 1762.6,36.8 1755.9,29.7 "/>
<polygon fill="#7CB342" points="1747.9,20.6 1752.4,14.8 1756.8,16 1769,-0.8 1773.8,1.9 1755.9,26.3 "/>
<polygon fill="#7CB342" points="1761.5,33 1765.8,27.5 1760.7,22.6 1756.7,27.9 "/>
<polygon fill="#C02026" points="1735.2,11.4 1740.7,4.8 1752.4,14.8 1747.9,20.6 "/>
<polygon fill="#C02026" points="1712.8,-3.9 1715.8,-7.5 1738.8,4.7 1734.2,10.6 "/>
<polygon fill="#C02026" points="1692,-20.5 1701.9,-35.8 1704.7,-29.7 1698.4,-25.7 1702.4,-21.7 1697.9,-19.7 1715.2,-10.4 
	1710.8,-4.5 "/>
<polygon fill="#C02026" points="1673.2,-33.7 1676.8,-38.3 1693.9,-26.4 1690.2,-20.5 "/>
<polygon fill="#C02026" points="1650.2,-50.8 1653.2,-55.2 1675.2,-39.2 1671.3,-34.6 "/>
<polygon fill="#5C6BC0" points="1649.1,-51.3 1631.9,-68.1 1636.5,-72.6 1652.3,-55.9 "/>
<polygon fill="#C02026" points="1615.8,-95.1 1636.5,-72.6 1631.9,-68.1 1623.9,-77.1 1617.6,-83 1607.8,-91.2 "/>
<polygon fill="#FCB017" points="1818,-202.6 1816,-207.4 1807,-210 1819.8,-217.3 1823,-214.3 1828.1,-215.3 1826.8,-206 "/>
<polygon fill="#FCB017" points="1777.7,-180.3 1791,-186.7 1788,-196.5 1784.4,-195.1 1784.5,-201.1 1780.3,-202.9 1774,-203 
	1773.9,-195.5 1778.2,-190.1 1775,-182.6 "/>
<polygon fill="#FCB017" points="1773,-211.1 1779.4,-214.5 1778.4,-222.9 1773.1,-220.7 1774.2,-217.7 1769.6,-217.1 "/>
<polygon fill="#FCB017" points="1746.5,-254.4 1751.1,-258.4 1755.2,-258.4 1755.4,-262.8 1759.7,-267.8 1764.8,-267.3 
	1761.3,-256.7 1760.6,-242.9 1753.2,-243 1750.9,-239.3 1746.4,-239.5 "/>
<path fill="#AD6F5E" d="M1735.9-287.9l3.3-4.7l1.3-5.3l8.6,1.2c0,0-0.6,7.8-1.2,13.9c-0.8,6.8-1.6,13.4-1.6,13.4l-11.3-0.1l0.4-12.7
	L1735.9-287.9z"/>
<path fill="#C02026" d="M1729.9-293.3c0,0,1.3-1.3,1.7-2.4c0.4-1.1,0-2.6,0-2.6l8.9,0.1c0,0-0.4,2.2-1.2,5.1
	c-0.8,2.9-3.4,5.2-3.4,5.2L1729.9-293.3z"/>
<polygon fill="#EFB31E" points="1708.3,-201.2 1710.4,-203.5 1710.4,-207.8 1712.1,-212.8 1714.7,-214.8 1714.7,-210.6 
	1719.7,-206.3 1719.6,-201.7 1724,-195.7 1720.9,-195.3 1716.5,-191.5 "/>
<polygon fill="#7CB342" points="1723.6,-183 1734.8,-192.4 1737.4,-188 1727.5,-178.9 "/>
<polygon fill="#7CB342" points="1741.7,-191 1737.5,-195.9 1743.3,-199.8 1739.7,-207.9 1743.2,-210.6 1746,-198.6 1741.7,-195.9 
	1744.1,-192.4 "/>
<polygon fill="#7CB342" points="1726.2,-212.2 1730.8,-216.5 1728.5,-219.7 1735.1,-227.7 1736.7,-224.7 1743.7,-229.2 
	1743.5,-224.6 1737.7,-221.5 1739.9,-218.6 1736.8,-215 1736.7,-209.2 1733.9,-208 1733.9,-214.9 1728.7,-209.1 "/>
<polygon fill="#C02026" points="1744.1,-192.4 1741.7,-195.9 1748.6,-202 1750.1,-198 "/>
<polygon fill="#C02026" points="1745.2,-191 1749.5,-181.2 1754.2,-182.8 1750.9,-196.9 "/>
<polygon fill="#C02026" points="1755.8,-183.1 1757.6,-185.4 1755,-194 1759.9,-195.7 1759.1,-201.9 1752.2,-198 "/>
<polygon fill="#7CB342" points="1759.9,-195.7 1764.7,-198.5 1764.2,-205.1 1759.1,-201.9 "/>
<polygon fill="#C02026" points="1745.9,-213.7 1748.6,-214.7 1749.7,-207 1754.8,-206.9 1756,-201.9 1751.6,-199.2 "/>
<polygon fill="#7CB342" points="1742.3,-189.5 1748,-171.2 1756.2,-174.1 1755.8,-178.7 1751.8,-176.5 1745.2,-191 "/>
<path fill="#7CB342" d="M1759.7-167.5l15.6-3.4c0,0,2.3,1.7,4.5,3.4c2.1,1.7,3.8,4,3.8,4l0.3,5.9l-23.2-2.6L1759.7-167.5z"/>
<polygon fill="#7CB342" points="1824.7,-181 1846.5,-186.3 1848.8,-178.9 1826.7,-173 "/>
<polygon fill="#7CB342" points="1786.1,-128.8 1796,-128.7 1796,-124 1805.4,-123.8 1806.1,-119.5 1785.8,-118.5 "/>
<path fill="#7CB342" d="M1807.7-133.4l16.7-2.5l-4.8-6.6c0,0-0.1,1.9-4.2,2c-4,0.1-7.9,0.2-7.9,0.2L1807.7-133.4z"/>
<polygon fill="#C02026" points="1827.6,-118 1842,-117.9 1842,-111.8 1826.3,-113.5 "/>
<polygon fill="#7CB342" points="1844.7,-110.7 1856.3,-112.5 1856.3,-108.9 1844.2,-107.4 "/>
<polygon fill="#FCB017" points="1827.5,-146.2 1827.6,-152.6 1831.4,-155.4 1833.6,-158.2 1842.6,-163.7 1844.7,-161.1 
	1838.5,-158.5 1839.8,-152.8 1836.5,-151.8 1836.7,-148.7 1844.9,-154.9 1844.9,-150.2 1842.4,-147.7 1844.6,-142.9 1839.7,-137.9 
	1834.5,-140.6 1831.2,-140.7 1830.9,-137.6 1827.4,-140.4 1829.1,-143.1 "/>
<path fill="#C02026" d="M1770.3-61.4l7.3-1.2V-68l6.4-1.3l3.5,1.5l3.8-1.4c0,0-3.4-8.3-7.6-10.4c-4.1-2-12.2,0.3-12.2,0.3
	s-5,9.6-5,11.8C1766.6-65.5,1770.3-61.4,1770.3-61.4z"/>
<polygon fill="#FCB017" points="1731.2,-41 1719.5,-33 1719.5,-25.5 1729.1,-24.9 1730.7,-30.2 1727.4,-31.7 1732.2,-37.8 "/>
<polygon fill="#FCB017" points="1674.1,15.3 1679.5,12 1681.1,6.4 1685.2,4.3 1685.6,8.3 1683.7,8.3 1684.1,15.4 1689.3,13.3 
	1689.9,17.8 1688.7,20.6 1684.9,20.6 1685.4,28.5 1681,29.7 1676.2,28.5 "/>
<polygon fill="#FCB017" points="1726.9,39.4 1728.5,39.4 1728.5,35.9 1724,34.3 1724,30.1 1726.4,21.1 1726.4,16.5 1719.8,11.8 
	1717.3,6.7 1722.4,4.6 1731.9,15.8 1731.8,26.1 1737.6,30.1 1735.9,39.9 1728.5,42.5 "/>
<polygon fill="#EFB31E" points="1749.9,58.9 1755.5,59.9 1761.8,54 1759.1,47.7 1754.3,53 1750.5,50.7 "/>
<polygon fill="#FCB017" points="1786.4,84.5 1780.5,75.3 1781.9,68.7 1783,74.4 1788.5,75.4 1792.1,80.4 1800.1,83.8 1803.4,80.5 
	1804.4,83.8 1802.4,88.6 "/>
<polygon fill="#FCB017" points="1745.7,94.3 1746.4,86.5 1755.3,85.8 1756.2,87.4 1751.7,95.5 "/>
<path fill="#EFB31E" d="M1768.3,99l-0.6-0.6l-0.4,1C1767.6,99.3,1768,99.1,1768.3,99z"/>
<polygon fill="#FCB017" points="1692.5,61.4 1698.4,67 1701.7,61.2 1699.8,61.2 1699.7,53.4 1696,52.5 1695.9,55.9 1691.3,54.4 "/>
<polygon fill="#FCB017" points="1775.3,16.1 1777.7,9 1782.3,13 1788,10.4 1793,14.9 1787.6,17.9 1791.1,24.2 1788.9,30.2 
	1782.5,24.9 1775.2,25.8 "/>
<polygon fill="#FCB017" points="1680.3,-26 1677,-20 1672.4,-22 1671,-17.3 1673.8,-15.3 1676.9,-16.8 1680.7,-15.2 1680.7,-13 
	1687.3,-20.8 "/>
<path fill="#7CB342" d="M1647.9-110.8l22-18.1c0,0,2.9,1.5,4.2,3.9c2.1,3.7,3,16.6,3,16.6l-23.7,2.2c0,0-2.7-0.7-3.7-1.9
	C1648.8-109.3,1647.9-110.8,1647.9-110.8z"/>
<polygon fill="#FCB017" points="1655.2,-105.2 1655.2,-101.9 1661.6,-101.8 1658.3,-96.7 1650.6,-89.4 1656,-83.6 1651,-72.5 
	1657.9,-64.6 1670.5,-89.9 1666.6,-90.4 1666.5,-105.2 "/>
<polygon fill="#FCB017" points="1668.8,-91.5 1673,-90.6 1684.1,-84.6 1686,-90.3 1689.7,-99.3 1694.5,-99.2 1692.6,-105.3 
	1685.9,-104.9 1685.9,-107.8 1677.1,-108.3 1671.8,-102.6 1671.7,-98.4 1668.8,-98.4 "/>
<polygon fill="#5C6BC0" points="1665.3,-76.2 1671.5,-73.9 1675,-81.4 1668.6,-83.5 "/>
<polygon fill="#5C6BC0" points="1639.7,-158.5 1642.9,-153.9 1647.6,-157 1643.9,-162 "/>
<polygon fill="#FCB017" points="1651.1,-156.1 1653.2,-157.9 1648.4,-165.6 1653.3,-169.3 1656.7,-166.6 1660.3,-168 1663.1,-166 
	1669.2,-163.4 1675.2,-162.7 1672.7,-153 1663.6,-151.9 1653.8,-152.2 "/>
<polygon fill="#FCB017" points="1603.7,-148.2 1605.2,-149.6 1608.2,-148.8 1611.5,-148 1608.2,-145.1 1610.2,-144.1 1613.7,-144.1 
	1615.8,-141.3 1612.7,-138.6 "/>
<polygon fill="#FCB017" points="1584.8,-195.5 1587.7,-198.3 1586.3,-199.9 1590.1,-203.4 1596.8,-198.7 1594.6,-194.4 
	1599.2,-192.5 1591.1,-185.7 "/>
<polygon fill="#C02026" points="1561.8,-187.3 1566.7,-179.8 1570.4,-181.6 1565.2,-189.7 "/>
<polygon fill="#C02026" points="1581.6,-157.5 1576.6,-163.5 1581.7,-167.5 1587.3,-161.7 "/>
<polygon fill="#8E24AA" points="1578,-121.6 1587.9,-123.1 1587.1,-132.5 1583.1,-136.8 1575.7,-140.5 1566.8,-135.8 1573.3,-124 
	"/>
<path fill="#5C6BC0" d="M1579-150.7l-7.3,5.4l1.1,2.3l-11.6,7.4l5,8.1l7.5,9.7l4.3-3.8l-7.6-13.8l4.5-3.4l6.5,9.3l5.7-2.9
	c0,0-0.6-9.8-2.1-11.7C1583.5-146.1,1579-150.7,1579-150.7z"/>
<polygon fill="#7CB342" points="1573.2,-155.8 1567.5,-151.8 1570.1,-147.5 1559,-140.1 1560,-137.8 1578.3,-151.7 1573.7,-156.1 
	"/>
<polygon fill="#C02026" points="1574.3,-155.3 1569.3,-151.4 1570.8,-148.4 1577.6,-152.2 "/>
<polygon fill="#5C6BC0" points="1688.5,-199.1 1704.2,-203.1 1699.9,-208.3 "/>
<polygon fill="#5C6BC0" points="1702.7,-174.4 1708,-179.7 1713.2,-174.3 1710.1,-170.2 "/>
<polygon fill="#FCB017" points="1708,-171.6 1710.9,-173.3 1708,-179.7 1711.5,-185.9 1710.1,-189.9 1712.9,-192.6 1725.7,-177.6 
	1714.2,-167.3 "/>
<polygon fill="#FCB017" points="1700.1,-109 1713.5,-108.6 1716.3,-116.3 1710.9,-118.5 1706.4,-119.1 1700.7,-112.8 "/>
<polygon fill="#FCB017" points="1729.2,-105.6 1735.3,-104.8 1740.3,-98.3 1742.6,-103.7 1747.7,-101.9 1749.3,-104.3 
	1740.3,-107.7 1744.8,-116 1747.6,-116 1748.2,-124.3 1743.3,-128.2 1743.4,-131.7 1740.3,-131.2 1740.3,-123.8 1735.7,-122.5 
	1733,-125.5 1731.9,-120.3 1736,-119.7 1735.9,-112.8 1730.8,-110 "/>
<polygon fill="#FCB017" points="1673.6,-77.5 1695.7,-65.5 1695,-74.3 1671.5,-89.2 1668.6,-83.5 1675,-81.4 "/>
<polygon fill="#7CB342" points="1690.3,-109.6 1691.1,-114 1699,-112.6 1698.5,-108.9 "/>
<polygon fill="#7CB342" points="1699.6,-102.2 1712.8,-101.3 1712.8,-96.1 1721.6,-95 1721.4,-91.4 1709.4,-92.8 1709.5,-97.8 
	1699,-98.7 "/>
<polygon fill="#7CB342" points="1723.7,-94.5 1740.8,-94.3 1742.3,-91.3 1738.6,-91.3 1740.3,-88.6 1740.2,-79.7 1732.6,-80.5 
	1733.4,-92 1722.9,-91.6 "/>
<path fill="#7CB342" d="M1732.6-78.9l-1.6,13.7c0,0,6.9-0.7,7.5-4.9c0.6-4.2,1-8.1,1-8.1L1732.6-78.9z"/>
<polygon fill="#7CB342" points="1703.6,-41.3 1714.9,-53.1 1717.9,-58.7 1714,-61.6 1699.8,-43.6 "/>
<path fill="#C02026" d="M1697.9-87c0,0,15.1,0.4,15.8,0.5c1.3,0.2,6.4,6.7,6.4,6.7l-0.6,5.1l-10.5-2.4l1.1-5.2l-12.5-0.8L1697.9-87z
	"/>
<polygon fill="#C02026" points="1721.1,-75.5 1727.9,-74.8 1728.8,-79.6 1721.4,-80.6 "/>
<path fill="#C02026" d="M1745.8-78.5c0,0,1.7-1.2,2.4-1.8c0.7-0.6,1.6-1.7,1.6-1.7s3.6,4.5,3.5,5.3c-0.1,0.8-0.3,2.8-0.3,2.8
	L1745.8-78.5z"/>
<polygon fill="#7CB342" points="1805,18.1 1810.4,21.7 1813.8,18.2 1816.4,20 1814.3,23.1 1818.4,25.4 1814.8,30.1 1803,20.7 "/>
<path fill="#7CB342" d="M1822.1,34.8l1.8-2.7c0,0,5.7-0.9,11.3,2.2s6.6,5.5,6.3,7c-0.2,1.5-0.8,4.7-0.8,4.7L1822.1,34.8z"/>
</svg>
