<?xml version="1.0" encoding="utf-8"?>
<!-- Generator: Adobe Illustrator 18.1.1, SVG Export Plug-In . SVG Version: 6.00 Build 0)  -->
<svg version="1.1" id="Layer_1" xmlns="http://www.w3.org/2000/svg" xmlns:xlink="http://www.w3.org/1999/xlink" x="0px" y="0px"
	 width="1920px" height="955px" viewBox="0 0 1920 955" enable-background="new 0 0 1920 955" xml:space="preserve">
<path fill="none" stroke="#3F2310" stroke-miterlimit="10" d="M727.1,184.5c0,0,18.7-1.6,26.1-3.3c6.1-1.3,9.5-5.8,9.5-5.8
	s0.8-5,1.6-9.4c0.7-4.4,0.7-60.4,0.7-60.4"/>
<path fill="none" stroke="#3F2310" stroke-miterlimit="10" d="M822.3,104.6c0,0-0.7,16.9-1.1,27c-0.4,10-4.2,46.1-4.2,46.1
	s-4.6,0-10.4-0.6c-2.6-0.2-5.1-0.9-8-1.1c-6.1-0.3-11.7,0.1-17.6-0.4c-8-0.7-14.5-2.6-15-2.5c-1.6,0.5-3.3,2.2-3.3,2.2"/>
<path fill="none" stroke="#3F2310" stroke-miterlimit="10" d="M818.6,162c0,0,29.1,2.7,36,3.4c6.9,0.7,10.2,0,10.2,0
	s0.5-6.1,0.4-6.9s-2.7,0.6-3-0.2c-0.4-0.9-0.3-8.8-0.3-8.8s3.4-1,7.4-0.7s4.4,1.3,4.4,1.3v5.4c0,0,0.3,0.6,2,1s10.1,2.2,10.1,2.2"/>
<path fill="none" stroke="#3F2310" stroke-miterlimit="10" d="M838.6,163.9c0,0-0.1,5.8,0,7.8s0,4.3-1.3,4.7
	c-1.3,0.5-5.7,2.1-5.7,2.1"/>
<path fill="none" stroke="#3F2310" stroke-miterlimit="10" d="M817.1,177.7c0,0,4-0.5,7.7,0c3.7,0.4,10.2,1.1,14.1,1.7
	s27.7,2,27.7,2"/>
<path fill="none" stroke="#3F2310" stroke-miterlimit="10" d="M866.2,183.6c0,0,21.8,2.2,23.4,1.4c1.6-0.7,4-4.3,4-4.3"/>
<path fill="none" stroke="#3F2310" stroke-miterlimit="10" d="M863.1,210.8l9.8,0.2c0,0,1.1-3.3,0.7-5.2c-0.3-1.8-1.9-4.2-1.4-5.1
	c0.3-0.5,7.6-6.2,11.9-10.3c1.3-1.2,1.7-2.4,2.1-3.2c0.6-1.4,0.7-2.1,0.7-2.1"/>
<path fill="none" stroke="#3F2310" stroke-miterlimit="10" d="M889.2,185.2c0,0,1.2,3,2.5,3.7c1.3,0.6,2.2-0.3,3.1,0.3
	c0.5,0.4,0.6,2.6,1.7,4.3c0.7,1.3,2.6,2.2,2.3,2.9c-0.8,1.6-5.8,2.6-6.1,4c-0.4,1.4,0.7,6.8,0.4,7.7c-1.7,3.6-12,11.9-13.2,12.3
	c-0.6,0.2-2.2-0.5-4.2-1.1c-1.7-0.5-3.8-0.9-3.9-1.5c-0.4-1.3,1.3-6.6,1.3-6.6"/>
<path fill="none" stroke="#3F2310" stroke-miterlimit="10" d="M735.2,183.7l3.2,29.1l15.4-1.9c0,0,24.6-3.8,29.9-2.7
	s11.6,7.5,11.6,7.5l-24.2,20.4c0,0-14.6-14.6-15.5-17c-1.4-3.8-0.5-8.1-0.5-8.1"/>
<path fill="none" stroke="#3F2310" stroke-miterlimit="10" d="M750.4,181.8c0,0,0.5,8.8,1.3,14.7c0.8,6,2.1,14.4,2.1,14.4"/>
<path fill="none" stroke="#3F2310" stroke-miterlimit="10" d="M759.3,178.9c0,0,5.6,7.5,6.9,11.8c1.9,6.4,2.5,17.8,2.5,17.8"/>
<path fill="none" stroke="#3F2310" stroke-miterlimit="10" d="M787.2,175.9c0,0,0.3,2.9,0,4.6c-0.3,1.6-0.6,2.9-0.6,4.1
	c0,0.5-0.4,2.3-0.4,4.5c-0.1,3.3,0.1,7.2,0.1,8.2c0.1,1.6-1.1,3.5-1.1,5.2s-0.7,6-0.7,6"/>
<path fill="none" stroke="#3F2310" stroke-miterlimit="10" d="M786.1,192c0,0,28.3,0.7,29.4,0.4c0.6-0.2,0.4-4.3,0.7-8
	c0.2-3.5,0.8-6.6,0.8-6.6"/>
<path fill="none" stroke="#3F2310" stroke-miterlimit="10" d="M795.3,215.7c0,0,3.7-3.5,7.6-6.5c2.8-2.1,12.4-1.3,12.4-1.3l0.2-15.5
	"/>
<path fill="none" stroke="#3F2310" stroke-miterlimit="10" d="M863.1,209.2h-26.9l-20.9-1.3c0,0-2.2,14.7-1.3,19
	c0.3,1.2,0.8,3.9,1.7,6.5c2.1,6.5,5.4,15,5.4,15l-6,5.9l-3.4,2.6L770,292l7.8,12.5"/>
<line fill="none" stroke="#3F2310" stroke-miterlimit="10" x1="837.3" y1="179.2" x2="836.4" y2="209.2"/>
<path fill="none" stroke="#3F2310" stroke-miterlimit="10" d="M834.9,209.1c0,0,0,7.6,0,11.1c-0.1,3.6-0.9,8-1,9.5s-0.1,3.5,0.3,5
	c0.4,1.6,1.8,3.6,2.9,3.8c1.2,0.1,9.9-4.9,12.4-6s5.5-0.2,6.9-0.8s5.3-2.2,5.3-2.2s0.6-9.9,1.7-21.1c0.8-8.9,2.5-20.6,3.2-26.9
	c0.3-3.5,0-4,0-4.8c0.1-4.3-0.2-9.1,0.3-9.7c0.9-1.1,4.5,0.8,5.6-0.9c1.1-1.8,1.4-10.6,1.4-10.6"/>
<path fill="none" stroke="#3F2310" stroke-miterlimit="10" d="M860.4,230.1c0,0,3.1-0.2,14.7-3.5c11.7-3.3,49.1-13.9,49.1-13.9"/>
<polyline fill="none" stroke="#3F2310" stroke-miterlimit="10" points="907.8,217.3 913.6,240.6 925.8,237.9 "/>
<path fill="none" stroke="#3F2310" stroke-miterlimit="10" d="M859.8,230.3c0,0,4.6,11.3,6,14.7c1.9,4.6,6,1.7,6.7,3.3
	c0.7,1.7,1.7,4.1,1.7,4.1s3.5-1.6,8.4-2.9c4.9-1.4,31-8.9,31-8.9"/>
<path fill="none" stroke="#3F2310" stroke-miterlimit="10" d="M874.2,252.5l6.4,16.5c0,0,2.3-1.6,6.1-2.4c3.8-0.9,6.9-0.6,6.9-0.6
	l-4.5-18.2"/>
<path fill="none" stroke="#3F2310" stroke-miterlimit="10" d="M893.6,265.9c0,0,1.7-1,2.3-1.2c2.1-0.5,20.3-4.9,20.3-4.9l7.3-21.3"
	/>
<path fill="none" stroke="#3F2310" stroke-miterlimit="10" d="M880.6,269c0,0-4.2,2.2-5.8,4.6c-1.5,2.3-3.5,5.5-3.5,5.5
	s-1-0.7-2.2-1c-1.5-0.3-3.3-0.2-4.1-0.7c-1.4-0.9-2.4-3.7-3.5-3.8c-1-0.1-3.4,4.7-5.3,4.8c-1.9,0.2-2.7-1.5-2.7-1.5l-2.3,2.6
	c0,0-3.8-2.1-5.1-4.8c-0.7-1.5-1.8-4-3.3-6.2c-1.2-1.8-2.7-1.5-2.9-3.3c-0.2-1.8,3.1-1.7,3.2-3.6c0.1-1.9-1.9-2.2-1.9-3.2
	s0.6-1.8,0.4-2.4c-0.9-2.8-6.1-2.7-6.4-7c-0.1-1.3,2.6-1.9,2.4-4.6c-0.1-1.9-0.6-5.8-0.6-5.8l-16,9.8l7.3,30.7l3.9,27.2"/>
<polyline fill="none" stroke="#3F2310" stroke-miterlimit="10" points="893.9,265.7 897.9,282.7 922,276.9 "/>
<path fill="none" stroke="#3F2310" stroke-miterlimit="10" d="M897.9,282.7c0,0,0.6,2.5-0.2,3.6c-0.8,1-3.5,1-4.1,2.7
	c-0.2,0.5-1,4.9-1.9,8.6c-0.8,3.2-1.7,5.8-0.7,7.3c0.6,0.9,2.8,4.2,4.5,7c1.1,1.8,2,3.8,2.3,4c0.9,0.7,7.3,0.4,10.3,0
	c3-0.3,7.9-1.7,9.6-3.1c1.7-1.3,1.8-2.1,2.6-3.2c0.9-1.1,9.2-0.9,9.2-0.9"/>
<path fill="none" stroke="#3F2310" stroke-miterlimit="10" d="M871.3,279.1c0,0,0.9,1.3,1.4,1.8s3.6,1.2,3.6,1.2s-2,2.4-1.8,6.1
	c0.1,0.9,0.6,4.8,0.9,8.6c0.4,4.1,0.5,8,0.5,8s8,0.7,10.3,0.2s4.4-2.4,4.4-2.4"/>
<path fill="none" stroke="#3F2310" stroke-miterlimit="10" d="M851.3,279.5c0,0,3.1,3.8,3.2,5.1c0.1,1.3,0.5,20.1,0.5,20.1l20.8-2.3
	"/>
<path fill="none" stroke="#3F2310" stroke-miterlimit="10" d="M876,304.8l0.9,23.8l19.8-0.4c0,0,1.6-5.2,1.7-7.8s-0.4-4.5-0.4-4.5"
	/>
<path fill="none" stroke="#3F2310" stroke-miterlimit="10" d="M712.3,204.7l7.4,9.4c0,0,4-2.9,4.8-3.5s2.3,3,4,3.4
	c1.8,0.5,5.1,0.2,7.1-0.1s3.2-1.3,3.2-1.3"/>
<polyline fill="none" stroke="#3F2310" stroke-miterlimit="10" points="684.3,210.9 700.2,230.3 719.7,214.2 "/>
<path fill="none" stroke="#3F2310" stroke-miterlimit="10" d="M700.2,230.3l9.4,12.1c0,0,22.6-16.8,23.9-23.1c0.2-2.3-0.2-5-0.2-5"
	/>
<path fill="none" stroke="#3F2310" stroke-miterlimit="10" d="M711,244.2"/>
<polyline fill="none" stroke="#3F2310" stroke-miterlimit="10" points="662.7,216.5 666,222.2 682.6,244 699.5,229.4 "/>
<path fill="none" stroke="#3F2310" stroke-miterlimit="10" d="M641.8,220.5c0,0-3.3,2.2-2.2,5.8c0.7,2.4,4.9,8.9,4.9,8.9l21.1-13.6"
	/>
<polyline fill="none" stroke="#3F2310" stroke-miterlimit="10" points="644.6,235.3 651,246.2 672.8,231.2 "/>
<polyline fill="none" stroke="#3F2310" stroke-miterlimit="10" points="628.3,242.7 636,255.9 651,246.2 661,261.8 682.6,244 "/>
<path fill="none" stroke="#3F2310" stroke-miterlimit="10" d="M603.7,256.6c0.2,0,8.7-2.7,11.6,0.2c2.9,2.8,6.8,8.2,6.8,8.2
	l13.9-9.2c0,0,3.1,6.4,5.3,9.5c2.2,3.2,17.4,19.4,17.4,19.4"/>
<path fill="none" stroke="#3F2310" stroke-miterlimit="10" d="M622.1,265l26.4,27.9c0,0,7.4-5.8,9.3-7.5
	c1.9-1.7,24.1-20.6,24.1-20.6l27.8-22.5l10,13l12.2,13.2l18,22.7l8.2,10.5"/>
<polyline fill="none" stroke="#3F2310" stroke-miterlimit="10" points="671.6,253 681.6,265.2 703,292.3 709,299.4 "/>
<line fill="none" stroke="#3F2310" stroke-miterlimit="10" x1="685.4" y1="241.5" x2="696.4" y2="253.2"/>
<line fill="none" stroke="#3F2310" stroke-miterlimit="10" x1="638" y1="281.8" x2="647.4" y2="272.5"/>
<path fill="none" stroke="#3F2310" stroke-miterlimit="10" d="M648.3,273.5l12.7-11.6c0,0,2.9,6.9,4.6,9.4c1.8,2.5,4.6,3.7,4.6,3.7"
	/>
<line fill="none" stroke="#3F2310" stroke-miterlimit="10" x1="1108.2" y1="799.8" x2="1154.4" y2="773.7"/>
<path fill="none" stroke="#3F2310" stroke-miterlimit="10" d="M1110.9,798.3c0,0,4.2-7.6,4.8-11c0.5-3.5-4.5-13.2-7-15.2
	c-2.4-1.9-10.4,0-10.4,0s0.7-4.4-0.6-6.7c-1.4-2.3-11.4-10.7-11.4-10.7l18.7-16.5l15,6.2l1.6-17.3l10.3,0.3l3.6-3.5"/>
<path fill="none" stroke="#3F2310" stroke-miterlimit="10" d="M1120,744.3v2.4c0,0-0.7-0.6-1.3,0c-0.8,2.1,0.6,5.8,0.6,5.8
	s-2.6,0.6-3.2,2.4c-0.7,1.9,0.5,3.7-0.1,4.5c-0.6,0.8-6.5,5.2-7.6,5.4c-1.1,0.1-8.3-6.2-8.6-6.4c-0.4-0.2,0-1.7,0-1.7s2.3,0,3-2.9
	s-1-4.2-1-4.2l4-11.2"/>
<path fill="none" stroke="#3F2310" stroke-miterlimit="10" d="M1093.8,724.9l11.2,13.2L1093.8,724.9z"/>
<polyline fill="none" stroke="#3F2310" stroke-miterlimit="10" points="1118.4,702.6 1106.9,710.8 1090.1,690.5 1103.9,675.9 "/>
<polyline fill="none" stroke="#3F2310" stroke-miterlimit="10" points="1090.1,690.5 1086.4,685.8 1101.5,671.8 "/>
<path fill="none" stroke="#3F2310" stroke-miterlimit="10" d="M1048.8,717.5l20.4-17.8c0,0,5-3.5,7.8-6c2.9-2.5,9.3-7.9,9.3-7.9
	l-4.1-5c0,0,1.8-0.8,7.2-6.2c5.4-5.4,8.2-9,8.2-9"/>
<path fill="none" stroke="#3F2310" stroke-miterlimit="10" d="M1075.4,695.9"/>
<polyline fill="none" stroke="#3F2310" stroke-miterlimit="10" points="1033.8,704.3 1054.3,684 1071.1,669.2 "/>
<line fill="none" stroke="#3F2310" stroke-miterlimit="10" x1="1019.6" y1="690.1" x2="1040.1" y2="670.5"/>
<path fill="none" stroke="#3F2310" stroke-miterlimit="10" d="M1040.8,670.5c0,0,10.2-8.9,13.5-12c3.2-3.1,4.6-4.2,4.6-4.2"/>
<line fill="none" stroke="#3F2310" stroke-miterlimit="10" x1="1009.1" y1="677.5" x2="1028.9" y2="660.8"/>
<path fill="none" stroke="#3F2310" stroke-miterlimit="10" d="M1001.4,665.5c0,0,3-1.8,5.9-4.4c2.9-2.6,13.9-12.7,13.9-12.7
	s0.9,3,2.8,6.3c1.5,2.6,4.3,5.2,4.9,6.1c1.3,1.9,11.9,10.2,11.9,10.2l28.5,28.8l24.5,25.1l13.1-14.2c0.4,0.8,6.7,10.6,11.8,14.8
	c1.3,1.1,3,1.4,3,1.4"/>
<polyline fill="none" stroke="#3F2310" stroke-miterlimit="10" points="688.4,365.2 672.2,383.5 683.2,390.7 699.3,376.3 "/>
<line fill="none" stroke="#3F2310" stroke-miterlimit="10" x1="679" y1="398.4" x2="683.2" y2="390.7"/>
<line fill="none" stroke="#3F2310" stroke-miterlimit="10" x1="694.4" y1="409.4" x2="712.6" y2="389.9"/>
<line fill="none" stroke="#3F2310" stroke-miterlimit="10" x1="728.4" y1="430.5" x2="740.8" y2="412.9"/>
<path fill="none" stroke="#3F2310" stroke-miterlimit="10" d="M738.4,443.8c0,0,10.1-3.6,12.3-5.3c2.2-1.7,9.1-12.1,9.1-12.1"/>
<path fill="none" stroke="#3F2310" stroke-miterlimit="10" d="M750.2,495.5c0,0-0.1-3.2,1.6-5.2c1.6-2,8.3-8,9.2-7.2
	c0.9,0.7,3.3,3.1,5.2,1.2c1.9-1.8-2.2-6.2-1-8.2c1.2-1.9,7.1-2.5,8.9-4s4.7-4.1,6.1-5.1s6,0.9,6.8,2.5c1.2,2.2,2.5,4.2,2.3,8
	c-0.1,3.8-1.7,11.7,1.6,16.6c3.4,4.9,17.1,4.9,17.1,4.9l17.4-24.3"/>
<polyline fill="none" stroke="#3F2310" stroke-miterlimit="10" points="933.2,612.4 941.5,599.8 966.8,624.1 987.1,644.5 
	1005.3,662.8 "/>
<polyline fill="none" stroke="#3F2310" stroke-miterlimit="10" points="987.1,644.5 1001.4,629.9 1014.3,617.6 "/>
<polyline fill="none" stroke="#3F2310" stroke-miterlimit="10" points="949.8,585.5 978.6,607.1 1021.2,648.4 1031.5,634.9 "/>
<polyline fill="none" stroke="#3F2310" stroke-miterlimit="10" points="966.2,623.5 979.1,607.6 989.7,595.2 "/>
<line fill="none" stroke="#3F2310" stroke-miterlimit="10" x1="950.7" y1="586.1" x2="963.4" y2="571.1"/>
<path fill="none" stroke="#3F2310" stroke-miterlimit="10" d="M965.3,573.1l22.6-31.1c0,0-6.1-2.2-8.2-4.3
	c-2.4-2.3-17.2-47.2-17.2-47.2s-0.1-30.7-0.6-32.7c-0.6-2.1-9.7-6.8-9.9-9.9c-0.1-1.7,0-24.3,0-24.3h5.7"/>
<path fill="none" stroke="#3F2310" stroke-miterlimit="10" d="M942,555.9c0,0,6-7.7,7.9-10s1.3-3.7,2.2-5.4
	c1-1.7,19.8-22.4,19.8-22.4"/>
<polyline fill="none" stroke="#3F2310" stroke-miterlimit="10" points="962.6,490.5 951.3,483.5 938.2,508.4 966,524.7 "/>
<path fill="none" stroke="#3F2310" stroke-miterlimit="10" d="M951.8,541.5l-4.7-5c0,0-1.3,1.6-3.5,0.8c-2.2-0.9-2.2-5.1-3.5-6.3
	s-10.2-6.6-10.2-6.6l1-1.1l7.5-14.8L913.1,495l-20.7-11.6l-8-5.8L871,467.1l-12.9-11c0,0-1.3-3.5-2.4-3.9c-1.2-0.4-1.7,1.3-1.7,1.3
	l-14.6-9.5L825,433.1l-21.1,25.2"/>
<polyline fill="none" stroke="#3F2310" stroke-miterlimit="10" points="914.3,543.4 916.3,536.5 928.8,524.3 929.9,524.3 "/>
<path fill="none" stroke="#3F2310" stroke-miterlimit="10" d="M916.3,536.5c0,0,1.2-6.4,0.5-7.5c-0.7-1.1-17-24.9-17-24.9"/>
<path fill="none" stroke="#3F2310" stroke-miterlimit="10" d="M952.4,448.9c0,0-7.5,3.7-9.8,6.4c-2.2,2.7-8.9,10.7-8.9,10.7
	s-6.8-4-12.5-7.7c-3.4-2.2-6.5-4.6-7.4-4.9c-2.4-0.9-9.8-1-10.6-0.1s-10.6,14.4-10.6,14.4l33.8,18.5l18.1,10.6"/>
<line fill="none" stroke="#3F2310" stroke-miterlimit="10" x1="933.7" y1="465.9" x2="944" y2="473.5"/>
<line fill="none" stroke="#3F2310" stroke-miterlimit="10" x1="879.3" y1="446.7" x2="952" y2="439.7"/>
<polyline fill="none" stroke="#3F2310" stroke-miterlimit="10" points="930.2,441.8 929.8,445.9 920.9,458 "/>
<line fill="none" stroke="#3F2310" stroke-miterlimit="10" x1="903.2" y1="444.5" x2="903.2" y2="453.1"/>
<path fill="none" stroke="#3F2310" stroke-miterlimit="10" d="M825,475.3l19.9-27.2l13.1-18c0,0,5.8-6.3,8.4-5
	c2.6,1.3,2.5,5.6,5.1,6.1s6.4-0.3,6.4-0.3"/>
<polyline fill="none" stroke="#3F2310" stroke-miterlimit="10" points="833,464.4 859.4,483.8 871.8,467.8 "/>
<path fill="none" stroke="#3F2310" stroke-miterlimit="10" d="M862.8,479.4c0,0,16.2,14.1,19.3,13.1c3.1-0.9,7.9-10.7,7.9-10.7"/>
<path fill="none" stroke="#3F2310" stroke-miterlimit="10" d="M843.6,544.9c0,0,5.8-2.6,7.3-4.8c2.4-3.5,1.3-8.5,1.3-8.5l24.6,6"/>
<path fill="none" stroke="#3F2310" stroke-miterlimit="10" d="M821.6,542.3c0,0,3.6-5.8,5.8-9.6c2.2-3.8,8.7-8.9,8.7-8.9l16.1,7.7"
	/>
<path fill="none" stroke="#3F2310" stroke-miterlimit="10" d="M788.8,533.8c0,0,13-24.9,14.9-28.8c1.9-3.8,4.2-5.9,4.2-5.9"/>
<line fill="none" stroke="#3F2310" stroke-miterlimit="10" x1="804.2" y1="504.1" x2="836.1" y2="523.9"/>
<path fill="none" stroke="#3F2310" stroke-miterlimit="10" d="M831.5,521.1l16.7-22l11.1-15.2c0,0,18.5,13.4,19.3,14.5
	c0.8,1,0.4,8.2-1.2,10c-1.6,1.9-10.2,12-10.2,12"/>
<polyline fill="none" stroke="#3F2310" stroke-miterlimit="10" points="865.9,424.9 865.6,420 877,414.7 "/>
<path fill="none" stroke="#3F2310" stroke-miterlimit="10" d="M854.7,365.7c0,0-13.4-0.8-14.4,0.4c-1,1.2-5,13-5,13l3.1,5.4
	c0,0-2.6,11.2-1.5,13.9c1.2,2.7,11.9,9.3,13.2,10.5c1.3,1.2,3.2,8,2.7,9.8c-0.5,1.8-1.8,6-0.5,7.3c0.4,0.4,1.4,0.6,2.3,1
	c2.1,0.9,4.5,1.9,4.5,1.9"/>
<path fill="none" stroke="#3F2310" stroke-miterlimit="10" d="M847.5,355.3c0,0,9.8,0.1,12.8-1.6c2.9-1.8,10.9-8.7,13.5-14.4
	c2.6-5.7,3-10.6,3-10.6"/>
<path fill="none" stroke="#3F2310" stroke-miterlimit="10" d="M859.2,372c0,0,10.6-8.2,12.4-7.8c1.9,0.4,10.5,2,20.4,5.2
	c8.1,2.6,21.3,7,21.3,7s4.3,7,3.9,8.9c-0.4,2-7.7-0.1-8.5,1.5c-2.1,3.1-4.3,8.4-4.3,8.4l-16.4-6.7c0,0-0.8-4.4-9.2-5.5
	c-3-0.4-6.3,2.2-6.4,3.4c-0.1,1.2-0.3,2.9-0.3,2.9L869,396"/>
<path fill="none" stroke="#3F2310" stroke-miterlimit="10" d="M828.5,435.6l1.4-2.8c0,0,2.9,0.7,4.5-1.2c0.7-0.9,2-5,2.5-7.7
	c0.5-2.9,0.1-4.5,0.1-4.5s8.9,4.9,10.9,5.3c2,0.4,4.2,0.9,4.2,0.9"/>
<path fill="none" stroke="#3F2310" stroke-miterlimit="10" d="M918.2,577.9c0,0,0.5-3.9,1.8-6.5c0.7-1.4,6.8-7,12-10.8
	c4.6-3.3,8.4-5,8.4-5"/>
<line fill="none" stroke="#3F2310" stroke-miterlimit="10" x1="905" y1="567.2" x2="910.7" y2="542.2"/>
<path fill="none" stroke="#3F2310" stroke-miterlimit="10" d="M913.4,376.3l7.9,0.6c0,0-3.4-3.5-3.7-5.6s1.8-5.2,3.1-5.3
	c1.3-0.2,2.3,1.3,3.6,0.9c1.4-0.4,2.5-3.5,3.5-3s-1.1,13.5-1.1,13.5s3.4,1.6,5.3,2.2c1.9,0.7,4.5,0.4,4.5,0.4"/>
<path fill="none" stroke="#3F2310" stroke-miterlimit="10" d="M603.3,276.1c0,0,6-2.4,8.8-4.6s9.3-7.4,9.3-7.4"/>
<polyline fill="none" stroke="#3F2310" stroke-miterlimit="10" points="621.8,300.9 631.8,300.6 629.7,295.3 643.1,287.2 "/>
<path fill="none" stroke="#3F2310" stroke-miterlimit="10" d="M648.5,293l1,2.5c0,0,5.7,6.2,6.6,7.6c1.3,2.1,3,21,3,21l-10.9,1.6
	l-3.2,4.4"/>
<polyline fill="none" stroke="#3F2310" stroke-miterlimit="10" points="657.3,308.8 670.6,296.6 658.7,284.7 "/>
<path fill="none" stroke="#3F2310" stroke-miterlimit="10" d="M659,324c0,0,8.6-1.1,11.7-3.3s11.2-11.8,11.2-11.8l-11.4-12.1"/>
<path fill="none" stroke="#3F2310" stroke-miterlimit="10" d="M835.9,381.9l-17.1,26.5l-13.2-6.7c0,0,8.4-4.5,10-6.6
	c1.6-2.1,4.4-5.2,4.4-5.2"/>
<path fill="none" stroke="#3F2310" stroke-miterlimit="10" d="M805.6,401.7l-17.1,11.9l-12.6-9.8c0,0,9.3-9.7,10.7-11.6
	c1.4-1.9,1.7-4.8,1.7-4.8"/>
<path fill="none" stroke="#3F2310" stroke-miterlimit="10" d="M788.7,386.3l2.1-21.2c0,0,19.3,3.4,22.8,2.6c3.6-0.9,6.5-4.5,6.5-4.5
	l3.7,6.6"/>
<path fill="none" stroke="#3F2310" stroke-miterlimit="10" d="M793,341.1c0,0,10.5,0.9,11.6,1.1c1.1,0.2,7.7,11.5,10.3,15.3
	c2.5,3.8,5.3,5.6,5.3,5.6s7.1-6.7,9-10c1-2.4,2.2-6.2,3.1-9.9c1.2-5.7,1.8-11.1,1.8-11.1s2.5-1.5,4.9-2.2c2.4-0.8,15.6-0.9,15.6-0.9
	"/>
<path fill="none" stroke="#3F2310" stroke-miterlimit="10" d="M781.2,442.8c0,0,5.6-5.2,6.8-8.9c1.2-3.7,0.4-12.1,0.4-12.1
	s12-0.3,13.8,1.6s3.4,6.3,3.4,6.3l14,9.7"/>
<line fill="none" stroke="#3F2310" stroke-miterlimit="10" x1="788.4" y1="421.9" x2="788.5" y2="413.6"/>
<polyline fill="none" stroke="#3F2310" stroke-miterlimit="10" points="760.4,427 773.4,405.9 775.9,403.8 "/>
<line fill="none" stroke="#3F2310" stroke-miterlimit="10" x1="1023.5" y1="549.9" x2="988.4" y2="593.2"/>
<path fill="none" stroke="#3F2310" stroke-miterlimit="10" d="M871.6,364.1c0,0,0.2-1.6,1.9-3.2c5.3-4.9,17.5-14.8,19.2-17.9
	c0.8-1.3,0.6-3.6,1.2-5.8c1.1-4.4,2.6-9.1,2.6-9.1l33-0.6"/>
<path fill="none" stroke="#3F2310" stroke-miterlimit="10" d="M893.3,341.9c0,0,2.9,0.3,5.6,1.8c2.7,1.6,5.2,3.8,5.9,3.8
	c1.4,0,1.4-1.5,2.9-3.2c1.4-1.6,22.2-2.5,22.2-2.5"/>
<path fill="none" stroke="#3F2310" stroke-miterlimit="10" d="M833.9,332.2c0,0,1-2.8,0.7-5.6c-0.3-2.7-2.4-20.2-2.4-20.2l22.7-1.6
	l-0.6,24.3l22.3-0.9"/>
<path fill="none" stroke="#3F2310" stroke-miterlimit="10" d="M846,274.2c0,0-41,9-45.2,11.6s-23,18.8-23,18.8l15,20.2"/>
<path fill="none" stroke="#3F2310" stroke-miterlimit="10" d="M785.2,224.2l17.9,19.3c0,0,5.1-4.1,7.3-6.4c2.2-2.3,5.5-3.2,5.5-3.2"
	/>
<path fill="none" stroke="#3F2310" stroke-miterlimit="10" d="M771.1,236L704,291.7l-2,1.3l-20,15.8l33.8,27.1c0,0,3.3,3.6,4.7,4.7
	c1.3,1,15.6-1,16.6,0.5c0.9,1.5,0.4,14.3,0.4,14.3l5.7,1.4l23.1,15.4l22.2,15.3l0.5-1.6l31.3,4.2l3.8-20.1l14.7,14.8"/>
<path fill="none" stroke="#3F2310" stroke-miterlimit="10" d="M741.6,412.9l14.8-18.8l4.9-7.3c0,0,4.2-2.8,4.9-4.9
	c0.6-2.2,0-9.8,0-9.8l1-13c0,0,14.1,0.1,16.2,0.4c2.1,0.3,7.5,5.7,7.5,5.7s3.1-31,3-34.2c-0.1-3.2-0.9-6.1-0.9-6.1
	s23.8-15.9,25.7-17.1c1.9-1.3,7.5,10.4,7.5,10.4l16.1,28.3l7.8,12.7l8.7,12.1c0,0,2.5,3.2,5.3,9.9c1.9,4.6,3.8,12,5.8,16.7
	c2.1,4.8,5.8,8.6,6.5,11.1c0.9,3.1,0.7,9.7,1.2,17.2c0.4,7.1,1.6,15,1.8,20.7c0.2,4.7,0.7,8,0.4,8.9c-1.8,4.9-8.7,11.7-8.7,11.7"/>
<line fill="none" stroke="#3F2310" stroke-miterlimit="10" x1="756" y1="394.6" x2="773.4" y2="405.9"/>
<path fill="none" stroke="#3F2310" stroke-miterlimit="10" d="M718.8,396.2l10.2-14.9c0,0,13.3,1.4,17.8,2.1
	c4.5,0.6,14.4,3.4,14.4,3.4"/>
<line fill="none" stroke="#3F2310" stroke-miterlimit="10" x1="729" y1="381.3" x2="740.9" y2="356.4"/>
<polyline fill="none" stroke="#3F2310" stroke-miterlimit="10" points="767.1,359.1 769.1,338.2 793.1,340.4 "/>
<path fill="none" stroke="#3F2310" stroke-miterlimit="10" d="M767,312.8c-0.2-0.2,10.3,10.2,9.3,13.2s-5.6,5.9-6.3,7.5
	c-0.8,1.6-0.8,4.7-0.8,4.7l-11.3-0.6h-10.3l-0.4-9.2l30.6-24.2"/>
<polyline fill="none" stroke="#3F2310" stroke-miterlimit="10" points="659.3,367.8 677.9,354.1 716.1,336.2 735.6,320.3 
	740.2,316.7 739.9,316.1 742.7,314.3 770,292.1 754.3,269.6 779.1,248.3 797.1,269.1 "/>
<path fill="none" stroke="#3F2310" stroke-miterlimit="10" d="M740.2,316.7c0,0,2.6,2.3,3.6,3.6c1.1,1.3,3.2,8.2,3.2,8.2"/>
<path fill="none" stroke="#3F2310" stroke-miterlimit="10" d="M671.1,297.1l21.1-18.8l15.7-13.2l11.8-9.6l1.6-0.5l13.1-10.9l0.6-1.4
	l15.2-12.7c0,0,2-0.3,2.5-0.9c0.5-0.6-0.7-1,0-2.2c0.7-1.1,6.5-3.3,6.5-3.3"/>
<path fill="none" stroke="#3F2310" stroke-miterlimit="10" d="M752.1,229.6c0,0,3,12.5,3.4,14.4s2.1,3.3,2.1,3.3"/>
<polyline fill="none" stroke="#3F2310" stroke-miterlimit="10" points="723.1,231.4 734.5,244.1 745.1,257.6 "/>
<path fill="none" stroke="#3F2310" stroke-miterlimit="10" d="M739.9,316.1c-0.1-0.2-8.2-11-8.2-11s1-0.1,2-0.9s15.8-13.3,15.8-13.3
	"/>
<polyline fill="none" stroke="#3F2310" stroke-miterlimit="10" points="705.5,327.7 720.8,314.2 731.8,305.1 713.9,283.4 "/>
<polyline fill="none" stroke="#3F2310" stroke-miterlimit="10" points="689.7,315 709,299.4 721,314.2 "/>
<polyline fill="none" stroke="#3F2310" stroke-miterlimit="10" points="697.5,252.3 708.3,264.9 719.7,278.7 "/>
<path fill="none" stroke="#3F2310" stroke-miterlimit="10" d="M753.1,250.9c0,0,1.9,1.1,2.3,2s0.6,2.7,1.7,3.3
	c0.9,0.6,4.1-0.7,5.1,0c1.1,0.7,2.7,3.6,2.7,3.6s2.4,8.4,4.7,11c2.3,2.5,14.4,9.4,14.4,9.4"/>
<path fill="none" stroke="#3F2310" stroke-miterlimit="10" d="M786.1,256.5c0,0,2.2-1.6,3.8-3.3c1.6-1.7,4.2-0.9,5-1.7s8.1-8,8.1-8"
	/>
<line fill="none" stroke="#3F2310" stroke-miterlimit="10" x1="770" y1="236.9" x2="779.1" y2="248.3"/>
<path fill="none" stroke="#3F2310" stroke-miterlimit="10" d="M597.9,254.9c4.7,5.9,9.6,12.1,13.5,12.4c7,0.5,13.1-3.9,13.1-3.9"/>
<path fill="none" stroke="#3F2310" stroke-miterlimit="10" d="M646.1,329.2c0,0-9.1,7-8.2,9.8c0.8,2.8,12.7-0.6,12.7-0.6l24,15.5"/>
<path fill="none" stroke="#3F2310" stroke-miterlimit="10" d="M639.8,340.2c0,0,2.7-1,1.9-3.4c-0.8-2.4,0.2-7.4-2.3-10.9
	s-15.5-22.2-15.5-22.2l-23-30.7"/>
<path fill="none" stroke="#3F2310" stroke-miterlimit="10" d="M677.1,356.7c0,0-0.1,3.2-1.7,4.3s-2.1,1-3.1,0s0-3.4,0-3.4
	s-4.3,0.7-4.3-1.8s2.7-2.2,2.7-2.2l3.9,0.4c0,0-1-2.6,0.1-3.8c1.1-1.2,2.7-0.8,3.6,0.2c0.9,0.9,0,3.2,0,3.2s2.7-0.4,3.6,0.4
	c0.9,0.8,0.6,1.7,0,2.6s-1,1.5-2.2,1.5C678.4,358.1,677.1,356.7,677.1,356.7z"/>
<path fill="none" stroke="#3F2310" stroke-miterlimit="10" d="M760.7,428.6c0.5,0.4,5.4,4.5,9,2.5c3.6-1.9,3.8-4.1,6.5-4.7
	c2.6-0.5,4.2,1,6.5,0.7c2.3-0.3,5.3-1.1,5.3-1.1"/>
<path fill="none" stroke="#3F2310" stroke-width="4" stroke-linecap="round" stroke-linejoin="round" stroke-miterlimit="10" d="
	M687.1,111.4l8.4-7.3c0,0,8.6-2.9,23.9-0.1c3.8,0.7,37.6,0.5,66.9-0.1c21.3-0.4,36,0.9,50.4,0.7c11.2-0.1,18.5-5.2,23.6-6.9"/>
<path fill="none" stroke="#3F2310" stroke-width="3" stroke-linecap="round" stroke-linejoin="round" stroke-miterlimit="10" stroke-dasharray="4.5818,8.4002" d="
	M851.2,95.9c0,0,8.5,5.6,9.5,6.6c2.8,2.9,5.2,0.8,8.4,2.8c6.3,3.8,1.6,6.6,10.2,15.2c3.7,3.7,12.7,10.6,12.7,10.6s-0.2,2.7-2.9,15.6
	c-2,9.6-6.4,19.3-5.4,22.6c1,2.9,6.7,5.9,8.1,8.1s8.6,8.2,14.2,14.7c1.3,1.5,15.6,16.4,22,23.3c5.6,6-4.2,19.9-3.9,21.3
	c0.7,3.1-8.2,20.1-7.2,22.6c1,2.6,4.7,15.1,6.3,17.4c0.6,0.8,2.1,4.5,3.2,10.3c0.8,4.9,1.1,11.8,2.4,18.8c1.3,6.8-0.4,27-0.2,35
	c0.1,1.7,5.3,1.9,5.6,4.9c0.8,8.5,1.1,18,1.9,24.8c0.3,2.9,0.8,10.2,1.7,16.6c0.1,0.9,1.7,6.1,4.8,11.8
	c5.5,10.2,14.1,23.3,15.5,24.2c1,0.7,7.5,1.3,10.7,2c3.7,0.9,4.9,1.8,5.3,2.3c0.5,0.6,1.7,1.7,2.2,4.3c0.3,1.5,0,3.2,1.5,4.8
	c2.1,2.2,4.1,2.6,4,3.9c-0.8,1.4-1.7,2.1-5.8,5.8c-4.6,4.2-11.5,10.6-19.1,17.1c-6.2,5.3-12.4,11.6-19.5,17.2
	c-2.6,2.1-5.1,4.9-8,6.3c-6.5,3-11.5,5.8-16.3,7.9c-8.4,3.8-14.3,6.4-14.5,6.6c-0.3,0.3,0.8,2.8,1.4,5.6c-1.4,1.4-7.8,8.1-9.3,9.8
	c-3.1,3.4-9.7,10.4-10.1,10.8c-0.5,0.4,0.7,2,0.2,2.4c-3.5,3.6-4.2,7.8-4.3,11.4c-0.3,15.3,1,19.8-0.5,29.5"/>
<path fill="none" data-pathType="road" data-toolTipName="Noida-Greater Noida Expressway"  stroke="#3F2310" stroke-width="3" stroke-linecap="round" stroke-linejoin="round" stroke-miterlimit="10" d="
	M673.5,353.3c0,0,11,9,20.6,18.9c6.8,7,12.4,13.8,15.5,16.4c1.4,1.2,3,3,7.3,6.4c1,0.8,1.4,3.1,2.4,4c3.8,3,7.8,4.5,13,7.8
	c4.9,3.2,11,8.1,15.4,11.2c13.6,9.6,18.2,13.3,23,17.2c4.8,3.9,19.5,13.8,22,15.3s13.2,9.2,17.7,12.7c4.6,3.5,11.8,8.6,13.9,10.9
	c2.1,2.3,23.9,23.3,30.6,33.3c1.2,1.8,3.6,6.6,8.2,10.3c5.9,4.6,15,8.3,23.8,12.1c6.7,2.9,13.9,7,20.1,10c5.8,2.8,11.1,5.3,15.6,7.5
	c7.1,3.4,12.2,5.8,14.3,6.6c4.8,1.9,9.3,3.2,14.8,6.9c5.3,3.6,11.6,9.7,16.9,14c2.8,2.2,12.2,9.9,19.1,15.2c1.3,1,2.1,3.1,3.1,4.5
	c1.2,1.6,2.3,2.4,2.3,2.4l7.4,7l15.5,13.7c0,0,15.7,16.6,17.4,17.8c1.7,1.2,12,8.4,21.8,16.3c1.4,1.2,4,2.3,6.1,4.2
	c2.7,2.3,5,5.6,7.9,8.3c4.6,4.6,6.7,8,11.7,13.3c4.1,4.3,8,9.9,11.3,14c5.2,6.3,9,10.6,10.2,12.9c0.7,1.4,4.1,4.5,7.5,8.4
	c3.8,4.5,7.6,9.9,10.5,12.8c1.6,1.7,3.5,2.1,4.1,2.3c0.5,0.2,3.8,0.5,6.6,0.5c3.1-0.2,5.8-1,8.6-5.8"/>
<path fill="none" stroke="#492411" stroke-width="4" stroke-linecap="round" stroke-linejoin="round" stroke-miterlimit="10" d="
	M687.1,111.4l8.4-7.3c0,0,8.6-2.9,23.9-0.1c3.8,0.7,37.6,0.5,66.9-0.1c21.3-0.4,36,0.9,50.4,0.7c11.2-0.1,18.5-5.2,23.6-6.9"/>
<path fill="none" data-pathType="road" data-toolTipName="NH 24" stroke="#492411" stroke-width="4" stroke-linecap="round" stroke-linejoin="round" stroke-miterlimit="10" d="
	M687,111.6l8.4-7.3c0,0,8.6-2.9,23.9-0.1c3.8,0.7,37.6,0.5,66.9-0.1c21.3-0.4,36,0.9,50.4,0.7c11.2-0.1,18.5-5.2,23.6-6.9"/>
<path fill="none" data-pathType="road" data-toolTipName="FNG Expressway" stroke="#492411" stroke-width="4" stroke-linecap="round" stroke-linejoin="round" stroke-miterlimit="10" stroke-dasharray="4.5818,8.4002" d="
	M851.1,96.1c0,0,8.5,5.6,9.5,6.6c2.8,2.9,5.2,0.8,8.4,2.8c6.3,3.8,1.6,6.6,10.2,15.2c3.7,3.7,12.7,10.6,12.7,10.6s-0.2,2.7-2.9,15.6
	c-2,9.6-6.4,19.3-5.4,22.6c1,2.9,6.7,5.9,8.1,8.1c1.4,2.2,8.6,8.2,14.2,14.7c1.3,1.5,15.6,16.4,22,23.3c5.6,6-4.2,19.9-3.9,21.3
	c0.7,3.1-8.2,20.1-7.2,22.6c1,2.6,4.7,15.1,6.3,17.4c0.6,0.8,2.1,4.5,3.2,10.3c0.8,4.9,1.1,11.8,2.4,18.8c1.3,6.8-0.4,27-0.2,35
	c0.1,1.7,5.3,1.9,5.6,4.9c0.8,8.5,1.1,18,1.9,24.8c0.3,2.9,0.8,10.2,1.7,16.6c0.1,0.9,1.7,6.1,4.8,11.8
	c5.5,10.2,14.1,23.3,15.5,24.2c1,0.7,7.5,1.3,10.7,2c3.7,0.9,4.9,1.8,5.3,2.3c0.5,0.6,1.7,1.7,2.2,4.3c0.3,1.5,0,3.2,1.5,4.8
	c2.1,2.2,4.1,2.6,4,3.9c-0.8,1.4-1.7,2.1-5.8,5.8c-4.6,4.2-11.5,10.6-19.1,17.1c-6.2,5.3-12.4,11.6-19.5,17.2
	c-2.6,2.1-5.1,4.9-8,6.3c-6.5,3-11.5,5.8-16.3,7.9c-8.4,3.8-14.3,6.4-14.5,6.6c-0.3,0.3,0.8,2.8,1.4,5.6c-1.4,1.4-7.8,8.1-9.3,9.8
	c-3.1,3.4-9.7,10.4-10.1,10.8c-0.5,0.4,0.7,2,0.2,2.4c-3.5,3.6-4.2,7.8-4.3,11.4c-0.3,15.3,1,19.8-0.5,29.5"/>
</svg>
