<?xml version="1.0" encoding="utf-8"?>
<!-- Generator: Adobe Illustrator 18.1.1, SVG Export Plug-In . SVG Version: 6.00 Build 0)  -->
<svg version="1.1" id="Layer_3" xmlns="http://www.w3.org/2000/svg" xmlns:xlink="http://www.w3.org/1999/xlink" x="0px" y="0px"
	 width="1920px" height="955px" viewBox="0 0 1920 955" enable-background="new 0 0 1920 955" xml:space="preserve">
<path fill="none" data-pathType="train" data-toolTipName="Delhi - Ghaziabad" stroke="#D31F31" stroke-width="4" stroke-linecap="round" stroke-linejoin="round" stroke-dasharray="4.6064,8.445" d="
	M819.5,248c-0.3-0.8-2-5.7-4.2-10.9c-0.9-2-1.8-6.6-2.5-8.5c-1-2.9-0.6-6.7-0.7-7.7c-0.1-0.8,0.9-7.9,1.2-17.1c0-0.2,1-13.8,1.3-22
	c0.1-3.4,1.5-7.4,1.2-11c-0.2-2.7,0.4-4.6,0.7-8.7c0.2-2.4,0.3-5.8,0.5-8.2c0.4-3.9,0.5-6,0.7-9.6c0.4-7.6,1.5-15.8,1.8-22.1
	c0.2-3.1,0.5-9.6,0.5-12c0.1-3.1,0.4-9.1,0.5-12.8"/>
<path fill="none" stroke="#D31F31" stroke-width="4" stroke-linecap="round" stroke-linejoin="round" stroke-dasharray="4.6064,8.445" d="
	M819.5,248"/>
<path fill="none" stroke="#D31F31" stroke-width="4" stroke-linecap="round" stroke-linejoin="round" stroke-dasharray="4.6064,8.445" d="
	M814.2,252.8"/>
<g>
	
		<path fill="none" data-pathType="train" data-toolTipName="Delhi - Greater Noida" stroke="#D31F31" stroke-width="4" stroke-linecap="round" stroke-linejoin="round" stroke-dasharray="4.6064,8.445" d="
		M645,374.8c4.8-3.2,16.9-11.3,27.4-16.9c3.4-1.9,8.3-4.1,11.1-5.2c6.6-3.3,18.1-7.6,24.3-10.5c0,0,54.3-44.5,54.1-44.3l8.2-6.6
		c0.9-0.8,1.9-1.6,2.8-2.4c2.9-2.6,5.8-5.4,8.4-8.1c1.3-1.3,3.6-2.9,4.9-4.1c8.4-7.4,20.3-17.5,25.8-22.8l10-6.8l4-2.5
		c3.4-2.1,2.5-1.5,7-4.1c4.2-2.3,8.9-6.1,9.3-6.3c1.1-0.6,6.2-3.4,7.9-3.8c1.6-0.5,7.5,0.2,9.2-0.4c10.5-3.1,41.4-12.9,41.4-12.9
		l25.1-7.4"/>
</g>
<g>
	
		<line fill="none" stroke="#D31F31" stroke-width="4" stroke-linecap="round" stroke-linejoin="round" stroke-dasharray="4.6064,8.445" x1="661.4" y1="351.3" x2="662.3" y2="351.5"/>
	
		<path fill="none" data-pathType="train" data-toolTipName="Delhi - Greater Noida" stroke="#D31F31" stroke-width="4" stroke-linecap="round" stroke-linejoin="round" stroke-dasharray="4.6064,8.445" d="
		M665.7,352.1l6.8,1.1c0,0,8.9,6.4,13.4,11.4c4.6,4.9,17.6,19.2,17.6,19.2s16.1,16.4,26.2,22.6c12.6,7.9,49.1,36.7,54.7,39.4
		c5.5,2.6,39.1,27.8,39.1,27.8s22.1,23.3,23.9,25.8c1.9,2.6,13.9,18.2,15.2,19.5c13.9,7.6,68,32.2,72.5,34.9
		c1,0.6,11.9,3.5,25.6,14.5c10.5,8.4,20.4,17.3,26.6,23.1c3,2.8,5.9,5.4,6.9,6.3c5.4,5.1,12.9,12.3,20.4,19.5
		c8.4,7.9,14.7,15,16.5,17c3.6,3.7,26.2,16.1,29.8,19.4c3.7,3.3,16.8,19.4,21.5,24.4c9.5,11,29,37.2,33.8,43.9c2,2.8,4.7,5,5.6,5.6
		c3.2,1.7,12.3,1.6,14.1-0.4c0.1-0.1,0.3-0.3,0.4-0.4"/>
	
		<path fill="none" stroke="#D31F31" stroke-width="4" stroke-linecap="round" stroke-linejoin="round" stroke-dasharray="4.6064,8.445" d="
		M1137.5,725.2c0.5-0.4,0.7-0.6,0.7-0.6"/>
</g>
<g>
	
		<path fill="none" stroke="#D31F31" stroke-width="4" stroke-linecap="round" stroke-linejoin="round" stroke-dasharray="4.6064,8.445" d="
		M916.2,542.7c0.4-0.8,0.7-1.7,1-2.4c0.4-0.9,12.5-14.6,13-15.4c3.5-6.3,9.1-14.6,7.7-16.6c-1-1.5-24.9-12.1-28.7-15.1
		c-5.3-4-22.2-12.7-24-13.9c-1.1-0.7-3.6-3.4-6.1-5.4c-3.9-3-8.1-5.5-9.4-6.4c-0.7-1.4,10-4.1,9.8-12.6c-0.2-7.9-2.2-16.3-2.8-28.7
		c-0.5-8.9-1.1-14-1.4-14.5c0.9-2-2-6.9-4.6-11.7c-2.2-4-3-8.8-3.6-10.4c-1.3-3.5-5.5-12.2-8.4-17.2s-8-11.5-13.8-20
		c-1.4-2-2.9-4.6-4.6-7.3c-2.7-4.3-6.8-8.7-8.2-11.4c-2.6-4.9-4.9-10.7-7.6-15.3c-3.2-5.4-4.8-10.4-5.7-11.3
		c-1.1-1.1-18.6,11.4-24.8,16"/>
	
		<path fill="none" stroke="#D31F31" stroke-width="4" stroke-linecap="round" stroke-linejoin="round" stroke-dasharray="4.6064,8.445" d="
		M792.7,324c-0.5,0.4-4-2.8-4-2.8l2.7,2.6"/>
	
		<polyline fill="none" stroke="#D31F31" stroke-width="4" stroke-linecap="round" stroke-linejoin="round" stroke-dasharray="4.6064,8.445" points="
		787.4,319 775.5,303.2 770.1,293.8 	"/>
</g>
<path fill="none" stroke="#946F37" stroke-width="4" stroke-linecap="round" stroke-linejoin="round" stroke-miterlimit="10" d="
	M740.5,490.5c0,0,43.2,44.6,48,47.1c4.9,2.5,38.4,7.2,40.8,9.7c2.4,2.5,2.5,6.8,7.6,7.9c5.1,1.1,6.4-3.7,9.7-1.8
	c3.4,1.8,54.7,31,62.1,35.8c7.4,4.9,19,14.9,21.4,18.9s9.1,15.9,11.6,20.3c2.6,4.4,7,11.2,10.2,16.5s3.2,6.3,5.6,8.3
	c6.3,5.1,43,13.5,43,13.5"/>
<path fill="none" stroke="#946F37" stroke-width="4" stroke-linecap="round" stroke-linejoin="round" stroke-miterlimit="10" d="
	M971,688.5c0,0,28.8-19,33.3-22c4.5-3.1,13.9-12,21-18.2c1.9-1.6,5.4-9.3,13.2-16.6c16.2-15.1,41.2-34.2,41.2-34.2"/>
<path fill="none" stroke="#946F37" stroke-width="4" stroke-linecap="round" stroke-linejoin="round" stroke-miterlimit="10" d="
	M1002.6,669.9c0,0-3.2,6.9-3.2,15.6c0,8.8,1,18.3,1,18.3"/>
<path fill="none" data-pathType="train" data-toolTipName="Delhi - Noida" stroke="#D31F31" stroke-width="4" stroke-linecap="round" stroke-linejoin="round" d="M593.5,242.1
	c0,0,1.4,5,5.3,5.4c3.8,0.4,22.9-7.4,25.2-6.2c2.4,1,6.4,11.5,11.8,20c3.2,5.1,6.5,10.2,9.3,14c1.1,1.5,3.4,4,6.5,7.3
	c1.7,1.8,3.6,4.1,6,6c6.4,4.8,16.6,16.9,18.2,18.5c2.2,2.2,4.7,3.7,7.2,6.2c4.4,4.2,10,7.7,13.3,10.7c2.8,2.5,4.8,3.4,5.8,4.3
	c0.9,0.7,1.3,1.1,1.6,1.3c0.8,0.6,2.3,1.8,3.6,2.9c0.4,0.3,0.7,0.6,1.1,0.9c0.1,0.1,0.3,0.4,0.4,0.5c1,0.5,3.9,4.6,4.2,4.3
	c3.2-2.9,11.7-9.3,23.6-19c0.4-0.3,0.6-0.9,1.1-1.2c8.2-6.7,17.5-14.3,26.8-22.2"/>
</svg>
